<svg xmlns="http://www.w3.org/2000/svg" width="1184.101" height="223.725"><g><path d="M117.937 0l-25.457 88.429h-92.479l75.861 48.426 67.296-49.056-25.22-87.799" fill="#80cc28"/><path d="M144.647 88.429l-99.101 135.241 72.382-56.309 72.851 56.309-31.382-86.285 76.676-48.956h-91.426" fill="#006b30"/><path d="M500.974 192.891c-4.093 6.233-11.297 12.073-21.236 12.073-7.6 0-12.268-3.315-12.268-10.518 0-9.157 8.376-14.795 23.171-17.326 3.118-.579 6.629-.981 10.332-1.18v16.951zm29.015 10.713v-44.596c0-20.843-9.351-34.872-41.877-34.872-28.438 0-44.602 9.934-49.271 29.219l27.657 2.531c1.946-8.183 7.402-12.077 18.688-12.077 10.53 0 15.005 4.671 15.586 12.273 0 .771.203 3.699.203 4.67-4.093.193-7.986.586-11.689.974-33.69 3.311-52.981 14.028-52.981 35.447 0 16.353 11.89 26.484 29.795 26.484 17.148 0 27.271-5.065 35.653-13.627 0 5.449.385 10.386 1.565 12.327h28.823c-1.759-3.696-2.15-13.116-2.15-18.753" fill="#231f20"/><path d="M368.472 125.764h11.492l1.945-29.592h27.26v29.592h19.854v20.436h-19.854v41.861c0 7.597 3.116 11.88 10.321 12.849 3.7.389 7.393.389 11.481 0v21.614c-4.674.583-11.481 1.17-17.521 1.17-22.003 0-33.689-10.333-33.689-30.76v-46.734h-11.29v-20.436" fill="#231f20"/><path d="M542.69 125.72h29.04v21.148c4.485-11.493 15.96-21.998 30.171-21.998 2.92 0 5.447.203 7.014.594v24.328c-1.955-.39-6.231-.588-8.761-.588-11.49 0-21.223 5.843-26.67 16.155v56.965h-30.794v-96.604" fill="#231f20"/><path d="M255.88 188.486l25.504-9.955c5.299 12.941 13.73 20.695 31.586 20.695 12.934 0 21.177-5.359 21.177-14.134 0-12.131-14.318-14.925-30.21-18.914-20.203-4.962-43.345-11.934-43.345-41.196 0-22.496 19.025-38.422 50.606-38.422 27.654 0 43.742 12.348 51.196 32.653l-27.264 8.357c-3.725-10.952-12.365-15.924-24.321-15.924-10.794 0-18.051 4.582-18.051 12.341 0 11.741 12.752 13.935 30.805 18.318 21.764 5.168 42.165 13.329 42.165 41.007 0 23.485-17.067 40.408-52.179 40.408-34.714 0-50.024-15.126-57.67-35.234" fill="#231f20"/><path d="M621.601 113.025h-33.54v-24.587h97.938v24.587h-33.773v109.309h-30.625v-109.309" fill="#231f20"/><path d="M664.93 125.72h28.806v21.148c4.486-11.493 15.966-21.998 30.169-21.998 2.928 0 5.46.203 7.02.594v24.328c-1.958-.39-6.23-.588-8.764-.588-11.486 0-21.22 5.843-26.668 16.155v56.965h-30.564v-96.604" fill="#231f20"/><path d="M832.951 207.336c-10.131 0-16.168-8.955-16.168-22.964v-25.315c2.141-9.349 7.595-14.41 16.356-14.41 11.68 0 15.953 9.736 15.953 30.176 0 21.801-4.272 32.513-16.141 32.513zm13.03-83.331c-14.982 0-23.941 8.182-29.395 16.548v-52.139h-29.784v133.904h18.293l4.293-14.209c7.396 9.746 16.155 15.584 31.924 15.584 22.965 0 38.945-16.752 38.945-49.837 0-32.908-12.072-49.851-34.275-49.851" fill="#231f20"/><path d="M889.172 192.936v-67.216h30.366v65.661c0 9.148 3.888 12.649 11.884 12.649 7.191 0 12.457-4.87 15.563-11.284v-67.026h30.375v96.601h-29.209l.204-14.009c-6.614 10.323-17.136 15.374-30.962 15.374-16.532 0-28.22-9.339-28.22-30.75" fill="#231f20"/><path d="M990.049 125.72h29.109l-.098 16.02c5.65-7.984 14.78-17.715 31.139-17.715 19.856 0 27.835 11.872 27.835 30.369v67.93h-30.175v-66.96c0-6.026-3.103-10.516-10.495-10.516-7.98 0-13.246 5.465-17.142 11.301v66.175h-30.172v-96.604" fill="#231f20"/><path d="M1153.714 163.774c-.963-13.038-6.61-21.02-17.901-21.02-9.72 0-17.511 7.785-18.302 21.02h36.204zm-68.105 11.485c0-31.139 22.968-51.39 49.816-51.39 30.176 0 47.889 19.856 48.676 49.838 0 2.131 0 3.696-.212 5.838h-66.765c.386 17.323 9.355 24.908 21.218 24.908 9.739 0 15.973-4.864 19.497-14.397l25.075 3.311c-6.425 18.289-22.375 30.359-47.294 30.359-29 0-50.011-19.075-50.011-48.466" fill="#231f20"/><path d="M743.697 88.429h30.436l-.051 24.596h-30.438l.052-24.596" fill="#231f20"/><path d="M743.637 222.391h30.445v-96.671h-30.445v96.671z" fill="#231f20"/></g></svg>