<svg xmlns="http://www.w3.org/2000/svg" width="405.614" height="166.135"><g><path d="M.316 118.014c-.012-1.379 1.092-2.483 2.472-2.483 1.381 0 2.486 1.103 2.486 2.483 0 1.385-1.131 2.473-2.486 2.473-1.354 0-2.472-1.088-2.472-2.473" fill="#1a5dad"/><path d="M17.7 118.014c-.012-1.379 1.091-2.483 2.473-2.483 1.38 0 2.484 1.103 2.484 2.483 0 1.385-1.131 2.473-2.484 2.473-1.355 0-2.473-1.088-2.473-2.473" fill="#1a5dad"/><path d="M35.084 118.014c-.013-1.379 1.091-2.483 2.472-2.483 1.38 0 2.485 1.103 2.485 2.483 0 1.385-1.13 2.473-2.485 2.473s-2.472-1.088-2.472-2.473" fill="#1a5dad"/><path d="M52.468 118.014c-.014-1.379 1.091-2.483 2.471-2.483 1.381 0 2.485 1.103 2.485 2.483 0 1.385-1.13 2.473-2.485 2.473-1.353 0-2.471-1.088-2.471-2.473" fill="#1a5dad"/><path d="M69.852 118.014c-.013-1.379 1.091-2.483 2.473-2.483 1.38 0 2.484 1.103 2.484 2.483 0 1.385-1.129 2.473-2.484 2.473s-2.473-1.088-2.473-2.473" fill="#1a5dad"/><path d="M87.236 118.014c-.013-1.379 1.091-2.483 2.472-2.483 1.38 0 2.485 1.103 2.485 2.483 0 1.385-1.13 2.473-2.485 2.473s-2.472-1.088-2.472-2.473" fill="#1a5dad"/><path d="M104.62 118.014c-.013-1.379 1.091-2.483 2.471-2.483 1.381 0 2.487 1.103 2.487 2.483 0 1.385-1.132 2.473-2.487 2.473-1.353 0-2.471-1.088-2.471-2.473" fill="#1a5dad"/><path d="M122.002 118.014c-.012-1.379 1.093-2.483 2.472-2.483 1.382 0 2.487 1.103 2.487 2.483 0 1.385-1.131 2.473-2.487 2.473-1.354 0-2.472-1.088-2.472-2.473" fill="#1a5dad"/><path d="M139.386 118.014c-.011-1.379 1.091-2.483 2.473-2.483 1.38 0 2.485 1.103 2.485 2.483 0 1.385-1.13 2.473-2.485 2.473-1.354 0-2.473-1.088-2.473-2.473" fill="#1a5dad"/><path d="M156.77 118.014c-.013-1.379 1.091-2.483 2.473-2.483 1.38 0 2.485 1.103 2.485 2.483 0 1.385-1.13 2.473-2.485 2.473s-2.473-1.088-2.473-2.473" fill="#1a5dad"/><path d="M174.155 118.014c-.014-1.379 1.091-2.483 2.471-2.483 1.381 0 2.485 1.103 2.485 2.483 0 1.385-1.131 2.473-2.485 2.473-1.354 0-2.471-1.088-2.471-2.473" fill="#1a5dad"/><path d="M191.537 118.014c-.013-1.379 1.091-2.483 2.474-2.483 1.38 0 2.485 1.103 2.485 2.483 0 1.385-1.133 2.473-2.485 2.473-1.355 0-2.474-1.088-2.474-2.473" fill="#1a5dad"/><path d="M208.921 118.014c-.013-1.379 1.09-2.483 2.474-2.483 1.38 0 2.485 1.103 2.485 2.483 0 1.385-1.133 2.473-2.485 2.473-1.355 0-2.474-1.088-2.474-2.473" fill="#1a5dad"/><path d="M226.304 118.014c-.011-1.379 1.091-2.483 2.474-2.483 1.381 0 2.485 1.103 2.485 2.483 0 1.385-1.13 2.473-2.485 2.473-1.354 0-2.474-1.088-2.474-2.473" fill="#1a5dad"/><path d="M243.691 118.014c-.015-1.379 1.091-2.483 2.47-2.483 1.383 0 2.486 1.103 2.486 2.483 0 1.385-1.131 2.473-2.486 2.473-1.353 0-2.47-1.088-2.47-2.473" fill="#1a5dad"/><path d="M261.075 118.014c-.016-1.379 1.09-2.483 2.47-2.483 1.381 0 2.485 1.103 2.485 2.483 0 1.385-1.13 2.473-2.485 2.473-1.353 0-2.47-1.088-2.47-2.473" fill="#1a5dad"/><path d="M278.457 118.014c-.015-1.379 1.091-2.483 2.471-2.483 1.381 0 2.487 1.103 2.487 2.483 0 1.385-1.13 2.473-2.487 2.473-1.353 0-2.471-1.088-2.471-2.473" fill="#1a5dad"/><path d="M295.841 118.014c-.011-1.379 1.094-2.483 2.471-2.483 1.381 0 2.487 1.103 2.487 2.483 0 1.385-1.131 2.473-2.487 2.473-1.353 0-2.471-1.088-2.471-2.473" fill="#1a5dad"/><path d="M313.225 118.014c-.013-1.379 1.094-2.483 2.473-2.483 1.38 0 2.485 1.103 2.485 2.483 0 1.385-1.13 2.473-2.485 2.473s-2.473-1.088-2.473-2.473" fill="#1a5dad"/><path d="M330.609 118.014c-.013-1.379 1.094-2.483 2.473-2.483 1.38 0 2.486 1.103 2.486 2.483 0 1.385-1.131 2.473-2.486 2.473-1.355 0-2.473-1.088-2.473-2.473" fill="#1a5dad"/><path d="M347.993 118.014c-.014-1.379 1.093-2.483 2.471-2.483 1.38 0 2.486 1.103 2.486 2.483 0 1.385-1.131 2.473-2.486 2.473-1.353 0-2.471-1.088-2.471-2.473" fill="#1a5dad"/><path d="M365.375 118.014c-.011-1.379 1.094-2.483 2.474-2.483 1.379 0 2.485 1.103 2.485 2.483 0 1.385-1.13 2.473-2.485 2.473s-2.474-1.088-2.474-2.473" fill="#1a5dad"/><path d="M382.761 118.014c-.014-1.379 1.091-2.483 2.471-2.483 1.379 0 2.485 1.103 2.485 2.483 0 1.385-1.131 2.473-2.485 2.473-1.355 0-2.471-1.088-2.471-2.473" fill="#1a5dad"/><path d="M400.145 118.014c-.015-1.379 1.091-2.483 2.473-2.483 1.377 0 2.482 1.103 2.482 2.483 0 1.385-1.13 2.473-2.482 2.473-1.357 0-2.473-1.088-2.473-2.473" fill="#1a5dad"/><path d="M20.824 146.332c-.721-3.066-3.722-3.871-6.806-3.871-7.087 0-9.653 5.511-9.492 10.31.32 6.579 2.566 10.162 10.855 10.306 1.957 0 3.922-.29 5.76-.807v-7.258h-6.563v-3.061h10.564v12.685c-3.317.893-6.642 1.499-9.926 1.499-4.08 0-7.408-.47-10.569-2.957-3.204-2.475-4.323-6.777-4.323-10.407 0-2.668 1-5.587 2.479-7.892 2.522-3.912 6.766-5.473 11.691-5.473 4.885 0 10.294 1.992 10.531 6.926h-4.203" fill="#0499db"/><path d="M39.962 165.603v-25.665h18.136v3.049h-14.129v8.005h13.451v3.059h-13.451v8.502h14.45v3.051h-18.457" fill="#0499db"/><path d="M96.811 139.938v25.665h-4.961l-14.619-21.79h-.079v21.79h-3.562v-25.665h5.49l14.089 21.224h.08v-21.224h3.562" fill="#0499db"/><path d="M111.984 165.603v-25.665h18.139v3.049h-14.128v8.005h13.45v3.059h-13.45v8.502h14.45v3.051h-18.46" fill="#0499db"/><path d="M149.021 142.987h6.609c4.444.183 5.442 1.957 5.442 3.991 0 2.025-.999 3.806-5.442 3.984h-6.609v-7.975zm5.686 11.034c1.601.111 3.2 0 4.36 1.175 1.326 1.272 1.326 3.363 1.644 5.679.201 1.535.679 3.193 1.046 4.729h4.28c-1.042-2.425-1.364-5.159-1.805-7.71-.44-2.88-.915-4.528-4.4-5.261v-.071c3.361-.72 5.446-3.101 5.446-6.191 0-5.078-5.009-6.432-9.85-6.432h-10.33v25.665h4.003v-11.583h5.606" fill="#0499db"/><path d="M191.06 143.452l5.246 12.402h-10.77l5.524-12.402zm-10.012 22.151l3.129-6.683h13.409l3.12 6.683h4.367l-11.695-25.665h-4.28l-12.172 25.665h4.122" fill="#0499db"/><path d="M217.407 165.603v-25.665h3.999v22.614h13.453v3.051h-17.451" fill="#0499db"/><path d="M285.191 142.497h-.091l-9.242 23.106h-3.764l-9.249-23.106h-.079v23.106h-4.006v-25.665h7.168l8.326 21.154h.083l8.172-21.154h6.676v25.665h-3.994v-23.106" fill="#0499db"/><path d="M304.65 165.603h3.994v-25.665h-3.994v25.665z" fill="#0499db"/><path d="M324.139 165.603v-25.665h4.009v22.614h13.453v3.051h-17.461" fill="#0499db"/><path d="M354.615 165.603v-25.665h4.001v22.614h13.45v3.051h-17.451" fill="#0499db"/><path d="M387.801 158.108c.08 3.615 2.444 4.969 6.32 4.969 3.289 0 7.293-.851 7.293-4.444 0-2.497-2.326-3.519-4.726-3.944-4.761-.918-12.69-1.888-12.69-7.636 0-5.582 5.73-7.646 11.133-7.646 4.919 0 9.768 1.955 9.768 6.926h-4.206c-.161-2.88-2.881-3.871-5.769-3.871-2.835 0-6.721.921-6.721 3.977 0 2.92 2.319 3.103 4.849 3.799 5.322 1.531 12.564 1.531 12.564 8.005 0 5.825-5.877 7.893-11.724 7.893-6.055 0-10.457-2.269-10.296-8.027h4.207" fill="#0499db"/><path d="M70.102 36.566c0-11.764 3.86-18.922 3.86-18.922h-13.86c-1.308 5.679-3.552 9.539-9.514 11.117l.164-.461c1.112-3.208 2.728-8.905 2.728-12.246 0-8.864-6.123-16.054-17.039-16.054-10.449 0-18.933 8.283-18.933 18.76 0 10.426 6.635 17.898 15.459 21.076-.772 2.131-1.598 4.404-2.446 6.741-1.125-.091-2.278-.154-3.489-.154-20.939 0-27.032 14.287-27.032 23.256 0 17.564 16.348 28.622 36.097 28.622 16.538 0 37.981-8.636 37.981-32.827 0-10.392-3.976-20.38-3.976-28.908zm-39.365-17.782c0-3.717 2.208-6.28 4.991-6.28 1.755 0 4.652.958 4.652 5.782 0 1.729-2.008 6.585-2.741 8.645l-.496 1.379c-4.667-1.946-6.406-7.079-6.406-9.526zm5.396 66.127c-11.233 0-22.148-5.272-22.148-14.893 0-6.55 5.064-10.119 11.898-10.657-3.146 8.663-5.69 15.67-5.69 15.67h13.455s2.204-6.004 5.032-13.715c5.7 2.291 8.422 5.697 8.422 5.697l4.457-12.062s-2.954-2.917-8.586-5.339c1.044-2.848 2.07-5.651 3.022-8.251 5.849-.644 10.4-2.805 10.4-2.805 0 11.768 3.628 17.636 3.628 25.834 0 16.299-13.238 20.521-23.89 20.521" fill="#1a5dad"/></g></svg>