<?xml version="1.0" encoding="utf-8"?>
<!-- Generator: Adobe Illustrator 15.1.0, SVG Export Plug-In . SVG Version: 6.00 Build 0)  -->
<!DOCTYPE svg PUBLIC "-//W3C//DTD SVG 1.1//EN" "http://www.w3.org/Graphics/SVG/1.1/DTD/svg11.dtd">
<svg version="1.1" id="Layer_1" xmlns="http://www.w3.org/2000/svg" xmlns:xlink="http://www.w3.org/1999/xlink" x="0px" y="0px"
	 width="228.667px" height="66.667px" viewBox="0 0 228.667 66.667" enable-background="new 0 0 228.667 66.667"
	 xml:space="preserve">
<path fill="#FFFFFF" d="M10.018,33.118h5.518c0,0,6.538-18.049,7.015-19.427c0.457-1.331,1.12-3.7,1.12-5.09
	c0-3.684-2.512-6.673-6.989-6.673c-4.286,0-7.765,3.444-7.765,7.8c0,5.85,4.953,9.471,10.387,9.471c2.989,0,5.562-1.244,5.562-1.244
	c0,4.892,1.486,7.332,1.486,10.74c0,6.776-5.429,8.532-9.798,8.532c-4.606,0-9.083-2.192-9.083-6.192
	c0-2.961,2.457-4.464,5.637-4.464c5.433,0,7.945,3.215,7.945,3.215l1.828-5.013c0,0-3.509-3.546-10.059-3.546
	c-8.587,0-11.087,5.939-11.087,9.668c0,7.3,6.706,11.897,14.806,11.897c6.783,0,15.577-3.589,15.577-13.646
	c0-4.321-1.631-8.473-1.631-12.019c0-4.89,1.583-7.865,1.583-7.865h-5.685c-0.578,2.549-1.603,4.219-4.515,4.761
	c-0.918,0.162-1.84-0.005-3.252-0.005c-3.169,0-4.275-3.014-4.275-4.283c0-1.545,0.906-2.61,2.046-2.61
	c0.72,0,1.908,0.398,1.908,2.403c0,0.719-0.824,2.739-1.124,3.595C16.873,13.984,10.018,33.118,10.018,33.118z"/>
<g>
	<g>
		<circle fill="#FFFFFF" cx="2.269" cy="48.562" r="0.754"/>
		<circle fill="#FFFFFF" cx="7.856" cy="48.562" r="0.754"/>
		<circle fill="#FFFFFF" cx="13.446" cy="48.562" r="0.754"/>
		<circle fill="#FFFFFF" cx="19.034" cy="48.562" r="0.755"/>
		<circle fill="#FFFFFF" cx="24.623" cy="48.562" r="0.755"/>
		<circle fill="#FFFFFF" cx="30.211" cy="48.562" r="0.754"/>
		<circle fill="#FFFFFF" cx="35.799" cy="48.562" r="0.755"/>
		<circle fill="#FFFFFF" cx="41.388" cy="48.562" r="0.754"/>
		<circle fill="#FFFFFF" cx="46.977" cy="48.562" r="0.755"/>
		<path fill="#FFFFFF" d="M53.321,48.562c0,0.417-0.34,0.753-0.757,0.753c-0.414,0-0.753-0.336-0.753-0.753s0.339-0.753,0.753-0.753
			C52.981,47.809,53.321,48.145,53.321,48.562z"/>
		<circle fill="#FFFFFF" cx="58.153" cy="48.562" r="0.755"/>
		<circle fill="#FFFFFF" cx="63.742" cy="48.562" r="0.754"/>
		<circle fill="#FFFFFF" cx="69.33" cy="48.562" r="0.755"/>
		<circle fill="#FFFFFF" cx="74.92" cy="48.562" r="0.754"/>
		<circle fill="#FFFFFF" cx="80.507" cy="48.562" r="0.754"/>
		<circle fill="#FFFFFF" cx="86.097" cy="48.562" r="0.755"/>
		<circle fill="#FFFFFF" cx="91.684" cy="48.562" r="0.755"/>
		<circle fill="#FFFFFF" cx="97.273" cy="48.562" r="0.754"/>
		<circle fill="#FFFFFF" cx="102.861" cy="48.562" r="0.754"/>
		<circle fill="#FFFFFF" cx="108.45" cy="48.562" r="0.754"/>
		<circle fill="#FFFFFF" cx="114.039" cy="48.562" r="0.755"/>
		<circle fill="#FFFFFF" cx="119.627" cy="48.562" r="0.754"/>
		<path fill="#FFFFFF" d="M125.971,48.562c0,0.417-0.339,0.753-0.757,0.753c-0.414,0-0.753-0.336-0.753-0.753
			s0.339-0.753,0.753-0.753C125.632,47.809,125.971,48.145,125.971,48.562z"/>
		<circle fill="#FFFFFF" cx="130.804" cy="48.562" r="0.754"/>
		<circle fill="#FFFFFF" cx="136.393" cy="48.562" r="0.755"/>
		<circle fill="#FFFFFF" cx="141.98" cy="48.562" r="0.754"/>
		<circle fill="#FFFFFF" cx="147.571" cy="48.562" r="0.755"/>
		<circle fill="#FFFFFF" cx="153.158" cy="48.562" r="0.754"/>
		<circle fill="#FFFFFF" cx="158.747" cy="48.562" r="0.755"/>
		<path fill="#FFFFFF" d="M165.09,48.562c0,0.417-0.339,0.753-0.757,0.753c-0.414,0-0.754-0.336-0.754-0.753s0.34-0.753,0.754-0.753
			C164.751,47.809,165.09,48.145,165.09,48.562z"/>
		<circle fill="#FFFFFF" cx="169.925" cy="48.562" r="0.755"/>
		<circle fill="#FFFFFF" cx="175.511" cy="48.562" r="0.754"/>
		<path fill="#FFFFFF" d="M181.855,48.562c0,0.417-0.34,0.753-0.758,0.753c-0.414,0-0.754-0.336-0.754-0.753s0.34-0.753,0.754-0.753
			C181.515,47.809,181.855,48.145,181.855,48.562z"/>
		<path fill="#FFFFFF" d="M187.443,48.562c0,0.417-0.338,0.753-0.756,0.753c-0.414,0-0.754-0.336-0.754-0.753
			s0.34-0.753,0.754-0.753C187.105,47.809,187.443,48.145,187.443,48.562z"/>
		<circle fill="#FFFFFF" cx="192.276" cy="48.562" r="0.755"/>
		<path fill="#FFFFFF" d="M198.621,48.562c0,0.417-0.336,0.753-0.756,0.753c-0.416,0-0.752-0.336-0.752-0.753
			s0.336-0.753,0.752-0.753C198.285,47.809,198.621,48.145,198.621,48.562z"/>
		<path fill="#FFFFFF" d="M204.208,48.562c0,0.417-0.34,0.753-0.758,0.753c-0.414,0-0.752-0.336-0.752-0.753
			s0.338-0.753,0.752-0.753C203.869,47.809,204.208,48.145,204.208,48.562z"/>
		<circle fill="#FFFFFF" cx="209.044" cy="48.562" r="0.754"/>
		<path fill="#FFFFFF" d="M215.386,48.562c0,0.417-0.34,0.753-0.758,0.753c-0.414,0-0.75-0.336-0.75-0.753s0.336-0.753,0.75-0.753
			C215.046,47.809,215.386,48.145,215.386,48.562z"/>
		<circle fill="#FFFFFF" cx="220.22" cy="48.562" r="0.755"/>
		<path fill="#FFFFFF" d="M226.565,48.562c0,0.417-0.34,0.753-0.758,0.753c-0.414,0-0.752-0.336-0.752-0.753
			s0.338-0.753,0.752-0.753C226.225,47.809,226.565,48.145,226.565,48.562z"/>
	</g>
</g>
<path fill="#FFFFFF" d="M7.892,58.559c-0.212-1.016-1.098-1.287-2.006-1.287c-2.088,0-2.844,1.829-2.796,3.422
	c0.094,2.184,0.755,3.375,3.198,3.422c0.578,0,1.156-0.094,1.699-0.271v-2.406H6.051v-1.016h3.115v4.213
	c-0.979,0.295-1.959,0.496-2.927,0.496c-1.204,0-2.183-0.154-3.115-0.979c-0.944-0.826-1.274-2.254-1.274-3.458
	c0-0.885,0.295-1.852,0.732-2.619c0.743-1.298,1.994-1.817,3.445-1.817c1.44,0,3.033,0.661,3.104,2.302H7.892z"/>
<path fill="#FFFFFF" d="M13.945,64.953v-8.52h5.345v1.016h-4.165v2.654h3.964v1.016h-3.964v2.82h4.26v1.014H13.945z"/>
<path fill="#FFFFFF" d="M31.114,56.434v8.52h-1.463l-4.307-7.232H25.32v7.232h-1.05v-8.52h1.617l4.154,7.045h0.023v-7.045H31.114z"
	/>
<path fill="#FFFFFF" d="M36,64.953v-8.52h5.345v1.016h-4.166v2.654h3.965v1.016h-3.965v2.82h4.26v1.014H36z"/>
<path fill="#FFFFFF" d="M47.327,57.449h1.947c1.31,0.059,1.604,0.648,1.604,1.321s-0.295,1.263-1.604,1.321h-1.947V57.449z
	 M49.003,61.107c0.472,0.035,0.944,0,1.286,0.389c0.39,0.425,0.39,1.121,0.484,1.889c0.059,0.507,0.201,1.062,0.307,1.568h1.263
	c-0.307-0.802-0.401-1.711-0.531-2.561c-0.13-0.955-0.271-1.498-1.298-1.746v-0.023c0.991-0.236,1.605-1.027,1.605-2.053
	c0-1.688-1.475-2.137-2.903-2.137h-3.044v8.52h1.18v-3.846H49.003z"/>
<path fill="#FFFFFF" d="M60.13,57.602l1.545,4.119h-3.174L60.13,57.602z M57.18,64.953l0.92-2.218h3.953l0.92,2.218h1.286
	l-3.446-8.52h-1.263l-3.587,8.52H57.18z"/>
<path fill="#FFFFFF" d="M68.308,64.953v-8.52h1.18v7.506h3.965v1.014H68.308z"/>
<path fill="#FFFFFF" d="M88.993,57.283h-0.023l-2.726,7.67h-1.109l-2.726-7.67h-0.023v7.67h-1.18v-8.52h2.112l2.455,7.021h0.023
	l2.407-7.021h1.971v8.52h-1.18V57.283z"/>
<path fill="#FFFFFF" d="M95.141,64.953v-8.52h1.18v8.52H95.141z"/>
<path fill="#FFFFFF" d="M101.3,64.953v-8.52h1.18v7.506h3.965v1.014H101.3z"/>
<path fill="#FFFFFF" d="M110.693,64.953v-8.52h1.18v7.506h3.965v1.014H110.693z"/>
<path fill="#FFFFFF" d="M120.888,62.464c0.023,1.204,0.72,1.651,1.864,1.651c0.968,0,2.147-0.283,2.147-1.475
	c0-0.826-0.684-1.168-1.393-1.31c-1.404-0.307-3.74-0.626-3.74-2.537c0-1.853,1.688-2.537,3.28-2.537c1.452,0,2.88,0.649,2.88,2.302
	h-1.24c-0.047-0.957-0.85-1.287-1.699-1.287c-0.838,0-1.982,0.307-1.982,1.322c0,0.967,0.686,1.026,1.428,1.262
	c1.57,0.508,3.706,0.508,3.706,2.656c0,1.935-1.735,2.619-3.458,2.619c-1.781,0-3.079-0.756-3.032-2.667H120.888z"/>
<path fill="#FFFFFF" d="M135.792,64.953v-8.52h5.05v1.016h-3.87v2.678h3.646v1.016h-3.646v3.811H135.792z"/>
<path fill="#FFFFFF" d="M144.866,60.693c0-1.816,0.495-3.422,2.655-3.422c2.158,0,2.654,1.605,2.654,3.422
	c0,1.771-0.496,3.422-2.654,3.422C145.361,64.115,144.866,62.464,144.866,60.693z M143.626,60.693c0,2.49,1.239,4.438,3.895,4.438
	c2.654,0,3.894-1.947,3.894-4.438c0-2.489-1.239-4.437-3.894-4.437C144.866,56.257,143.626,58.204,143.626,60.693z"/>
<path fill="#FFFFFF" d="M161.645,61.578c0.036,2.195-1.121,3.553-3.434,3.553c-2.313,0-3.47-1.357-3.435-3.553v-5.145h1.181v5.428
	c0.035,1.464,0.909,2.254,2.254,2.254s2.218-0.79,2.254-2.254v-5.428h1.18V61.578z"/>
<path fill="#FFFFFF" d="M172.324,56.434v8.52h-1.463l-4.307-7.232h-0.023v7.232h-1.051v-8.52h1.617l4.153,7.045h0.023v-7.045
	H172.324z"/>
<path fill="#FFFFFF" d="M177.221,57.449h1.723c1.192,0,1.829,0.483,2.159,0.967c0.508,0.732,0.649,1.487,0.649,2.277
	c0,0.791-0.142,1.547-0.649,2.277c-0.33,0.484-0.967,0.969-2.159,0.969h-1.723V57.449z M176.041,64.953h2.832
	c0.791-0.023,1.629-0.082,2.313-0.519c1.239-0.791,1.806-2.124,1.806-3.741c0-1.616-0.566-2.949-1.806-3.74
	c-0.685-0.437-1.522-0.496-2.313-0.52h-2.832V64.953z"/>
<path fill="#FFFFFF" d="M189.304,57.602l1.546,4.119h-3.175L189.304,57.602z M186.354,64.953l0.921-2.218h3.953l0.92,2.218h1.286
	l-3.445-8.52h-1.263l-3.588,8.52H186.354z"/>
<path fill="#FFFFFF" d="M197.21,57.449h-2.855v-1.016h6.891v1.016h-2.855v7.504h-1.18V57.449z"/>
<path fill="#FFFFFF" d="M203.96,64.953v-8.52h1.18v8.52H203.96z"/>
<path fill="#FFFFFF" d="M209.636,60.693c0-1.816,0.495-3.422,2.654-3.422c2.16,0,2.655,1.605,2.655,3.422
	c0,1.771-0.495,3.422-2.655,3.422C210.131,64.115,209.636,62.464,209.636,60.693z M208.396,60.693c0,2.49,1.24,4.438,3.895,4.438
	c2.655,0,3.895-1.947,3.895-4.438c0-2.489-1.239-4.437-3.895-4.437C209.636,56.257,208.396,58.204,208.396,60.693z"/>
<path fill="#FFFFFF" d="M226.404,56.434v8.52h-1.464l-4.307-7.232h-0.023v7.232h-1.05v-8.52h1.616l4.153,7.045h0.023v-7.045H226.404
	z"/>
</svg>
