<svg xmlns="http://www.w3.org/2000/svg" width="281.314" height="64.003"><g><path d="M7.589 27.538h4.872s5.772-15.935 6.194-17.152c.403-1.176.989-3.268.989-4.494 0-3.253-2.218-5.893-6.171-5.893-3.784 0-6.855 3.041-6.855 6.887 0 5.165 4.372 8.362 9.171 8.362 2.639 0 4.911-1.098 4.911-1.098 0 4.319 1.312 6.473 1.312 9.483 0 5.982-4.794 7.533-8.651 7.533-4.068 0-8.021-1.935-8.021-5.467 0-2.615 2.169-3.941 4.977-3.941 4.797 0 7.015 2.838 7.015 2.838l1.614-4.426s-3.098-3.131-8.881-3.131c-7.582 0-9.789 5.244-9.789 8.536 0 6.445 5.92 10.505 13.072 10.505 5.989 0 13.754-3.169 13.754-12.048 0-3.814-1.44-7.481-1.44-10.611 0-4.317 1.398-6.944 1.398-6.944h-5.02c-.51 2.251-1.415 3.725-3.986 4.204-.811.143-1.625-.005-2.872-.005-2.797 0-3.774-2.661-3.774-3.782 0-1.364.799-2.305 1.807-2.305.636 0 1.684.352 1.684 2.122 0 .635-.728 2.418-.992 3.174-.265.759-6.317 17.653-6.317 17.653"/><path d="M1.886 43.292c0 .521-.422.941-.944.941-.519 0-.942-.42-.942-.941 0-.521.423-.942.942-.942.521 0 .944.42.944.942"/><path d="M8.871 43.292c0 .521-.422.941-.945.941-.519 0-.941-.42-.941-.941 0-.521.422-.942.941-.942.523 0 .945.42.945.942"/><path d="M15.857 43.292c0 .521-.421.941-.943.941-.519 0-.942-.42-.942-.941 0-.521.422-.942.942-.942.522 0 .943.42.943.942"/><path d="M22.843 43.292c0 .521-.423.941-.944.941-.519 0-.943-.42-.943-.941 0-.521.424-.942.943-.942.521 0 .944.42.944.942"/><path d="M29.829 43.292c0 .521-.426.941-.946.941s-.941-.42-.941-.941c0-.521.421-.942.941-.942s.946.42.946.942"/><path d="M36.814 43.292c0 .521-.424.941-.945.941-.518 0-.941-.42-.941-.941 0-.521.422-.942.941-.942.521 0 .945.42.945.942"/><path d="M43.8 43.292c0 .521-.423.941-.944.941-.52 0-.942-.42-.942-.941 0-.521.422-.942.942-.942.521 0 .944.42.944.942"/><path d="M50.785 43.292c0 .521-.422.941-.943.941-.519 0-.942-.42-.942-.941 0-.521.423-.942.942-.942.521 0 .943.42.943.942"/><path d="M57.773 43.292c0 .521-.422.941-.944.941-.519 0-.944-.42-.944-.941 0-.521.425-.942.944-.942.521 0 .944.42.944.942"/><path d="M64.758 43.292c0 .521-.425.941-.946.941-.518 0-.941-.42-.941-.941 0-.521.423-.942.941-.942.521 0 .946.42.946.942"/><path d="M71.742 43.292c0 .521-.425.941-.945.941s-.942-.42-.942-.941c0-.521.422-.942.942-.942.519 0 .945.42.945.942"/><path d="M78.728 43.292c0 .521-.423.941-.945.941-.519 0-.942-.42-.942-.941 0-.521.422-.942.942-.942.521 0 .945.42.945.942"/><path d="M85.713 43.292c0 .521-.424.941-.945.941-.519 0-.943-.42-.943-.941 0-.521.423-.942.943-.942.521 0 .945.42.945.942"/><path d="M92.7 43.292c0 .521-.423.941-.945.941-.518 0-.941-.42-.941-.941 0-.521.422-.942.941-.942.521 0 .945.42.945.942"/><path d="M99.684 43.292c0 .521-.422.941-.945.941-.517 0-.941-.42-.941-.941 0-.521.423-.942.941-.942.523 0 .945.42.945.942"/><path d="M106.672 43.292c0 .521-.424.941-.945.941-.518 0-.942-.42-.942-.941 0-.521.424-.942.942-.942.521 0 .945.42.945.942"/><path d="M113.656 43.292c0 .521-.423.941-.945.941-.519 0-.943-.42-.943-.941 0-.521.424-.942.943-.942.521 0 .945.42.945.942"/><path d="M120.641 43.292c0 .521-.421.941-.944.941-.517 0-.941-.42-.941-.941 0-.521.423-.942.941-.942.522 0 .944.42.944.942"/><path d="M127.627 43.292c0 .521-.422.941-.944.941-.52 0-.943-.42-.943-.941 0-.521.422-.942.943-.942.521 0 .944.42.944.942"/><path d="M134.613 43.292c0 .521-.421.941-.944.941-.52 0-.941-.42-.941-.941 0-.521.421-.942.941-.942.522 0 .944.42.944.942"/><path d="M141.599 43.292c0 .521-.424.941-.945.941-.519 0-.941-.42-.941-.941 0-.521.422-.942.941-.942.521 0 .945.42.945.942"/><path d="M148.584 43.292c0 .521-.421.941-.943.941-.521 0-.944-.42-.944-.941 0-.521.422-.942.944-.942.521 0 .943.42.943.942"/><path d="M155.571 43.292c0 .521-.424.941-.946.941-.517 0-.941-.42-.941-.941 0-.521.424-.942.941-.942.522 0 .946.42.946.942"/><path d="M162.555 43.292c0 .521-.422.941-.944.941-.519 0-.943-.42-.943-.941 0-.521.424-.942.943-.942.521 0 .944.42.944.942"/><path d="M169.542 43.292c0 .521-.424.941-.945.941-.519 0-.943-.42-.943-.941 0-.521.424-.942.943-.942.521 0 .945.42.945.942"/><path d="M176.526 43.292c0 .521-.422.941-.945.941-.519 0-.941-.42-.941-.941 0-.521.422-.942.941-.942.522 0 .945.42.945.942"/><path d="M183.515 43.292c0 .521-.424.941-.945.941-.52 0-.943-.42-.943-.941 0-.521.422-.942.943-.942.521 0 .945.42.945.942"/><path d="M190.498 43.292c0 .521-.422.941-.944.941-.519 0-.941-.42-.941-.941 0-.521.422-.942.941-.942.521 0 .944.42.944.942"/><path d="M197.485 43.292c0 .521-.424.941-.945.941-.519 0-.943-.42-.943-.941 0-.521.424-.942.943-.942.521 0 .945.42.945.942"/><path d="M204.47 43.292c0 .521-.424.941-.946.941-.517 0-.943-.42-.943-.941 0-.521.425-.942.943-.942.522 0 .946.42.946.942"/><path d="M211.458 43.292c0 .521-.424.941-.946.941-.519 0-.941-.42-.941-.941 0-.521.422-.942.941-.942.522 0 .946.42.946.942"/><path d="M218.439 43.292c0 .521-.42.941-.943.941-.52 0-.943-.42-.943-.941 0-.521.422-.942.943-.942.522 0 .943.42.943.942"/><path d="M225.426 43.292c0 .521-.425.941-.948.941-.517 0-.943-.42-.943-.941 0-.521.425-.942.943-.942.522 0 .948.42.948.942"/><path d="M232.411 43.292c0 .521-.422.941-.945.941-.517 0-.943-.42-.943-.941 0-.521.425-.942.943-.942.522 0 .945.42.945.942"/><path d="M239.396 43.292c0 .521-.425.941-.945.941s-.943-.42-.943-.941c0-.521.422-.942.943-.942.52 0 .945.42.945.942"/><path d="M246.382 43.292c0 .521-.419.941-.944.941-.52 0-.94-.42-.94-.941 0-.521.42-.942.94-.942.525 0 .944.42.944.942"/><path d="M253.368 43.292c0 .521-.425.941-.946.941-.519 0-.94-.42-.94-.941 0-.521.421-.942.94-.942.521 0 .946.42.946.942"/><path d="M260.355 43.292c0 .521-.425.941-.945.941-.517 0-.94-.42-.94-.941 0-.521.422-.942.94-.942.52 0 .945.42.945.942"/><path d="M267.34 43.292c0 .521-.425.941-.948.941-.517 0-.938-.42-.938-.941 0-.521.42-.942.938-.942.522 0 .948.42.948.942"/><path d="M274.326 43.292c0 .521-.422.941-.943.941-.52 0-.945-.42-.945-.941 0-.521.425-.942.945-.942s.943.42.943.942"/><path d="M281.314 43.292c0 .521-.425.941-.948.941-.517 0-.94-.42-.94-.941 0-.521.422-.942.94-.942.522 0 .948.42.948.942"/><path d="M7.973 55.788c-.266-1.27-1.373-1.609-2.508-1.609-2.61 0-3.555 2.287-3.495 4.277.118 2.729.943 4.219 3.997 4.277.723 0 1.445-.117 2.124-.339v-3.008h-2.419v-1.27h3.894v5.266c-1.225.369-2.449.62-3.658.62-1.505 0-2.729-.193-3.895-1.225-1.18-1.032-1.593-2.817-1.593-4.322 0-1.106.369-2.314.915-3.274.929-1.623 2.493-2.271 4.307-2.271 1.8 0 3.791.826 3.879 2.877h-1.548"/><path d="M15.539 63.781v-10.649h6.682v1.27h-5.207v3.318h4.956v1.27h-4.956v3.525h5.325v1.267h-6.8"/><path d="M37 53.131v10.649h-1.829l-5.384-9.041h-.029v9.041h-1.313v-10.649h2.021l5.192 8.806h.029v-8.806h1.313"/><path d="M43.107 63.781v-10.649h6.681v1.27h-5.207v3.318h4.957v1.27h-4.957v3.525h5.325v1.267h-6.799"/><path d="M59.361 58.974c.59.044 1.18 0 1.608.486.487.531.487 1.401.605 2.361.074.634.251 1.327.383 1.96h1.579c-.383-1.002-.501-2.139-.663-3.201-.162-1.194-.339-1.873-1.623-2.183v-.029c1.239-.295 2.006-1.284 2.006-2.566 0-2.109-1.844-2.671-3.628-2.671h-3.806v10.649h1.475v-4.807h2.065zm-2.095-4.573h2.434c1.637.073 2.006.811 2.006 1.652 0 .841-.369 1.578-2.006 1.651h-2.434v-3.303"/><path d="M69.582 63.781l1.15-2.772h4.941l1.151 2.772h1.607l-4.307-10.649h-1.579l-4.483 10.649h1.519zm3.688-9.189l1.932 5.149h-3.967l2.035-5.149"/><path d="M83.492 63.781v-10.649h1.474v9.382h4.956v1.267h-6.431"/><path d="M109.348 54.193h-.029l-3.407 9.587h-1.387l-3.407-9.587h-.029v9.587h-1.476v-10.649h2.641l3.068 8.777h.029l3.009-8.777h2.463v10.649h-1.475v-9.587"/><path d="M117.033 63.781h1.475v-10.649h-1.475v10.649z"/><path d="M124.732 63.781v-10.649h1.476v9.382h4.956v1.267h-6.432"/><path d="M136.474 63.781v-10.649h1.474v9.382h4.956v1.267h-6.43"/><path d="M149.218 60.669c.029 1.505.9 2.064 2.33 2.064 1.21 0 2.685-.354 2.685-1.843 0-1.033-.855-1.46-1.741-1.637-1.755-.383-4.675-.783-4.675-3.171 0-2.316 2.109-3.171 4.1-3.171 1.815 0 3.6.812 3.6 2.877h-1.55c-.059-1.196-1.063-1.609-2.124-1.609-1.048 0-2.479.383-2.479 1.653 0 1.208.858 1.283 1.785 1.577 1.962.635 4.633.635 4.633 3.32 0 2.418-2.169 3.274-4.322 3.274-2.226 0-3.849-.945-3.79-3.334h1.549"/><path d="M167.846 63.781v-10.649h6.313v1.27h-4.838v3.347h4.559v1.27h-4.559v4.763h-1.475"/><path d="M177.64 58.456c0 3.113 1.55 5.547 4.869 5.547 3.317 0 4.866-2.434 4.866-5.547 0-3.111-1.549-5.545-4.866-5.545-3.319 0-4.869 2.434-4.869 5.545zm1.55 0c0-2.271.619-4.277 3.319-4.277 2.697 0 3.317 2.007 3.317 4.277 0 2.213-.62 4.277-3.317 4.277-2.7 0-3.319-2.064-3.319-4.277"/><path d="M200.164 59.562c.045 2.744-1.401 4.441-4.292 4.441s-4.336-1.697-4.293-4.441v-6.431h1.475v6.785c.045 1.83 1.137 2.817 2.817 2.817 1.681 0 2.772-.987 2.817-2.817v-6.785h1.475v6.431"/><path d="M213.512 53.131v10.649h-1.829l-5.384-9.041h-.029v9.041h-1.314v-10.649h2.021l5.191 8.806h.03v-8.806h1.313"/><path d="M218.157 63.781h3.54c.989-.029 2.036-.103 2.893-.648 1.549-.988 2.257-2.655 2.257-4.676 0-2.02-.709-3.687-2.257-4.675-.856-.545-1.904-.62-2.893-.649h-3.54v10.649zm1.476-9.38h2.154c1.49 0 2.286.604 2.699 1.208.635.916.811 1.859.811 2.847 0 .989-.176 1.934-.811 2.847-.412.605-1.209 1.211-2.699 1.211h-2.154v-8.113"/><path d="M231.05 63.781l1.151-2.772h4.941l1.15 2.772h1.607l-4.306-10.649h-1.579l-4.485 10.649h1.52zm3.688-9.189l1.933 5.149h-3.969l2.036-5.149"/><path d="M244.62 54.401h-3.569v-1.27h8.613v1.27h-3.569v9.38h-1.475v-9.38"/><path d="M253.058 63.781h1.475v-10.649h-1.475v10.649z"/><path d="M258.603 58.456c0 3.113 1.55 5.547 4.867 5.547 3.32 0 4.869-2.434 4.869-5.547 0-3.111-1.549-5.545-4.869-5.545-3.317 0-4.867 2.434-4.867 5.545zm1.55 0c0-2.271.619-4.277 3.317-4.277 2.701 0 3.32 2.007 3.32 4.277 0 2.213-.619 4.277-3.32 4.277-2.699 0-3.317-2.064-3.317-4.277"/><path d="M281.113 53.131v10.649h-1.83l-5.384-9.041h-.029v9.041h-1.313v-10.649h2.02l5.191 8.806h.03v-8.806h1.314"/></g></svg>