<svg xmlns="http://www.w3.org/2000/svg" width="565.174" height="87.061"><g fill="#231f20"><path d="M54.488 64.036l-54.488 23.025h108.98l-54.492-23.025zm50.488 13.734l-50.488-77.77-50.496 77.77 50.496-24.308 50.488 24.308"/><path d="M112.607 74.443h.667c.57 0 1.187-.029 1.187-.714 0-.532-.481-.687-.924-.687h-.929v1.401zm0 2.276h-.52v-4.137h1.594c.936 0 1.302.401 1.302 1.146 0 .759-.482 1.081-1.043 1.178l1.235 1.813h-.588l-1.236-1.813h-.744v1.813zm.786 1.005c1.695 0 3.066-1.362 3.066-3.058 0-1.7-1.371-3.069-3.066-3.069-1.699 0-3.063 1.369-3.063 3.069 0 1.696 1.364 3.058 3.063 3.058zm0-6.647c1.974 0 3.578 1.61 3.578 3.589 0 1.975-1.604 3.589-3.578 3.589-1.98 0-3.583-1.614-3.583-3.589 0-1.978 1.604-3.589 3.583-3.589"/><path d="M166.986 20.45h9.004c16.348 0 24.517 8.056 24.517 22.627 0 14.565-8.17 22.635-24.517 22.635h-9.004v-45.262zm-15.489 57.314h24.505c25.18 0 40.209-13.035 40.209-34.688 0-21.645-15.029-34.672-40.209-34.672h-24.505v69.36"/><path d="M268.836 47.697h29.453v-12.044h-29.453v-15.204h33.295v-12.045h-48.796v69.36h49.883v-12.053h-34.381v-18.014"/><path d="M391.48 65.711h-29.866v-57.307h-15.553v69.36h45.419v-12.053"/><path d="M475.144 8.404h-62.255v12.045h23.336v57.315h15.576v-57.315h23.343v-12.045"/><path d="M537.751 48.786l-9.69-24.619-9.716 24.619h19.406zm27.422 28.978h-16.226l-6.796-17.377h-28.219l-6.771 17.377h-15.159l29.006-69.654v-.003h15.646l28.519 69.657"/></g></svg>