<svg xmlns="http://www.w3.org/2000/svg" width="693.279" height="135.471"><g><path d="M46.555 94.775c.953 2.301 1.906 4.673 3.739 6.4.806.717 2.346 1.15 4.033 1.221v2.157c-3.227-.216-6.452-.36-9.751-.36-3.298 0-6.525.144-9.75.36v-2.157c1.906-.071 3.886-.144 5.498-1.007 1.027-.504 1.1-1.654.513-2.946l-4.471-10.494h-20.822c-.879 1.941-4.912 10.494-4.912 12.075 0 2.372 3.592 2.012 6.232 2.372v2.157c-2.786-.216-5.572-.36-8.431-.36-2.859 0-5.646.144-8.432.36v-2.157c4.106-.791 4.619-.144 6.378-3.882l3.593-7.403 9.897-21.708c2.346-5.105 4.765-10.352 6.671-15.528h2.346l17.669 40.901zm-11.51-9.918l-9.165-21.421-9.163 21.421h18.328" fill="#1478c7"/><path d="M106.145 97.076v-35.726c0-4.168-1.32-4.815-5.793-4.815l-1.172-.073v-2.156c2.932.215 5.864.359 8.797.359 2.933 0 5.866-.144 8.725-.359v2.156l-1.172.073c-4.619 0-6.012.647-6.012 4.815v41.619l.22 2.661-5.792-1.007-35.41-42.195v35.079c0 4.168 1.392 4.818 6.011 4.818l1.173.071v2.157c-2.859-.216-5.793-.36-8.725-.36-2.933 0-5.865.144-8.797.36v-2.157l1.173-.071c4.472 0 5.791-.649 5.791-4.818v-36.157c0-4.168-1.172-4.815-5.278-4.888h-1.027v-2.156c2.127.215 4.18.359 6.38.359 2.125 0 4.178-.144 6.305-.359l34.604 42.77" fill="#1478c7"/><path d="M163.241 101.389c-4.619 2.588-11.949 4.242-16.569 4.242-16.203 0-29.692-9.344-29.692-26.383 0-16.675 13.711-26.02 28.227-26.02 6.451 0 12.902 1.51 19.061 3.235-.733 3.594-1.174 7.188-1.614 10.782h-2.126c-.219-4.599.954-6.253-3.371-8.338-3.006-1.438-6.526-2.659-11.804-2.659-12.098 0-20.455 8.409-20.455 21.419 0 14.377 9.53 24.298 24.268 24.298 5.277 0 10.484-1.654 14.883-4.529l.66.718-1.468 3.235" fill="#1478c7"/><path d="M220.938 95.926c0 5.605-.074 6.11 6.965 6.47v2.157c-3.52-.216-6.965-.36-10.557-.36-3.594 0-7.037.144-10.338.36v-2.157c7.039-.36 6.965-.864 6.965-6.47v-16.678h-29.326v16.678c0 5.605-.072 6.11 6.966 6.47v2.157c-3.52-.216-6.966-.36-10.557-.36-3.592 0-7.039.144-10.338.36v-2.157c7.039-.36 6.965-.864 6.965-6.47v-32.994c0-5.607.074-6.11-6.965-6.47v-2.156c3.299.215 6.745.359 10.338.359 3.591 0 7.037-.144 10.557-.359v2.156c-7.039.36-6.966.863-6.966 6.47v13.298h29.326v-13.298c0-5.607.074-6.11-6.965-6.47v-2.156c3.3.215 6.744.359 10.338.359 3.592 0 7.037-.144 10.557-.359v2.156c-7.039.36-6.965.863-6.965 6.47v32.994" fill="#1478c7"/><path d="M284.337 77.811c0 15.457-12.316 27.82-28.372 27.82-14.883 0-26.025-10.064-26.025-26.453 0-14.665 10.556-26.166 27.565-25.951 15.689 0 26.832 8.626 26.832 24.584zm-7.844 2.23c0-14.234-6.525-23.723-20.161-23.723-12.758 0-18.549 8.698-18.549 20.488 0 12.579 6.011 25.732 20.527 25.732 12.244-.79 18.183-9.271 18.183-22.498" fill="#1478c7"/><path d="M293.348 62.932c0-5.607.074-6.11-6.965-6.47v-2.156c4.106.215 8.357.359 12.684.359 4.326 0 8.578-.144 12.83-.359 10.117-.503 14.809 4.888 14.809 10.926 0 7.836-7.184 12.508-14.296 13.873l16.642 21.279c1.174 1.365 2.714 1.794 4.179 2.012v2.157c-1.613-.216-3.299-.36-4.985-.36-1.686 0-3.299.144-4.985.36-1.174-1.51-1.98-2.804-3.006-4.025l-17.448-21.997.292-1.078c2.272.144 4.545.071 6.745-.289 5.131-.86 9.531-4.742 9.531-10.063 0-7.764-5.866-10.065-11.291-10.065-2.566 0-5.351.36-7.331.935-.44 1.222-.44 2.732-.44 4.96v32.994c0 5.605-.074 6.11 6.965 6.47v2.157c-3.519-.216-6.965-.36-10.559-.36-3.591 0-7.036.144-10.336.36v-2.157c7.039-.36 6.965-.864 6.965-6.47v-32.994" fill="#1478c7"/><path d="M473.924 62.932c0-5.966-1.319-6.326-6.451-6.47v-2.156c4.106.215 8.286.359 12.464.359 4.253 0 8.357-.144 12.463-.359 6.82 0 12.979 2.444 12.979 10.063 0 6.541-6.231 10.783-12.244 11.79 7.478.287 14.735 3.306 14.735 11.716 0 9.705-10.045 17.611-21.555 16.677-2.638-.216-5.276-.36-7.918-.36-2.711 0-5.351.144-7.99.36v-2.157c3.079-.791 3.518-2.372 3.518-5.033v-34.431zm6.966 37.953c1.76.36 3.811.578 6.599.647 7.697 0 12.829-4.742 12.829-12.435 0-7.908-5.131-10.996-14.516-10.996h-4.911v22.784zm0-25.733c1.613.217 3.445.287 5.204.287 6.379-.07 12.025-2.515 12.025-9.632 0-6.901-4.911-8.626-11.07-8.626-1.98 0-4.106.215-5.793.79-.292 1.653-.366 3.522-.366 5.319v11.861" fill="#1478c7"/><path d="M552.139 94.775c.954 2.301 1.906 4.673 3.74 6.4.806.717 2.346 1.15 4.031 1.221v2.157c-3.225-.216-6.451-.36-9.75-.36-3.3 0-6.524.144-9.75.36v-2.157c1.906-.071 3.885-.144 5.497-1.007 1.025-.504 1.1-1.654.512-2.946l-4.47-10.494h-20.823c-.879 1.941-4.912 10.494-4.912 12.075 0 2.372 3.592 2.012 6.232 2.372v2.157c-2.786-.216-5.571-.36-8.431-.36-2.859 0-5.645.144-8.431.36v-2.157c4.105-.791 4.619-.144 6.379-3.882l3.592-7.403 9.898-21.708c2.345-5.105 4.765-10.352 6.671-15.528h2.346l17.668 40.901zm-11.51-9.918l-9.164-21.421-9.165 21.421h18.329" fill="#1478c7"/><path d="M610.264 97.076v-35.726c0-4.168-1.319-4.815-5.791-4.815l-1.174-.073v-2.156c2.934.215 5.866.359 8.799.359s5.866-.144 8.725-.359v2.156l-1.174.073c-4.619 0-6.011.647-6.011 4.815v41.619l.219 2.661-5.791-1.007-35.41-42.195v35.079c0 4.168 1.394 4.818 6.01 4.818l1.174.071v2.157c-2.86-.216-5.79-.36-8.724-.36-2.933 0-5.865.144-8.797.36v-2.157l1.173-.071c4.474 0 5.791-.649 5.791-4.818v-36.157c0-4.168-1.171-4.815-5.277-4.888h-1.026v-2.156c2.126.215 4.178.359 6.378.359 2.126 0 4.179-.144 6.306-.359l34.602 42.77" fill="#1478c7"/><path d="M631.29 62.932c0-5.607.072-6.11-6.965-6.47v-2.156c3.3.215 6.745.359 10.339.359 3.591 0 7.037-.144 10.555-.359v2.156c-7.037.36-6.964.863-6.964 6.47v15.742c1.906-1.294 3.592-2.731 5.205-4.311l16.35-15.887c1.174-1.151 1.246-2.732 1.246-4.169 2.053.215 4.105.359 6.232.359 2.051 0 4.105-.144 6.157-.359v2.156c-4.62.216-5.279.503-8.651 3.091l-19.576 17.324 24.049 22.213c2.053 1.868 3.152 3.306 6.157 3.306v2.157c-1.685-.216-3.445-.36-5.13-.36-1.761 0-3.521.144-5.206.36-.66-1.007-1.907-1.941-2.86-2.804l-23.241-21.421-.733.504v15.094c0 5.605-.074 6.11 6.964 6.47v2.157c-3.518-.216-6.964-.36-10.555-.36-3.594 0-7.039.144-10.339.36v-2.157c7.037-.36 6.965-.864 6.965-6.47v-32.994" fill="#1478c7"/><path d="M360.99 0c-8.387 0-15.189 6.799-15.189 15.188v105.094c0 8.391 6.801 15.189 15.189 15.189h80.719c8.387 0 15.189-6.799 15.189-15.19v-105.094c0-8.389-6.801-15.188-15.189-15.188h-80.719" fill="#1478c7"/><path d="M376.016 42.083v14.402h17.598v49.219h-15.78s-3.046-.116-3.046-2.891v-11.873h10.469l-26.916-26.525v50.158s-.469 8.438 10.313 8.438h30.001l2.696 4.454 2.694-4.454h30c10.783 0 10.314-8.438 10.314-8.438v-50.158l-26.915 26.525h10.47v11.873c0 2.775-3.049 2.891-3.049 2.891h-15.78v-49.219h17.598v-14.402h-17.47c3.466-2.462 5.728-6.492 5.728-11.067 0-7.505-6.085-13.589-13.589-13.589-7.506 0-13.59 6.084-13.59 13.589 0 4.553 2.239 8.601 5.675 11.067h-17.419" fill="#fff"/><path d="M681.114 98.224c-1.264 1.27-1.894 2.805-1.894 4.602 0 1.813.627 3.357 1.884 4.636 1.264 1.276 2.799 1.917 4.605 1.917 1.805 0 3.34-.641 4.604-1.917 1.262-1.279 1.895-2.823 1.895-4.636 0-1.797-.632-3.333-1.895-4.602-1.271-1.278-2.805-1.917-4.604-1.917-1.794 0-3.322.639-4.595 1.917zm9.951 9.971c-1.478 1.483-3.263 2.224-5.356 2.224-2.095 0-3.876-.741-5.346-2.224-1.461-1.477-2.192-3.265-2.192-5.369 0-2.081.736-3.857 2.214-5.335 1.469-1.467 3.244-2.203 5.325-2.203 2.094 0 3.879.736 5.356 2.203 1.475 1.471 2.214 3.247 2.214 5.335 0 2.094-.739 3.886-2.214 5.369zm-3.935-8.231c-.364-.207-.951-.307-1.762-.307h-1.246v3.005h1.319c.618 0 1.081-.061 1.391-.186.569-.226.855-.659.855-1.298 0-.604-.186-1.007-.556-1.214zm-1.566-1.308c1.03 0 1.785.1 2.266.299.859.356 1.288 1.059 1.288 2.102 0 .742-.271 1.288-.814 1.636-.287.187-.691.321-1.205.403.652.104 1.13.376 1.431.816.302.439.454.867.454 1.284v.61c0 .193.007.397.021.617.013.22.036.364.071.433l.051.104h-1.369l-.02-.082-.022-.095-.03-.269v-.659c0-.958-.261-1.595-.782-1.904-.31-.177-.853-.269-1.629-.269h-1.154v3.278h-1.461v-8.303h2.904" fill="#1478c7" fill-rule="evenodd"/><path d="M475.998 121.155l-3.965-8.645v6.868c0 .632.069 1.028.207 1.185.188.212.484.319.891.319h.366v.274h-3.594v-.274h.366c.438 0 .748-.132.93-.396.113-.161.169-.531.169-1.108v-6.719c0-.456-.051-.785-.152-.988-.071-.146-.203-.27-.393-.367-.191-.1-.497-.149-.92-.149v-.274h2.934l3.71 8.04 3.688-8.04h2.911v.274h-.359c-.443 0-.755.132-.938.396-.113.161-.169.531-.169 1.108v6.719c0 .632.071 1.028.214 1.185.189.212.486.319.892.319h.359v.274h-4.395v-.274h.366c.443 0 .752-.132.931-.396.111-.161.168-.531.168-1.108v-6.868l-3.965 8.645h-.254" fill="#1478c7"/><path d="M485.115 116.838c-.005 1.023.246 1.826.752 2.408.506.583 1.101.873 1.785.873.455 0 .85-.123 1.188-.37.336-.248.619-.677.846-1.29l.234.151c-.106.703-.414 1.338-.925 1.907-.51.567-1.15.852-1.919.852-.835 0-1.55-.325-2.144-.974-.594-.648-.891-1.521-.891-2.617 0-1.187.305-2.112.914-2.776.61-.664 1.375-.996 2.295-.996.779 0 1.419.256 1.919.771.501.513.751 1.2.751 2.061h-4.805zm0-.449h3.223c-.025-.442-.077-.752-.159-.933-.126-.281-.315-.502-.566-.663-.251-.16-.514-.24-.787-.24-.419 0-.795.162-1.127.486-.333.323-.526.774-.583 1.35" fill="#1478c7"/><path d="M492.886 115.492c.502-.508.8-.799.89-.875.228-.193.47-.343.733-.451.261-.106.52-.16.777-.16.432 0 .805.127 1.116.381.313.254.521.623.626 1.105.524-.609.965-1.009 1.326-1.2.36-.19.731-.286 1.113-.286.371 0 .699.095.988.284.286.19.514.499.682.93.111.293.166.753.166 1.381v2.991c0 .432.033.729.099.89.05.11.141.204.276.282.136.078.355.117.661.117v.274h-3.399v-.274h.142c.295 0 .526-.058.693-.173.115-.081.198-.209.247-.385.021-.085.03-.328.03-.731v-2.986c0-.565-.069-.964-.207-1.198-.199-.323-.517-.484-.956-.484-.271 0-.544.067-.818.2-.273.134-.604.383-.991.746l-.015.085.039.325v3.313c0 .472.026.767.079.881.052.116.15.212.295.29.144.078.39.117.74.117v.274h-3.478v-.274c.379 0 .639-.045.78-.136.144-.09.241-.226.296-.408.025-.084.037-.333.037-.746v-2.986c0-.566-.084-.976-.25-1.228-.224-.329-.535-.493-.934-.493-.274 0-.545.074-.814.223-.42.226-.744.48-.971.762v3.722c0 .452.03.747.092.881.063.137.155.238.278.306.122.067.37.102.744.102v.274h-3.399v-.274c.313 0 .531-.034.655-.102.124-.068.219-.176.284-.325.064-.147.096-.435.096-.863v-2.676c0-.759-.022-1.25-.069-1.472-.035-.166-.091-.281-.166-.344-.077-.063-.181-.094-.313-.094-.142 0-.313.038-.511.114l-.113-.273 2.094-.84h.328v1.485" fill="#1478c7"/><path d="M504.806 115.426c.67-.946 1.394-1.419 2.171-1.419.71 0 1.33.305 1.86.914.529.609.794 1.442.794 2.499 0 1.233-.409 2.227-1.226 2.979-.7.647-1.481.971-2.344.971-.404 0-.814-.073-1.229-.219-.416-.145-.841-.362-1.276-.654v-7.213c0-.785-.018-1.268-.056-1.45-.037-.181-.098-.304-.177-.37-.081-.064-.181-.098-.301-.098-.142 0-.319.041-.53.121l-.106-.274 2.081-.84h.34v5.052zm0 .485v4.148c.258.252.524.442.799.571.275.129.555.193.843.193.459 0 .886-.251 1.281-.757.396-.505.594-1.239.594-2.202 0-.889-.198-1.571-.594-2.048-.395-.476-.846-.715-1.349-.715-.268 0-.535.068-.802.205-.201.1-.459.303-.771.606" fill="#1478c7"/><path d="M511.848 116.838c-.005 1.023.245 1.826.752 2.408.505.583 1.099.873 1.782.873.456 0 .853-.123 1.189-.37.336-.248.619-.677.846-1.29l.235.151c-.106.703-.415 1.338-.925 1.907-.512.567-1.151.852-1.92.852-.835 0-1.549-.325-2.143-.974-.595-.648-.891-1.521-.891-2.617 0-1.187.304-2.112.914-2.776.609-.664 1.374-.996 2.294-.996.779 0 1.419.256 1.92.771.501.513.751 1.2.751 2.061h-4.805zm0-.449h3.223c-.025-.442-.079-.752-.16-.933-.126-.281-.315-.502-.566-.663-.25-.16-.512-.24-.786-.24-.421 0-.797.162-1.129.486-.333.323-.526.774-.581 1.35" fill="#1478c7"/><path d="M519.597 114.006v1.558c.583-1.038 1.18-1.558 1.791-1.558.278 0 .507.084.691.254.181.169.271.364.271.586 0 .196-.065.362-.196.499-.131.136-.287.204-.47.204-.176 0-.376-.088-.595-.264-.22-.176-.384-.264-.49-.264-.091 0-.189.051-.295.152-.229.207-.464.551-.708 1.027v3.333c0 .383.049.674.146.87.068.137.185.251.355.341.168.091.412.137.73.137v.274h-3.575v-.274c.355 0 .618-.056.79-.168.128-.081.216-.208.266-.387.025-.086.037-.33.037-.735v-2.695c0-.81-.015-1.293-.049-1.447-.033-.155-.094-.267-.182-.338-.09-.071-.2-.106-.331-.106-.158 0-.335.038-.532.114l-.076-.273 2.103-.84h.319" fill="#1478c7"/><path d="M529.315 111.448v4.043h1.875c.43 0 .746-.095.946-.287.201-.191.335-.565.401-1.119h.274v3.477h-.274c-.006-.402-.058-.696-.156-.884-.099-.188-.237-.33-.411-.422-.176-.093-.436-.139-.78-.139h-1.875v3.223c0 .522.031.867.096 1.034.05.127.155.236.314.326.22.122.449.183.689.183h.366v.274h-4.395v-.274h.362c.422 0 .729-.124.92-.372.121-.162.182-.553.182-1.171v-6.641c0-.522-.034-.867-.099-1.034-.05-.126-.154-.235-.309-.326-.217-.122-.449-.183-.695-.183h-.362v-.274h7.656l.098 2.266h-.274c-.131-.481-.282-.833-.458-1.059-.174-.225-.388-.388-.644-.489-.255-.1-.649-.151-1.185-.151h-2.264" fill="#1478c7"/><path d="M535.04 121.155v-.274h.381c.431 0 .736-.139.917-.417.11-.168.166-.542.166-1.125v-6.641c0-.643-.071-1.046-.211-1.208-.196-.222-.486-.335-.873-.335h-.381v-.274h4.19c1.539 0 2.709.174 3.511.522.801.349 1.448.93 1.936 1.743.487.813.734 1.753.734 2.817 0 1.431-.436 2.624-1.306 3.584-.979 1.072-2.466 1.607-4.465 1.607h-4.6zm2.929-.758c.642.141 1.183.211 1.617.211 1.175 0 2.149-.41 2.924-1.232.774-.82 1.163-1.933 1.163-3.338 0-1.415-.389-2.531-1.163-3.347-.775-.816-1.77-1.223-2.984-1.223-.456 0-.975.073-1.558.22v8.709" fill="#1478c7"/><path d="M550.764 120.881v.274h-4.395v-.274h.362c.422 0 .73-.124.921-.372.12-.162.181-.553.181-1.171v-6.641c0-.522-.033-.867-.099-1.034-.05-.126-.152-.235-.309-.326-.223-.122-.453-.183-.695-.183h-.362v-.274h4.395v.274h-.369c-.415 0-.718.124-.909.372-.125.163-.188.553-.188 1.171v6.641c0 .522.031.867.098 1.034.05.127.155.236.315.326.216.122.444.183.684.183h.369" fill="#1478c7"/><path d="M560.485 110.647l.235 3.496h-.235c-.313-1.046-.757-1.799-1.336-2.26-.58-.46-1.275-.69-2.085-.69-.68 0-1.294.173-1.844.519-.547.347-.98.898-1.295 1.655-.315.758-.471 1.701-.471 2.826 0 .93.147 1.736.446 2.417.296.682.743 1.205 1.34 1.568.595.364 1.276.546 2.042.546.665 0 1.251-.143 1.76-.427.507-.286 1.066-.854 1.676-1.702l.235.156c-.515.912-1.115 1.58-1.801 2.002-.686.422-1.5.635-2.444.635-1.7 0-3.016-.631-3.949-1.895-.696-.939-1.044-2.045-1.044-3.318 0-1.026.228-1.967.686-2.825.46-.859 1.09-1.525 1.894-1.997.805-.471 1.683-.708 2.634-.708.741 0 1.471.179 2.192.538.211.11.362.165.454.165.136 0 .255-.048.356-.142.13-.134.224-.322.279-.561h.274" fill="#1478c7"/></g></svg>