<svg xmlns="http://www.w3.org/2000/svg" width="655.925" height="122.249"><g><path d="M17.012 119.754l11.886.145h.591c6.155 0 10.261-.439 11.877-1.026 6.014-2.344 7.922-7.039 7.922-19.508v-3.815l-.295-9.975c-.441-9.093-5.137-12.907-16.433-12.907h-15.549v47.086zm0-48.113h13.791c10.859 0 13.203-3.665 13.203-20.83 0-17.896-1.173-22.885-5.575-25.377-1.317-.735-5.132-1.324-8.36-1.324h-.148l-12.91.147v47.382zm6.9-48.554h.587l7.479-.145c14.816 0 21.27 7.479 21.27 24.493 0 13.35-1.616 17.898-7.336 21.416-3.374 2.056-4.692 2.496-9.683 2.936 15.989 1.173 22.739 8.071 22.739 23.47 0 14.815-3.962 21.272-14.525 24.348-3.37.882-7.188 1.323-11.145 1.323h-33.299v-1.029h7.336v-95.64l-7.336.149v-1.175l23.913-.145" fill="#fff"/><path d="M84.636 78.683h30.367l-15.257-50.168-15.11 50.168zm53.398 41.217h8.064v1.029h-27.135v-1.029h8.511l-11.149-37.109h-32.861l-10.997 37.109h8.064v1.029h-19.951v-1.029h8.509l28.752-95.64h-9.975v-1.026h30.805v1.026h-9.83l29.191 95.64" fill="#fff"/><path d="M204.482 51.84h-5.139v-.148c-.142-15.987-10.121-28.458-22.879-28.458-9.534 0-16.729 6.601-18.192 16.43-.586 3.666-.877 8.07-.877 13.204v.438l.146 39.163v.295c0 15.11 2.493 22.151 8.95 25.964 2.931 1.761 6.45 2.496 10.265 2.496 13.936 0 22.149-9.684 22.149-26.843v-.445h6.747v.149c0 16.427-12.319 28.165-29.334 28.165-11.591 0-22.152-6.604-25.671-16.429-1.906-5.282-2.936-12.616-2.936-21.418v-23.763c0-21.561 3.959-30.216 16.43-35.938 3.814-1.612 7.919-2.495 12.324-2.495 12.467 0 22.149 6.457 26.256 17.605l.144-15.841h1.617v27.87" fill="#fff"/><path d="M240.192 23.233v1.026h-8.655v45.326h39.017v-45.177h-8.654v-1.175h27.575v1.026h-8.799v95.495h8.799v1.174h-27.575v-1.029h8.654v-46.204h-39.017v46.059h8.655v1.174h-27.43v-1.029h8.8v-95.491h-8.946v-1.175h27.576" fill="#fff"/><path d="M329.815 23.233v1.026h-9.682l26.406 79.064 25.962-78.916h-9.094v-1.175h27.578v1.026h-8.364l5.281 95.64h8.361v1.029h-27.575v-1.029h8.654l-4.4-89.334-30.218 90.363h-.589l-30.51-91.238-4.546 90.209h8.654v1.029h-20.535v-1.029h9.24l4.987-95.491h-9.974v-1.175h30.363" fill="#fff"/><path d="M421.642 78.683h30.36l-15.255-50.168-15.105 50.168zm53.391 41.217h8.071v1.029h-27.14v-1.029h8.509l-11.149-37.109h-32.856l-11.004 37.109h8.065v1.029h-19.948v-1.029h8.508l28.751-95.64h-9.974v-1.026h30.801v1.026h-9.828l29.192 95.64" fill="#fff"/><path d="M504.516 23.233l42.831 74.955v-73.78h-8.803v-1.175h19.51v1.026h-7.918v97.844h-.294l-53.395-93.296v90.948h8.654v1.174h-19.804v-1.029h8.656v-95.491h-8.799v-1.175h19.36" fill="#fff"/><path d="M630.956 50.371h-5.424v-.44c-1.171-19.804-6.603-26.843-20.538-26.843-11.294 0-18.921 8.504-18.921 21.268 0 12.616 5.277 19.074 18.625 22.738l6.896 1.907c14.811 4.108 21.122 11.588 21.122 25.229 0 16.87-10.707 27.874-26.549 27.874-1.616 0-3.815-.15-6.454-.442-.733-.146-1.174-.146-1.466-.146l-1.614-.437-3.376-.149h-11.001l-.146-21.857h1.174v8.068c4.549 8.655 13.203 13.938 22.297 13.938 11.588 0 18.921-8.368 18.921-21.712 0-12.03-4.107-16.869-17.457-20.831-14.082-4.109-15.109-4.4-18.924-7.482-5.133-3.811-8.211-11.001-8.211-19.212 0-17.018 11.294-29.926 25.961-29.926 11.447 0 18.926 5.719 23.767 18.043v-16.577h1.171l.145 26.991" fill="#fff"/><path d="M564.68 37.243s20.679-.195 22.929-37.243l.026.015c-32.689 17.578-22.955 37.228-22.955 37.228" fill="#fff"/><text transform="matrix(1.25 0 0 1.25 637.023 121.994)"><tspan x="0 5.9405017" y="0" style="-inkscape-font-specification:Myriad-Roman" font-size="12" fill="#fff" font-family="Myriad">TM</tspan></text></g></svg>