<svg xmlns="http://www.w3.org/2000/svg" width="1110.185" height="70.356"><g fill="#231f20"><path d="M618.212 2.115c-16.935 0-23.24 17.284-23.24 32.968 0 17.712 7.345 32.961 23.24 32.961 16.2 0 23.238-16.411 23.238-32.961 0-19.497-8.854-32.968-23.238-32.968zm0-2.115c20.65 0 40.595 13.938 40.595 35.083 0 21.876-20.775 35.082-40.595 35.082-23.64 0-40.584-16.12-40.584-35.082 0-19.92 18.281-35.083 40.584-35.083"/><path d="M506.974 3.617v62.98h12.37c22.593 0 29.959-14.114 29.959-31.515 0-17.004-7.022-31.465-29.959-31.465h-12.37zm-28.991-2.262h47.95c29.753 0 40.096 18.979 40.096 33.727 0 17.587-12.936 33.778-40.096 33.778h-47.95v-2.263h2.569c8.438 0 12.171-4.041 12.171-12.27v-38.438c0-7.083-2.639-12.272-12.273-12.272h-2.467v-2.262"/><path d="M657.199 1.355h35.12v2.262h-2.87c-3.85 0-5.326 2.454-5.326 4.981 0 1.552.593 3.406 1.259 5.266 1.36 3.765 13.849 38.273 13.849 38.273l13.77-34.253c-.771-2.047-1.679-4.549-2.971-7.249-1.409-2.964-4.236-7.018-11.377-7.018v-2.262h36.627v2.262h-3c-5.737 0-7.966 1.996-7.966 5.276 0 1.675.564 3.222 1.278 5.228 1.404 3.941 13.944 38.016 13.944 38.016l14.044-35.801c.706-1.967 1.275-3.534 1.275-5.47 0-4.657-3.965-7.243-9.586-7.243l-2.007-.006v-2.262h27.054v2.262l-1.296.016c-7.003 0-11.418 8.178-13.259 12.798-1.835 4.623-21.214 53.925-21.214 53.925h-2.158l-18.283-49.816-19.908 49.816h-2.257s-16.015-43.82-19.521-53.44c-3.511-9.625-7.532-13.299-13.527-13.299h-1.691v-2.262"/><path d="M872.729 66.597h1.884c9.533 0 12.277-5.217 12.277-12.27v-39.182c0-8.145-4.534-11.523-12.277-11.523h-1.884v-2.267h42.525v2.267h-1.885c-9.549 0-12.225 5.165-12.225 11.523v39.182c0 7.971 3.674 12.27 12.225 12.27h1.885v2.263h-42.525v-2.263"/><path d="M925.301 1.355h27.113l46.911 48.613v-28.523c0-11.706-6.421-17.828-14.825-17.828h-1.119v-2.262h33.439v2.262h-.679c-8.893 0-14.551 5.216-14.551 17.828v48.092h-1.97l-58.273-59.87v42.134c0 10.786 6.308 14.795 17.349 14.795h.623v2.264h-35.224v-2.263h.671c8.385 0 14.419-3.839 14.419-14.796v-37.167c0-7.383-5.286-11.016-12.047-11.016h-1.836v-2.263"/><path d="M1093.27 1.741h1.79l.484 29.138h-1.971c-2.821-13.847-14.908-28.766-32.576-28.766-14.225 0-21.844 11.181-21.844 32.97 0 19.669 6.23 32.96 23.34 32.96 8.561 0 19.615-3.467 19.615-12.135v-3.108c0-8.176-4.09-12.267-12.273-12.267h-5.85v-2.165h46.2v2.165h-1.55c-9.82 0-12.271 5.543-12.271 12.267v16.05h-1.79c-.896-1.092-2.9-3.959-7.821-3.959-7.531 0-13.04 5.272-26.069 5.272-22.476 0-38.971-13.743-38.971-35.081 0-21.507 16.527-35.084 38.971-35.084 14.88 0 21.281 7.518 25.899 7.518 4.574 0 6.082-4.048 6.688-5.776"/><path d="M774.181 1.355h26.481l46.919 48.613v-28.523c0-11.706-6.421-17.828-14.835-17.828h-1.106v-2.262h33.439v2.262h-.681c-8.894 0-14.557 5.216-14.557 17.828v48.092h-1.97l-58.27-59.87v42.134c0 10.786 6.305 14.795 17.352 14.795h.621v2.264h-35.226v-2.263h.671c8.386 0 14.42-3.839 14.42-14.796v-37.167c0-7.383-5.284-11.016-12.054-11.016h-1.204v-2.263"/><path d="M36.032 15.806l-12.988 29.728h26.317l-13.329-29.728zm4.749-15.806h2.161s24.985 54.322 27.157 59.051c2.169 4.729 5.19 7.546 11.356 7.546h1.788v2.263h-39.188v-2.263h5.442c4.19 0 6.856-1.406 6.856-4.481 0-1.42-.49-2.76-1.235-4.435-1.395-3.125-4.54-9.989-4.54-9.989h-28.604l-2.176 5.026c-.71 1.709-1.063 3.436-1.063 5.172 0 5.282 4.493 8.707 9.295 8.707h.467v2.263h-28.496v-2.263c9.058-.514 15.004-8.438 19.263-18.027 2.446-5.516 21.518-48.57 21.518-48.57"/><path d="M357.243 1.366h79.149v34.286h-1.923c-1.189-14.629-9.438-32.147-26.973-32.147h-3.529v50.834c0 8.184 4.075 12.272 12.226 12.272h10.194v2.264h-58.949v-2.264h10.096c8.184 0 12.274-4.088 12.274-12.272v-50.834h-4.349c-18.121 0-25.499 19.866-26.152 32.147h-2.065v-34.286"/><path d="M202.303 34.691v31.906h14.77c9.656 0 20.261-3.287 20.261-15.855 0-9.968-6.554-16.05-21.679-16.05h-13.352zm0-31.074v28.814h15.804c11.124 0 16.821-5.596 16.821-14.553 0-8.521-5.138-14.261-16.821-14.261h-15.804zm-28.508-2.262h49.481c20.36 0 27.442 8.105 27.442 16.335 0 11.146-16.832 15.082-20.582 15.749v.195c2.938.325 23.725 2.639 23.725 18.024 0 9.306-9.351 17.202-30.44 17.202h-49.626v-2.263h1.984c8.279 0 12.27-3.943 12.27-12.27v-38.337c0-8.337-3.854-12.368-12.27-12.368h-1.984v-2.267"/><path d="M305.131 2.115c-16.933 0-23.242 17.284-23.242 32.968 0 17.712 7.353 32.961 23.242 32.961 16.198 0 23.238-16.411 23.238-32.961 0-19.497-8.854-32.968-23.238-32.968zm0-2.115c20.649 0 40.59 13.938 40.59 35.083 0 21.876-20.769 35.082-40.59 35.082-23.641 0-40.59-16.12-40.59-35.082 0-19.92 18.284-35.083 40.59-35.083"/><path d="M114.568 34.691v31.906h14.767c9.659 0 20.262-3.287 20.262-15.855 0-9.968-6.553-16.05-21.68-16.05h-13.349zm0-31.074v28.814h15.798c11.125 0 16.823-5.596 16.823-14.553 0-8.521-5.139-14.261-16.823-14.261h-15.798zm-28.513-2.262h49.481c20.364 0 27.448 8.105 27.448 16.335 0 11.146-16.837 15.082-20.586 15.749v.195c2.938.325 23.725 2.639 23.725 18.024 0 9.306-9.348 17.202-30.441 17.202h-49.626v-2.263h1.984c8.284 0 12.273-3.943 12.273-12.27v-38.337c0-8.337-3.854-12.368-12.273-12.368h-1.984v-2.267"/></g></svg>