<svg xmlns="http://www.w3.org/2000/svg" width="213.014" height="70.92"><g fill="#231f20"><path d="M122.872 30.006c0 1.099-.969 2.002-2.13 2.002-1.129 0-2.133-.903-2.133-2.002 0-1.098 1.003-2.034 2.133-2.034 1.161 0 2.13.936 2.13 2.034zm1.938 18.893v.61h-7.977v-.61l2.164-.522v-11.846l-2.164-.549v-.583l5.842-.419v13.397l2.135.522"/><path d="M147.671 36.045c-1.71 0-2.853 1.824-3.07 4.26h5.785c-.086-2.308-.778-4.26-2.715-4.26zm1.584 12.209c2.381 0 4.049-1.213 4.501-1.521l.536.872c-.557.495-2.703 2.227-6.175 2.227-4.481 0-7.581-2.937-7.581-7.427 0-3.875 2.915-7.425 7.135-7.425 4.244 0 6.311 2.557 6.331 6.458h-9.495c-.223 3.494.905 6.816 4.747 6.816"/><path d="M53.558 36.045c-1.71 0-2.854 1.821-3.071 4.255l5.785.007c-.084-2.307-.777-4.262-2.713-4.262zm1.583 12.209c2.38 0 4.048-1.213 4.5-1.521l.537.872c-.558.495-2.702 2.227-6.175 2.227-4.481 0-7.581-2.937-7.581-7.427 0-3.875 2.916-7.425 7.137-7.425 4.243 0 6.31 2.557 6.329 6.458h-9.495c-.221 3.494.906 6.816 4.749 6.816"/><path d="M11.601 41.694l-2.914-9.011h-.057l-3.262 9.011h6.233zm-11.601 7.234l1.301-.515s6.46-16.689 6.675-17.248c-.292-.965-1.679-1.094-2.888-1.258v-.76h6.14l6.444 19.23 1.291.522v.61h-8.008v-.61l2.617-.586-1.583-5.422h-7.037l-1.809 5.422 3.389.552v.644h-6.531v-.581"/><path d="M39.312 34.979c2.39 0 3.489 1.356 3.489 3.876v9.521l1.807.522v.61h-7.201v-.61l1.742-.486v-8.996c0-1.325-.18-2.458-1.568-2.458-1.074 0-2.395.995-2.983 1.454v9.964l1.774.522v.61h-7.167v-.61l1.744-.486v-8.996c0-1.386-.215-2.458-1.571-2.458-1.185 0-2.459.993-3.015 1.421v9.997l1.873.522v.61h-7.717v-.61l2.162-.522v-11.977l-2.162-.548v-.58l5.72-.299.058 2.159c.777-.645 2.452-2.152 4.845-2.152 2.099 0 3.027 1.068 3.335 2.262.872-.808 2.574-2.262 4.834-2.262"/><path d="M93.444 48.12c1.968 0 3.805-1.941 3.805-5.94 0-3.828-1.622-5.361-3.656-5.361-1.638 0-2.815.793-3.384 1.132v9.234c.716.369 1.82.935 3.235.935zm.415 8.042v.776h-9.558v-.618l2.197-.613v-19.211l-2.166-.548v-.583l5.781-.396.059 1.687c.957-.594 2.663-1.679 4.912-1.679 3.874 0 6.201 2.553 6.201 7.135 0 5.361-3.167 7.717-6.459 7.717-2.42 0-4.036-.999-4.618-1.389v7.139l3.65.581"/><path d="M112.988 34.979c1.236 0 2.062.661 2.41.892l-1.012 2.754c-.426-.243-1.062-.642-2.123-.642-1.357 0-2.182.947-3.017 1.738v8.56l3.131.517v.711h-8.976v-.61l2.164-.522v-11.879l-2.164-.548v-.583l5.585-.389.063 3.398h.074c.671-1.183 1.643-3.397 3.864-3.397"/><path d="M81.157 30.006c0 1.099-.967 2.002-2.131 2.002-1.129 0-2.131-.903-2.131-2.002 0-1.098 1.002-2.034 2.131-2.034 1.164 0 2.131.936 2.131 2.034zm1.937 18.893v.61h-7.974v-.61l2.162-.522v-11.846l-2.162-.549v-.583l5.845-.419v13.397l2.129.522"/><path d="M71.272 34.979c1.236 0 2.066.661 2.412.892l-1.012 2.754c-.425-.243-1.064-.642-2.123-.642-1.358 0-2.181.947-3.016 1.738v8.56l3.131.517v.711h-8.976v-.61l2.164-.522v-11.879l-2.164-.548v-.583l5.585-.389.064 3.398h.075c.668-1.183 1.644-3.397 3.861-3.397"/><path d="M136.911 35.659l-.344 3.574h-.954l-.4-2.503c-.274-.146-1.334-.688-2.611-.688-1.44 0-2.544.774-2.545 1.873-.004 1.443 1.68 2.002 3.395 2.745 1.647.676 4.388 1.731 4.379 4.57-.004 2.873-2.667 4.6-5.945 4.6-2.459 0-4.006-.471-4.441-.613l-.338-4.07h1.077l.863 3.027c.147.068 1.265.593 2.59.593 1.931 0 3.344-.93 3.344-2.322 0-1.531-2.337-2.344-3.94-3.032-1.495-.644-3.801-1.616-3.801-4.514 0-2.334 2.159-3.923 5.291-3.923 2.255 0 4.066.588 4.38.684"/><path d="M201.855 39.245l-10.457-4.327-4.344 10.477-4.336-10.477-10.464 4.327 4.343-10.461-10.477-4.34 10.477-4.34-4.343-10.46 10.464 4.326 4.336-10.46 4.344 10.46-.052.026 10.51-4.352-4.329 10.46 10.475 4.34-10.476 4.34 4.33 10.461zm-14.801-39.245c-13.512 0-24.468 10.954-24.468 24.468 0 13.516 10.955 24.47 24.468 24.47 13.514 0 24.466-10.954 24.466-24.47 0-13.513-10.953-24.468-24.466-24.468"/><path d="M199.644 11.858l-21.489 8.902 8.899 3.685 3.686 8.893 8.904-21.48"/><path d="M209.018 46.504c.615 0 1.454.106 1.454-.658 0-.548-.484-.624-1.034-.624h-1.131v1.282h.711zm2.046 2.487h-.744l-1.249-1.959h-.765v1.959h-.646v-4.254h1.907c.366 0 .733.021 1.065.205.323.182.486.559.486.915 0 .84-.603 1.151-1.379 1.174l1.324 1.959zm-5.126-2.143c0 1.733 1.41 3.082 3.178 3.082 1.744 0 3.155-1.349 3.155-3.082 0-1.68-1.411-3.036-3.155-3.036-1.768 0-3.178 1.357-3.178 3.036zm-.744 0c0-2.079 1.756-3.779 3.921-3.779 2.154 0 3.899 1.7 3.899 3.779 0 2.123-1.745 3.823-3.899 3.823-2.165 0-3.921-1.7-3.921-3.823"/><path d="M103.628 70.717l.054-.415 1.465-.332 1.728-12.236-1.378-.352.068-.41h8.851l-.413 2.881h-.785l-.123-2.141h-3.865l-.785 5.564h2.523l.636-1.895h.659l-.637 4.529h-.658l-.147-1.892h-2.477l-.823 5.935 2.164.352-.063.413h-5.996"/><path d="M156.751 62.28c-1.471 0-2.661 1.714-2.661 4.897 0 1.667.738 2.737 2.041 2.737 1.175 0 2.055-.911 2.487-1.304l.371.432c-.474.559-1.519 1.877-3.71 1.877-2.015 0-3.426-1.357-3.426-3.931 0-2.82 1.876-5.339 4.93-5.339 1.337 0 2.345.215 2.58.264l-.474 2.432h-.723l-.054-1.631c-.077-.056-.574-.435-1.363-.435"/><path d="M118.594 58.108c-.089.591-.543 1.113-1.248 1.113-.638 0-1.002-.544-.909-1.113.112-.635.657-1.135 1.248-1.135.613 0 .976.544.908 1.135zm-2.624 4.385l-1.44-.371.042-.288 3.562-.183-1.175 8.386 1.373.352-.044.327h-3.436l1.119-8.223"/><path d="M164.764 58.108c-.091.591-.544 1.113-1.25 1.113-.639 0-.999-.544-.909-1.113.114-.635.657-1.135 1.249-1.135.615 0 .98.544.91 1.135zm-2.625 4.385l-1.441-.371.04-.288 3.561-.183-1.175 8.386 1.375.352-.039.327h-3.444l1.123-8.223"/><path d="M178.757 57.099l-1.316-.354.039-.308 3.455-.264-1.958 13.889 1.41.349-.04.334h-3.473l1.883-13.647"/><path d="M126.554 64.697c.189-1.238.175-1.682-.289-1.682-1.414 0-2.785 3.218-3.298 4.363l-.476 3.34h-2.025l1.156-8.225-1.463-.371.042-.288 3.567-.183-.51 3.643c.933-1.726 2.085-3.643 4.015-3.643 1.938 0 1.464 1.851 1.364 2.634l-.802 5.752 1.391.352-.041.33h-3.461l.833-6.021"/><path d="M147.632 64.697c.185-1.238.171-1.682-.292-1.682-1.409 0-2.785 3.218-3.294 4.363l-.48 3.34h-2.021l1.154-8.225-1.464-.371.044-.288 3.566-.183-.51 3.643c.932-1.726 2.087-3.643 4.014-3.643 1.94 0 1.465 1.851 1.36 2.634l-.804 5.752 1.399.352-.044.33h-3.46l.833-6.021"/><path d="M135.929 62.287c-1.6 0-2.922 3.101-2.922 5.688 0 1.021.414 1.431.969 1.431 1.329 0 2.467-3.169 2.797-4.006l.347-2.788c-.096-.049-.554-.325-1.191-.325zm3.348-.286l-1.149 8.035 1.492.352-.022.332h-3.565l.407-2.952c-.564 1.162-1.646 3.152-3.525 3.152-1.701 0-2.134-1.331-2.134-2.881 0-3.127 2.303-6.389 5.728-6.389 1.291 0 2.386.264 2.768.352"/><path d="M171.214 62.287c-1.6 0-2.924 3.101-2.924 5.688 0 1.021.41 1.431.97 1.431 1.326 0 2.467-3.169 2.799-4.006l.345-2.788c-.096-.049-.555-.325-1.19-.325zm3.346-.286l-1.147 8.035 1.492.352-.021.332h-3.566l.409-2.952c-.569 1.162-1.646 3.152-3.526 3.152-1.7 0-2.135-1.331-2.135-2.881 0-3.127 2.306-6.389 5.728-6.389 1.29 0 2.382.264 2.768.352"/></g></svg>