<svg xmlns="http://www.w3.org/2000/svg" width="952.692" height="161.643"><g><path d="M362.23 61.885h-13.492l-2.899 15.42h13.377l-1.165 5.74h-13.305l-3.336 18.128h-8.159l8.416-45.001h21.66l-1.097 5.713" fill="#231f20"/><path d="M375.94 69.021l-5.97 32.151h-7.718l5.973-32.151h7.715m-6.559-9.637c.464-2.439 2.77-4.958 5.345-4.958 2.7 0 4.304 2.445 3.853 4.958-.52 2.759-2.822 5.396-5.655 5.396-2.704 0-4.05-2.638-3.542-5.396" fill="#231f20"/><path d="M389.905 75.069l.129.133c4.891-5.408 8.938-6.945 13.117-6.945 4.569 0 7.01 2.06 7.01 7.386 0 1.865-.266 4.184-.838 7.004l-3.789 18.526h-7.651l3.723-18.46c.39-1.858.589-3.274.589-4.432.18-3.476-1.35-4.359-3.484-4.359-3.66 0-9.701 7.388-11.379 16.51l-1.92 10.741h-7.718l6.055-32.151h7.579l-1.424 6.047" fill="#231f20"/><path d="M438.275 76.037c-1.546 16.389-7.34 20.307-11.072 20.307-2.944 0-5.004-2.686-5.004-7.01 0-11.311 6.549-15.872 9.895-15.872 3.091 0 3.861.386 6.181 2.575m8.992-7.016h-7.714l-.507 2.196c-1.552-1.931-4.636-2.961-7.339-2.961-10.024 0-17.731 11.441-17.731 21.722 0 6.954 3.531 11.956 9.244 11.956 4.881 0 8.745-2.698 9.775-3.845l1.549-1.802.129.129-1.034 4.756h7.656l5.973-32.151" fill="#231f20"/><path d="M461.111 75.069l.119.133c4.893-5.408 8.939-6.945 13.116-6.945 4.563 0 7.011 2.06 7.011 7.386 0 1.865-.261 4.184-.835 7.004l-3.799 18.526h-7.652l3.736-18.46c.384-1.858.579-3.274.579-4.432.188-3.476-1.35-4.359-3.476-4.359-3.66 0-9.704 7.388-11.366 16.51l-1.942 10.741h-7.715l6.053-32.151h7.581l-1.409 6.047" fill="#231f20"/><path d="M509.183 98.341c-3.719 2.573-6.497 3.594-10.102 3.594-8.342 0-13.481-5.903-13.481-14.137 0-9.259 6.94-19.541 18.125-19.541 3.598 0 6.569 1.405 8.607 3.733l-3.208 3.984c-1.285-.772-2.961-1.998-5.661-1.998-5.271 0-9.637 5.592-9.637 13.685 0 4.764 2.384 8.56 6.559 8.56 3.34 0 4.692-1.35 6.369-2.251l2.43 4.37" fill="#231f20"/><path d="M526.86 69.021l-5.971 32.151h-7.72l5.979-32.151h7.713m-6.558-9.637c.445-2.439 2.771-4.958 5.343-4.958 2.7 0 4.299 2.445 3.855 4.958-.511 2.759-2.835 5.396-5.66 5.396-2.695 0-4.049-2.638-3.538-5.396" fill="#231f20"/><path d="M553.617 76.037c-1.546 16.389-7.334 20.317-11.056 20.317-2.961 0-5.016-2.695-5.016-7.02 0-11.311 6.554-15.872 9.901-15.872 3.081 0 3.873.386 6.171 2.575m8.992-7.016h-7.706l-.504 2.196c-1.556-1.931-4.634-2.961-7.344-2.961-10.015 0-17.738 11.441-17.738 21.722 0 6.954 3.527 11.956 9.25 11.956 4.895 0 8.752-2.698 9.784-3.845l1.534-1.802.126.129-1.021 4.756h7.643l5.976-32.151" fill="#231f20"/><path d="M564.236 101.173l8.806-47.256h7.713l-8.807 47.256h-7.711" fill="#231f20"/><path d="M99.594 101.173l7.328-39.288h-12.467l1.085-5.713h33.174l-1.089 5.713h-12.533l-7.332 39.288h-8.166" fill="#231f20"/><path d="M137.41 75.069l.39.133c4.881-5.408 8.939-6.945 13.11-6.945 4.304 0 6.746 2.06 6.746 7.386 0 1.865-.261 4.184-.83 7.004l-3.797 18.526h-7.647l3.726-18.46c.383-1.858.574-3.274.574-4.432.199-3.476-1.35-4.359-3.469-4.359-3.66 0-9.711 7.388-11.377 16.51l-1.92 10.741h-7.725l8.879-47.256h7.711l-4.37 21.152" fill="#231f20"/><path d="M199.909 69.021l-5.966 32.151h-7.721l5.992-32.151h7.695m-6.548-9.637c.451-2.439 2.759-4.958 5.335-4.958 2.699 0 4.31 2.445 3.855 4.958-.515 2.759-2.834 5.396-5.659 5.396-2.696 0-4.046-2.638-3.531-5.396" fill="#231f20"/><path d="M240.999 83.42c1.736-5.912 5.47-10.278 8.939-10.278 2.053 0 3.09.897 2.954 2.958-.254 4.113-5.849 6.806-11.893 7.321m253.863-68.446c-2.958 2.19-6.048 3.091-8.104 3.025-5.595-.124-5.841-5.728-5.466-8.293 7.071-.268 19.736-4.635 19.736-12.985 0-4.627-4.504-6.688-8.094-6.688-12.672 0-19.801 12.073-19.801 21.077 0 7.718 3.984 12.601 9.961 12.601 3.473 0 8.74-.637 13.95-4.5l-2.183-4.238" fill="#231f20"/><path d="M273.341 75.069l.125.133c4.881-5.408 8.939-6.945 13.106-6.945 4.577 0 7.008 2.06 7.008 7.386 0 1.865-.25 4.184-.831 7.004l-3.795 18.526h-7.645l3.723-18.46c.394-1.858.589-3.274.589-4.432.184-3.476-1.361-4.359-3.473-4.359-3.671 0-9.711 7.388-11.381 16.51l-1.931 10.741h-7.715l6.045-32.151h7.581l-1.405 6.047" fill="#231f20"/><path d="M315.306 99.886c-2.505 1.35-5.452 2.048-7.96 2.048-5.666 0-8.804-2.881-7.013-11.503l3.539-17.033h-4.058l.772-4.378h4.051l1.479-7.71 8.034-1.927-1.796 9.637h7.582l-.831 4.378h-7.589l-3.336 16.01c-1.35 6.622 1.018 7.328 2.696 7.328 1.67 0 2.692-.515 3.855-1.094l.574 4.243" fill="#231f20"/><path d="M183.459 68.385l-.129.012-.259-.022c-5.018 0-8.986 7.681-10.866 12.434l2.336-11.787h-7.67l-6.032 32.151h7.589c1.17-7.012 3.679-15.332 6.754-20.721h.03l.131-.27c.456-.78.936-1.478 1.403-2.111 1.232-1.392 2.627-1.973 3.947-1.973 1.544 0 2.243.391 3.022.654l4.121-6.051c-.964-1.288-2.641-2.318-4.378-2.318" fill="#231f20"/><path d="M212.439 68.999c2.986 7.681 3.649 18.293 3.06 22.918 3.192-4.488 8.464-13.279 9.963-22.918h6.319c-2.597 13.475-11.849 26.25-17.315 32.173h-6.61c1.434-8.276.784-22.469-4.031-32.173h8.615" fill="#231f20"/><path d="M596.857 101.173l5.411-28.778h-4.638l.642-3.409h4.636l.71-3.929c1.603-9.079 6.695-11.202 10.557-11.202 1.538 0 3.215.577 4.245 1.35l-1.677 2.964c-.766-.256-1.549-.452-2.7-.452-.897 0-3.864.258-4.826 5.469l-1.097 5.798h6.952l-.64 3.409h-6.954l-5.405 28.778h-5.218" fill="#231f20"/><path d="M630.266 72.075c6.691 0 6.952 7.983 6.952 10.301 0 8.107-4.311 15.706-10.63 15.706-6.742 0-7.651-7.599-7.651-10.299 0-7.725 4.116-15.708 11.329-15.708m.507-3.862c-10.87 0-17.378 10.042-17.378 19.57 0 6.305 3.796 14.162 13.075 14.162 9.524 0 16.277-9.526 16.277-19.701 0-8.498-5.464-14.03-11.975-14.03" fill="#231f20"/><path d="M655.5 74.253l.122.14c3.224-3.995 5.022-6.18 8.701-6.18 1.729 0 3.016 1.155 4.179 2.185l-2.704 3.606c-.517-.258-1.736-.641-3.478-.641-3.607 0-7.015 3.862-8.88 13.582l-2.711 14.229h-5.205l6.04-32.188h5.088l-1.153 5.268" fill="#231f20"/><path d="M692.114 56.11h5.611l-7.659 40.876h16.863l-.772 4.187h-22.455l8.412-45.063" fill="#231f20"/><path d="M732.543 91.388l-.12-.132c-2.64 7.085-9.275 10.688-14.686 10.688-3.723 0-6.563-2.891-6.563-6.816 0-2.261.199-3.677.647-5.801l4.046-20.341h5.224l-4.061 19.632c-.316 1.288-.579 3.544-.579 5.087 0 2.7 1.684 3.989 4.515 3.989 5.015 0 11.836-9.462 13.324-17.769l1.994-10.94h5.143l-6.051 32.188h-5.014l2.181-9.785" fill="#231f20"/><path d="M759.455 100.401c-2.191.896-4.511 1.543-6.509 1.543-5.785 0-7.724-4.058-6.496-10.173l3.731-19.376h-4.054l.714-3.409h4.046l1.423-7.726 5.595-1.934-1.801 9.66h7.596l-.703 3.409h-7.6l-3.796 19.957c-.714 3.679.059 5.73 2.498 5.73 1.748 0 3.55-.515 4.836-.903l.52 3.223" fill="#231f20"/><path d="M773.739 76.709l.133.124c2.705-3.729 6.761-8.621 14.537-8.621 3.68 0 6.964 2.637 6.964 6.562 0 2.254-.385 3.929-.846 6.056l-4.056 20.342h-5.211l4.063-19.637c.325-1.288.645-3.539.645-5.083 0-2.384-1.417-3.995-4.513-3.995-5.277 0-12.226 7.724-13.769 16.355l-2.259 12.36h-5.147l8.877-47.318h5.159l-4.576 22.855" fill="#231f20"/><path d="M805.669 83.787c1.354-6.438 6.956-11.712 11.334-11.712 2.308 0 4.053 1.803 3.864 4.503-.32 3.862-6.245 7.983-15.197 7.209m14.545 11.719c-1.67.898-5.282 2.576-8.559 2.576-6.508 0-7.016-6.179-6.755-10.557 10.559.64 21.501-4.253 21.501-11.978 0-5.274-4.054-7.334-7.595-7.334-11.393 0-19.446 12.102-19.446 21.755 0 7.094 3.22 11.976 10.046 11.976 4.12 0 8.359-.893 12.617-3.223l-1.81-3.215" fill="#231f20"/><path d="M837.786 74.253l.134.14c3.215-3.995 5.018-6.18 8.684-6.18 1.744 0 3.016 1.155 4.19 2.185l-2.706 3.606c-.505-.258-1.73-.641-3.471-.641-3.61 0-7.013 3.862-8.89 13.582l-2.704 14.229h-5.215l6.054-32.188h5.089l-1.164 5.268" fill="#231f20"/><path d="M872.487 78.77c-.979 11.713-7.857 18.797-13.071 18.797-3.41 0-5.402-2.832-5.402-7.725 0-11.072 5.723-17.767 12.293-17.767 3.606 0 6.563 3.731 6.181 6.695m7.144-9.785h-5.279l-.639 3.604h-.135c-1.35-2.707-4.45-4.377-7.146-4.377-9.911 0-17.964 10.166-17.964 21.888 0 6.961 4.069 11.844 9.018 11.844 5.536 0 10.488-4.883 11.904-6.943l.131.127-1.161 6.045h5.219l6.053-32.188" fill="#231f20"/><path d="M891.342 76.709l.126.124c2.699-3.729 6.769-8.621 14.556-8.621 3.66 0 6.941 2.637 6.941 6.562 0 2.254-.384 3.929-.835 6.056l-4.046 20.342h-5.221l4.06-19.637c.326-1.288.642-3.539.642-5.083 0-2.384-1.42-3.995-4.504-3.995-5.279 0-12.241 7.724-13.775 16.355l-2.259 12.36h-5.146l6.044-32.188h5.02l-1.604 7.724" fill="#231f20"/><path d="M935.821 74.135c-1.6-1.288-3.8-2.318-5.85-2.318-1.934 0-4.32 1.545-4.32 3.73 0 2.771 2.188 4.443 4.825 7.468 2.771 3.156 5.218 6.055 5.218 9.786 0 4.634-4.313 9.143-11.588 9.143-3.283 0-6.44-1.162-8.94-2.964l2.244-3.731c2.249 1.812 4.511 2.832 7.093 2.832 2.697 0 5.654-1.677 5.654-4.634 0-3.223-1.346-4.253-4.697-7.984-2.119-2.383-5.345-5.149-5.345-9.27 0-3.736 3.348-7.981 10.174-7.981 3.731 0 6.317 1.545 7.987 2.7l-2.454 3.222" fill="#231f20"/><path d="M33.93 68.757c-12.651-16.16-24.269-40.763-24.269-52.821 0-7.463 3.607-13.04 11.192-13.04 9.636 0 19.618 10.896 26.819 23.2 1.999-3.314 4.414-6.491 7.336-9.414l.059-.059c-5.982-8.63-16.813-16.622-29.96-16.622-16.86 0-25.107 11.816-25.107 27.383 0 23.584 17.329 52.014 27.39 59.627 5.64-1.238 6.275-9.107 6.54-18.253" fill="#231f20"/><path d="M87.99 13.368c-2.262 0-4.632 1.505-6.838 3.655.726 1.825.966 3.854.966 5.647 0 11.366-9.388 31.394-14.486 31.394-2.303 0-3.324-5.161-4.638-12.304-1.016 2.726-2.052 6.058-3.24 9.694 1.848 3.015 3.883 4.714 6.883 4.714 11.853 0 27.833-20.437 27.833-34.873l-.004-.126c-.036-5.215-2.298-7.801-6.476-7.801" fill="#231f20"/><path d="M62.994 41.76c4.918-13.185 10.503-22.932 15.99-27.983 2.758-2.538 5.492-3.895 8.104-3.895.697 0 1.755.184 2.906.762-4.06-3.224-9.788-3.321-12.315-3.321-9.11 0-17.074 3.791-22.613 9.3l-.059.059c-2.922 2.922-5.337 6.1-7.336 9.414-4.568 7.574-6.955 15.856-8.191 23.423-1.435 8.785-1.532 16.922-1.974 23.549-.532 7.983-1.568 13.779-6.047 15.891l.226.012c3.073 0 7.83-2.593 11.854-6.616 8.486-8.486 12.936-20.863 16.215-30.899 1.188-3.636 2.224-6.969 3.24-9.694" fill="#231f20"/><path d="M942.61 74.095c0-2.816 2.26-5.134 5.049-5.134 2.774 0 5.034 2.318 5.034 5.134 0 2.844-2.26 5.161-5.034 5.161-2.789 0-5.049-2.317-5.049-5.161zm9.172 0c0-2.318-1.849-4.295-4.124-4.295-2.275 0-4.139 1.978-4.139 4.295 0 2.346 1.864 4.323 4.139 4.323 2.275 0 4.124-1.976 4.124-4.323zm-6.072-2.93h2.19c1.209 0 1.949.525 1.949 1.45 0 .825-.44 1.309-.981 1.593l1.394 2.347-1.423.199-1.151-2.262h-.627v2.175h-1.35v-5.503zm1.35 2.502h.484c.699 0 .925-.525.925-.896 0-.584-.412-.782-.854-.782h-.555v1.678"/><path d="M123.431 121.475h-13.539l-2.902 15.471h13.41l-1.16 5.742h-13.347l-3.35 18.181h-8.191l8.446-45.132h21.725l-1.093 5.737" fill="#231f20"/><path d="M125.106 147.717c0-13.54 10.056-19.861 18.051-19.861 10.059 0 13.669 7.095 13.669 13.413 0 10.315-6.577 20.373-17.925 20.373-8.313 0-13.795-6.582-13.795-13.926zm23.468-6.707c0-4.514-1.804-8.513-5.933-8.513-7.221 0-9.284 9.546-9.284 14.7 0 6.06 2.196 9.802 7.094 9.802 2.447 0 8.123-2.188 8.123-15.989" fill="#231f20"/><path d="M181.131 154.419l-.131-.125c-4.381 5.867-8.246 7.349-12.116 7.349-3.031 0-6.835-2.065-6.835-7.417 0-1.87.258-4.189.835-7.029l3.804-18.569h7.676l-3.744 18.508c-.384 1.87-.578 3.286-.578 4.448-.194 3.477 2.129 4.512 2.965 4.512 3.676 0 8.961-7.544 10.637-16.697l1.934-10.771h7.737l-6.059 32.241h-7.61l1.484-6.45" fill="#231f20"/><path d="M208.6 134.692l.128.124c4.9-5.41 8.963-6.96 13.152-6.96 4.579 0 7.025 2.063 7.025 7.415 0 1.87-.253 4.194-.835 7.029l-3.804 18.569h-7.673l3.74-18.506c.384-1.87.578-3.289.578-4.448.194-3.479-1.354-4.38-3.479-4.38-3.676 0-9.739 7.41-11.416 16.562l-1.929 10.771h-7.736l6.059-32.241h7.609l-1.419 6.064" fill="#231f20"/><path d="M254.248 156.096l-.134-.132-1.545 1.809c-1.033 1.16-4.899 3.87-9.803 3.87-5.735 0-9.281-5.029-9.281-11.997 0-10.315 7.736-21.79 17.791-21.79 2.71 0 5.806 1.033 7.353 2.966l3.353-17.339h7.737l-8.835 47.385h-7.673l1.036-4.773zm-2.58-23.079c-3.355 0-9.929 4.641-9.929 15.989 0 4.319 2.063 7.026 5.025 7.026 3.739 0 9.545-3.933 11.09-20.376-2.32-2.19-3.09-2.639-6.186-2.639" fill="#231f20"/><path d="M298.539 160.869h-7.673l1.026-4.773-.126-.132-1.545 1.809c-1.032 1.16-4.905 3.87-9.805 3.87-5.734 0-9.28-5.029-9.28-11.997 0-10.315 7.736-21.79 17.794-21.79 2.709 0 5.805 1.033 7.349 2.966l.52-2.195h7.734l-5.994 32.241zm-9.221-27.788c-3.351 0-9.929 4.578-9.929 15.925 0 4.319 2.061 7.026 5.026 7.026 3.744 0 9.545-3.933 11.09-20.376-2.32-2.19-3.096-2.576-6.188-2.576" fill="#231f20"/><path d="M325.295 159.578c-2.518 1.355-5.481 2.065-7.994 2.065-5.676 0-8.837-2.9-7.029-11.545l3.541-17.08h-4.059l.77-4.39h4.065l1.484-7.734 8.06-1.936-1.808 9.67h7.606l-.835 4.39h-7.61l-3.353 16.052c-1.353 6.641 1.034 7.351 2.711 7.351 1.671 0 2.704-.52 3.866-1.096l.583 4.253" fill="#231f20"/><path d="M343.795 128.628l-6 32.241h-7.735l5.999-32.241h7.736zm-6.577-9.67c.451-2.446 2.774-4.958 5.35-4.958 2.711 0 4.322 2.446 3.873 4.958-.516 2.778-2.837 5.42-5.676 5.42-2.704 0-4.06-2.642-3.546-5.42" fill="#231f20"/><path d="M347.21 147.717c0-13.54 10.06-19.861 18.054-19.861 10.055 0 13.668 7.095 13.668 13.413 0 10.315-6.571 20.373-17.922 20.373-8.317 0-13.799-6.582-13.799-13.926zm23.47-6.707c0-4.514-1.809-8.513-5.93-8.513-7.221 0-9.289 9.546-9.289 14.7 0 6.06 2.195 9.802 7.091 9.802 2.454 0 8.127-2.188 8.127-15.989" fill="#231f20"/><path d="M394.858 134.692l.125.124c4.905-5.41 8.966-6.96 13.156-6.96 4.572 0 7.026 2.063 7.026 7.415 0 1.87-.258 4.194-.84 7.029l-3.799 18.569h-7.674l3.736-18.506c.393-1.87.581-3.289.581-4.448.198-3.479-1.35-4.38-3.479-4.38-3.68 0-9.735 7.41-11.416 16.562l-1.931 10.771h-7.737l6.056-32.241h7.614l-1.419 6.064" fill="#231f20"/></g></svg>