<svg xmlns="http://www.w3.org/2000/svg" width="580.755" height="161.944"><defs><clipPath id="b"><path d="M621.301 1236.99c-72.84 0-136.551-30.31-180.84-74.36-.148-.18-.387-.38-.504-.48-23.34-23.36-42.668-48.85-58.648-75.34-36.586-60.61-55.621-126.837-65.512-187.365-11.504-70.254-12.324-135.371-15.863-188.425-4.176-63.926-12.508-110.274-48.411-127.207.684 0 1.266-.059 1.856-.059 24.633 0 62.684 20.809 94.82 52.976 67.836 67.891 103.535 166.868 129.727 247.2 9.531 29.14 17.773 55.742 25.953 77.605 39.285 105.445 84.019 183.485 127.867 223.865 22.07 20.31 43.938 31.14 64.824 31.14 5.602 0 14.043-1.47 23.254-6.12-32.543 25.78-78.277 26.57-98.523 26.57z"/></clipPath><linearGradient x2="1" id="a" gradientUnits="userSpaceOnUse" gradientTransform="matrix(22.08 -26.318 -26.313 -22.084 33.831 107.278)"><stop offset="0" stop-color="#e91b23"/><stop offset="1" stop-color="#550709"/></linearGradient></defs><g><path d="M37.492 73.066c-13.942-15.736-27.839-43.951-27.839-57.139 0-7.456 3.612-13.034 11.194-13.034 9.638 0 19.618 10.889 26.817 23.199 1.998-3.311 4.413-6.497 7.331-9.418l.063-.06c-5.985-8.623-16.811-16.615-29.963-16.615-16.851 0-25.095 11.808-25.095 27.379 0 27.23 23.108 60.944 31.44 61.588 4.488-2.117 5.529-7.91 6.051-15.901" fill="#efc905"/><path d="M89.978 10.641c-1.151-.581-2.207-.765-2.907-.765-2.611 0-5.344 1.354-8.103 3.893 2.476 2.257 3.138 5.9 3.138 8.902 0 11.366-9.391 31.393-14.486 31.393-2.311 0-3.318-5.158-4.635-12.312-1.022 2.733-2.053 6.058-3.244 9.701 1.853 3.017 3.877 4.719 6.886 4.719 11.852 0 27.828-20.443 27.828-34.884 0-5.313-1.901-8.607-4.477-10.646" fill="#efc905"/><path d="M77.663 7.32c-9.105 0-17.069 3.789-22.605 9.295l-.063.06c-2.917 2.92-5.333 6.106-7.331 9.418-4.573 7.576-6.953 15.855-8.189 23.421-1.438 8.782-1.541 16.921-1.983 23.553-.522 7.991-1.564 13.784-6.051 15.901l.232.007c3.079 0 7.835-2.601 11.852-6.622 8.479-8.486 12.942-20.858 16.216-30.9 1.191-3.643 2.222-6.968 3.244-9.701 4.911-13.181 10.502-22.936 15.983-27.983 2.759-2.539 5.492-3.893 8.103-3.893.7 0 1.755.184 2.907.765-4.068-3.223-9.785-3.321-12.315-3.321" fill="url(#a)" clip-path="url(#b)"/><path d="M362.23 61.885h-13.492l-2.899 15.42h13.377l-1.165 5.74h-13.305l-3.336 18.127h-8.159l8.416-45h21.66l-1.097 5.713" fill="#231f20"/><path d="M369.382 59.384c.463-2.439 2.769-4.958 5.344-4.958 2.7 0 4.305 2.445 3.851 4.958-.519 2.759-2.821 5.396-5.654 5.396-2.704 0-4.049-2.638-3.541-5.396zm6.558 9.637l-5.97 32.151h-7.718l5.973-32.151h7.715" fill="#231f20"/><path d="M389.905 75.068l.128.133c4.891-5.409 8.94-6.946 13.119-6.946 4.569 0 7.01 2.061 7.01 7.386 0 1.865-.266 4.184-.838 7.004l-3.789 18.525h-7.651l3.723-18.459c.391-1.858.589-3.274.589-4.432.179-3.477-1.35-4.359-3.484-4.359-3.66 0-9.701 7.388-11.379 16.509l-1.92 10.742h-7.718l6.055-32.151h7.579l-1.424 6.047" fill="#231f20"/><path d="M447.267 69.021h-7.714l-.509 2.196c-1.551-1.931-4.635-2.961-7.339-2.961-10.021 0-17.73 11.441-17.73 21.722 0 6.953 3.531 11.956 9.244 11.956 4.881 0 8.745-2.698 9.775-3.845l1.549-1.802.129.129-1.034 4.756h7.655l5.974-32.151zm-8.994 7.016c-1.545 16.388-7.339 20.306-11.071 20.306-2.944 0-5.003-2.686-5.003-7.009 0-11.311 6.548-15.873 9.895-15.873 3.089 0 3.861.387 6.179 2.576" fill="#231f20"/><path d="M461.111 75.068l.119.133c4.891-5.409 8.939-6.946 13.116-6.946 4.563 0 7.011 2.061 7.011 7.386 0 1.865-.261 4.184-.835 7.004l-3.799 18.525h-7.652l3.736-18.459c.384-1.858.579-3.274.579-4.432.186-3.477-1.35-4.359-3.476-4.359-3.66 0-9.704 7.388-11.366 16.509l-1.942 10.742h-7.715l6.053-32.151h7.581l-1.409 6.047" fill="#231f20"/><path d="M509.183 98.34c-3.719 2.573-6.497 3.594-10.101 3.594-8.344 0-13.482-5.903-13.482-14.137 0-9.259 6.94-19.541 18.125-19.541 3.598 0 6.569 1.405 8.607 3.734l-3.208 3.984c-1.285-.772-2.961-1.998-5.661-1.998-5.271 0-9.637 5.592-9.637 13.685 0 4.763 2.384 8.56 6.559 8.56 3.34 0 4.692-1.35 6.367-2.251l2.431 4.37" fill="#231f20"/><path d="M520.303 59.384c.445-2.439 2.771-4.958 5.343-4.958 2.7 0 4.299 2.445 3.855 4.958-.512 2.759-2.835 5.396-5.66 5.396-2.695 0-4.049-2.638-3.538-5.396zm6.558 9.637l-5.971 32.151h-7.72l5.979-32.151h7.713" fill="#231f20"/><path d="M562.61 69.021h-7.706l-.504 2.196c-1.558-1.931-4.634-2.961-7.344-2.961-10.015 0-17.738 11.441-17.738 21.722 0 6.953 3.527 11.956 9.25 11.956 4.895 0 8.752-2.698 9.784-3.845l1.534-1.802.126.129-1.021 4.756h7.643l5.976-32.151zm-8.992 7.016c-1.546 16.388-7.334 20.316-11.056 20.316-2.961 0-5.016-2.695-5.016-7.019 0-11.311 6.554-15.873 9.901-15.873 3.081 0 3.873.387 6.171 2.576" fill="#231f20"/><path d="M564.236 101.172l8.806-47.256h7.713l-8.807 47.256h-7.711" fill="#231f20"/><path d="M99.593 101.172l7.329-39.287h-12.467l1.085-5.713h33.174l-1.089 5.713h-12.533l-7.332 39.287h-8.166" fill="#231f20"/><path d="M137.41 75.068l.39.133c4.881-5.409 8.939-6.946 13.11-6.946 4.304 0 6.746 2.061 6.746 7.386 0 1.865-.26 4.184-.831 7.004l-3.796 18.525h-7.647l3.726-18.459c.383-1.858.574-3.274.574-4.432.199-3.477-1.35-4.359-3.469-4.359-3.66 0-9.711 7.388-11.377 16.509l-1.92 10.742h-7.725l8.879-47.256h7.711l-4.37 21.152" fill="#231f20"/><path d="M193.361 59.384c.451-2.439 2.759-4.958 5.335-4.958 2.699 0 4.31 2.445 3.855 4.958-.516 2.759-2.834 5.396-5.659 5.396-2.696 0-4.046-2.638-3.531-5.396zm6.548 9.637l-5.966 32.151h-7.721l5.992-32.151h7.695" fill="#231f20"/><path d="M253.863 93.196c-2.958 2.19-6.048 3.091-8.104 3.025-5.595-.124-5.841-5.728-5.466-8.292 7.071-.268 19.735-4.635 19.735-12.985 0-4.628-4.503-6.688-8.092-6.688-12.672 0-19.801 12.074-19.801 21.078 0 7.717 3.984 12.6 9.961 12.6 3.473 0 8.74-.637 13.949-4.5l-2.181-4.238zm-12.864-9.776c1.736-5.912 5.47-10.278 8.939-10.278 2.053 0 3.09.897 2.954 2.958-.254 4.113-5.849 6.806-11.893 7.321" fill="#231f20"/><path d="M273.341 75.068l.124.133c4.883-5.409 8.94-6.946 13.107-6.946 4.576 0 7.008 2.061 7.008 7.386 0 1.865-.25 4.184-.831 7.004l-3.795 18.525h-7.645l3.723-18.459c.394-1.858.589-3.274.589-4.432.184-3.477-1.361-4.359-3.473-4.359-3.671 0-9.711 7.388-11.381 16.509l-1.931 10.742h-7.715l6.045-32.151h7.581l-1.405 6.047" fill="#231f20"/><path d="M315.306 99.885c-2.505 1.35-5.452 2.048-7.96 2.048-5.666 0-8.804-2.881-7.011-11.504l3.539-17.031h-4.058l.772-4.378h4.05l1.479-7.71 8.033-1.927-1.794 9.637h7.581l-.831 4.378h-7.589l-3.336 16.01c-1.35 6.622 1.018 7.328 2.695 7.328 1.67 0 2.694-.515 3.855-1.094l.575 4.243" fill="#231f20"/><path d="M183.459 68.384l-.129.012-.258-.022c-5.019 0-8.988 7.681-10.867 12.434l2.336-11.787h-7.67l-6.032 32.151h7.589c1.17-7.012 3.679-15.332 6.754-20.72h.03l.131-.27c.456-.78.935-1.478 1.403-2.111 1.232-1.392 2.627-1.973 3.947-1.973 1.545 0 2.244.391 3.022.654l4.121-6.051c-.964-1.288-2.641-2.318-4.378-2.318" fill="#231f20"/><path d="M212.439 68.999c2.986 7.681 3.649 18.294 3.06 22.918 3.192-4.487 8.464-13.279 9.963-22.918h6.319c-2.598 13.476-11.849 26.25-17.315 32.173h-6.61c1.434-8.276.784-22.468-4.031-32.173h8.615" fill="#231f20"/><path d="M94.455 161.173l5.411-28.78h-4.639l.644-3.408h4.636l.709-3.929c1.603-9.079 6.696-11.204 10.558-11.204 1.538 0 3.215.579 4.245 1.35l-1.677 2.966c-.766-.256-1.549-.452-2.7-.452-.899 0-3.865.256-4.827 5.469l-1.097 5.799h6.952l-.64 3.408h-6.953l-5.405 28.78h-5.217" fill="#231f20"/><path d="M128.37 128.21c-10.87 0-17.378 10.045-17.378 19.571 0 6.306 3.797 14.163 13.075 14.163 9.524 0 16.278-9.526 16.278-19.703 0-8.496-5.464-14.031-11.975-14.031zm-.507 3.863c6.692 0 6.954 7.983 6.954 10.302 0 8.106-4.313 15.707-10.631 15.707-6.743 0-7.652-7.6-7.652-10.3 0-7.725 4.117-15.709 11.329-15.709" fill="#231f20"/><path d="M153.097 134.25l.121.143c3.224-3.998 5.022-6.183 8.701-6.183 1.729 0 3.016 1.155 4.179 2.185l-2.704 3.607c-.517-.256-1.736-.64-3.476-.64-3.609 0-7.016 3.862-8.881 13.582l-2.711 14.229h-5.205l6.04-32.188h5.088l-1.151 5.265" fill="#231f20"/><path d="M189.711 116.108h5.61l-7.659 40.877h16.863l-.772 4.188h-22.455l8.414-45.064" fill="#231f20"/><path d="M230.139 151.386l-.12-.131c-2.64 7.085-9.275 10.689-14.685 10.689-3.724 0-6.564-2.891-6.564-6.816 0-2.261.199-3.677.647-5.801l4.046-20.341h5.224l-4.061 19.631c-.316 1.289-.579 3.545-.579 5.087 0 2.7 1.684 3.989 4.515 3.989 5.015 0 11.836-9.462 13.324-17.769l1.994-10.939h5.143l-6.051 32.188h-5.014l2.181-9.786" fill="#231f20"/><path d="M257.053 160.4c-2.192.896-4.513 1.544-6.509 1.544-5.786 0-7.725-4.058-6.497-10.174l3.731-19.377h-4.054l.714-3.408h4.046l1.424-7.728 5.594-1.934-1.801 9.661h7.596l-.703 3.408h-7.599l-3.797 19.959c-.714 3.679.059 5.73 2.498 5.73 1.748 0 3.55-.515 4.838-.904l.52 3.222" fill="#231f20"/><path d="M271.335 136.709l.133.125c2.705-3.731 6.761-8.624 14.539-8.624 3.679 0 6.963 2.64 6.963 6.563 0 2.256-.385 3.931-.846 6.058l-4.056 20.342h-5.211l4.063-19.636c.325-1.29.645-3.541.645-5.083 0-2.385-1.417-3.996-4.513-3.996-5.277 0-12.226 7.724-13.768 16.355l-2.26 12.361h-5.147l8.879-47.32h5.157l-4.576 22.856" fill="#231f20"/><path d="M317.81 155.505c-1.67.899-5.282 2.577-8.559 2.577-6.508 0-7.016-6.18-6.755-10.557 10.559.639 21.501-4.253 21.501-11.977 0-5.276-4.054-7.337-7.595-7.337-11.393 0-19.446 12.105-19.446 21.756 0 7.094 3.22 11.978 10.047 11.978 4.119 0 8.357-.894 12.616-3.223l-1.81-3.216zm-14.545-11.719c1.354-6.438 6.956-11.713 11.334-11.713 2.308 0 4.053 1.805 3.864 4.505-.32 3.862-6.245 7.982-15.197 7.208" fill="#231f20"/><path d="M335.382 134.25l.134.143c3.215-3.998 5.018-6.183 8.684-6.183 1.744 0 3.016 1.155 4.19 2.185l-2.706 3.607c-.504-.256-1.73-.64-3.47-.64-3.611 0-7.014 3.862-8.891 13.582l-2.704 14.229h-5.215l6.054-32.188h5.089l-1.164 5.265" fill="#231f20"/><path d="M377.228 128.985h-5.277l-.64 3.603h-.135c-1.35-2.708-4.45-4.377-7.146-4.377-9.911 0-17.962 10.169-17.962 21.89 0 6.96 4.067 11.844 9.016 11.844 5.536 0 10.488-4.884 11.904-6.944l.131.127-1.161 6.045h5.219l6.053-32.188zm-7.144 9.785c-.979 11.711-7.858 18.796-13.071 18.796-3.41 0-5.402-2.833-5.402-7.725 0-11.071 5.723-17.769 12.293-17.769 3.606 0 6.563 3.731 6.181 6.697" fill="#231f20"/><path d="M388.939 136.709l.126.125c2.699-3.731 6.769-8.624 14.556-8.624 3.66 0 6.941 2.64 6.941 6.563 0 2.256-.383 3.931-.835 6.058l-4.046 20.342h-5.221l4.06-19.636c.326-1.29.642-3.541.642-5.083 0-2.385-1.42-3.996-4.504-3.996-5.277 0-12.241 7.724-13.775 16.355l-2.259 12.361h-5.146l6.044-32.188h5.021l-1.605 7.724" fill="#231f20"/><path d="M433.418 134.134c-1.6-1.288-3.8-2.317-5.85-2.317-1.934 0-4.32 1.545-4.32 3.731 0 2.77 2.189 4.443 4.825 7.468 2.771 3.155 5.218 6.055 5.218 9.785 0 4.634-4.311 9.144-11.587 9.144-3.282 0-6.44-1.163-8.94-2.964l2.244-3.731c2.249 1.811 4.511 2.833 7.094 2.833 2.696 0 5.652-1.678 5.652-4.634 0-3.223-1.346-4.254-4.697-7.984-2.119-2.382-5.345-5.149-5.345-9.27 0-3.737 3.348-7.984 10.175-7.984 3.73 0 6.316 1.546 7.986 2.701l-2.454 3.223" fill="#231f20"/><path d="M443.724 133.56h.471c.68 0 .902-.513.902-.874 0-.57-.401-.763-.834-.763h-.54v1.636zm-1.316-2.44h2.136c1.177 0 1.897.513 1.897 1.414 0 .805-.429 1.276-.955 1.554l1.359 2.289-1.387.194-1.123-2.205h-.611v2.12h-1.316v-5.365zm5.92 2.857c0-2.261-1.801-4.19-4.02-4.19-2.219 0-4.035 1.929-4.035 4.19 0 2.288 1.816 4.214 4.035 4.214 2.219 0 4.02-1.926 4.02-4.214zm-8.943 0c0-2.748 2.204-5.006 4.923-5.006 2.703 0 4.907 2.259 4.907 5.006 0 2.771-2.205 5.03-4.907 5.03-2.719 0-4.923-2.259-4.923-5.03" fill="#231f20"/></g></svg>