<svg xmlns="http://www.w3.org/2000/svg" width="788.75" height="857.866"><g><path d="M.625 516.895h787.5v-516.27h-787.5v516.27z" fill="#231f20"/><path d="M.625 516.895h787.5v-516.27h-787.5v516.27z" stroke="#231f20" stroke-width="1.25" fill="none"/><path d="M258.957 291v-22.617c0-4.545-2.219-7.152-6.089-7.152-4.519 0-7.218 2.774-7.218 7.418v22.352h-8.905v-22.617c0-4.545-2.22-7.152-6.09-7.152-4.518 0-7.216 2.774-7.216 7.418v22.352h-8.902v-37.477h8.902v1.674c2.349-1.775 5.5-2.473 8.211-2.473 2.897 0 6.934.536 10.179 4.729 2.405-3.067 6.329-4.729 11.304-4.729 8.946 0 14.729 5.888 14.729 14.995v23.281h-8.905" fill="#fff"/><path d="M276.955 305.585l7.058-16.585-15.006-35.477h9.956l10.1 24.314 10.22-24.314h9.575l-22.483 52.063h-9.42" fill="#fff"/><path d="M296.469 310.203c-2.556 1.021-5.77 1.669-8.482 2.669-19.121 7.046-16.747 18.371-13.867 26.456-8.804-5.339-11.355-12.915-14.429-22.169l-6.022-.434c-13.988-1.005-28.485-5.065-40.245-12.87-8.436-5.599-16.203-13.738-18.634-23.84-.514-2.126-.772-4.301-.772-6.489 0-2.188.259-4.359.772-6.485 2.651-11.014 11.615-19.679 21.015-25.348 13.345-8.047 29.625-11.623 45.106-11.623 15.475 0 31.755 3.575 45.101 11.623 9.4 5.669 18.36 14.334 21.011 25.348.514 2.126.775 4.298.775 6.485 0 17.396-15.985 30.052-30.578 36.326l-.502.219-.249.131zm-35.559-93.343c-44.236 0-80.106 25.376-80.106 56.666 0 29.339 31.526 53.475 71.915 56.379 9.999 13.394 24.896 21.13 46.075 26.901-32.736-30.698-3.074-31.241 3.646-34.816 23.121-9.94 38.57-27.929 38.57-48.464 0-31.29-35.873-56.666-80.1-56.666" fill="#fff" fill-rule="evenodd"/><path d="M336.637 223.601h-26.381v-12.496h66.094v12.496h-26.383v93.03h-13.33v-93.03" fill="#fff"/><path d="M389.675 278.447c-15.274 0-20.413 7.357-20.413 14.439 0 7.084 5.139 14.441 20.413 14.441 15.274 0 20.409-7.357 20.409-14.441 0-7.081-5.135-14.439-20.409-14.439zm19.994-10.276c0-11.94-11.941-14.576-21.659-14.576-6.805 0-13.194 1.664-19.999 4.996l-5.414-10.412c10.97-4.585 19.579-5.558 26.104-5.558 17.359 0 33.464 7.361 33.464 24.578v49.432h-11.668v-7.777c-6.381 6.669-13.465 9.444-23.044 9.444-17.634 0-31.52-9.859-31.52-25.965 0-13.19 11.246-24.855 31.38-24.855 7.639 0 15.688 2.221 22.355 8.191v-7.497" fill="#fff"/><path d="M440.07 211.105v82.892c0 8.191 4.021 10.967 8.05 10.967h3.75v11.666h-5.138c-11.525 0-19.161-6.526-19.161-21.661v-83.865h12.499" fill="#fff"/><path d="M500.966 244.288h16.383l-33.46 33.465 34.154 38.877h-17.491l-30.131-35.129v35.129h-12.498v-105.526h12.498v64.704l30.546-31.52" fill="#fff"/><path d="M491.845 230.687v-46.725l-11.26 6.694v-12.339l22.425-12.61v64.98h-11.165" fill="#fff"/><path d="M531.521 178.875c-7.386 0-7.956 6.694-7.956 8.746v24.648c0 2.051.57 8.748 7.956 8.748 7.391 0 7.961-6.696 7.961-8.748v-24.648c0-2.053-.57-8.746-7.961-8.746zm0 52.441c-11.97 0-19.129-7.973-19.129-21.331v-22.126c0-11.402 8.045-19.68 19.129-19.68 11.088 0 19.129 8.277 19.129 19.68v22.126c0 13.359-7.154 21.331-19.129 21.331" fill="#fff"/><path d="M554.6 230.687l21.416-51.184h-22.361v-10.695h38.642l-25.714 61.879h-11.984" fill="#fff"/><path d="M594.25 231.316c-3.991 0-7.236-3.246-7.236-7.237 0-3.989 3.245-7.235 7.236-7.235 3.991 0 7.239 3.246 7.239 7.235 0 3.991-3.248 7.237-7.239 7.237" fill="#fff"/><path d="M615.981 230.687v-46.725l-11.268 6.694v-12.339l22.43-12.61v64.98h-11.162" fill="#fff"/><path d="M258.957 792.057v-22.617c0-4.543-2.219-7.151-6.089-7.151-4.519 0-7.218 2.773-7.218 7.417v22.35h-8.905v-22.617c0-4.543-2.22-7.151-6.09-7.151-4.518 0-7.216 2.773-7.216 7.417v22.35h-8.902v-37.475h8.902v1.672c2.349-1.775 5.5-2.474 8.211-2.474 2.897 0 6.934.538 10.179 4.73 2.405-3.067 6.329-4.73 11.304-4.73 8.946 0 14.729 5.889 14.729 14.995v23.281h-8.905" fill="#231f20"/><path d="M276.955 806.642l7.058-16.584-15.006-35.476h9.956l10.1 24.311 10.22-24.311h9.575l-22.483 52.06h-9.42" fill="#231f20"/><path d="M296.469 811.262c-2.556 1.023-5.77 1.67-8.482 2.669-19.121 7.045-16.747 18.371-13.867 26.457-8.804-5.34-11.355-12.915-14.429-22.171l-6.022-.431c-13.988-1.006-28.485-5.066-40.245-12.871-8.436-5.599-16.203-13.739-18.634-23.841-.514-2.127-.772-4.299-.772-6.486 0-2.188.259-4.36.772-6.487 2.651-11.013 11.615-19.678 21.015-25.346 13.345-8.046 29.625-11.624 45.106-11.624 15.475 0 31.755 3.578 45.101 11.624 9.4 5.668 18.36 14.334 21.011 25.346.514 2.127.775 4.3.775 6.487 0 17.395-15.985 30.051-30.578 36.325l-.502.217-.249.132zm-35.559-93.342c-44.236 0-80.106 25.376-80.106 56.667 0 29.339 31.526 53.474 71.915 56.376 9.999 13.394 24.896 21.131 46.075 26.902-32.736-30.699-3.074-31.24 3.646-34.817 23.121-9.939 38.57-27.926 38.57-48.461 0-31.291-35.873-56.667-80.1-56.667" fill="#231f20" fill-rule="evenodd"/><path d="M336.637 724.661h-26.381v-12.498h66.094v12.498h-26.383v93.029h-13.33v-93.029" fill="#231f20"/><path d="M389.675 779.506c-15.274 0-20.413 7.356-20.413 14.438 0 7.082 5.139 14.441 20.413 14.441 15.274 0 20.409-7.359 20.409-14.441 0-7.082-5.135-14.438-20.409-14.438zm19.994-10.275c0-11.941-11.941-14.576-21.659-14.576-6.805 0-13.194 1.664-19.999 4.997l-5.414-10.413c10.97-4.585 19.579-5.56 26.104-5.56 17.359 0 33.464 7.364 33.464 24.578v49.434h-11.668v-7.777c-6.381 6.67-13.465 9.442-23.044 9.442-17.634 0-31.52-9.857-31.52-25.964 0-13.188 11.246-24.854 31.38-24.854 7.639 0 15.688 2.219 22.355 8.191v-7.497" fill="#231f20"/><path d="M440.07 712.163v82.892c0 8.191 4.021 10.966 8.05 10.966h3.75v11.668h-5.138c-11.525 0-19.161-6.525-19.161-21.663v-83.864h12.499" fill="#231f20"/><path d="M500.966 745.347h16.383l-33.46 33.466 34.154 38.877h-17.491l-30.131-35.129v35.129h-12.498v-105.526h12.498v64.704l30.546-31.52" fill="#231f20"/><path d="M491.845 731.745v-46.722l-11.26 6.694v-12.339l22.425-12.61v64.978h-11.165" fill="#231f20"/><path d="M531.521 679.933c-7.386 0-7.956 6.695-7.956 8.745v24.649c0 2.051.57 8.748 7.956 8.748 7.391 0 7.961-6.696 7.961-8.748v-24.649c0-2.05-.57-8.745-7.961-8.745zm0 52.441c-11.97 0-19.129-7.974-19.129-21.33v-22.126c0-11.404 8.045-19.68 19.129-19.68 11.088 0 19.129 8.276 19.129 19.68v22.126c0 13.356-7.154 21.33-19.129 21.33" fill="#231f20"/><path d="M554.6 731.745l21.416-51.184h-22.361v-10.693h38.642l-25.714 61.876h-11.984" fill="#231f20"/><path d="M594.25 732.375c-3.991 0-7.236-3.246-7.236-7.239 0-3.986 3.245-7.234 7.236-7.234 3.991 0 7.239 3.248 7.239 7.234 0 3.993-3.248 7.239-7.239 7.239" fill="#231f20"/><path d="M615.981 731.745v-46.722l-11.268 6.694v-12.339l22.43-12.61v64.978h-11.162" fill="#231f20"/></g></svg>