<svg xmlns="http://www.w3.org/2000/svg" width="535.165" height="281.266"><path d="M230.626 163.129c-9.564-19.836-23.059-28.526-30.675-31.259 15.941-7.084 24.3-16.7 30.675-35.862v67.121zm190.919-156.915l-38.641 157.27-38.788-157.27h-113.703v58.091c-13.636-50.83-61.809-63.581-106.442-64.29-54.37-.71-111.398 22.846-113.496 94.751h75.243c0-21.703 16.648-34.121 35.42-33.826 23.024-.179 33.65 9.651 34.182 24.971-.796 13.283-8.651 22.541-34.005 22.541h-25.307v52.197h22.98c13.021 0 31.196 7.083 31.915 25.675.875 22.144-14.533 31.885-33.482 32.063-33.828-1.241-39.318-27.249-39.318-49.59h-78.103c.353 15.055-3.365 113.17 119.016 112.46 58.622.534 99.533-24.086 111.576-58.089v52.07h77.04v-169.669l41.621 169.669h67.301l41.796-169.491v169.668h76.815v-269.201h-113.62" fill="#231f20"/></svg>