<svg xmlns="http://www.w3.org/2000/svg" width="284.095" height="89.616"><g><path d="M.625 84.589h282.845v-83.964h-282.845v83.964z" fill="#231f20"/><path d="M.625 84.589h282.845v-83.964h-282.845v83.964z" stroke="#231f20" stroke-width="1.25" fill="none"/><path d="M.625 89.616h282.803v-5.664h-282.803v5.664z" fill="#a7a5a6"/><path d="M26.595 70.556c-3.314-.074-5.818-.147-7.512-.147-1.62 0-4.124.074-7.438.147v-1.473c3.314-.222 3.903-.81 3.903-4.567v-37.118c0-3.683-.589-4.345-3.903-4.64v-1.473c3.314.147 5.818.295 7.512.221 1.62 0 4.124-.073 7.438-.221v1.473c-3.387.295-3.903.884-3.903 4.64l-.074 2.946v31.227l.074 2.945c0 3.756.516 4.345 3.903 4.64v1.399zm5.45-25.851c.958.958 3.241 3.462 6.923 7.365 2.651 2.873 4.419 4.935 5.45 6.334l2.283 3.019c4.346 5.819 6.481 7.585 9.132 7.733v1.473c-3.093-.147-4.566-.221-6.112-.221-1.179 0-2.799 0-4.935.074-5.376-7.585-10.531-13.699-20.547-24.378l-1.105-1.105 12.815-14.067c2.872-3.093 4.419-5.45 4.419-6.481 0-1.326-.737-1.694-3.462-1.694v-1.473c3.462.147 6.112.295 7.88.221 1.768 0 4.345-.073 7.807-.221v1.473c-2.725.148-3.167.516-9.795 7.807l-11.931 12.888c.515.589.884.958 1.178 1.252" fill="#231f20"/><path d="M74.948 28.871l-7.512 20.032h15.024l-7.512-20.032zm-8.911 24.157l-3.093 7.953c-1.105 2.872-1.694 4.861-1.694 5.893 0 1.62.958 2.135 3.83 2.283v1.473c-3.02-.147-5.302-.221-6.849-.221-1.546 0-3.83.074-6.775.147v-1.473c2.873.073 3.388-.59 6.113-7.66l11.415-29.827c1.399-3.756 2.062-5.965 2.062-6.849 0-1.399-.736-1.841-2.945-1.989v-1.473c2.578.147 4.492.221 5.818.221 1.178 0 3.019 0 5.45-.147.662 2.357.884 3.02 2.209 6.628l12.889 33.436c2.725 7.218 3.167 7.733 6.113 7.733v1.473c-3.388-.147-5.966-.221-7.659-.221-1.694 0-4.272.074-7.66.147v-1.473c2.43 0 3.462-.663 3.462-2.136 0-.958-.737-3.461-1.694-5.966l-3.019-7.953h-17.97" fill="#231f20"/><path d="M156.48 66.137h15.981c8.029.073 9.869-1.326 10.752-8.175h1.548c-.664 5.597-.81 6.996-1.031 12.52h-30.933c-2.797 0-4.124 0-7.365.074v-1.473c3.389-.222 3.904-.81 3.904-4.567v-37.118c0-3.683-.515-4.345-3.904-4.64v-1.473c2.799.147 3.756.147 6.85.147h29.532c.147 4.787.295 6.039.958 10.9h-1.472c-1.326-6.04-2.136-6.555-9.206-6.555h-15.614v17.012h9.869c4.934 0 5.819-.663 6.26-4.64h1.4c-.147 3.02-.147 5.229-.147 6.702 0 1.547 0 3.756.147 6.702h-1.326c-.515-3.903-1.4-4.566-6.334-4.566h-9.869v19.148" fill="#231f20"/><path d="M269.506 69.618l-28.701 12.091v-56.219c-.289-1.677-.476-3.127-5.299-1.689-1.985.592-2.391-1.024-.033-2.091 6.412-2.902 26.872-12.332 30.31-13.512 1.256-.431 3.504-.229 3.691 2.252l.031 59.168" fill="#231f20"/><path d="M232.684 69.618l-28.701 12.091v-56.219c-.289-1.677-.475-3.127-5.299-1.689-1.984.592-2.39-1.024-.031-2.091 6.411-2.902 26.871-12.332 30.31-13.512 1.256-.431 3.504-.229 3.69 2.252l.031 59.168" fill="#231f20"/><path d="M25.47 69.431c-3.314-.074-5.819-.147-7.512-.147-1.62 0-4.125.074-7.438.147v-1.473c3.314-.221 3.903-.81 3.903-4.566v-37.118c0-3.682-.589-4.345-3.903-4.64v-1.473c3.314.147 5.818.295 7.512.221 1.62 0 4.124-.074 7.439-.221v1.473c-3.388.295-3.903.884-3.903 4.64l-.074 2.946v31.227l.074 2.946c0 3.756.515 4.345 3.903 4.64v1.399zm5.45-25.851c.958.958 3.24 3.462 6.923 7.364 2.65 2.873 4.418 4.935 5.45 6.335l2.283 3.019c4.346 5.818 6.481 7.585 9.133 7.733v1.473c-3.093-.147-4.567-.221-6.113-.221-1.178 0-2.799 0-4.934.074-5.376-7.586-10.532-13.699-20.548-24.378l-1.105-1.105 12.815-14.067c2.872-3.093 4.419-5.45 4.419-6.481 0-1.326-.737-1.694-3.462-1.694v-1.473c3.462.147 6.113.295 7.88.221 1.768 0 4.345-.074 7.807-.221v1.473c-2.725.148-3.167.516-9.795 7.807l-11.931 12.888c.516.589.884.958 1.179 1.252" fill="#fff"/><path d="M73.823 27.746l-7.512 20.032h15.024l-7.512-20.032zm-8.911 24.157l-3.093 7.954c-1.105 2.872-1.694 4.861-1.694 5.892 0 1.621.957 2.136 3.83 2.283v1.473c-3.02-.147-5.303-.221-6.849-.221-1.547 0-3.83.074-6.776.147v-1.473c2.873.074 3.388-.589 6.113-7.659l11.416-29.828c1.399-3.756 2.062-5.965 2.062-6.849 0-1.399-.736-1.841-2.945-1.989v-1.473c2.578.147 4.492.221 5.818.221 1.179 0 3.019 0 5.45-.147.663 2.357.884 3.02 2.209 6.628l12.888 33.437c2.725 7.217 3.167 7.733 6.113 7.733v1.473c-3.388-.147-5.965-.221-7.66-.221-1.694 0-4.271.074-7.66.147v-1.473c2.431 0 3.462-.663 3.462-2.136 0-.958-.736-3.461-1.694-5.965l-3.019-7.954h-17.97" fill="#fff"/><path d="M110.413 60.446l.074 2.946c0 3.756.515 4.42 4.05 4.64v1.473c-3.388-.147-5.892-.221-7.585-.221-1.694 0-4.198.074-7.586.147v-1.473c3.388-.221 3.904-.81 3.977-4.566v-37.118c-.073-3.682-.589-4.345-3.977-4.64v-1.473l2.651.074 4.64.073h11.563c7.66 0 9.87.295 12.889 1.915 3.756 1.915 6.039 5.892 6.039 10.384 0 7.439-5.524 12.373-15.393 13.699l1.105 1.252 4.935 5.892 4.787 5.892.662.958 3.978 4.787c.441.59.956 1.105 1.546 1.547.443.369.884.663 1.399.958.664.294 1.105.442 2.136.442v1.473c-3.02-.147-4.64-.221-6.186-.221-1.031 0-2.651 0-4.787.074l-.81-1.031c-7.144-9.943-9.501-12.889-17.381-21.874-.957-1.105-1.178-1.399-1.178-1.768 0-.442.368-.663 1.031-.663 4.051 0 6.775-.368 9.427-1.178 4.567-1.399 7.292-4.861 7.292-9.28 0-3.314-1.768-6.26-4.492-7.512-2.431-1.105-4.861-1.399-9.796-1.399h-5.008v35.792" fill="#fff"/><path d="M155.355 65.011h15.981c8.027.074 9.869-1.325 10.752-8.174h1.548c-.664 5.597-.81 6.997-1.031 12.52h-30.933c-2.799 0-4.124 0-7.365.074v-1.473c3.388-.221 3.904-.81 3.904-4.566v-37.118c0-3.682-.516-4.345-3.904-4.64v-1.473c2.799.147 3.756.147 6.85.147h29.532c.147 4.788.295 6.04.958 10.9h-1.472c-1.326-6.039-2.136-6.554-9.206-6.554h-15.614v17.013h9.869c4.934 0 5.819-.663 6.26-4.64h1.4c-.149 3.02-.149 5.229-.149 6.702 0 1.547 0 3.756.149 6.702h-1.326c-.515-3.903-1.4-4.566-6.334-4.566h-9.869v19.148" fill="#fff"/><path d="M268.381 68.493l-28.701 12.091v-56.219c-.29-1.677-.476-3.127-5.3-1.689-1.982.592-2.39-1.024-.03-2.091 6.411-2.902 26.871-12.332 30.309-13.512 1.256-.431 3.505-.229 3.69 2.252l.033 59.167" fill="#fff"/><path d="M231.559 68.493l-28.701 12.091v-56.219c-.289-1.677-.475-3.127-5.299-1.689-1.984.592-2.39-1.024-.031-2.091 6.411-2.902 26.872-12.332 30.31-13.512 1.256-.431 3.504-.229 3.69 2.252l.031 59.167" fill="#fff"/></g></svg>