<svg xmlns="http://www.w3.org/2000/svg" width="461.165" height="366.934"><g><path d="M283.025 180.156c0-5.96 4.861-10.809 10.822-10.809 5.964 0 10.816 4.849 10.816 10.809 0 5.973-4.853 10.829-10.816 10.829-5.961 0-10.822-4.856-10.822-10.829zm-12.986 0c0 13.133 10.678 23.813 23.809 23.813 13.125 0 23.794-10.68 23.794-23.813 0-13.127-10.669-23.8-23.794-23.8-13.131 0-23.809 10.672-23.809 23.8" fill="#fff"/><path d="M373.067 87.445v-54.656h66.206v-32.789h-98.998v120.254h32.788c15.066 0 43.915-2.96 45.572 27.32.823 15.045-12.268 27.344-27.337 27.344-15.06 0-27.316-12.255-27.337-27.313h-32.795c.014 33.151 26.983 60.119 60.133 60.119 33.159 0 57.51-28.741 57.096-60.15-.639-48.184-42.349-65.091-75.328-60.129" fill="#fff"/><path d="M62.962 87.483c-15.07 0-27.342-12.275-27.342-27.344 0-15.07 12.271-27.326 27.342-27.326 15.066 0 27.334 12.256 27.334 27.326 0 15.069-12.268 27.344-27.334 27.344zm60.133-27.344c0-33.164-26.969-60.12-60.133-60.12-33.159 0-60.137 26.956-60.137 60.12 0 33.17 26.978 60.142 60.137 60.142 9.834 0 19.129-2.374 27.326-6.579l.008 33.883c0 15.07-12.268 27.337-27.334 27.337-15.07 0-27.342-12.268-27.342-27.337h-32.795c0 33.167 26.978 60.139 60.137 60.139 33.163 0 60.133-26.971 60.133-60.139v-87.446" fill="#fff"/><path d="M198.055 87.483c-15.07 0-27.345-12.275-27.345-27.344 0-15.07 12.275-27.326 27.345-27.326 15.065 0 27.331 12.256 27.331 27.326 0 15.069-12.266 27.344-27.331 27.344zm60.13-27.344c0-33.164-26.969-60.12-60.13-60.12-33.16 0-60.14 26.956-60.14 60.12 0 33.17 26.98 60.142 60.14 60.142 9.834 0 19.126-2.374 27.324-6.579l.007 33.883c0 15.07-12.266 27.337-27.331 27.337-15.07 0-27.345-12.268-27.345-27.337h-32.795c0 33.167 26.98 60.139 60.14 60.139 33.161 0 60.13-26.971 60.13-60.139v-87.446" fill="#fff"/><path d="M130.75 277.464c-5.138 3.853-19.124 6.707-19.124 18.553 0 5.28 3.14 7.849 7.421 7.849 4.139 0 11.703-4.995 11.703-8.848v-17.554zm10.419 14.414c0 8.135 1.712 10.702 4.28 10.702 2.285 0 4.284-1.142 4.995-2.14.573-.715.858-.999 1.429-.571l1.426 1.143c.427.426.714 1.14-.142 2.568-1.143 2.14-3.853 6.993-11.131 6.993-5.139 0-8.849-3.712-10.133-9.561h-.285c-2.996 3.566-7.707 6.565-14.129 8.704-2.712.858-5.28.858-8.418.858-3.426 0-8.564-2.855-8.564-11.848 0-6.563 2.996-12.27 14.27-17.265 6.422-2.856 13.845-6.281 16.127-8.279v-9.134c-.285-2.426-.427-6.135-1.998-7.99-1.57-1.857-4.425-3.14-8.562-3.14-2.854 0-7.28 1.14-9.276 2.995-1.997 1.857-.713 3.998-.713 6.565 0 4.997-1.714 8.135-7.565 8.135-2.283 0-3.423-1.284-3.423-4.566 0-4.566 3.994-9.989 9.847-13.416 5.993-3.566 10.988-4.995 17.41-4.995 6.707 0 9.418 1.999 11.416 3.854 2.996 2.997 3.14 6.28 3.14 10.132v30.256" fill="#fff"/><path d="M167.299 306.432c-.815-.426-.815-1.282-.976-1.998l-2.765-13.557c-.164-.714.326-1 .975-1.142l2.116-.429c.65-.142 1.139.144 1.462.857l4.07 6.994c3.255 5.28 5.532 8.849 14.158 8.849 5.699 0 12.857-2.998 12.857-9.706 0-6.422-3.58-10.13-15.785-13.129-9.604-2.425-19.204-6.85-19.204-18.124 0-9.848 10.579-17.413 22.782-17.413 7.814 0 12.047 1.714 14.973 3 2.444.996 2.768 1.711 2.931 2.569l2.439 9.987c0 .573-.326 1-1.136 1.287l-1.954.57c-.652.143-.98 0-1.465-.714l-5.535-6.565c-1.95-2.712-5.046-5.565-11.389-5.565-6.185 0-12.534 3.282-12.534 9.418 0 8.279 7.65 9.849 15.623 11.845 11.884 2.998 19.37 7.28 19.53 18.268-.16 11.56-10.902 18.839-24.738 18.839-7.974 0-14.482-2.855-16.436-4.14" fill="#fff"/><path d="M283.986 267.329c0-4.851-.858-7.419-7.991-8.56-1-.144-1.284-.429-1.284-1v-1.284c0-.428.284-.716.996-.999 4.566-1.712 9.991-3.997 15.416-6.995 1.14-.57 1.854-.856 2.71-.856.714 0 .855.716.714 1.714-.285 2.426-.285 11.416-.285 23.264v15.553c0 5.567 0 10.704.141 12.275.285 2.711.713 3.71 2.283 3.71h6.566c1.141 0 1.425.427 1.425 1.285v2.425c0 1-.284 1.427-1.284 1.427-1.14 0-7.705-.427-13.699-.427-8.279 0-13.844.427-15.414.427-.713 0-1.14-.285-1.14-1.14v-2.858c0-.855.427-1.14 1.425-1.14h6.992c1.57 0 2.141-.57 2.283-2.854.145-4.281.145-8.706.145-12.989v-20.979" fill="#fff"/><path d="M319.786 274.324c0 7.706 3.058 16.411 6.497 21.692 4.204 6.135 9.554 7.277 13.886 7.277 6.371 0 9.681-1.57 14.014-6.136.253-.285.637-.429 1.019 0l1.272 1.428c.51.57.64.998 0 1.855-3.692 4.71-11.846 10.132-20.508 10.132-6.756 0-13.89-1.712-19.749-9.991-4.715-6.991-5.734-12.986-5.734-19.409 0-16.695 10.445-33.538 27.264-33.538 13.248 0 17.326 8.564 17.326 11.56-.125 3.282-2.04 4.996-4.714 4.996-2.931 0-5.098-1.856-7.008-5.708-2.801-5.853-5.476-6.279-8.535-6.279-7.261 0-15.033 7.421-15.033 22.12" fill="#fff"/><path d="M396.735 277.464c-5.139 3.853-19.124 6.707-19.124 18.553 0 5.28 3.14 7.849 7.42 7.849 4.14 0 11.704-4.995 11.704-8.848v-17.554zm10.419 14.414c0 8.135 1.712 10.702 4.28 10.702 2.285 0 4.279-1.142 4.995-2.14.573-.715.855-.999 1.426-.571l1.426 1.143c.43.426.715 1.14-.141 2.568-1.141 2.14-3.851 6.993-11.133 6.993-5.139 0-8.846-3.712-10.133-9.561h-.287c-2.996 3.566-7.705 6.565-14.126 8.704-2.71.858-5.282.858-8.421.858-3.425 0-8.559-2.855-8.559-11.848 0-6.563 2.996-12.27 14.27-17.265 6.421-2.856 13.84-6.281 16.125-8.279v-9.134c-.285-2.426-.429-6.135-1.999-7.99-1.569-1.857-4.424-3.14-8.563-3.14-2.854 0-7.276 1.14-9.276 2.995-1.999 1.857-.711 3.998-.711 6.565 0 4.997-1.711 8.135-7.565 8.135-2.281 0-3.425-1.284-3.425-4.566 0-4.566 3.996-9.989 9.846-13.416 5.996-3.566 10.992-4.995 17.414-4.995 6.705 0 9.416 1.999 11.416 3.854 2.998 2.997 3.14 6.28 3.14 10.132v30.256" fill="#fff"/><path d="M77.353 275.815c0 5.784 0 22.574.142 26.021.144 1.89.715 3.448 3.712 3.448h6.422c1.284 0 1.57.336 1.57 1v1.893c0 .666-.286 1.111-.856 1.111-1 0-7.278-.335-16.127-.335-9.134 0-14.842.335-16.128.335-.711 0-.998-.445-.998-1.111v-1.893c0-.779.287-1 1.857-1h6.849c1.569 0 2.998-.778 3.142-2.779.14-3.448.14-22.576.14-29.024v-7.003c0-7.896-.14-18.015-.427-20.907-.286-3.781-2.569-5.559-7.136-6.673l-2.854-.779c-.713-.224-.856-.333-.856-.555v-.891c0-.333.427-.555 1.285-.777 4.996-1.78 11.417-3.783 16.697-6.447 1.286-.67 2.14-.891 2.996-.891 1 0 1.286.555 1.143 2.001-.143 6.115-.572 29.246-.572 35.361v9.895" fill="#fff"/><path d="M447.416 275.815c0 5.784 0 22.574.141 26.021.144 1.89.715 3.448 3.712 3.448h6.421c1.285 0 1.57.336 1.57 1v1.893c0 .666-.285 1.111-.854 1.111-1.001 0-7.28-.335-16.128-.335-9.135 0-14.842.335-16.129.335-.71 0-.999-.445-.999-1.111v-1.893c0-.779.289-1 1.857-1h6.85c1.57 0 2.996-.778 3.141-2.779.141-3.448.141-22.576.141-29.024v-7.003c0-7.896-.141-18.015-.43-20.907-.285-3.781-2.566-5.559-7.135-6.673l-2.855-.779c-.71-.224-.855-.333-.855-.555v-.891c0-.333.426-.555 1.285-.777 4.996-1.78 11.418-3.783 16.698-6.447 1.285-.67 2.139-.891 2.998-.891.999 0 1.284.555 1.14 2.001-.141 6.115-.571 29.246-.571 35.361v9.895" fill="#fff"/><path d="M14.526 273.804c0 7.705 3.057 16.41 6.497 21.691 4.205 6.136 9.554 7.279 13.885 7.279 6.371 0 9.683-1.57 14.014-6.137.254-.285.638-.428 1.021 0l1.272 1.427c.51.571.637.999 0 1.855-3.695 4.71-11.848 10.133-20.51 10.133-6.754 0-13.887-1.713-19.748-9.99-4.713-6.993-5.732-12.986-5.732-19.41 0-16.695 10.445-33.537 27.264-33.537 13.248 0 17.326 8.565 17.326 11.56-.127 3.284-2.04 4.997-4.715 4.997-2.93 0-5.096-1.857-7.007-5.709-2.802-5.851-5.477-6.279-8.535-6.279-7.262 0-15.033 7.421-15.033 22.122" fill="#fff"/><path d="M221.429 306.432c-.816-.426-.816-1.282-.979-1.998l-2.764-13.557c-.164-.714.326-1 .976-1.142l2.115-.429c.651-.142 1.139.144 1.464.857l4.069 6.994c3.255 5.28 5.534 8.849 14.159 8.849 5.696 0 12.856-2.998 12.856-9.706 0-6.422-3.58-10.13-15.784-13.129-9.604-2.425-19.205-6.85-19.205-18.124 0-9.848 10.58-17.413 22.784-17.413 7.814 0 12.045 1.714 14.973 3 2.442.996 2.766 1.711 2.93 2.569l2.44 9.987c0 .573-.328 1-1.139 1.287l-1.952.57c-.652.143-.979 0-1.464-.714l-5.534-6.565c-1.952-2.712-5.048-5.565-11.391-5.565-6.185 0-12.533 3.282-12.533 9.418 0 8.279 7.649 9.849 15.623 11.845 11.883 2.998 19.367 7.28 19.53 18.268-.163 11.56-10.904 18.839-24.738 18.839-7.976 0-14.482-2.855-16.436-4.14" fill="#fff"/><text transform="matrix(1.25 0 0 1.25 -2.18 366.466)"><tspan x="0 17.991199 34.025398 52.995602 70.008301 88 111.33591 119.9875 136.20625 152.24025 160.89211 186.18602 211.48 234.86905 243.52139 266.85699 284.84821 303.81909 312.47046 333.37299 352.34409" y="0" style="-inkscape-font-specification:HelveticaNeue-Light" font-size="26.458" font-weight="300" fill="#fff" font-family="Helvetica">STREAM AT WWW.MPR.ORG</tspan></text></g></svg>