<svg xmlns="http://www.w3.org/2000/svg" width="236.775" height="135.628"><g fill="#4d5257"><path d="M235.74 132.697c-.216-.036-.935-.114-2.061-.205-5.509-.444-11.525-1.566-15.105-10.845-1.147-2.972-46.375-120.206-46.671-120.987-.34-.895-1.189-.871-1.486.029-.255.771-12.241 36.307-12.241 36.307l31.197 85.852c.547 1.594 1.08 3.171 1.08 4.384 0 1.535-1.035 3.293-2.781 4.119-1.377.65-4.001.995-6.02 1.165-.635.053-1.179.107-1.752.19-.632.093-.886.635-.886 1.114 0 .584.439 1.006 1.08 1.006h55.718c.469 0 .965-.434.965-.94 0-.861-.52-1.104-1.035-1.188"/><path d="M110.047 5.813c1.639-.965 3.786-1.426 8.13-1.66.614-.033 1.092-.374 1.092-.993 0-.654-.504-1.014-.978-1.014l-26.347-.01c-.616 0-1.328.186-1.328 1.011 0 .419.173.89.983.998.612.081 2.013.168 3.575.278 3.769.264 5.216.656 6.297 2.214 1.016 1.464.471 4.064-.674 7.155-1.142 3.081-31.467 80.828-31.467 80.828h-.122l-25.43-79.931c-1.042-3.261-1.46-5.559-.923-6.819.981-2.3 2.935-3.109 7.809-3.444.669-.046.98-.071 1.59-.124.641-.055 1.004-.618.868-1.305-.144-.718-.561-.866-1.347-.866l-50.742.004c-.467 0-.979.311-1.029.955-.04.511.2.799.507.938.297.136 1.189.251 2.861.37 3.713.263 4.914.579 6.287 1.235 2.785 1.331 4.691 4.901 5.642 7.749.951 2.847 40.366 121.347 40.49 121.71.191.554.993.574 1.232.011.243-.573 49.099-123.2 49.8-124.909.602-1.466 1.57-3.41 3.223-4.381"/><path d="M96.184 101.914c0-6.508 2.282-14.988 10.608-20.331l.01.016-.01-.016.026.04.057.087c18.16 28.012 19.171 29.624 28 43.173-3.881 2.578-8.185 4.125-12.487 4.125-14.709 0-26.204-13.648-26.204-27.094zm16.846-58.49c1.702-2.445 4.246-3.456 7.656-3.456 4.633 0 10.3 4.325 10.3 15.243 0 6.862-3.469 13.457-9.046 17.127 0 0-4.809-7.43-7.566-12.617-2.414-4.543-4.633-11.567-1.344-16.296zm57.07 80.871c-1.076-.334-1.746.335-2.535 2.202-.916 2.165-2.891 2.751-4.79 2.751-3.551 0-7.126-4.068-9.781-8.207-.146-.228-1.653-2.592-3.917-6.146 5.764-8.011 9.05-17.389 10.557-23.581.52-2.135 1.286-5.362 2.435-6.702 1.591-1.855 3.33-2.391 5.843-2.642 1.09-.109 1.574-.162 1.982-.282.568-.168.731-.706.68-1.098-.079-.59-.497-.85-.944-.85l-21.955-.004c-.729 0-1.061.47-1.061 1.034 0 .53.347.828.848.948.347.084.968.146 1.389.168 2.75.144 4.761.454 6.016 1.29 2.024 1.346 1.826 3.447 1.442 6.31-.858 6.394-4.105 15.823-8.828 22.907-8.592-13.483-24.182-37.955-24.182-37.955s6.454-3.352 10.836-5.872c4.276-2.458 10.819-7.401 10.819-15.483 0-4.792-2.744-8.515-6.499-10.997-3.86-2.552-9.643-4.594-16.206-4.594-8.182 0-16.929 3.005-21.669 10.523-4.578 7.26-3.395 17.863 1.99 26.73 1.455 2.396 3.052 4.816 3.052 4.816-1.915.685-4.29 1.716-6.293 2.626-10.885 5.056-20.124 14.494-20.124 27.446 0 14.408 10.715 25.994 30.466 25.994 10.77 0 19.645-3.417 26.72-8.471 3.261 4.424 9.296 7.742 17.97 7.742 8.23 0 14.748-4.791 16.434-8.713.287-.67.113-1.639-.695-1.891"/></g></svg>