<svg xmlns="http://www.w3.org/2000/svg" width="454.4" height="111.894"><g fill="#100f0d"><path d="M337.512 55.943c3.789 1.773 8.141 2.74 12.334 2.74 9.511 0 18.942-5.884 18.942-16.364 0-18.54-24.829-14.429-24.829-29.422 0-5.885 3.547-10.317 9.675-10.317 5.804 0 9.512 3.305 10.399 8.948h1.853l-1.289-10.319c-3.225-.483-6.529-1.208-9.834-1.208-9.835 0-17.251 5.401-17.251 15.8 0 19.023 23.86 14.59 23.86 29.584 0 6.369-4.836 10.721-11.043 10.721-6.69 0-11.206-5.885-12.576-11.93h-1.853l1.611 11.769zm-51.188-51.833c1.451-.081 2.981-.323 6.287-.323 15.559 0 25.229 10.882 25.229 25.957 0 12.011-5.72 25.151-23.134 25.151-3.95 0-8.383-.727-8.383-6.933v-43.853zm-7.901 45.141c-.24 5.483-2.579 5.644-7.415 6.128v2.096c3.627-.081 7.175-.161 10.801-.161 3.789 0 7.577.161 11.689.161 28.538 0 33.212-20.072 33.212-28.053 0-14.268-11.367-28.214-32.244-28.214-5.966 0-10.561.161-13.947.161-3.144 0-6.369 0-9.511-.161v2.097c3.627.08 7.415-.404 7.415 6.851v39.096zm-24.181-37.645c0-7.899 2.659-8.302 7.576-8.302v-2.097l-9.35.161c-3.709 0-7.496-.08-11.204-.161v2.097c8.059.08 9.752 2.337 9.752 9.753v32.083c-5.482-5.965-13.059-13.945-19.911-21.523-9.19-10.157-16.685-17.493-19.99-22.41l-6.611.161c-2.499 0-4.918-.08-7.416-.161v2.097c6.933 0 9.916 2.498 9.916 9.431v32.405c0 10.239-3.71 10.239-8.625 10.239v2.096c3.546-.081 7.173-.161 10.72-.161l10.721.161v-2.096c-8.705 0-9.591-2.257-9.591-13.382v-30.067l42.157 46.27h1.855v-46.594zm-94.315-7.818h9.431c8.063 0 11.689 2.258 12.898 9.834l1.613-.403v-12.011c-7.819.161-15.477.161-23.215.161-5.4 0-10.883 0-16.282-.161v2.097c6.366.241 7.657.564 7.657 7.173v35.791c0 7.82-.646 9.11-7.657 9.11v2.096c5.965-.161 11.93-.161 17.895-.161l24.183.161c.806-4.192 2.015-8.303 3.305-12.334l-1.935-.321c-3.144 8.625-6.69 9.672-14.59 10.077h-4.999c-7.98 0-8.303-2.258-8.303-11.205v-13.704h8.625c6.209 0 8.789 0 8.789 7.739h1.611c.081-2.58-.324-6.369-.324-8.949 0-2.901.161-7.255.324-9.027h-1.611c-.244 1.853-.244 6.932-6.771 6.932h-10.643v-22.894zm-44.335 45.786c0 5.644-3.063 5.723-7.335 5.805v2.096c4.03-.081 7.819-.161 11.689-.161 3.546 0 7.012.161 10.883.161v-2.096c-4.272-.082-7.337-.161-7.337-5.805v-40.466c0-5.643 3.064-5.724 7.337-5.804v-2.097c-4.032.081-7.74.161-11.448.161-3.627 0-7.335-.08-11.124-.161v2.097c4.272.08 7.335.161 7.335 5.804v40.466zm-33.049-33.613c0 5.804-3.869 12.332-13.784 12.332-1.371 0-3.064-.161-4.272-.402v-23.619c1.45-.242 2.821-.484 4.837-.484 9.512 0 13.22 5.159 13.22 12.173zm-10.721 14.912c5.804 9.109 11.205 18.54 18.54 26.602 2.257-.081 4.595-.161 6.853-.161l6.046.161v-2.096c-4.111 0-6.53-2.177-9.11-5.079-3.466-3.87-7.335-10.318-14.67-21.04 6.287-1.853 11.446-6.932 11.446-13.784 0-5.724-3.386-14.268-18.621-14.268-5.159 0-7.98.161-10.801.161-3.95 0-7.821-.08-12.254-.161v2.097c4.272.08 7.336.161 7.336 5.804v40.87c0 4.595-3.305 5.643-7.336 5.401v2.096c4.031-.081 7.819-.161 11.688-.161 3.547 0 7.014.161 10.883.161v-2.096c-4.272-.082-7.335-.161-7.335-5.805v-18.701h7.335zm-56.265-.886h9.834c7.094 0 7.174 1.772 8.142 7.335h1.611c-.161-2.176-.322-5.965-.322-8.545 0-2.901.161-7.255.322-8.787h-1.853c-1.047 5.724-1.612 6.691-8.222 6.691h-9.512v-22.894h9.512c8.787 0 12.172 2.258 12.979 9.109l1.853-.322-.484-11.367c-7.174.161-14.59.161-21.926.161-5.885 0-11.769-.161-17.492-.161v2.097c6.368.241 7.658.564 7.658 7.173v35.791c0 7.82-.645 9.11-7.658 9.11v2.096c4.111-.081 7.819-.161 11.447-.161 3.707 0 7.415.081 11.446.161v-2.096c-4.272-.082-7.335-.161-7.335-5.805v-19.587"/><path d="M437.656 81.076h5.295c4.524 0 6.563 1.265 7.241 5.52l.904-.227v-6.743c-4.39.093-8.689.093-13.033.093-3.035 0-6.11 0-9.143-.093v1.177c3.576.137 4.299.317 4.299 4.028v20.093c0 4.39-.361 5.115-4.299 5.115v1.177c3.349-.09 6.699-.09 10.046-.09l13.576.09c.451-2.354 1.13-4.661 1.856-6.924l-1.085-.181c-1.765 4.841-3.757 5.43-8.192 5.657h-2.805c-4.48 0-4.661-1.267-4.661-6.292v-7.693h4.841c3.486 0 4.934 0 4.934 4.346h.904c.046-1.45-.181-3.577-.181-5.024 0-1.629.091-4.072.181-5.068h-.904c-.136 1.04-.136 3.892-3.801 3.892h-5.974v-12.852zm-12.717-2.717h-.95c-.18.861-1.313 1.267-2.941 1.267h-20.545c-1.133 0-2.355-.044-2.851-1.267h-.906l-.497 7.197h1.176c.77-2.942.95-4.075 5.025-4.075h5.928v25.3c0 3.167-1.719 3.21-4.119 3.257v1.177c2.264-.046 4.39-.09 6.563-.09 1.992 0 3.936.09 6.109.09v-1.177c-2.397-.046-4.116-.09-4.116-3.257v-25.3h6.878c3.62 0 3.484 1.631 3.62 4.075h1.221l.407-7.197zm-31.767 1.267l-4.57.093c-1.903 0-3.801-.046-5.704-.093v1.177c4.029.137 4.3 0 4.3 7.422v12.898c0 3.123-.725 8.916-8.238 8.916-7.059 0-8.824-5.205-8.824-10.591v-15.386c0-3.167 1.719-3.213 4.119-3.259v-1.177c-2.263.046-4.345.093-6.428.093-2.036 0-4.116-.046-6.245-.093v1.177c2.4.046 4.119.093 4.119 3.259v16.519c.136 7.693 4.616 11.313 12.083 11.313 7.966 0 11.811-4.617 11.811-10.771v-13.032c0-5.522-.044-7.287 3.576-7.287v-1.177zm-34.665-1.267h-.95c-.181.861-1.311 1.267-2.942 1.267h-20.544c-1.133 0-2.354-.044-2.851-1.267h-.906l-.497 7.197h1.176c.769-2.942.95-4.075 5.022-4.075h5.93v25.3c0 3.167-1.721 3.21-4.119 3.257v1.177c2.263-.046 4.389-.09 6.563-.09 1.99 0 3.938.09 6.107.09v-1.177c-2.396-.046-4.117-.09-4.117-3.257v-25.3h6.879c3.621 0 3.485 1.631 3.621 4.075h1.221l.407-7.197zm-41.861 28.423c0 3.167-1.719 3.21-4.119 3.257v1.177c2.264-.046 4.393-.09 6.563-.09 1.992 0 3.939.09 6.111.09v-1.177c-2.4-.046-4.119-.09-4.119-3.257v-22.72c0-3.167 1.719-3.213 4.119-3.259v-1.177c-2.263.046-4.345.093-6.428.093-2.036 0-4.116-.046-6.246-.093v1.177c2.4.046 4.119.093 4.119 3.259v22.72zm-8.732-28.423h-.95c-.18.861-1.313 1.267-2.941 1.267h-20.547c-1.13 0-2.353-.044-2.849-1.267h-.906l-.497 7.197h1.176c.77-2.942.95-4.075 5.022-4.075h5.93v25.3c0 3.167-1.721 3.21-4.12 3.257v1.177c2.265-.046 4.391-.09 6.564-.09 1.99 0 3.936.09 6.109.09v-1.177c-2.397-.046-4.119-.09-4.119-3.257v-25.3h6.88c3.62 0 3.484 1.631 3.62 4.075h1.221l.407-7.197zm-50.866 31.997c2.126.994 4.57 1.538 6.924 1.538 5.34 0 10.636-3.303 10.636-9.187 0-10.41-13.94-8.101-13.94-16.519 0-3.303 1.992-5.791 5.43-5.791 3.259 0 5.34 1.855 5.838 5.022h1.042l-.725-5.793c-1.809-.271-3.666-.679-5.52-.679-5.522 0-9.685 3.032-9.685 8.872 0 10.679 13.396 8.191 13.396 16.606 0 3.577-2.717 6.021-6.2 6.021-3.756 0-6.293-3.306-7.06-6.699h-1.042l.906 6.609zm-10.635-24.893c0-4.434 1.492-4.661 4.254-4.661v-1.177l-5.25.093c-2.08 0-4.209-.046-6.289-.093v1.177c4.524.046 5.474 1.313 5.474 5.476v18.013c-3.076-3.35-7.331-7.83-11.178-12.082-5.159-5.703-9.367-9.822-11.224-12.583l-3.709.093c-1.405 0-2.761-.046-4.165-.093v1.177c3.891 0 5.567 1.404 5.567 5.295v18.193c0 5.747-2.081 5.747-4.843 5.747v1.177c1.99-.046 4.026-.09 6.018-.09l6.019.09v-1.177c-4.888 0-5.385-1.267-5.385-7.512v-16.88l23.67 25.977h1.04v-26.16zm-46.115 21.318c0 3.167-1.72 3.21-4.117 3.257v1.177c2.263-.046 4.39-.09 6.561-.09 1.991 0 3.938.09 6.111.09v-1.177c-2.399-.046-4.12-.09-4.12-3.257v-22.72c0-3.167 1.721-3.213 4.12-3.259v-1.177c-2.263.046-4.346.093-6.428.093-2.035 0-4.117-.046-6.245-.093v1.177c2.397.046 4.117.093 4.117 3.259v22.72zm-40.321-25.706h5.295c4.525 0 6.561 1.265 7.24 5.52l.905-.227v-6.743c-4.39.093-8.689.093-13.034.093-3.031 0-6.109 0-9.141-.093v1.177c3.576.137 4.3.317 4.3 4.028v20.093c0 4.39-.361 5.115-4.3 5.115v1.177c3.349-.09 6.699-.09 10.047-.09l13.578.09c.451-2.354 1.13-4.661 1.854-6.924l-1.086-.181c-1.765 4.841-3.756 5.43-8.19 5.657h-2.806c-4.48 0-4.661-1.267-4.661-6.292v-7.693h4.843c3.485 0 4.933 0 4.933 4.346h.905c.046-1.45-.181-3.577-.181-5.024 0-1.629.09-4.072.181-5.068h-.905c-.136 1.04-.136 3.892-3.801 3.892h-5.974v-12.852zm-41.816 12.852v-9.866c0-3.167 1.72-3.213 4.119-3.259v-1.177c-2.264.046-4.345.093-6.426.093-2.038 0-4.119-.046-6.245-.093v1.177c2.397.046 4.118.093 4.118 3.259v22.72c0 3.167-1.72 3.21-4.118 3.257v1.177c2.263-.046 4.389-.09 6.562-.09 1.991 0 3.937.09 6.109.09v-1.177c-2.399-.046-4.119-.09-4.119-3.257v-10.999h18.283v10.999c0 3.167-1.72 3.21-4.119 3.257v1.177c2.354-.046 4.435-.09 6.563-.09 2.036 0 4.072.044 6.11.09v-1.177c-2.399-.046-4.119-.09-4.119-3.257v-22.72c0-3.167 1.72-3.213 4.119-3.259v-1.177c-2.038 0-4.029.093-5.975.093-2.172 0-4.299-.046-6.697-.093v1.177c2.399.046 4.119.093 4.119 3.259v9.866h-18.283zm-12.264-15.569h-.95c-.182.861-1.313 1.267-2.941 1.267h-20.546c-1.131 0-2.353-.044-2.852-1.267h-.904l-.498 7.197h1.177c.769-2.942.951-4.075 5.023-4.075h5.929v25.3c0 3.167-1.72 3.21-4.119 3.257v1.177c2.262-.046 4.39-.09 6.563-.09 1.991 0 3.936.09 6.109.09v-1.177c-2.399-.046-4.118-.09-4.118-3.257v-25.3h6.879c3.62 0 3.483 1.631 3.62 4.075h1.221l.408-7.197zm-60.641 17.424h5.521c3.982 0 4.027.996 4.571 4.119h.905c-.092-1.223-.182-3.35-.182-4.797 0-1.629.09-4.072.182-4.932h-1.042c-.589 3.211-.905 3.755-4.616 3.755h-5.34v-12.852h5.34c4.933 0 6.833 1.265 7.286 5.112l1.041-.181-.271-6.382c-4.029.093-8.191.093-12.31.093-3.304 0-6.608-.093-9.82-.093v1.177c3.575.137 4.299.317 4.299 4.028v20.093c0 4.39-.362 5.115-4.299 5.115v1.177c2.308-.046 4.39-.09 6.426-.09 2.082 0 4.164.044 6.426.09v-1.177c-2.398-.046-4.119-.09-4.119-3.257v-10.999zm-40.277-1.494c0-8.191 4.164-13.892 10.77-13.892 7.739 0 11.722 9.275 11.722 16.155 0 8.191-4.164 13.894-10.771 13.894-7.739 0-11.721-9.277-11.721-16.157zm-4.978 1.314c0 8.599 7.104 16.291 16.156 16.291 9.911 0 16.291-8.372 16.291-16.653 0-8.599-7.105-16.294-16.156-16.294-9.911 0-16.291 8.374-16.291 16.655"/><path d="M445.298 37.182c0-7.137-2.524-13.225-7.57-18.27-3.281-3.28-7.384-5.495-12.305-6.643-3.53 1.312-6.237 3.445-8.123 6.399.574-.041 1.169-.062 1.785-.062 5.298 0 9.775 1.825 13.43 5.473 3.655 3.648 5.482 8.116 5.482 13.404 0 5.248-1.837 9.706-5.51 13.374-3.674 3.669-8.137 5.503-13.389 5.503-5.378 0-9.893-1.875-13.545-5.626-3.652-3.752-5.478-8.312-5.478-13.683 0-5.944 2.275-10.638 6.825-14.081 0-1.271.42-3.014 1.26-5.228.843-2.212 1.673-3.833 2.49-4.857-3.527 1.23-6.686 3.24-9.475 6.027-5.046 5.045-7.567 11.135-7.567 18.27 0 7.176 2.511 13.277 7.539 18.299 5.022 5.024 11.125 7.537 18.306 7.537 4.184 0 7.178-.308 8.984-.922 2.708-.944 5.804-3.158 9.29-6.644 5.046-5.043 7.57-11.133 7.57-18.269zm5.896-1.035c1.431-3.281 2.149-6.746 2.149-10.395 0-6.479-2.185-11.881-6.553-16.209-4.37-4.326-9.795-6.489-16.275-6.489-6.524 0-12.041 2.265-16.552 6.798-4.514 4.532-6.77 10.059-6.77 16.58 0 6.397 2.236 11.862 6.711 16.395 4.473 4.533 9.912 6.797 16.314 6.797.779 0 1.56-.04 2.339-.122 1.066-.985 2.054-2.503 2.956-4.556.696-1.56 1.17-3.017 1.416-4.371-2.216 1.161-4.577 1.741-7.08 1.741-4.351 0-8.035-1.529-11.053-4.586-3.015-3.058-4.524-6.76-4.524-11.111 0-4.349 1.526-8.063 4.58-11.142 3.056-3.077 6.755-4.616 11.101-4.616 4.345 0 8.086 1.548 11.223 4.645 3.138 3.096 4.705 6.819 4.705 11.165 0 1.436-.193 2.851-.574 4.245.381 2.01.574 4.184.574 6.521 0 2.872-.318 5.292-.955 7.26 2.704-2.256 4.79-5.105 6.268-8.55"/></g></svg>