<svg xmlns="http://www.w3.org/2000/svg" width="738.379" height="142.279"><g fill="#155196"><path d="M12.029 121.216c0-6.445 1.375-11.204 4.124-14.276 2.75-3.074 6.107-4.61 10.076-4.61 3.837 0 7.159 1.482 9.961 4.446 2.804 2.964 4.205 7.776 4.205 14.44 0 6.584-1.385 11.371-4.156 14.365-2.771 2.994-6.107 4.49-10.01 4.49-3.99 0-7.354-1.536-10.092-4.609-2.739-3.074-4.108-7.822-4.108-14.246zm-7.495 0c0 6.205 2.079 11.287 6.236 15.245 4.092 3.879 9.24 5.817 15.444 5.817 5.794 0 10.736-1.75 14.829-5.25 4.566-3.919 6.85-9.19 6.85-15.813 0-6.524-2.209-11.745-6.624-15.664-4.07-3.62-9.089-5.43-15.055-5.43-5.945 0-10.953 1.8-15.024 5.4-4.438 3.939-6.656 9.17-6.656 15.694zm51.222 20.198h18.512v-1.134c-2.499-.177-4.12-.579-4.862-1.201-.744-.623-1.115-2.053-1.115-4.287v-13.366h9.595c2.8 0 4.589.383 5.364 1.149.775.765 1.41 2.331 1.906 4.699h1.551v-14.113h-1.551c-.474 2.355-1.099 3.919-1.874 4.69-.775.772-2.574 1.157-5.396 1.157h-9.595v-13.634c0-.816.124-1.363.372-1.641.249-.279.815-.417 1.701-.417h9.072c3.684 0 6.149.371 7.399 1.114 1.249.743 2.1 2.509 2.553 5.3h1.841l-.226-8.741h-35.248v1.134c2.455.16 4.037.573 4.749 1.239.711.666 1.066 2.084 1.066 4.251v26.464c0 2.632-.319 4.26-.954 4.884-.635.624-2.256 1.064-4.861 1.321v1.134zm67.265-30.044h1.615c.667-3.281 1.664-5.41 2.989-6.385 1.325-.974 3.817-1.461 7.479-1.461h3.716v30.551c0 2.632-.345 4.275-1.034 4.929-.69.654-2.435 1.079-5.235 1.276v1.134h19.289v-1.134c-2.692-.177-4.438-.549-5.234-1.113-.797-.564-1.196-2.022-1.196-4.376v-31.267h3.684c3.834 0 6.349.492 7.544 1.476 1.195.985 2.181 3.109 2.956 6.37h1.584l-.356-10.383h-37.413l-.388 10.383zm47.289 30.044h18.35v-1.134c-2.42-.177-3.995-.584-4.723-1.216-.729-.634-1.093-2.058-1.093-4.272v-12.591h20.096v11.875c0 2.632-.319 4.265-.954 4.899-.635.634-2.256 1.069-4.862 1.306v1.134h18.351v-1.134c-2.434-.198-4.011-.608-4.732-1.231-.723-.623-1.083-2.042-1.083-4.258v-27.18c0-2.188.36-3.61 1.083-4.266.721-.656 2.299-1.064 4.732-1.224v-1.134h-18.351v1.134c2.456.16 4.039.568 4.75 1.224.71.656 1.066 2.079 1.066 4.266v11.904h-20.096v-11.904c0-2.188.364-3.61 1.093-4.266.728-.656 2.303-1.064 4.723-1.224v-1.134h-18.35v1.134c2.434.16 4.011.568 4.732 1.224.721.656 1.083 2.079 1.083 4.266v26.464c0 2.632-.324 4.26-.969 4.884-.646.624-2.263 1.064-4.846 1.321v1.134zm54.407 0h35.765l3.005-10.322h-1.841c-1.701 3.481-3.621 5.674-5.756 6.579-2.135.905-5.446 1.357-9.932 1.357-4.143 0-6.629-.109-7.459-.329-.83-.219-1.245-.934-1.245-2.147v-15.126h10.209c2.8 0 4.588.383 5.364 1.149.775.765 1.41 2.331 1.906 4.699h1.55v-14.113h-1.55c-.474 2.355-1.099 3.919-1.874 4.69-.776.772-2.575 1.157-5.396 1.157h-10.209v-13.634c0-.796.113-1.337.34-1.626.226-.289.826-.432 1.798-.432h9.009c3.876 0 6.375.396 7.495 1.188 1.12.792 1.96 2.534 2.52 5.226h1.68l-.226-8.741h-35.151v1.134c2.456.16 4.039.573 4.75 1.239.71.666 1.066 2.084 1.066 4.251v27.18c0 2.295-.361 3.724-1.083 4.287-.723.564-2.3.964-4.734 1.201v1.134zm71.046 0h19.579v-1.134c-2.694-.177-4.438-.549-5.235-1.113-.796-.564-1.195-2.022-1.195-4.376v-27.18c0-2.248.399-3.695 1.195-4.341.797-.646 2.541-1.029 5.235-1.149v-1.134h-19.579v1.134c2.691.12 4.436.502 5.234 1.149.796.646 1.195 2.094 1.195 4.341v27.18c0 2.354-.399 3.813-1.195 4.376-.797.564-2.542.935-5.234 1.113v1.134zm28.77 0h15.541v-1.134c-2.391-.237-3.931-.685-4.62-1.341-1.056-1.012-1.584-3.189-1.584-6.527v-23.786l29.271 33.505h1.131v-32.163c0-3.201.42-5.25 1.26-6.145.84-.895 2.52-1.462 5.04-1.701v-1.134h-15.54v1.134c2.434.198 4.006.623 4.716 1.275 1.077 1.008 1.616 3.181 1.616 6.521v20.305l-25.541-29.235h-11.291v1.134c1.357.04 2.375.184 3.054.432.679.249 1.502.9 2.471 1.952l.905.984v26.92c0 3.22-.388 5.272-1.164 6.156-.775.885-2.53 1.456-5.266 1.714v1.134zm53.904-12.291l1.97 13.008h1.454c.086-.497.264-.965.534-1.403.269-.438.791-.656 1.566-.656.324 0 1.6.359 3.829 1.074 2.23.716 4.367 1.075 6.414 1.075 4.07 0 7.415-1.075 10.031-3.223 2.618-2.149 3.925-4.822 3.925-8.026 0-2.386-.735-4.455-2.205-6.205-1.492-1.73-4.058-3.63-7.694-5.699l-5.811-3.311c-2.174-1.234-3.776-2.417-4.809-3.551-1.031-1.113-1.548-2.456-1.548-4.027 0-1.75.674-3.118 2.02-4.103 1.345-.984 2.924-1.476 4.732-1.476 2.326 0 4.679.776 7.06 2.328 2.379 1.551 4.107 4.286 5.185 8.204h1.584l-1.455-13.008h-1.356c-.172.656-.415 1.164-.728 1.521-.313.359-.877.537-1.696.537-.301 0-1.512-.344-3.634-1.03-2.123-.686-3.938-1.029-5.445-1.029-3.661 0-6.601 1.025-8.82 3.072-2.219 2.049-3.328 4.615-3.328 7.697 0 2.328.938 4.456 2.811 6.385 1.012 1.015 2.368 2.019 4.066 3.014l5.644 3.251c3.245 1.87 5.374 3.272 6.384 4.207 1.548 1.471 2.321 3.203 2.321 5.191 0 2.208-.769 3.928-2.306 5.161-1.538 1.234-3.36 1.85-5.468 1.85-3.894 0-7.151-1.423-9.775-4.266-1.505-1.631-2.817-3.819-3.936-6.564h-1.518zm39.43-17.753h1.615c.667-3.281 1.664-5.41 2.989-6.385 1.325-.974 3.817-1.461 7.48-1.461h3.715v30.551c0 2.632-.345 4.275-1.034 4.929-.69.654-2.435 1.079-5.234 1.276v1.134h19.288v-1.134c-2.692-.177-4.438-.549-5.234-1.113-.797-.564-1.195-2.022-1.195-4.376v-31.267h3.683c3.834 0 6.349.492 7.544 1.476 1.196.985 2.181 3.109 2.956 6.37h1.584l-.356-10.383h-37.413l-.388 10.383zm47.289 30.044h19.579v-1.134c-2.692-.177-4.438-.549-5.234-1.113-.797-.564-1.196-2.022-1.196-4.376v-27.18c0-2.248.399-3.695 1.196-4.341.796-.646 2.541-1.029 5.234-1.149v-1.134h-19.579v1.134c2.691.12 4.436.502 5.234 1.149.796.646 1.195 2.094 1.195 4.341v27.18c0 2.354-.399 3.813-1.195 4.376-.797.564-2.542.935-5.234 1.113v1.134zm28.681-30.044h1.615c.667-3.281 1.664-5.41 2.989-6.385 1.325-.974 3.817-1.461 7.479-1.461h3.716v30.551c0 2.632-.345 4.275-1.034 4.929-.69.654-2.435 1.079-5.234 1.276v1.134h19.288v-1.134c-2.692-.177-4.438-.549-5.234-1.113-.797-.564-1.195-2.022-1.195-4.376v-31.267h3.683c3.834 0 6.349.492 7.544 1.476 1.196.985 2.181 3.109 2.956 6.37h1.584l-.356-10.383h-37.413l-.388 10.383zm47.233-10.383v1.134c2.499.179 4.12.583 4.862 1.209.743.626 1.115 2.054 1.115 4.281v19.094c0 3.78.699 6.822 2.1 9.13 2.584 4.296 7.451 6.444 14.602 6.444 7.237 0 12.149-2.178 14.732-6.534 1.4-2.366 2.1-5.657 2.1-9.875v-15.902c0-3.201.394-5.245 1.18-6.13.786-.885 2.46-1.458 5.024-1.716v-1.134h-15.314v1.134c2.411.219 4.049.751 4.91 1.596.861.846 1.292 2.929 1.292 6.25v15.902c0 3.899-.516 6.782-1.55 8.652-1.853 3.341-5.482 5.013-10.889 5.013-4.933 0-8.281-1.631-10.047-4.894-.948-1.79-1.421-4.286-1.421-7.489v-19.541c0-2.248.376-3.685 1.13-4.311.754-.626 2.402-1.019 4.944-1.179v-1.134h-18.771zm54.699 10.383h1.615c.667-3.281 1.664-5.41 2.989-6.385 1.325-.974 3.817-1.461 7.479-1.461h3.716v30.551c0 2.632-.345 4.275-1.034 4.929-.69.654-2.435 1.079-5.234 1.276v1.134h19.288v-1.134c-2.692-.177-4.438-.549-5.234-1.113-.797-.564-1.196-2.022-1.196-4.376v-31.267h3.684c3.834 0 6.349.492 7.544 1.476 1.196.985 2.181 3.109 2.956 6.37h1.584l-.356-10.383h-37.413l-.388 10.383zm47.144 30.044h35.765l3.005-10.322h-1.841c-1.702 3.481-3.621 5.674-5.756 6.579-2.135.905-5.446 1.357-9.932 1.357-4.143 0-6.629-.109-7.459-.329-.831-.219-1.245-.934-1.245-2.147v-15.126h10.209c2.8 0 4.588.383 5.364 1.149.775.765 1.41 2.331 1.906 4.699h1.55v-14.113h-1.55c-.475 2.355-1.099 3.919-1.875 4.69-.775.772-2.574 1.157-5.395 1.157h-10.209v-13.634c0-.796.113-1.337.34-1.626.226-.289.825-.432 1.798-.432h9.009c3.876 0 6.375.396 7.495 1.188 1.12.792 1.96 2.534 2.52 5.226h1.68l-.226-8.741h-35.151v1.134c2.455.16 4.039.573 4.749 1.239.711.666 1.066 2.084 1.066 4.251v27.18c0 2.295-.36 3.724-1.081 4.287-.723.564-2.3.964-4.734 1.201v1.134"/><path d="M0 73.815h32.459v-2.026c-4.381-.319-7.223-1.034-8.525-2.149-1.304-1.114-1.955-3.669-1.955-7.665v-23.894h16.825c4.909 0 8.044.685 9.402 2.054 1.36 1.369 2.474 4.169 3.342 8.4h2.72v-25.227h-2.72c-.831 4.21-1.926 7.005-3.285 8.385-1.36 1.38-4.514 2.069-9.46 2.069h-16.825v-24.374c0-1.458.217-2.435.654-2.934.435-.497 1.429-.746 2.982-.746h15.908c6.457 0 10.781.664 12.973 1.991 2.19 1.327 3.683 4.485 4.475 9.475h3.229l-.396-15.626h-61.803v2.026c4.305.285 7.081 1.022 8.327 2.214 1.246 1.191 1.869 3.725 1.869 7.6v47.307c0 4.706-.558 7.616-1.671 8.732-1.114 1.115-3.957 1.901-8.525 2.361v2.026zm103.399-37.44v-26.887c0-1.633.367-2.671 1.104-3.114.736-.444 2.748-.666 6.034-.666 4.871 0 8.78.621 11.726 1.864 5.513 2.306 8.27 6.617 8.27 12.935 0 6.566-3.079 11.037-9.234 13.415-3.587 1.351-9.555 2.169-17.9 2.454zm-21.754 37.44h32.234v-2.026c-4.383-.354-7.224-1.071-8.526-2.152-1.302-1.08-1.954-3.64-1.954-7.68v-21.529l5.091-.266 29.019 33.654h18.685v-2.026c-2.304-.211-4.191-.705-5.664-1.481-1.474-.776-2.946-2.011-4.419-3.704l-23.906-27.723c6.459-.924 11.565-2.84 15.324-5.751 3.757-2.913 5.636-7.084 5.636-12.516 0-8.095-4.23-13.651-12.689-16.67-4.456-1.597-10.027-2.396-16.711-2.396h-32.12v2.026c4.192.32 6.901 1.076 8.129 2.268 1.228 1.191 1.841 3.706 1.841 7.546v47.307c0 4.53-.547 7.414-1.643 8.652-1.096 1.238-3.871 2.053-8.328 2.441v2.026zm94.642 0h34.329v-2.026c-4.721-.319-7.78-.981-9.176-1.989-1.397-1.009-2.096-3.616-2.096-7.825v-48.587c0-4.018.699-6.604 2.096-7.76 1.396-1.155 4.455-1.84 9.176-2.054v-2.026h-34.329v2.026c4.721.214 7.78.899 9.178 2.054 1.396 1.156 2.096 3.743 2.096 7.76v48.587c0 4.209-.7 6.816-2.096 7.825-1.397 1.008-4.456 1.67-9.178 1.989v2.026zm54.624 0h62.709l5.269-18.454h-3.229c-2.984 6.223-6.349 10.143-10.092 11.76-3.744 1.619-9.55 2.428-17.416 2.428-7.263 0-11.621-.195-13.078-.588-1.456-.39-2.184-1.67-2.184-3.84v-27.04h17.901c4.909 0 8.044.685 9.404 2.054 1.359 1.369 2.473 4.169 3.341 8.4h2.72v-25.227h-2.72c-.83 4.21-1.925 7.005-3.285 8.385s-4.514 2.069-9.46 2.069h-17.901v-24.374c0-1.421.199-2.391.596-2.906.398-.515 1.449-.774 3.154-.774h15.794c6.798 0 11.179.709 13.143 2.124 1.962 1.415 3.436 4.53 4.419 9.342h2.945l-.396-15.626h-61.633v2.026c4.305.285 7.08 1.022 8.326 2.214 1.246 1.191 1.87 3.725 1.87 7.6v48.587c0 4.103-.632 6.657-1.897 7.665-1.266 1.009-4.032 1.725-8.299 2.149v2.026zm85.461 0h27.247v-2.026c-4.192-.426-6.893-1.225-8.101-2.397-1.85-1.813-2.775-5.701-2.775-11.67v-42.52l51.322 59.894h1.982v-57.494c0-5.725.738-9.387 2.21-10.988 1.472-1.6 4.419-2.612 8.838-3.04v-2.026h-27.249v2.026c4.268.354 7.025 1.114 8.271 2.279 1.887 1.801 2.833 5.688 2.833 11.658v36.299l-44.784-52.261h-19.795v2.026c2.379.072 4.164.33 5.353.774 1.19.444 2.635 1.607 4.334 3.49l1.586 1.759v48.123c0 5.756-.68 9.425-2.039 11.005-1.36 1.583-4.439 2.604-9.234 3.065v2.026zm122.941-8.43v-55.568c0-1.814.463-2.989 1.389-3.522.925-.534 2.69-.801 5.296-.801 10.46 0 18.864 2.42 25.209 7.26 7.401 5.657 11.102 14.092 11.102 25.301 0 12.561-4.495 21.441-13.482 26.636-5.854 3.38-13.313 5.071-22.376 5.071-2.908 0-4.824-.285-5.749-.855-.926-.569-1.389-1.744-1.389-3.522zm-21.979 8.43h32.233c8.648 0 15.936-1.03 21.866-3.092 3.248-1.103 6.381-2.721 9.404-4.854 4.758-3.377 8.318-7.52 10.678-12.428 2.36-4.906 3.541-10.08 3.541-15.52 0-15.111-6.571-25.6-19.714-31.468-7.289-3.271-16.201-4.906-26.739-4.906h-31.269v2.026c4.305.285 7.08.996 8.328 2.134 1.246 1.139 1.869 3.699 1.869 7.68v48.587c0 4.103-.642 6.657-1.926 7.665-1.284 1.009-4.041 1.725-8.27 2.149v2.026zm99.304-21.974l3.456 23.254h2.549c.15-.889.461-1.724.935-2.506.471-.781 1.387-1.174 2.748-1.174.566 0 2.804.64 6.713 1.92 3.909 1.28 7.656 1.92 11.245 1.92 7.138 0 13-1.92 17.589-5.76 4.589-3.84 6.883-8.621 6.883-14.346 0-4.268-1.29-7.965-3.868-11.094-2.616-3.094-7.114-6.489-13.49-10.188l-10.189-5.92c-3.813-2.204-6.622-4.32-8.43-6.346-1.81-1.991-2.714-4.391-2.714-7.2 0-3.129 1.18-5.574 3.54-7.334 2.36-1.76 5.126-2.64 8.299-2.64 4.079 0 8.205 1.386 12.377 4.16 4.173 2.774 7.204 7.662 9.092 14.666h2.775l-2.549-23.254h-2.379c-.302 1.174-.728 2.08-1.275 2.72-.547.64-1.539.961-2.974.961-.53 0-2.654-.614-6.372-1.841-3.721-1.226-6.902-1.84-9.546-1.84-6.42 0-11.575 1.833-15.465 5.494-3.89 3.663-5.834 8.25-5.834 13.76 0 4.16 1.643 7.966 4.928 11.414 1.775 1.814 4.151 3.61 7.13 5.388l9.895 5.813c5.691 3.342 9.422 5.85 11.195 7.521 2.712 2.631 4.07 5.725 4.07 9.28 0 3.946-1.349 7.022-4.044 9.226-2.696 2.205-5.893 3.308-9.589 3.308-6.825 0-12.537-2.542-17.139-7.628-2.639-2.915-4.939-6.826-6.9-11.734h-2.663"/><path d="M735.639 42.338c1.826-4.18 2.74-8.595 2.74-13.246 0-8.256-2.784-15.139-8.35-20.652-5.567-5.514-12.48-8.27-20.739-8.27-8.313 0-15.342 2.888-21.093 8.664-5.75 5.775-8.625 12.816-8.625 21.125 0 8.152 2.85 15.116 8.551 20.892 5.7 5.775 12.629 8.661 20.789 8.661.993 0 1.986-.051 2.981-.156 1.359-1.255 2.614-3.191 3.765-5.806.887-1.986 1.49-3.844 1.804-5.57-2.825 1.48-5.831 2.22-9.023 2.22-5.543 0-10.236-1.949-14.08-5.844-3.845-3.896-5.766-8.615-5.766-14.159 0-5.543 1.946-10.274 5.838-14.196 3.891-3.922 8.606-5.884 14.144-5.884 5.537 0 10.304 1.974 14.3 5.92 3.996 3.945 5.995 8.688 5.995 14.226 0 1.83-.244 3.632-.731 5.41.487 2.561.731 5.33.731 8.309 0 3.659-.405 6.742-1.215 9.251 3.444-2.874 6.105-6.505 7.984-10.895zm-7.514 1.319c0-9.092-3.215-16.852-9.644-23.279-4.181-4.18-9.409-7.003-15.681-8.466-4.496 1.674-7.945 4.391-10.35 8.155.733-.052 1.491-.079 2.277-.079 6.75 0 12.454 2.325 17.111 6.973 4.657 4.65 6.986 10.342 6.986 17.08 0 6.686-2.34 12.366-7.02 17.041-4.681 4.675-10.369 7.013-17.063 7.013-6.85 0-12.604-2.39-17.258-7.17-4.655-4.78-6.982-10.591-6.982-17.434 0-7.575 2.9-13.556 8.699-17.945 0-1.619.535-3.839 1.606-6.659 1.071-2.821 2.129-4.885 3.174-6.191-4.495 1.569-8.52 4.129-12.075 7.683-6.429 6.426-9.644 14.188-9.644 23.28 0 9.144 3.201 16.916 9.605 23.317 6.404 6.402 14.179 9.602 23.326 9.602 5.332 0 9.148-.393 11.449-1.175 3.45-1.202 7.396-4.024 11.839-8.466 6.429-6.426 9.644-14.186 9.644-23.28"/></g></svg>