<svg xmlns="http://www.w3.org/2000/svg" width="260.499" height="178.621"><g><path d="M19.195 85.465c3.908.342 7.346-2.547 7.689-6.451.342-3.903-2.549-7.344-6.449-7.686-3.904-.341-7.345 2.548-7.688 6.451-.341 3.901 2.546 7.346 6.448 7.685zm27.543 74.03l-45.03-51.935 5.557-63.51 53.28-42.346 198.166 17.339-13.801 157.79-198.171-17.338" fill="#fff"/><path d="M61.058 3.411c1.291.113 192.635 16.853 195.864 17.134-.277 3.194-13.24 151.305-13.517 154.495-3.227-.283-194.541-17.019-195.852-17.139-.852-.979-43.243-49.868-44.133-50.898.115-1.345 5.31-60.731 5.43-62.102 1.082-.855 51.205-40.695 52.209-41.49zm-1.543-3l-53.836 42.787-5.678 64.914 45.929 52.97 200.484 17.539 14.085-161.081-200.469-17.54-.515.411" fill="#231f20"/><path d="M19.053 87.113zm.29-3.294c-1.452-.128-2.761-.81-3.696-1.921-.935-1.116-1.379-2.527-1.254-3.975.263-2.989 2.908-5.21 5.898-4.947 1.448.127 2.759.811 3.694 1.924.932 1.112 1.377 2.523 1.252 3.97-.128 1.45-.811 2.761-1.923 3.694-1.114.938-2.523 1.381-3.971 1.255zm-8.244-6.186c-.022.26-.037.521-.037.777 0 2.051.715 4.021 2.051 5.611 1.502 1.79 3.611 2.887 5.939 3.091 2.33.203 4.597-.513 6.386-2.014 1.79-1.5 2.889-3.611 3.093-5.938.202-2.33-.513-4.597-2.013-6.387-1.502-1.792-3.611-2.889-5.938-3.093-4.807-.423-9.059 3.148-9.481 7.952" fill="#231f20"/><path d="M233.28 105.501l-.09 1.096.666.059c.603.054 1.406.222 1.464-.373.049-.559-.422-.641-.943-.684l-1.097-.098zm2.342 3.999l-.733-.064-.944-2.127-.821-.075-.179 2.035-.626-.058.383-4.402 1.846.159c.796.073 1.495.373 1.415 1.301-.075.862-.693 1.133-1.278 1.1l.936 2.13zm-4.89-2.673c-.16 1.843 1.205 3.408 3.004 3.562 1.788.156 3.414-1.147 3.578-2.988.163-1.854-1.212-3.409-3.001-3.564-1.798-.156-3.416 1.14-3.58 2.991zm-.641-.056c.195-2.18 2.084-3.762 4.271-3.57 2.188.191 3.78 2.074 3.585 4.254-.188 2.18-2.081 3.762-4.261 3.572-2.196-.19-3.783-2.074-3.595-4.255" fill="#231f20"/><path d="M188.526 98.351l6.294 12.998.7.061c.836-1.443 1.586-2.898 2.586-4.263l5.434-7.485 27.047 2.363-25.008 24.929-1.78 20.382-23.538-2.055 1.781-20.388-20.746-28.926 27.229 2.383" fill="#231f20"/><path d="M162.095 96.039l-2.449 27.975c-1.204 13.797-13.439 19.046-31.304 17.485-17.866-1.563-29.005-8.856-27.798-22.655l2.446-27.979 23.201 2.031-2.304 26.345c-.326 3.701-.438 6.976 5.744 7.519 6.18.539 6.64-2.708 6.954-6.409l2.311-26.345 23.198 2.031" fill="#231f20"/><path d="M63.908 123.639l2.722.237c3.95.348 9.664.783 10.005-3.106.347-3.952-5.805-4.424-9.669-4.765l-2.374-.207-.683 7.842zm3.751-17.62c3.513.305 7.489.398 7.774-2.864.305-3.511-4.189-3.651-7.705-3.958l-1.667-.149-.593 6.775 2.192.195zm-22.905-20.335l28.014 2.451c12.821 1.121 25.708 4.462 24.756 15.372-.363 4.143-3.62 7.964-9.525 8.777l-.034.375c7.036 2.45 11.276 6.612 10.781 12.256-.852 9.723-13.789 11.941-25.377 10.929l-32.754-2.866 4.139-47.294" fill="#231f20"/><path d="M98.909 37.145l44.517 3.894-1.133 12.921-20.28-1.775-.397 4.517 18.532 1.621-1.079 12.293-18.525-1.619-.406 4.642 20.984 1.833-1.131 12.921-45.22-3.955 4.138-47.294" fill="#231f20"/><path d="M150.059 72.209l1.17.796c4.096 2.761 9.101 5.161 14.639 5.643 2.368.209 6.214-.153 6.393-2.283.188-2.133-2.96-2.599-5.124-3.105l-4.772-1.049c-9.291-2.013-16.849-6.656-16.2-14.059.978-11.227 15.841-16.247 30.244-14.989 7.549.661 14.371 2.586 20.617 5.978l-7.555 11.536c-3.945-2.369-8.467-4.343-13.648-4.796-2.106-.185-5.229.111-5.4 2.055-.155 1.759 2.806 2.268 4.629 2.743l5.366 1.355c10.044 2.523 17.08 7.057 16.38 15.086-.985 11.29-15.884 15.611-30.189 14.362-8.352-.733-17.863-3.205-25.09-6.555l8.54-12.717" fill="#231f20"/><path d="M198.887 45.89l50.585 4.421-1.344 15.369-13.224-1.598-2.829 32.366-24.065-2.104 2.839-32.368-13.305-.718 1.343-15.368" fill="#231f20"/><path d="M58.93 69.662l2.718.239c3.95.346 9.667.781 10.007-3.106.348-3.953-5.809-4.426-9.671-4.763l-2.371-.207-.684 7.838zm3.75-17.622c3.513.309 7.488.403 7.774-2.859.311-3.511-4.194-3.654-7.706-3.958l-1.669-.15-.593 6.775 2.194.191zm-22.905-20.331l28.011 2.45c12.817 1.123 25.717 4.461 24.758 15.376-.369 4.139-3.618 7.963-9.529 8.774l-.032.376c7.038 2.451 11.277 6.612 10.784 12.256-.851 9.723-13.79 11.943-25.376 10.928l-32.757-2.866 4.14-47.294" fill="#231f20"/></g></svg>