<svg xmlns="http://www.w3.org/2000/svg" width="240.945" height="240.945"><g fill-rule="evenodd"><path d="M0 240.946h240.945v-240.945h-240.945v240.945z" fill="#fff"/><path d="M76.23 110.606c6.358 0 10.227 1.119 12.171 3.506 1.061 1.3 1.596 3.028 1.608 5.216.006 1.216-.148 2.572-.459 4.083l-4.358 21.05c-.604 2.911-.968 5.139-.958 6.986.003.585.058 1.127.142 1.641h-11.924l-.022-.389c-.005-.873.063-1.793.139-2.748l.124-1.726h-.66l-.26.41c-2.14 3.441-6.999 5.568-11.163 5.568-3.451 0-5.923-.883-7.348-2.633-1.572-1.927-1.947-4.947-1.116-8.971 1.626-7.859 5.199-11.184 14.161-13.196.005 0 5.949-1.355 5.949-1.355 3.53-.78 5.233-2.336 5.863-5.38.344-1.67.158-2.962-.556-3.841-.663-.809-1.726-1.22-3.158-1.22-3.186 0-4.882 1.646-5.932 5.743h-10.64c2.862-11.052 12.683-12.745 18.395-12.745zm-.132 21.673s-.239.22-.701.401c-.753.29-2.424.563-3.458.822-.801.2-1.705.431-2.681.841-2.598 1.101-3.938 2.902-4.628 6.216-.402 1.94-.166 3.523.689 4.573.638.786 1.583 1.199 2.721 1.199 4.647 0 6.104-4.445 6.797-7.795l1.295-6.257h-.034l-1.261 6.257 1.261-6.257" fill="#231f20"/><path d="M118.839 149.372c-2.517-3.088-3.01-7.946-1.274-16.6 3.788-18.84 10.951-22.166 17.181-22.166 2.962 0 7.423 1.097 7.949 6.295l.083.808h.864s1.012-4.889 1.235-5.98h11.582c-.421 2.029-8.602 41.359-8.602 41.359-2.042 9.88-8.386 14.801-20.024 14.801-10.783 0-12.382-6.359-12.625-8.326-.091-.748.159-2.954.159-2.954h11.272v.009c.005 1.005.081 2.487.421 2.904.466.575.854 1.252 2.643 1.252 2.373 0 4.645-.684 5.755-6.043l1.916-9.282h-.924l-.256.438c-2.309 3.996-6.607 6.016-11.14 6.016-2.791 0-4.828-.822-6.215-2.531zm11.501-17.514c-1.268 6.132-1.212 8.489.028 10.012.615.759 1.538 1.123 2.81 1.123 3.522 0 5.241-2.139 7.031-10.768 1.276-6.181 1.41-10.106.186-11.613-.6-.732-1.479-1.095-2.691-1.095-3.639 0-5.58 3.711-7.364 12.341" fill="#231f20"/><path d="M175.034 111.73c-.412 1.995-8.279 40.036-8.555 41.359h-12.54c.415-1.999 8.29-40.038 8.564-41.359h12.531" fill="#231f20"/><path d="M198.064 97.933c-.42 2.029-11.133 53.812-11.412 55.156h-12.541c.419-2.035 11.135-53.818 11.415-55.156h12.539" fill="#231f20"/><path d="M218.17 97.933c-.425 2.029-11.14 53.812-11.422 55.156h-12.535c.424-2.035 11.14-53.818 11.416-55.156h12.541" fill="#231f20"/><path d="M120.624 110.606c-4.11 0-9 2.876-11.387 7.499l-.247.477h-.918s1.105-5.332 1.415-6.853h-1.073v-.005h-11.929c.085.516.14 1.058.142 1.646.008 1.326-.182 2.86-.513 4.7-2.325 11.231-6.937 33.501-7.248 35.017h12.544c.801-3.885 4.716-22.822 4.716-22.822 1.181-5.696 4.521-8.35 10.502-8.35 1.032 0 1.94.059 2.832.189.279-1.343 2.031-9.805 2.379-11.499h-1.216" fill="#231f20"/><path d="M16.831 150.935c-3.132-3.844-3.271-10.912-.476-24.405 4.461-21.569 10.913-28.848 25.564-28.848 5.854 0 9.963 1.396 12.208 4.15 1.453 1.779 2.188 4.21 2.205 7.255.01 1.66-.194 3.506-.611 5.524l-.599 2.885h-12.346s.915-5.886.907-7.185c-.008-1.461-.065-2.251-.623-2.987-.579-.765-1.439-1.375-2.789-1.375-5.457 0-7.25 5.196-10.357 20.215-2.413 11.658-3.276 17.01-1.413 19.297.707.862 1.771 1.281 3.265 1.281 4.296 0 5.99-3.683 8.149-13.934h12.437l-.652 3.15c-2.615 12.639-10.024 19.052-22.022 19.052-6.498 0-10.579-1.299-12.845-4.074" fill="#231f20"/><path d="M220.833 97.903h3.763l-.126.6h-1.549l-1.115 5.391h-.662l1.114-5.391h-1.548l.124-.6" fill="#231f20"/><path d="M229.149 97.903h1.166l-1.24 5.991h-.662l1.021-4.936c.051-.256.119-.504.155-.759h-.015c-.144.351-.246.575-.351.806l-2.265 4.889h-.79l-.229-4.961c-.014-.207-.019-.407-.022-.734h-.016l-.145.775-1.018 4.92h-.662l1.24-5.991h1.173l.206 4.675c.013.255-.005.502-.056.886h.018c.105-.304.205-.6.338-.895l2.156-4.666" fill="#231f20"/><path d="M176.108 106.85c.986-22.731-26.424-39.796-52.005-34.49-25.569 5.304-37.927 27.566-41.158 34.443h4.183c5.598-9.414 11.265-16.723 20.924-19.445 6.137-1.73 10.958-1.333 22.825 5.287 5.468 3.051 17.836 12.221 31.126 14.055 5.774.796 14.105.15 14.105.15" fill="#231f20"/></g></svg>