<svg xmlns="http://www.w3.org/2000/svg" width="44.971" height="44.97"><g fill="#da1731"><path d="M0 22.487c0-12.421 10.066-22.487 22.485-22.487 12.418 0 22.486 10.066 22.486 22.487 0 12.415-10.068 22.483-22.486 22.483-12.419 0-22.485-10.068-22.485-22.483zm22.485 14.932c8.248 0 14.934-6.685 14.934-14.932 0-8.249-6.687-14.936-14.934-14.936-8.248 0-14.935 6.687-14.935 14.936 0 8.247 6.686 14.932 14.935 14.932zm0-7.324c4.284 0 7.754-3.472 7.754-7.752 0-4.284-3.47-7.755-7.754-7.755-4.283 0-7.755 3.471-7.755 7.755 0 4.28 3.473 7.752 7.755 7.752"/><path d="M37.098 44.907c1.06 0 1.964-.821 1.964-1.948 0-1.117-.905-1.939-1.964-1.939-1.072 0-1.976.823-1.976 1.939 0 1.127.904 1.948 1.976 1.948zm-1.587-1.948c0-.92.696-1.616 1.587-1.616.88 0 1.575.696 1.575 1.616 0 .937-.694 1.626-1.575 1.626-.891 0-1.587-.689-1.587-1.626zm1.177.153h.39l.589.974h.382l-.639-.988c.33-.042.581-.216.581-.619 0-.44-.261-.637-.791-.637h-.853v2.244h.34v-.974zm0-.287v-.696h.461c.237 0 .488.053.488.331 0 .344-.256.365-.545.365h-.404" fill-rule="evenodd"/></g></svg>