<svg xmlns="http://www.w3.org/2000/svg" width="289.369" height="61.78"><g><path d="M0 30.89c0-17.06 13.83-30.89 30.89-30.89 17.06 0 30.89 13.83 30.89 30.89 0 17.06-13.83 30.89-30.89 30.89-17.06 0-30.89-13.83-30.89-30.89zm30.89 20.516c11.331 0 20.516-9.186 20.516-20.516 0-11.331-9.185-20.516-20.516-20.516-11.331 0-20.516 9.185-20.516 20.516 0 11.331 9.186 20.516 20.516 20.516zm0-10.06c5.884 0 10.653-4.77 10.653-10.653 0-5.884-4.77-10.653-10.653-10.653-5.884 0-10.653 4.769-10.653 10.653 0 5.883 4.769 10.653 10.653 10.653z" fill="#ed192d"/><path d="M71.812 8.718h35.198v8.882h-12.105v35.593h-10.757v-35.527h-12.336v-8.947"/><path d="M139.891 8.718h20.889c11.875 0 13.52 8.125 13.52 12.862 0 6.875-5.921 10.329-6.447 10.461 0 0 5.197 1.941 5.197 7.829v8.29c0 3.323 2.039 4.244 2.401 5.033h-8.488c-4.046-.46-3.98-3.685-3.947-5.526v-7.139c-.099-1.743-.625-3.684-4.276-3.75h-8.586v16.415h-10.296l.034-44.475zm20.131 8.947h-9.869v8.882s7.699.024 8.85 0c3.091-.066 5.485-1.447 5.485-4.474 0-3.296-2.031-4.408-4.466-4.408"/><path d="M219.695 8.718v44.475h32.041v-9.145h-21.58v-9.935h18.421v-8.421h-18.421v-8.027h21.58v-8.947h-32.041"/><path d="M253.249 17.666h12.697v35.527h10.527v-35.527h12.895v-8.947h-36.12v8.947"/><path d="M112.166 8.71h11.415l15.553 44.483h-11.063l-3.213-9.244h-13.126l-3.031 9.244h-10.969l14.435-44.483zm5.962 15.699l-3.783 11.48h7.796l-4.014-11.48"/><path d="M216.011 28.357h-19.113v8.652h9.079c-.015 1.78.265 3.557-1.87 6.057-.726.85-3.212 2.759-6.683 2.759-2.928 0-5.031-.837-6.857-2.388-4.035-3.426-4.985-9.827-4.985-13.172 0-4.21 1.679-14.671 11.974-15.099 0 0 6.944-.448 8.751 7.928h9.637c-.198-4.243-5.131-16.165-18.389-16.185-4.576-.007-10.384 1.372-15.194 6.189-3.479 3.486-6.615 9.343-6.615 17.595 0 8.951 3.295 14.769 6.309 17.967 5.29 5.613 10.619 6.047 13.395 6.047 2.204 0 6.415-.329 11.875-4.013l1.448 2.5h7.237v-24.836"/><path d="M280.546 52.471h-.352v-2.148h.814c.519 0 .784.182.784.618 0 .389-.239.55-.56.586l.601.944h-.4l-.555-.918h-.331v.918zm.394-1.219c.265 0 .499-.026.499-.337 0-.259-.255-.291-.468-.291h-.425v.627h.394zm-.01 2.049c-1.115 0-1.909-.835-1.909-1.94 0-1.167.881-1.94 1.909-1.94 1.016 0 1.899.773 1.899 1.94 0 1.167-.882 1.94-1.899 1.94zm0-3.543c-.841 0-1.494.659-1.494 1.603 0 .882.57 1.604 1.494 1.604.83 0 1.484-.654 1.484-1.604 0-.944-.654-1.603-1.484-1.603"/></g></svg>