<svg xmlns="http://www.w3.org/2000/svg" width="289.994" height="63.03"><g><path d="M.625 31.515c0-17.06 13.831-30.89 30.89-30.89 17.06 0 30.891 13.83 30.891 30.89 0 17.06-13.83 30.89-30.891 30.89-17.059 0-30.89-13.83-30.89-30.89zm30.89 20.516c11.331 0 20.517-9.185 20.517-20.516 0-11.331-9.185-20.516-20.517-20.516-11.33 0-20.516 9.185-20.516 20.516 0 11.331 9.186 20.516 20.516 20.516zm0-10.06c5.884 0 10.654-4.77 10.654-10.653 0-5.884-4.77-10.654-10.654-10.654-5.883 0-10.653 4.77-10.653 10.654 0 5.883 4.77 10.653 10.653 10.653z" fill="#231f20"/><path d="M.625 31.515c0-17.06 13.831-30.89 30.89-30.89 17.06 0 30.891 13.83 30.891 30.89 0 17.06-13.83 30.89-30.891 30.89-17.059 0-30.89-13.83-30.89-30.89zm30.89 20.516c11.331 0 20.517-9.185 20.517-20.516 0-11.331-9.185-20.516-20.517-20.516-11.33 0-20.516 9.185-20.516 20.516 0 11.331 9.186 20.516 20.516 20.516zm0-10.06c5.884 0 10.654-4.77 10.654-10.653 0-5.884-4.77-10.654-10.654-10.654-5.883 0-10.653 4.77-10.653 10.654 0 5.883 4.77 10.653 10.653 10.653z" stroke="#231f20" stroke-width="1.25" fill="none"/><path d="M72.437 9.343h35.199v8.882h-12.106v35.593h-10.757v-35.527h-12.336v-8.948"/><path d="M140.516 9.343h20.887c11.876 0 13.521 8.125 13.521 12.862 0 6.875-5.921 10.329-6.447 10.461 0 0 5.197 1.94 5.197 7.829v8.289c0 3.323 2.039 4.244 2.401 5.034h-8.488c-4.046-.461-3.98-3.685-3.947-5.527v-7.138c-.099-1.744-.625-3.684-4.276-3.75h-8.586v16.415h-10.296l.034-44.475zm20.131 8.948h-9.869v8.882s7.699.024 8.85 0c3.091-.066 5.485-1.448 5.485-4.474 0-3.296-2.031-4.408-4.466-4.408"/><path d="M220.32 9.343v44.475h32.041v-9.145h-21.58v-9.934h18.421v-8.421h-18.421v-8.027h21.58v-8.948h-32.041"/><path d="M253.874 18.291h12.697v35.527h10.527v-35.527h12.895v-8.948h-36.12v8.948"/><path d="M112.792 9.336h11.415l15.552 44.483h-11.063l-3.214-9.244h-13.126l-3.031 9.244h-10.969l14.435-44.483zm5.962 15.699l-3.783 11.48h7.796l-4.013-11.48"/><path d="M216.636 28.982h-19.113v8.652h9.079c-.015 1.78.265 3.556-1.87 6.056-.726.851-3.212 2.76-6.683 2.76-2.928 0-5.031-.837-6.857-2.388-4.035-3.426-4.985-9.826-4.985-13.172 0-4.21 1.679-14.671 11.974-15.099 0 0 6.944-.449 8.75 7.928h9.639c-.198-4.244-5.131-16.165-18.389-16.185-4.576-.007-10.384 1.371-15.193 6.189-3.48 3.486-6.616 9.343-6.616 17.595 0 8.951 3.295 14.768 6.309 17.967 5.29 5.613 10.619 6.047 13.395 6.047 2.205 0 6.415-.329 11.875-4.013l1.449 2.5h7.236v-24.836"/><path d="M281.171 53.096h-.352v-2.148h.814c.519 0 .784.181.784.617 0 .39-.239.55-.56.586l.601.944h-.4l-.554-.918h-.333v.918zm.394-1.219c.265 0 .499-.026.499-.337 0-.26-.255-.291-.468-.291h-.425v.628h.394zm-.01 2.049c-1.115 0-1.909-.835-1.909-1.94 0-1.167.881-1.94 1.909-1.94 1.018 0 1.899.772 1.899 1.94 0 1.167-.881 1.94-1.899 1.94zm0-3.543c-.84 0-1.494.659-1.494 1.603 0 .882.57 1.603 1.494 1.603.83 0 1.484-.654 1.484-1.603 0-.944-.654-1.603-1.484-1.603"/></g></svg>