<svg xmlns="http://www.w3.org/2000/svg" width="576.625" height="694.825"><g><path d="M291.057 50.713c27.571.051 40.815 19.983 41.278 39.926.43 18.569-18.348 40.066-40.292 40.066-20.754 0-39.301-19.883-39.176-39.822.124-20.03 13.204-40.119 38.191-40.17" fill="#231f20" fill-rule="evenodd"/><path d="M99.613 58.813c2.376.825 2.914 3.21 4.5 4.8 3.734 3.743 9.566 7.465 15.3 9 27.16 7.269 61.505 4.293 87 13.2 35.194 12.295 56.61 43.24 67.5 79.8 4.241 14.24 4.378 27.858 6.9 43.8 3.081 19.477.32 43.934 2.4 63 .426 3.908 1.117 18.596-.3 20.1-10.435-6.195-15.289-21.621-22.2-31.5-9.08-12.979-21.871-24.161-34.8-33.3-12.3-8.695-25.47-16.794-40.8-22.2-24.116-8.506-53.483-13.783-67.8-32.1-9.493-12.145-15.865-26.139-19.5-44.4-1.794-9.011-.531-17.705-1.2-27-.687-9.543.248-21.884 1.8-31.2.399-4 .8-8.001 1.2-12" fill="#231f20" fill-rule="evenodd"/><path d="M483.013 60.313l1.2.3c1.58 16.624 3.526 36.83 2.1 50.4-3.421 32.517-9.379 54.34-28.5 70.5-15.776 13.332-39.745 16.469-60.901 24.6-17.236 6.625-32.441 14.981-46.2 25.2-14.199 10.546-26.931 22.712-36.299 38.1-3.765 6.185-10.922 21.271-18 23.1l-.3-.3c.699-15.099 1.401-30.201 2.099-45.3.302-9.3.601-18.601.901-27.9 2.465-23.247 4.885-45.326 12-64.5 5.298-14.279 13.596-26.27 22.199-37.2 7.66-9.731 16.859-18.954 28.201-24.9 17.446-9.148 40.972-10.119 62.4-13.5 24.021-3.791 49.001-1.336 59.1-18.6" fill="#231f20" fill-rule="evenodd"/><path d="M130.494 198.504c9.366 5.784 36.619 13.161 36.619 13.161 4.73 27.261 36.719 95.046 124.546 96.263 91.516-5.478 118.011-72.301 123.854-95.668 11.406-1.948 36.3-12.944 36.3-12.944-.278 32.825-38.53 139.609-159.876 140.808-135.531-4.36-161.629-115.969-161.442-141.62" fill="#231f20" fill-rule="evenodd"/><path d="M56.132 445.724h8.211v-29.364l17.166 29.364h8.81v-41.385h-8.211v28.856l-16.739-28.856h-9.237v41.385" fill="#231f20"/><path d="M120.281 445.724h9.217l2.859-8.508h15.529l2.783 8.508h9.555l-14.919-41.385h-9.97l-15.053 41.385zm19.944-31.922l5.327 16.284h-10.8l5.473-16.284" fill="#231f20"/><path d="M182.437 404.339v7.327h12.674v34.057h8.869v-34.057h12.616v-7.327h-34.159" fill="#231f20"/><path d="M245.718 445.724h8.755v-41.385h-8.755v41.385z" fill="#231f20"/><path d="M326.25 424.976c0-7.58-2.127-13.27-6.38-17.07-3.185-3.219-7.791-4.83-13.818-4.83-6.026 0-10.634 1.611-13.819 4.83-4.272 3.8-6.407 9.49-6.407 17.07 0 7.431 2.135 13.121 6.407 17.07 3.185 3.22 7.793 4.83 13.819 4.83 6.026 0 10.633-1.61 13.818-4.83 4.253-3.949 6.38-9.639 6.38-17.07zm-20.198 14.571c-3.49 0-6.276-1.264-8.354-3.79-2.08-2.527-3.119-6.121-3.119-10.781 0-4.661 1.039-8.255 3.119-10.781 2.078-2.527 4.864-3.79 8.354-3.79 3.49 0 6.26 1.268 8.31 3.805 2.05 2.536 3.075 6.125 3.075 10.766 0 4.66-1.025 8.254-3.075 10.781-2.05 2.526-4.82 3.79-8.31 3.79" fill="#231f20"/><path d="M357.519 445.724h8.21v-29.364l17.166 29.364h8.81v-41.385h-8.21v28.856l-16.74-28.856h-9.236v41.385" fill="#231f20"/><path d="M421.667 445.724h9.217l2.859-8.508h15.529l2.783 8.508h9.555l-14.919-41.385h-9.97l-15.054 41.385zm19.945-31.922l5.327 16.284h-10.8l5.473-16.284" fill="#231f20"/><path d="M491.662 445.724h29.867v-7.441h-21.056v-33.944h-8.811v41.385" fill="#231f20"/><path d="M87.459 494.339h-30.925v41.385h31.956v-7.441h-23.345v-10.64h20.483v-7.188h-20.483v-8.789h22.314v-7.327" fill="#231f20"/><path d="M105.159 535.724h8.211v-29.364l17.167 29.364h8.81v-41.385h-8.211v28.856l-16.738-28.856h-9.238v41.385" fill="#231f20"/><path d="M175.743 494.339h-18.181v41.385h18.181c6.375 0 11.09-2.574 14.144-7.721 2.252-3.819 3.379-8.479 3.379-13.982 0-2.17-.268-4.454-.801-6.85-.535-2.395-1.538-4.622-3.007-6.683-1.831-2.545-4.228-4.295-7.186-5.25-1.736-.561-3.911-.861-6.527-.899zm-1.489 7.188c4.011 0 6.69 1.129 8.037 3.384 1.346 2.256 2.02 5.489 2.02 9.7 0 3.051-.45 5.681-1.347 7.89-1.643 4.024-4.546 6.036-8.71 6.036h-8.137v-27.01h8.137" fill="#231f20"/><path d="M248.673 514.976c0-7.58-2.127-13.27-6.381-17.07-3.185-3.219-7.79-4.83-13.818-4.83-6.026 0-10.633 1.611-13.818 4.83-4.272 3.8-6.407 9.49-6.407 17.07 0 7.431 2.135 13.121 6.407 17.07 3.185 3.22 7.791 4.83 13.818 4.83 6.027 0 10.633-1.61 13.818-4.83 4.254-3.949 6.381-9.639 6.381-17.07zm-20.199 14.571c-3.49 0-6.275-1.264-8.352-3.79-2.08-2.527-3.119-6.121-3.119-10.781 0-4.661 1.039-8.255 3.119-10.781 2.078-2.527 4.862-3.79 8.352-3.79 3.491 0 6.261 1.268 8.311 3.805 2.05 2.536 3.075 6.125 3.075 10.766 0 4.66-1.025 8.254-3.075 10.781-2.05 2.526-4.82 3.79-8.311 3.79" fill="#231f20"/><path d="M261.724 494.339l11.957 41.385h8.182l5.093-24.203 1.488-8.001 1.488 8.001 5.094 24.203h8.436l11.864-41.385h-8.973l-5.621 23.953-1.301 6.343-1.284-6.599-5.01-23.696h-9.299l-4.763 23.835-1.216 6.46-1.212-6.595-5.567-23.7h-9.355" fill="#231f20"/><path d="M350.947 526.879l-7.678-32.54h-12.821v41.385h8.211v-27.992c0-.804-.01-1.933-.03-3.382-.018-1.45-.028-2.57-.028-3.356l7.934 34.731h8.564l7.991-34.731c0 .786-.01 1.906-.029 3.356-.019 1.45-.029 2.579-.029 3.382v27.992h8.21v-41.385h-12.678l-7.619 32.54" fill="#231f20"/><path d="M420.528 494.339h-30.925v41.385h31.955v-7.441h-23.345v-10.64h20.484v-7.188h-20.484v-8.789h22.315v-7.327" fill="#231f20"/><path d="M438.229 535.724h8.21v-29.364l17.168 29.364h8.81v-41.385h-8.211v28.856l-16.739-28.856h-9.238v41.385" fill="#231f20"/><path d="M487.113 494.339v7.327h12.674v34.057h8.869v-34.057h12.616v-7.327h-34.159" fill="#231f20"/><path d="M56.275 625.724h8.754v-17.352h18.681v-7.188h-18.681v-9.519h21.313v-7.271h-30.067v41.329" fill="#231f20"/><path d="M130.914 604.975c0-7.58-2.126-13.27-6.38-17.07-3.185-3.219-7.791-4.83-13.818-4.83-6.027 0-10.633 1.611-13.817 4.83-4.272 3.8-6.408 9.49-6.408 17.07 0 7.431 2.136 13.122 6.408 17.07 3.185 3.22 7.791 4.83 13.817 4.83 6.027 0 10.633-1.61 13.818-4.83 4.253-3.949 6.38-9.639 6.38-17.07zm-20.197 14.571c-3.49 0-6.275-1.264-8.353-3.79-2.079-2.527-3.119-6.121-3.119-10.781 0-4.661 1.04-8.255 3.119-10.781 2.078-2.527 4.863-3.79 8.353-3.79 3.49 0 6.261 1.268 8.311 3.805 2.05 2.536 3.075 6.125 3.075 10.766 0 4.66-1.025 8.254-3.075 10.781-2.05 2.526-4.821 3.79-8.311 3.79" fill="#231f20"/><path d="M158.008 584.339h-20.17v41.385h8.611v-16.229h8.605c2.454 0 4.128.442 5.02 1.32.894.88 1.359 2.639 1.394 5.278l.058 3.847c.019 1.216.142 2.405.372 3.565.114.561.304 1.301.571 2.219h9.727v-1.039c-.853-.506-1.395-1.292-1.627-2.358-.155-.674-.233-1.957-.233-3.847v-2.78c0-2.9-.405-5.058-1.216-6.471-.811-1.413-2.189-2.504-4.134-3.271 2.328-.786 3.996-2.128 5.008-4.028 1.01-1.899 1.516-3.833 1.516-5.798 0-1.628-.261-3.079-.781-4.353-.521-1.271-1.228-2.432-2.121-3.481-1.079-1.272-2.394-2.236-3.947-2.892-1.552-.655-3.771-1.011-6.652-1.067zm-1.833 7.188c1.813 0 3.17.245 4.076.73 1.611.863 2.419 2.546 2.419 5.054 0 2.323-.834 3.875-2.5 4.662-.943.449-2.355.673-4.239.673h-9.482v-11.119h9.726" fill="#231f20"/><path d="M213.793 584.339v7.328h12.674v34.058h8.869v-34.058h12.616v-7.328h-34.159" fill="#231f20"/><path d="M261.798 625.724v-18.475h16.392v18.475h8.755v-41.385h-8.755v15.779h-16.392v-15.779h-8.754v41.385h8.754" fill="#231f20"/><path d="M326.596 584.339h-30.925v41.385h31.956v-7.441h-23.345v-10.64h20.484v-7.188h-20.484v-8.789h22.314v-7.328" fill="#231f20"/><path d="M363.934 625.724h9.217l2.859-8.508h15.529l2.783 8.508h9.556l-14.92-41.385h-9.97l-15.054 41.385zm19.946-31.923l5.326 16.284h-10.799l5.473-16.284" fill="#231f20"/><path d="M429.611 584.339h-20.169v41.385h8.61v-16.229h8.606c2.454 0 4.128.442 5.02 1.32.894.88 1.359 2.639 1.394 5.278l.058 3.847c.02 1.216.142 2.405.372 3.565.115.561.305 1.301.571 2.219h9.727v-1.039c-.854-.506-1.395-1.292-1.627-2.358-.155-.674-.233-1.957-.233-3.847v-2.78c0-2.9-.405-5.058-1.216-6.471-.81-1.413-2.189-2.504-4.134-3.271 2.328-.786 3.996-2.128 5.006-4.028 1.011-1.899 1.516-3.833 1.516-5.798 0-1.628-.26-3.079-.781-4.353-.52-1.271-1.226-2.432-2.12-3.481-1.077-1.272-2.394-2.236-3.946-2.892-1.554-.655-3.772-1.011-6.655-1.067zm-1.83 7.188c1.811 0 3.17.245 4.075.73 1.611.863 2.419 2.546 2.419 5.054 0 2.323-.834 3.875-2.5 4.662-.943.449-2.355.673-4.239.673h-9.484v-11.119h9.729" fill="#231f20"/><path d="M448.034 584.339v7.328h12.672v34.058h8.87v-34.058h12.616v-7.328h-34.159" fill="#231f20"/><path d="M485.283 612.949c0 4.305 1.589 7.689 4.77 10.15 3.181 2.461 7.548 3.691 13.099 3.691 5.436 0 9.644-1.249 12.623-3.748 2.978-2.498 4.468-5.639 4.468-9.42 0-3.686-1.256-6.503-3.77-8.451-1.619-1.254-4.05-2.255-7.294-3.004l-7.4-1.712c-2.855-.655-4.723-1.226-5.604-1.712-1.367-.73-2.051-1.833-2.051-3.314 0-1.608.694-2.863 2.081-3.762 1.389-.897 3.246-1.348 5.574-1.348 2.091 0 3.841.348 5.249 1.039 2.112 1.048 3.246 2.817 3.402 5.307h8.467c-.155-4.399-1.82-7.753-4.995-10.065-3.176-2.313-7.014-3.469-11.512-3.469-5.386 0-9.47 1.228-12.251 3.679-2.779 2.453-4.17 5.531-4.17 9.236 0 4.063 1.421 7.047 4.264 8.957 1.677 1.143 4.76 2.2 9.248 3.173l4.565.983c2.672.561 4.625 1.206 5.855 1.936 1.23.75 1.846 1.808 1.846 3.174 0 2.34-1.256 3.94-3.769 4.8-1.324.45-3.047.674-5.17.674-3.545 0-6.048-.85-7.508-2.555-.797-.934-1.334-2.347-1.606-4.239h-8.41" fill="#231f20"/><path d="M34.063 649.513h-33.75" stroke="#000" stroke-width="0.625" fill="none"/><path d="M45.313 660.763v33.75" stroke="#000" stroke-width="0.625" fill="none"/><path d="M34.063 45.313h-33.75" stroke="#000" stroke-width="0.625" fill="none"/><path d="M45.313 34.063v-33.75" stroke="#000" stroke-width="0.625" fill="none"/><path d="M542.563 45.313h33.75" stroke="#000" stroke-width="0.625" fill="none"/><path d="M531.313 34.063v-33.75" stroke="#000" stroke-width="0.625" fill="none"/><path d="M542.563 649.513h33.75" stroke="#000" stroke-width="0.625" fill="none"/><path d="M531.313 660.763v33.75" stroke="#000" stroke-width="0.625" fill="none"/></g></svg>