<svg xmlns="http://www.w3.org/2000/svg" width="491.955" height="287.341"><g fill="#fff"><path d="M22.54 282.115c-1.98 3.411-5.665 5.06-11.275 5.06-3.41 0-5.94-.329-9.405-1.264v-6.711c2.86.88 5.115 1.211 7.81 1.211 3.686 0 5.72-1.54 5.72-4.345 0-3.025-2.695-4.676-6.49-7.205-5.666-3.74-7.81-6.71-7.81-10.89 0-6.16 5.225-10.505 12.649-10.505 3.465 0 6.82.44 9.405 1.265v6.985c-2.859-.99-5.445-1.485-7.975-1.485-3.355 0-5.445 1.595-5.445 4.18 0 2.089 1.21 3.52 5.335 6.16 6.49 4.235 8.965 7.535 8.965 12.1 0 1.815-.55 3.85-1.485 5.444"/><path d="M29.69 286.736v-38.83h20.845v6.875h-13.199v9.24h12.32v6.213h-12.32v9.517h13.199v6.985h-20.845"/><path d="M72.094 287.341c-10.395 0-17.435-8.086-17.435-19.855 0-12.155 6.985-20.185 17.545-20.185 2.805 0 4.95.495 7.48 1.76v6.875c-2.2-1.155-4.015-1.65-6.215-1.65-3.3 0-5.83 1.1-7.59 3.355-1.705 2.2-2.915 6.05-2.915 9.46 0 8.249 4.015 13.255 10.615 13.255 2.2 0 4.125-.44 6.545-1.54v6.93c-2.97 1.155-5.28 1.595-8.03 1.595"/><path d="M95.304 254.396h-1.706v11.77h1.485c5.335 0 7.755-1.925 7.755-6.16 0-3.905-2.255-5.61-7.535-5.61zm8.47 32.34l-10.175-16.06v16.06h-7.644v-38.83h9.129c4.785 0 7.81.55 10.121 1.87 3.355 1.869 5.335 5.5 5.335 9.734 0 4.291-2.035 7.976-5.28 9.626-.99.495-2.585.99-4.235 1.209 2.201 2.476 4.345 5.005 6.215 7.755l5.94 8.636h-9.405"/><path d="M117.304 286.736v-38.83h20.845v6.875h-13.2v9.24h12.319v6.213h-12.319v9.517h13.2v6.985h-20.845"/><path d="M157.673 254.836v31.9h-7.755v-31.9h-8.745v-6.93h25.19v6.93h-8.69"/><path d="M190.727 282.115c-1.98 3.411-5.665 5.06-11.275 5.06-3.411 0-5.94-.329-9.405-1.264v-6.711c2.86.88 5.114 1.211 7.81 1.211 3.684 0 5.72-1.54 5.72-4.345 0-3.025-2.695-4.676-6.491-7.205-5.664-3.74-7.809-6.71-7.809-10.89 0-6.16 5.225-10.505 12.65-10.505 3.464 0 6.82.44 9.404 1.265v6.985c-2.86-.99-5.445-1.485-7.974-1.485-3.356 0-5.445 1.595-5.445 4.18 0 2.089 1.209 3.52 5.335 6.16 6.49 4.235 8.965 7.535 8.965 12.1 0 1.815-.55 3.85-1.485 5.444"/><path d="M226.366 254.56c-4.84 0-8.195 5.171-8.195 12.706 0 7.645 3.245 12.705 8.25 12.705 4.84 0 8.085-5.17 8.085-12.98 0-7.536-3.19-12.431-8.14-12.431zm.11 32.781c-9.68 0-16.445-8.196-16.445-19.966 0-11.604 6.875-20.074 16.28-20.074 9.35 0 16.335 8.36 16.335 19.525 0 12.319-6.49 20.515-16.17 20.515"/><path d="M256.066 254.836v9.405h12.265v6.325h-12.265v16.17h-7.645v-38.83h20.79v6.93h-13.145"/><path d="M301.771 254.836v31.9h-7.756v-31.9h-8.745v-6.93h25.191v6.93h-8.69"/><path d="M334.44 286.736v-16.555h-11.66v16.555h-7.645v-38.83h7.645v15.62h11.66v-15.62h7.644v38.83h-7.644"/><path d="M349.455 286.736v-38.83h20.845v6.875h-13.2v9.24h12.32v6.213h-12.32v9.517h13.2v6.985h-20.845"/><path d="M405.609 287.341c-10.395 0-17.434-8.086-17.434-19.855 0-12.155 6.984-20.185 17.544-20.185 2.805 0 4.95.495 7.48 1.76v6.875c-2.2-1.155-4.015-1.65-6.215-1.65-3.3 0-5.83 1.1-7.59 3.355-1.705 2.2-2.915 6.05-2.915 9.46 0 8.249 4.015 13.255 10.615 13.255 2.2 0 4.125-.44 6.545-1.54v6.93c-2.97 1.155-5.28 1.595-8.03 1.595"/><path d="M419.469 286.736h7.645v-38.83h-7.645v38.83z"/><path d="M448.288 254.836v31.9h-7.755v-31.9h-8.744v-6.93h25.19v6.93h-8.691"/><path d="M484.697 257.475c-2.585 6.216-5.335 12.321-7.37 16.061v13.2h-7.755v-13.145c-2.64-4.895-4.62-9.186-7.315-15.895l-3.96-9.79h8.635l6.545 19.195 6.6-19.195h8.58l-3.96 9.569"/><path d="M45.08 123.512c18.2 0 33.6-2.8 33.6-28.56 0-24.36-15.96-25.2-30.52-25.2h-10.36v53.76h7.28zm-7.28 102.76c0 5.04-1.12 5.88-5.88 5.88h-26.04c-4.76 0-5.88-.84-5.88-5.88v-180.04c0-5.04 1.12-5.88 5.88-5.88h45.36c21.56 0 65.24 1.4 65.24 54.04 0 36.12-21.56 46.48-31.919 51.8l41.72 74.76c.84 1.4 2.24 3.64 2.24 5.32 0 1.679-2.8 2.52-5.601 3.36l-23.52 6.72c-1.121.28-2.8.559-3.92.559-1.4 0-3.64-3.358-6.44-8.679l-37.8-75.32h-13.44v73.36"/><path d="M201.88 169.432c-7 0-39.48-2.24-39.48 22.4 0 10.92 7.84 19.04 18.48 19.04 10.36 0 17.64-7.28 21-10.64v-30.8zm17.08 66.36c-1.12.279-2.52 1.119-3.64 1.119-2.52 0-6.72-9.8-8.12-16.799-5.6 5.599-15.4 16.799-36.4 16.799-25.76 0-42-16.799-42-43.119 0-47.32 50.96-47.32 73.08-47.32v-8.68c0-12.6-2.24-20.72-19.88-20.72-15.68 0-31.08 8.4-34.72 8.4-1.4 0-2.52-1.68-2.8-2.8l-5.6-17.08c-.56-1.12-.84-2.24-.84-3.36 0-6.44 27.72-13.16 49.28-13.16 35 0 48.16 15.961 48.16 45.08v54.04c0 27.16 7.28 30.799 7.28 36.4 0 1.119-1.12 1.958-2.52 2.518l-21.28 8.681"/><path d="M375.756 215.911c1.4 1.401 2.52 3.08 2.52 4.201 0 1.119-.28 1.959-1.401 2.519l-23.799 13.161c-1.12.56-2.241 1.119-3.36 1.119-1.12 0-2.52-1.679-3.361-2.799l-51.239-66.92h-.56v61.04c0 3.08-.56 3.92-3.92 3.92h-27.72c-3.36 0-3.919-.84-3.919-3.92l-.028-217.592c0-3.92 1.96-4.48 5.32-5.04l23.52-4.76c.839-.28 3.64-.84 4.48-.84 1.679 0 2.24 1.12 2.24 5.88l.026 140.313 53.76-54.32c.84-1.12 3.08-2.8 3.92-2.8 1.68 0 2.8 1.4 5.04 3.08l14 11.48c1.12 1.12 1.4 1.96 1.4 3.08s-1.12 2.24-2.52 3.64l-45.36 44.24 50.96 61.319"/><path d="M454.156 146.472c0-11.48-.84-31.36-20.16-31.36-21.841 0-22.96 23.52-23.8 31.36h43.96zm32.479 70.84c.56.839.84 1.96.84 3.079 0 7.281-27.999 16.52-50.12 16.52-36.959 0-62.72-21-62.72-72.519 0-44.52 23.801-75.32 61.32-75.32 47.6 0 56 42.56 56 76.44 0 5.32-1.12 7-6.439 7h-75.32c0 15.68 4.48 35 30.799 35 20.16 0 31.64-9.24 35.561-9.24 1.4 0 2.519 1.12 3.079 2.24l7 16.8"/><path d="M166.106 67.864c.069.28.14.49.14.7 0 .907-5.242 2.865-9.016 2.865-3.005 0-5.521-1.119-6.569-2.446-2.026-2.166-2.026-5.311-2.026-7.896v-19.849h-5.242c-.489 0-.489-.49-.489-.839v-2.656c0-.489 0-.839.489-.839h5.242v-9.575c0-.42.279-.698.767-.838l3.705-1.05.489-.069c.35 0 .35.35.35.767v10.764h10.344c.419 0 .769.07.769.489l-.071.49-.907 2.725c-.14.35-.49.63-.91.63h-9.224v19.849c0 2.795 0 5.66 4.192 5.66 3.285 0 6.08-1.886 6.71-1.886.279 0 .489.209.489.419l.769 2.585"/><path d="M169.034 21.667c0-.489.21-.769.487-.838l3.496-.839c.559-.14.347-.07.838-.14.49 0 .49.559.49.907v19.919c2.237-1.817 5.87-4.753 10.971-4.753 7.758 0 8.318 5.451 8.318 10.484v23.203c0 .559-.279.839-.839.839h-3.634c-.559 0-.839-.28-.839-.839v-23.344c0-3.004-.769-5.66-4.544-5.66-4.543 0-7.688 2.725-9.434 4.263v24.741c0 .559-.28.839-.839.839h-3.635c-.559 0-.838-.28-.838-.839v-47.944"/><path d="M219.023 50.461c0-3.634-1.186-10.203-7.268-10.203-6.43 0-7.827 6.709-7.827 10.203h15.095zm4.754 16.774c.069.21.209.35.209.56 0 .769-5.87 3.634-11.041 3.634-9.296-.07-14.748-7.13-14.748-17.753 0-10.273 5.17-17.751 13.838-17.751 11.672 0 12.72 11.322 12.72 17.332 0 .979 0 1.538-.769 1.538h-20.058c0 4.263 1.677 11.951 9.644 11.951 4.544 0 8.176-2.865 8.598-2.865.21 0 .279.21.419.417l1.189 2.936"/></g></svg>