<svg xmlns="http://www.w3.org/2000/svg" width="491.955" height="287.342"><g fill="#231f20"><path d="M22.541 282.116c-1.98 3.41-5.665 5.06-11.275 5.06-3.41 0-5.94-.33-9.405-1.265v-6.71c2.86.88 5.115 1.211 7.81 1.211 3.686 0 5.72-1.541 5.72-4.346 0-3.025-2.695-4.675-6.49-7.205-5.666-3.74-7.81-6.71-7.81-10.89 0-6.159 5.225-10.505 12.649-10.505 3.465 0 6.82.442 9.405 1.267v6.985c-2.859-.99-5.445-1.486-7.975-1.486-3.355 0-5.445 1.596-5.445 4.18 0 2.09 1.21 3.52 5.335 6.161 6.49 4.234 8.965 7.534 8.965 12.099 0 1.816-.55 3.852-1.485 5.445"/><path d="M29.69 286.736v-38.829h20.845v6.875h-13.199v9.239h12.32v6.215h-12.32v9.515h13.199v6.985h-20.845"/><path d="M72.094 287.342c-10.395 0-17.435-8.086-17.435-19.855 0-12.156 6.985-20.186 17.544-20.186 2.805 0 4.95.496 7.48 1.761v6.875c-2.2-1.155-4.015-1.651-6.215-1.651-3.3 0-5.83 1.1-7.59 3.356-1.705 2.2-2.915 6.05-2.915 9.459 0 8.25 4.015 13.256 10.615 13.256 2.2 0 4.125-.441 6.545-1.542v6.93c-2.97 1.155-5.28 1.596-8.03 1.596"/><path d="M95.304 254.396h-1.706v11.77h1.485c5.335 0 7.755-1.925 7.755-6.16 0-3.905-2.255-5.61-7.535-5.61zm8.47 32.34l-10.175-16.059v16.059h-7.644v-38.829h9.129c4.785 0 7.81.549 10.121 1.87 3.355 1.869 5.335 5.499 5.335 9.734 0 4.291-2.035 7.976-5.28 9.625-.99.496-2.585.99-4.235 1.21 2.201 2.475 4.345 5.005 6.215 7.755l5.94 8.635h-9.405"/><path d="M117.304 286.736v-38.829h20.845v6.875h-13.2v9.239h12.32v6.215h-12.32v9.515h13.2v6.985h-20.845"/><path d="M157.674 254.837v31.898h-7.755v-31.898h-8.746v-6.93h25.19v6.93h-8.689"/><path d="M190.727 282.116c-1.98 3.41-5.665 5.06-11.275 5.06-3.41 0-5.94-.33-9.405-1.265v-6.71c2.86.88 5.115 1.211 7.81 1.211 3.685 0 5.72-1.541 5.72-4.346 0-3.025-2.695-4.675-6.49-7.205-5.665-3.74-7.81-6.71-7.81-10.89 0-6.159 5.225-10.505 12.65-10.505 3.465 0 6.82.442 9.405 1.267v6.985c-2.86-.99-5.445-1.486-7.975-1.486-3.355 0-5.445 1.596-5.445 4.18 0 2.09 1.21 3.52 5.335 6.161 6.49 4.234 8.965 7.534 8.965 12.099 0 1.816-.55 3.852-1.485 5.445"/><path d="M226.368 254.561c-4.84 0-8.195 5.171-8.195 12.705 0 7.645 3.245 12.705 8.25 12.705 4.84 0 8.084-5.17 8.084-12.98 0-7.535-3.189-12.43-8.139-12.43zm.11 32.781c-9.68 0-16.445-8.196-16.445-19.966 0-11.604 6.875-20.075 16.28-20.075 9.35 0 16.334 8.361 16.334 19.525 0 12.32-6.489 20.516-16.169 20.516"/><path d="M256.067 254.837v9.404h12.264v6.326h-12.264v16.168h-7.646v-38.829h20.79v6.93h-13.144"/><path d="M301.771 254.837v31.898h-7.755v-31.898h-8.745v-6.93h25.19v6.93h-8.69"/><path d="M334.441 286.736v-16.555h-11.66v16.555h-7.646v-38.829h7.646v15.62h11.66v-15.62h7.644v38.829h-7.644"/><path d="M349.455 286.736v-38.829h20.845v6.875h-13.199v9.239h12.319v6.215h-12.319v9.515h13.199v6.985h-20.845"/><path d="M405.609 287.342c-10.394 0-17.434-8.086-17.434-19.855 0-12.156 6.985-20.186 17.544-20.186 2.805 0 4.95.496 7.481 1.761v6.875c-2.2-1.155-4.015-1.651-6.215-1.651-3.301 0-5.83 1.1-7.59 3.356-1.706 2.2-2.915 6.05-2.915 9.459 0 8.25 4.015 13.256 10.615 13.256 2.2 0 4.125-.441 6.544-1.542v6.93c-2.97 1.155-5.279 1.596-8.03 1.596"/><path d="M419.469 286.736h7.645v-38.829h-7.645v38.829z"/><path d="M448.289 254.837v31.898h-7.755v-31.898h-8.744v-6.93h25.189v6.93h-8.69"/><path d="M484.699 257.476c-2.586 6.216-5.336 12.32-7.371 16.061v13.199h-7.755v-13.144c-2.639-4.895-4.619-9.186-7.314-15.895l-3.96-9.79h8.635l6.544 19.194 6.6-19.194h8.581l-3.96 9.569"/><path d="M45.08 123.512c18.2 0 33.6-2.8 33.6-28.56 0-24.36-15.96-25.2-30.52-25.2h-10.36v53.76h7.28zm-7.28 102.76c0 5.04-1.12 5.88-5.879 5.88h-26.04c-4.76 0-5.88-.84-5.88-5.88v-180.04c0-5.04 1.12-5.88 5.88-5.88h45.359c21.56 0 65.24 1.401 65.24 54.04 0 36.121-21.56 46.481-31.919 51.801l41.72 74.759c.84 1.4 2.24 3.64 2.24 5.32 0 1.68-2.8 2.521-5.601 3.361l-23.52 6.72c-1.121.279-2.8.559-3.92.559-1.4 0-3.64-3.36-6.44-8.68l-37.8-75.319h-13.44v73.359"/><path d="M201.88 169.432c-7 0-39.48-2.24-39.48 22.4 0 10.921 7.84 19.041 18.481 19.041 10.359 0 17.639-7.28 20.999-10.641v-30.8zm17.08 66.36c-1.12.28-2.52 1.12-3.64 1.12-2.52 0-6.72-9.8-8.12-16.8-5.6 5.6-15.4 16.8-36.399 16.8-25.76 0-42-16.8-42-43.119 0-47.321 50.96-47.321 73.079-47.321v-8.679c0-12.6-2.24-20.721-19.879-20.721-15.68 0-31.081 8.4-34.72 8.4-1.4 0-2.52-1.68-2.801-2.8l-5.6-17.08c-.559-1.12-.839-2.24-.839-3.36 0-6.44 27.719-13.16 49.279-13.16 35 0 48.16 15.96 48.16 45.081v54.039c0 27.161 7.28 30.8 7.28 36.4 0 1.12-1.119 1.96-2.52 2.52l-21.28 8.68"/><path d="M375.756 215.912c1.401 1.4 2.52 3.08 2.52 4.2s-.28 1.96-1.4 2.52l-23.799 13.16c-1.121.561-2.241 1.12-3.361 1.12-1.119 0-2.519-1.68-3.36-2.798l-51.239-66.921h-.56v61.04c0 3.08-.561 3.92-3.92 3.92h-27.72c-3.36 0-3.92-.84-3.92-3.92l-.026-217.593c0-3.92 1.959-4.48 5.32-5.04l23.519-4.76c.84-.28 3.64-.84 4.48-.84 1.68 0 2.24 1.12 2.24 5.88l.028 140.314 53.759-54.321c.84-1.12 3.08-2.8 3.92-2.8 1.681 0 2.8 1.4 5.04 3.08l14.001 11.48c1.119 1.12 1.4 1.96 1.4 3.08s-1.121 2.24-2.521 3.64l-45.359 44.24 50.959 61.32"/><path d="M454.156 146.472c0-11.479-.84-31.36-20.16-31.36-21.84 0-22.96 23.521-23.8 31.36h43.96zm32.48 70.84c.56.84.839 1.96.839 3.079 0 7.28-27.999 16.52-50.119 16.52-36.96 0-62.72-21-62.72-72.52 0-44.52 23.8-75.32 61.32-75.32 47.6 0 55.999 42.56 55.999 76.441 0 5.32-1.119 6.998-6.439 6.998h-75.32c0 15.68 4.48 35 30.8 35 20.16 0 31.639-9.239 35.56-9.239 1.4 0 2.52 1.119 3.08 2.24l7 16.799"/><path d="M166.107 67.863c.069.28.139.49.139.7 0 .907-5.241 2.865-9.016 2.865-3.004 0-5.52-1.117-6.569-2.446-2.026-2.166-2.026-5.311-2.026-7.896v-19.849h-5.242c-.489 0-.489-.49-.489-.839v-2.656c0-.489 0-.838.489-.838h5.242v-9.576c0-.419.279-.698.769-.839l3.704-1.048.489-.07c.35 0 .35.35.35.769v10.764h10.344c.419 0 .769.069.769.489l-.07.489-.909 2.725c-.14.35-.489.63-.909.63h-9.225v19.849c0 2.794 0 5.66 4.194 5.66 3.285 0 6.08-1.886 6.709-1.886.28 0 .489.209.489.419l.77 2.585"/><path d="M169.034 21.667c0-.489.21-.769.489-.839l3.496-.838c.557-.14.347-.071.838-.14.489 0 .489.559.489.909v19.918c2.237-1.817 5.871-4.753 10.973-4.753 7.756 0 8.318 5.451 8.318 10.484v23.204c0 .557-.28.838-.84.838h-3.634c-.559 0-.838-.28-.838-.838v-23.344c0-3.005-.77-5.661-4.544-5.661-4.544 0-7.688 2.726-9.435 4.264v24.741c0 .557-.28.838-.838.838h-3.635c-.56 0-.839-.28-.839-.838v-47.945"/><path d="M219.024 50.462c0-3.634-1.188-10.205-7.268-10.205-6.431 0-7.829 6.71-7.829 10.205h15.096zm4.754 16.773c.069.21.209.35.209.56 0 .769-5.871 3.634-11.043 3.634-9.296-.07-14.748-7.129-14.748-17.751 0-10.274 5.171-17.753 13.838-17.753 11.672 0 12.72 11.322 12.72 17.332 0 .979 0 1.538-.767 1.538h-20.059c0 4.263 1.677 11.951 9.644 11.951 4.544 0 8.178-2.866 8.598-2.866.21 0 .279.21.419.42l1.19 2.935"/></g></svg>