<svg xmlns="http://www.w3.org/2000/svg" width="874.806" height="324.427"><g><path d="M115.888 161.935c0-5.661 4.588-10.25 10.252-10.25 5.659 0 10.244 4.589 10.244 10.25 0 5.659-4.585 10.242-10.244 10.242-5.663 0-10.252-4.584-10.252-10.242" fill="#396c4f"/><path d="M92.199 161.935c0-5.093 4.127-9.221 9.218-9.221 5.096 0 9.227 4.129 9.227 9.221 0 5.091-4.132 9.216-9.227 9.216-5.091 0-9.218-4.125-9.218-9.216" fill="#396c4f"/><path d="M69.331 161.935c0-4.582 3.719-8.3 8.306-8.3 4.583 0 8.293 3.717 8.293 8.3 0 4.584-3.71 8.297-8.293 8.297-4.588 0-8.306-3.714-8.306-8.297" fill="#396c4f"/><path d="M46.609 161.935c0-4.126 3.351-7.471 7.479-7.471 4.125 0 7.464 3.345 7.464 7.471 0 4.129-3.34 7.468-7.464 7.468-4.128 0-7.479-3.339-7.479-7.468" fill="#396c4f"/><path d="M23.579 161.935c0-3.716 3.015-6.728 6.727-6.728 3.713 0 6.722 3.011 6.722 6.728 0 3.709-3.009 6.721-6.722 6.721-3.712 0-6.727-3.013-6.727-6.721" fill="#396c4f"/><path d="M0 161.935c0-3.344 2.715-6.049 6.053-6.049 3.339 0 6.055 2.705 6.055 6.049 0 3.335-2.715 6.045-6.055 6.045-3.337 0-6.053-2.71-6.053-6.045" fill="#396c4f"/><path d="M159.366 115.889c5.66 0 10.255 4.593 10.255 10.242 0 5.668-4.595 10.25-10.255 10.25-5.656 0-10.241-4.582-10.241-10.25 0-5.65 4.585-10.242 10.241-10.242" fill="#396c4f"/><path d="M159.366 92.194c5.093 0 9.224 4.131 9.224 9.225 0 5.094-4.131 9.221-9.224 9.221-5.091 0-9.219-4.128-9.219-9.221 0-5.094 4.128-9.225 9.219-9.225" fill="#396c4f"/><path d="M159.366 69.337c4.588 0 8.305 3.709 8.305 8.301 0 4.582-3.717 8.301-8.305 8.301-4.584 0-8.295-3.719-8.295-8.301 0-4.593 3.711-8.301 8.295-8.301" fill="#396c4f"/><path d="M159.366 46.612c4.128 0 7.475 3.345 7.475 7.473 0 4.136-3.348 7.471-7.475 7.471-4.126 0-7.469-3.335-7.469-7.471 0-4.128 3.342-7.473 7.469-7.473" fill="#396c4f"/><path d="M159.366 23.587c3.717 0 6.728 3.011 6.728 6.72 0 3.712-3.01 6.72-6.728 6.72-3.711 0-6.72-3.007-6.72-6.72 0-3.709 3.009-6.72 6.72-6.72" fill="#396c4f"/><path d="M159.366 0c3.346 0 6.058 2.715 6.058 6.055 0 3.344-2.711 6.041-6.058 6.041-3.341 0-6.053-2.697-6.053-6.041 0-3.34 2.711-6.055 6.053-6.055" fill="#396c4f"/><path d="M99.582 134.123c1.925-4.174 6.853-6.005 11.015-4.079 4.159 1.914 5.984 6.844 4.066 11.011-1.919 4.17-6.841 5.987-11.004 4.075-4.17-1.919-5.986-6.844-4.076-11.008" fill="#396c4f"/><path d="M78.945 124.609c1.724-3.736 6.173-5.394 9.918-3.654 3.752 1.722 5.385 6.16 3.658 9.905-1.72 3.754-6.157 5.399-9.898 3.664-3.756-1.728-5.401-6.161-3.679-9.915" fill="#396c4f"/><path d="M58.024 114.977c1.551-3.361 5.552-4.838 8.921-3.288 3.368 1.549 4.861 5.539 3.298 8.911-1.56 3.379-5.549 4.861-8.92 3.299-3.366-1.559-4.855-5.54-3.299-8.922" fill="#396c4f"/><path d="M36.606 105.128c1.401-3.035 4.994-4.374 8.035-2.97 3.022 1.394 4.357 4.992 2.961 8.026-1.397 3.045-4.994 4.365-8.028 2.962-3.032-1.39-4.367-4.994-2.968-8.019" fill="#396c4f"/><path d="M134.905 99.342c4.351-1.476 9.069.848 10.531 5.197 1.469 4.334-.856 9.049-5.2 10.52-4.34 1.478-9.055-.846-10.52-5.192-1.485-4.338.853-9.049 5.189-10.525" fill="#396c4f"/><path d="M127.614 77.819c3.9-1.32 8.162.771 9.479 4.689 1.33 3.904-.774 8.146-4.681 9.467-3.902 1.334-8.153-.761-9.46-4.66-1.338-3.919.753-8.165 4.662-9.496" fill="#396c4f"/><path d="M120.214 56.015c3.515-1.194 7.336.693 8.523 4.209 1.195 3.5-.677 7.331-4.197 8.52-3.525 1.194-7.338-.684-8.527-4.214-1.188-3.504.68-7.331 4.201-8.515" fill="#396c4f"/><path d="M112.637 33.683c3.167-1.067 6.618.625 7.686 3.79 1.061 3.161-.631 6.598-3.795 7.676-3.167 1.085-6.602-.619-7.667-3.8-1.074-3.147.623-6.596 3.775-7.666" fill="#396c4f"/><path d="M127.029 128.604c-4.008 4.005-4.017 10.492-.007 14.494 3.994 4.009 10.49 4.004 14.49.009 4.008-4.005 4.008-10.492.006-14.492-3.999-4.005-10.482-4.014-14.489-.01" fill="#396c4f"/><path d="M110.288 111.839c-3.613 3.594-3.613 9.439-.007 13.044 3.594 3.6 9.435 3.6 13.032.013 3.611-3.603 3.611-9.447.007-13.051-3.598-3.605-9.436-3.605-13.032-.005" fill="#396c4f"/><path d="M94.13 95.666c-3.246 3.235-3.253 8.492-.016 11.741 3.246 3.243 8.494 3.243 11.747.004 3.244-3.249 3.244-8.496 0-11.736-3.23-3.249-8.495-3.257-11.731-.009" fill="#396c4f"/><path d="M78.068 79.583c-2.917 2.929-2.924 7.655-.007 10.57 2.916 2.92 7.649 2.93 10.572.005 2.917-2.917 2.923-7.646 0-10.561-2.916-2.925-7.643-2.934-10.565-.014" fill="#396c4f"/><path d="M61.789 63.286c-2.63 2.635-2.624 6.89-.007 9.523 2.624 2.615 6.88 2.615 9.511 0 2.624-2.632 2.624-6.879.007-9.502-2.624-2.634-6.88-2.639-9.511-.02" fill="#396c4f"/><path d="M45.124 46.603c-2.364 2.369-2.364 6.205 0 8.574 2.362 2.36 6.189 2.351 8.554-.009 2.362-2.351 2.369-6.183.006-8.553-2.362-2.369-6.198-2.369-8.56-.013" fill="#396c4f"/><path d="M159.486 208.538c-5.66 0-10.25-4.587-10.25-10.251 0-5.657 4.59-10.241 10.25-10.241 5.661 0 10.245 4.584 10.245 10.241 0 5.664-4.584 10.251-10.245 10.251" fill="#396c4f"/><path d="M159.486 232.229c-5.091 0-9.219-4.127-9.219-9.22 0-5.094 4.128-9.222 9.219-9.222 5.091 0 9.22 4.128 9.22 9.222 0 5.093-4.129 9.22-9.22 9.22" fill="#396c4f"/><path d="M159.486 255.097c-4.582 0-8.297-3.714-8.297-8.308 0-4.582 3.715-8.291 8.297-8.291 4.584 0 8.3 3.71 8.3 8.291 0 4.594-3.716 8.308-8.3 8.308" fill="#396c4f"/><path d="M159.486 277.816c-4.126 0-7.469-3.344-7.469-7.47 0-4.129 3.342-7.474 7.469-7.474 4.129 0 7.47 3.345 7.47 7.474 0 4.127-3.341 7.47-7.47 7.47" fill="#396c4f"/><path d="M159.486 300.852c-3.715 0-6.728-3.016-6.728-6.727 0-3.717 3.013-6.725 6.728-6.725 3.71 0 6.723 3.007 6.723 6.725 0 3.711-3.013 6.727-6.723 6.727" fill="#396c4f"/><path d="M159.486 324.428c-3.341 0-6.048-2.711-6.048-6.055 0-3.335 2.706-6.051 6.048-6.051 3.336 0 6.049 2.716 6.049 6.051 0 3.344-2.713 6.055-6.049 6.055" fill="#396c4f"/><path d="M134.586 222.899c-4.171-1.921-6.001-6.854-4.072-11.011 1.913-4.16 6.84-5.987 11.015-4.07 4.162 1.92 5.979 6.844 4.065 11.009-1.914 4.168-6.841 5.985-11.008 4.072" fill="#396c4f"/><path d="M125.076 243.537c-3.739-1.721-5.39-6.173-3.657-9.918 1.728-3.75 6.162-5.386 9.909-3.659 3.754 1.722 5.397 6.161 3.664 9.896-1.726 3.756-6.161 5.404-9.915 3.68" fill="#396c4f"/><path d="M115.446 264.457c-3.367-1.549-4.838-5.549-3.291-8.92 1.548-3.366 5.542-4.856 8.913-3.298 3.381 1.559 4.862 5.55 3.299 8.919-1.557 3.369-5.542 4.857-8.921 3.299" fill="#396c4f"/><path d="M105.599 285.874c-3.037-1.397-4.376-4.991-2.977-8.03 1.398-3.027 4.995-4.361 8.032-2.961 3.043 1.393 4.365 4.992 2.959 8.026-1.389 3.03-4.993 4.365-8.014 2.965" fill="#396c4f"/><path d="M99.416 188.159c-1.476-4.35.85-9.07 5.202-10.527 4.334-1.471 9.047.858 10.517 5.197 1.477 4.344-.845 9.053-5.189 10.521-4.338 1.484-9.05-.854-10.529-5.191" fill="#396c4f"/><path d="M77.899 195.453c-1.322-3.897.77-8.162 4.688-9.48 3.902-1.331 8.146.774 9.465 4.679 1.335 3.91-.758 8.155-4.661 9.461-3.918 1.337-8.162-.749-9.492-4.66" fill="#396c4f"/><path d="M56.093 202.853c-1.19-3.517.694-7.333 4.209-8.524 3.501-1.194 7.331.679 8.524 4.196 1.192 3.525-.688 7.34-4.219 8.526-3.501 1.19-7.331-.682-8.514-4.199" fill="#396c4f"/><path d="M33.761 210.428c-1.065-3.165.625-6.619 3.791-7.685 3.16-1.067 6.595.63 7.675 3.792 1.084 3.171-.62 6.606-3.797 7.671-3.153 1.073-6.601-.627-7.668-3.777" fill="#396c4f"/><path d="M127.517 194.287c4.005 4.01 10.491 4.02 14.495.011 4.008-3.991 4.004-10.489.007-14.494-4.003-4.005-10.49-4.005-14.49-.004-4.008 4-4.017 10.477-.013 14.486" fill="#396c4f"/><path d="M110.754 211.027c3.597 3.618 9.44 3.618 13.044.01 3.597-3.595 3.598-9.431.011-13.031-3.603-3.612-9.446-3.612-13.05-.009-3.606 3.599-3.606 9.439-.005 13.03" fill="#396c4f"/><path d="M94.58 227.191c3.235 3.242 8.491 3.252 11.738.007 3.247-3.241 3.247-8.491.005-11.744-3.248-3.243-8.496-3.243-11.736 0-3.244 3.236-3.255 8.492-.007 11.736" fill="#396c4f"/><path d="M78.498 243.245c2.927 2.917 7.651 2.924 10.567.009 2.926-2.915 2.927-7.644.007-10.569-2.916-2.917-7.644-2.925-10.56 0-2.922 2.915-2.934 7.64-.014 10.56" fill="#396c4f"/><path d="M62.202 259.529c2.63 2.633 6.888 2.624 9.517.009 2.622-2.625 2.622-6.88.004-9.514-2.633-2.624-6.879-2.624-9.508-.009-2.631 2.624-2.635 6.88-.013 9.514" fill="#396c4f"/><path d="M45.52 276.194c2.365 2.36 6.201 2.36 8.572 0 2.358-2.36 2.352-6.194-.007-8.556-2.355-2.361-6.184-2.369-8.556-.01-2.37 2.37-2.37 6.206-.009 8.566" fill="#396c4f"/><path d="M257.563 166.899c-.374-8.117-.84-17.821-.746-26.405h-.28c-2.053 7.651-4.665 16.142-7.465 24.073l-9.236 27.246h-8.771l-8.398-26.872c-2.426-8.025-4.665-16.609-6.345-24.446h-.186c-.28 8.211-.652 18.195-1.12 26.779l-1.399 25.285h-10.73l4.199-62.888h15.115l8.211 25.286c2.239 7.371 4.199 14.836 5.785 21.832h.28c1.679-6.81 3.825-14.555 6.251-21.926l8.678-25.192h14.928l3.64 62.888h-11.196l-1.214-25.659" fill="#231f20"/><path d="M318.118 178.935c0 5.412.186 9.891.372 13.623h-9.984l-.56-6.811h-.28c-1.959 3.172-6.438 7.839-14.648 7.839-8.211 0-15.769-4.945-15.769-19.782v-26.684h11.476v24.725c0 7.559 2.425 12.41 8.49 12.41 4.665 0 7.651-3.172 8.771-6.159.466-.932.654-2.239.654-3.545v-27.431h11.476v31.816" fill="#231f20"/><path d="M327.913 181.922c2.52 1.586 7.465 3.359 11.57 3.359 5.039 0 7.277-2.146 7.277-5.131 0-3.079-1.865-4.572-7.464-6.625-8.864-2.986-12.502-7.838-12.502-13.25 0-8.024 6.624-14.181 17.168-14.181 5.039 0 9.424 1.212 12.13 2.705l-2.334 8.025c-1.865-1.12-5.598-2.612-9.61-2.612-4.105 0-6.345 2.053-6.345 4.853 0 2.891 2.146 4.197 7.931 6.344 8.304 2.893 12.036 7.091 12.13 13.81 0 8.303-6.438 14.274-18.475 14.274-5.505 0-10.45-1.305-13.809-3.171l2.333-8.398" fill="#231f20"/><path d="M373.257 173.058c.281 8.21 6.719 11.756 13.996 11.756 5.319 0 9.05-.84 12.596-2.054l1.68 7.839c-3.919 1.68-9.331 2.891-15.863 2.891-14.742 0-23.42-9.05-23.42-22.953 0-12.596 7.651-24.445 22.207-24.445 14.741 0 19.594 12.13 19.594 22.113 0 2.146-.186 3.826-.374 4.853h-30.418zm19.969-8.024c.092-4.2-1.774-11.104-9.424-11.104-7.093 0-10.078 6.438-10.545 11.104h19.969" fill="#231f20"/><path d="M451.82 178.935c0 5.412.186 9.891.374 13.623h-9.984l-.56-6.811h-.28c-1.96 3.172-6.439 7.839-14.649 7.839-8.211 0-15.769-4.945-15.769-19.782v-26.684h11.476v24.725c0 7.559 2.426 12.41 8.491 12.41 4.665 0 7.65-3.172 8.77-6.159.468-.932.654-2.239.654-3.545v-27.431h11.476v31.816" fill="#231f20"/><path d="M460.495 160.648c0-5.225-.185-9.61-.371-13.529h9.796l.56 6.718h.279c2.146-3.546 6.253-7.744 13.998-7.744 5.971 0 10.636 3.359 12.595 8.398h.186c1.587-2.52 3.453-4.385 5.506-5.692 2.611-1.772 5.505-2.705 9.33-2.705 7.464 0 15.115 5.131 15.115 19.688v26.777h-11.196v-25.099c0-7.558-2.612-12.036-8.117-12.036-3.919 0-6.811 2.8-8.024 6.065-.374 1.026-.56 2.52-.56 3.825v27.245h-11.196v-26.311c0-6.345-2.52-10.824-7.839-10.824-4.291 0-7.184 3.359-8.304 6.439-.372 1.212-.56 2.518-.56 3.825v26.871h-11.197v-31.91" fill="#231f20"/><path d="M552.102 187.647c0 1.846.084 3.652.335 4.911h-4.66l-.378-2.266h-.128c-1.216 1.595-3.357 2.729-6.045 2.729-4.115 0-6.424-2.981-6.424-6.089 0-5.121 4.576-7.766 12.134-7.725v-.336c0-1.344-.546-3.569-4.156-3.569-2.016 0-4.115.63-5.501 1.512l-1.006-3.36c1.511-.924 4.156-1.805 7.389-1.805 6.55 0 8.44 4.156 8.44 8.649v7.349zm-5.04-5.081c-3.651-.043-7.138.715-7.138 3.821 0 2.015 1.302 2.939 2.94 2.939 2.1 0 3.569-1.344 4.072-2.814.125-.378.125-.755.125-1.134v-2.813" fill="#231f20"/><path d="M557.56 178.199c0-2.351-.084-4.325-.168-6.089h4.492l.253 3.065h.126c.922-1.595 3.147-3.526 6.549-3.526 3.569 0 7.264 2.31 7.264 8.775v12.134h-5.164v-11.546c0-2.939-1.093-5.164-3.906-5.164-2.056 0-3.484 1.469-4.03 3.022-.168.42-.251 1.05-.251 1.637v12.05h-5.165v-14.359" fill="#231f20"/><path d="M600.429 162.707v24.1c0 2.1.084 4.366.169 5.751h-4.577l-.253-3.232h-.084c-1.218 2.268-3.694 3.695-6.634 3.695-4.911 0-8.775-4.157-8.775-10.455-.041-6.844 4.24-10.916 9.154-10.916 2.813 0 4.827 1.134 5.753 2.645h.084v-11.588h5.164zm-5.164 17.927c0-.42-.043-.965-.128-1.385-.461-1.974-2.098-3.611-4.45-3.611-3.317 0-5.164 2.939-5.164 6.718s1.846 6.508 5.122 6.508c2.099 0 3.946-1.426 4.45-3.652.126-.463.169-.965.169-1.511v-3.065" fill="#231f20"/><path d="M609.824 129.671h11.477v53.278h25.845v9.61h-37.322v-62.888" fill="#231f20"/><path d="M659.183 140.588c-3.826 0-6.344-2.8-6.344-6.159 0-3.545 2.611-6.251 6.438-6.251 3.919 0 6.344 2.706 6.438 6.251 0 3.359-2.519 6.159-6.438 6.159h-.094zm-5.691 51.97v-45.439h11.476v45.439h-11.476" fill="#231f20"/><path d="M673.645 126.219h11.476v27.151h.186c2.799-4.385 7.744-7.277 14.556-7.277 11.102 0 19.034 9.236 18.94 23.046 0 16.329-10.356 24.446-20.62 24.446-5.878 0-11.104-2.24-14.369-7.839h-.188l-.559 6.811h-9.797c.188-3.078.374-8.117.374-12.689v-53.65zm11.476 47.584c0 .935.094 1.867.279 2.708 1.214 4.665 5.226 8.024 10.171 8.024 7.184 0 11.57-5.691 11.57-14.929 0-8.025-3.826-14.555-11.477-14.555-4.664 0-8.956 3.359-10.169 8.396-.188.84-.374 1.866-.374 2.986v7.37" fill="#231f20"/><path d="M726.361 161.768c0-6.159-.094-10.637-.374-14.649h9.89l.468 8.584h.28c2.239-6.345 7.558-9.61 12.502-9.61 1.119 0 1.774.092 2.706.28v10.73c-1.026-.188-2.054-.28-3.453-.28-5.412 0-9.238 3.451-10.264 8.678-.186 1.025-.28 2.239-.28 3.453v23.605h-11.476v-30.79" fill="#231f20"/><path d="M792.98 181.642c0 4.105.186 8.117.745 10.916h-10.356l-.84-5.039h-.279c-2.706 3.546-7.465 6.066-13.436 6.066-9.145 0-14.275-6.625-14.275-13.53 0-11.384 10.17-17.261 26.964-17.169v-.746c0-2.985-1.212-7.93-9.238-7.93-4.478 0-9.143 1.399-12.223 3.359l-2.239-7.464c3.359-2.054 9.238-4.013 16.421-4.013 14.555 0 18.755 9.236 18.755 19.22v16.329zm-11.196-11.29c-8.117-.092-15.863 1.586-15.863 8.491 0 4.479 2.893 6.53 6.531 6.53 4.665 0 7.931-2.984 9.05-6.251.281-.839.281-1.679.281-2.518v-6.253" fill="#231f20"/><path d="M801.378 161.768c0-6.159-.095-10.637-.374-14.649h9.89l.466 8.584h.28c2.24-6.345 7.558-9.61 12.502-9.61 1.12 0 1.772.092 2.708.28v10.73c-1.028-.188-2.054-.28-3.453-.28-5.412 0-9.239 3.451-10.264 8.678-.188 1.025-.281 2.239-.281 3.453v23.605h-11.475v-30.79" fill="#231f20"/><path d="M842.056 147.119l8.117 24.352c.932 2.8 1.959 6.251 2.611 8.77h.28c.654-2.519 1.492-5.97 2.426-8.864l7.091-24.259h12.224l-11.384 30.976c-6.253 16.983-10.45 24.54-15.769 29.205-4.572 3.918-9.238 5.411-12.036 5.785l-2.612-9.61c1.96-.466 4.293-1.494 6.624-3.172 2.146-1.399 4.76-4.105 6.345-7.184.374-.84.654-1.494.654-2.054 0-.466-.092-1.119-.56-2.239l-16.703-41.708h12.691" fill="#231f20"/><path d="M281.121 132.326c-1.515-.06-1.94-.06-3.518.06l-.364-.364c.061-2.91.061-5.459.061-7.52 0-1.275 0-16.254-.425-24.622l.425-.425c1.395.06 1.88.06 3.518-.061l.364.425v1.334c-.061 2.729-.061 5.397-.061 8.126 0 8.855.182 15.77.364 22.684l-.364.364" fill="#231f20"/><path d="M315.811 132.326l-1.759-.06c-.424 0-2.486.12-2.85.12l-.485-.242c-1.576-2.486-3.033-4.973-4.549-7.46l-12.494-21.349.121 6.308c.121 14.981.182 16.68.365 22.259l-.365.425c-1.272 0-1.759 0-3.033.06l-.364-.364c0-.909 0-20.924-.121-25.534 0-1.03-.181-6.245-.181-6.609l.364-.425 4.609-.061.485.304c1.456 2.244 1.82 2.85 4.853 8.005 1.94 3.335 3.881 6.61 5.883 9.885l6.308 10.857v-6.247c-.061-5.338-.121-15.648-.425-22.317l.364-.425c1.456 0 1.577 0 2.911-.061l.425.364c-.061 2.85-.061 5.338-.061 7.399 0 8.43.061 16.86.425 24.806l-.425.364" fill="#231f20"/><path d="M323.696 126.443c1.698 2.607 5.155 3.578 7.641 3.578 4.367 0 7.643-2.486 7.643-6.246 0-2.609-1.577-4.004-3.821-5.156-.91-.485-5.397-2.486-6.369-3.033-2.546-1.212-6.246-3.214-6.246-8.065 0-4.428 3.396-8.674 10.674-8.674 2.973 0 5.883.789 8.491 2.305l.181.425c-.242 1.394-.242 1.516-.424 2.85l-.546.242c-1.395-1.212-3.639-2.79-7.399-2.79-6.793 0-7.156 4.549-7.156 5.58 0 2.669 2.244 4.003 5.155 5.338l3.396 1.515c3.154 1.335 7.945 3.458 7.945 9.279 0 5.156-4.185 9.402-11.221 9.402-4.607 0-7.276-1.637-8.793-2.547l-.182-.546c.061-.485.182-.97.304-1.455l.242-1.82.485-.181" fill="#231f20"/><path d="M359.418 132.266c-1.334.06-1.516.06-3.456.12l-.364-.364c.06-3.335.06-6.489.06-9.825 0-4.185 0-16.254-.06-19.65-2.124 0-7.581.121-9.886.182l-.364-.425c.06-.97.121-1.335.181-2.669l.486-.304c.728 0 4.305.122 5.155.122h10.916c3.881 0 5.822-.061 7.035-.122l.425.365c-.121 1.03-.182 1.637-.244 2.729l-.424.304c-1.577-.061-3.154-.122-5.155-.182-.667 0-3.942-.061-4.306-.061-.061 1.395-.061 2.851-.061 4.246 0 3.033.061 6.125.122 9.217.06 3.094.06 6.247.121 9.341 0 .97.181 5.579.181 6.61l-.364.365" fill="#231f20"/><path d="M378.279 132.326c-1.516-.06-1.94-.06-3.518.06l-.364-.364c.06-2.91.06-5.459.06-7.52 0-1.275 0-16.254-.424-24.622l.424-.425c1.396.06 1.881.06 3.518-.061l.365.425v1.334c-.061 2.729-.061 5.397-.061 8.126 0 8.855.182 15.77.364 22.684l-.364.364" fill="#231f20"/><path d="M397.261 132.266c-1.334.06-1.516.06-3.458.12l-.364-.364c.061-3.335.061-6.489.061-9.825 0-4.185 0-16.254-.061-19.65-2.123 0-7.58.121-9.885.182l-.364-.425c.061-.97.121-1.335.181-2.669l.485-.304c.729 0 4.306.122 5.155.122h10.918c3.881 0 5.822-.061 7.035-.122l.425.365c-.122 1.03-.182 1.637-.242 2.729l-.425.304c-1.576-.061-3.154-.122-5.155-.182-.667 0-3.942-.061-4.306-.061-.06 1.395-.06 2.851-.06 4.246 0 3.033.06 6.125.12 9.217l.122 9.341c0 .97.181 5.579.181 6.61l-.364.365" fill="#231f20"/><path d="M436.439 99.757v.728c-.059 5.763-.059 6.429-.059 11.887v6.065c-.061 3.396-.122 6.065-1.214 8.43-1.88 4.185-6.308 6.126-11.159 6.126-3.033 0-5.763-.789-7.643-2.184-4.184-3.033-4.124-8.006-4.124-11.706v-2.729c0-3.639 0-13.16-.06-16.495l.364-.425c1.759 0 1.819 0 3.578-.061l.364.364c-.181 5.822-.302 11.584-.302 17.406 0 5.58.121 8.672 2.305 10.735 1.212 1.091 3.275 1.88 6.004 1.88 3.092 0 5.883-1.091 7.277-3.82 1.031-2.064 1.091-4.671 1.091-9.584 0-5.519-.06-11.037-.242-16.556l.364-.364c1.456 0 1.699 0 3.092-.061l.364.364" fill="#231f20"/><path d="M455.361 132.266c-1.334.06-1.516.06-3.458.12l-.364-.364c.061-3.335.061-6.489.061-9.825 0-4.185 0-16.254-.061-19.65-2.123 0-7.58.121-9.885.182l-.364-.425c.061-.97.121-1.335.182-2.669l.484-.304c.729 0 4.308.122 5.155.122h10.918c3.881 0 5.822-.061 7.036-.122l.424.365c-.121 1.03-.182 1.637-.242 2.729l-.425.304c-1.576-.061-3.154-.122-5.155-.182-.667 0-3.942-.061-4.306-.061-.06 1.395-.06 2.851-.06 4.246 0 3.033.06 6.125.121 9.217.061 3.094.061 6.247.121 9.341 0 .97.181 5.579.181 6.61l-.364.365" fill="#231f20"/><path d="M488.839 132.326h-14.13c-1.577.06-2.426.121-4.124.181l-.364-.424v-1.274c.06-1.941.06-3.942.06-5.884 0-8.188-.121-16.981-.425-25.169l.425-.364c1.274.061 2.365.061 3.578.061h8.189c2.728 0 4.791-.061 6.671-.122l.424.365c-.121 1.212-.121 1.516-.182 2.669l-.424.364c-2.426-.122-3.397-.122-12.373-.182l-2.244-.061c0 3.579 0 7.702.061 11.22h4.122c1.516 0 3.094 0 4.61-.06 3.154 0 3.396 0 5.397-.061l.302.364c-.12 1.214-.12 1.335-.12 2.547l-.425.302c-2.183-.12-3.639-.12-9.885-.06h-3.942c0 2.184.121 11.585.182 12.494h3.639c4.305 0 4.974 0 11.22-.181l.302.425c-.121 1.151-.121 1.272-.121 2.546l-.425.304" fill="#231f20"/><path d="M514.651 132.829c-5.374 0-8.229-2.981-8.229-8.23 0-4.912 2.435-14.275 11.883-14.275 5.835 0 8.144 3.736 8.144 8.229 0 1.47-.251 2.94-.671 4.409-.545 2.015-2.73 9.867-11.126 9.867zm9.07-14.486c0-4.492-3.024-5.92-5.501-5.92-7.894 0-9.111 10.076-9.111 12.26 0 3.527 1.931 6.005 5.668 6.005 1.429 0 2.899-.21 4.41-1.427 2.77-2.226 3.695-5.963 4.03-7.39.295-1.176.505-2.351.505-3.527" fill="#231f20"/><path d="M536.694 112.927c-2.099 9.111-2.56 11.252-3.989 19.105l-.335.294-2.351.084-.251-.251 1.972-8.819 2.268-10.412-3.149.084-.254-.253.463-1.805.336-.251 3.065.084.63-3.106c.504-2.268.671-3.191 1.05-4.115.63-1.721 1.846-3.946 5.794-3.946.882 0 1.512.125 2.268.251l.251.335-.42 1.806-.335.253c-.589-.169-1.219-.295-1.849-.295-.839 0-1.677.253-2.224.797-.84.799-1.134 1.933-1.974 5.334l-.546 2.686 4.157-.084.251.335-.546 1.554-.294.336h-3.989" fill="#231f20"/><path d="M610.184 234.758c1.699 2.607 5.156 3.578 7.643 3.578 4.366 0 7.641-2.486 7.641-6.247 0-2.608-1.577-4.002-3.821-5.155-.909-.485-5.397-2.486-6.367-3.031-2.547-1.214-6.246-3.216-6.246-8.067 0-4.428 3.395-8.673 10.674-8.673 2.971 0 5.883.789 8.49 2.305l.182.425c-.242 1.395-.242 1.515-.425 2.85l-.545.243c-1.395-1.212-3.639-2.79-7.4-2.79-6.793 0-7.156 4.549-7.156 5.58 0 2.667 2.244 4.003 5.155 5.336l3.396 1.517c3.154 1.333 7.945 3.458 7.945 9.28 0 5.155-4.185 9.4-11.22 9.4-4.61 0-7.277-1.637-8.794-2.547l-.182-.545c.061-.486.182-.971.304-1.457l.242-1.818.485-.183" fill="#231f20"/><path d="M657.186 240.64h-14.131c-1.576.061-2.426.122-4.124.183l-.364-.425v-1.274c.06-1.94.06-3.941.06-5.882 0-8.188-.12-16.982-.425-25.169l.425-.364c1.274.06 2.366.06 3.579.06h8.186c2.73 0 4.791-.06 6.671-.12l.425.364c-.12 1.211-.12 1.516-.181 2.667l-.425.364c-2.426-.12-3.396-.12-12.373-.181l-2.243-.061c0 3.578 0 7.703.06 11.22h4.124c1.516 0 3.094 0 4.61-.06 3.152 0 3.395 0 5.397-.061l.302.364c-.121 1.213-.121 1.333-.121 2.547l-.424.302c-2.184-.12-3.639-.12-9.886-.059h-3.942c0 2.183.122 11.584.182 12.494h3.639c4.306 0 4.973 0 11.22-.183l.304.425c-.121 1.153-.121 1.272-.121 2.548l-.425.302" fill="#231f20"/><path d="M667.071 207.89c.182 0 9.219-.121 9.461-.121 2.547 0 5.034.121 7.156 1.032 2.911 1.334 4.791 4.184 4.791 7.642 0 4.972-3.942 8.49-9.34 9.157l3.154 3.88c3.821 4.671 4.489 5.46 8.794 10.676l-.242.484h-2.607l-1.699.061-.484-.243-2.791-3.639c-1.272-1.638-2.607-3.215-3.881-4.792-.91-1.152-4.245-5.338-4.79-6.005-1.577.061-2.002.061-3.7.061 0 4.73.121 9.461.302 14.191l-.364.364c-1.516 0-1.88 0-3.458.061l-.364-.364c.061-2.486.061-5.034.061-7.521 0-8.186-.061-16.373-.425-24.563l.425-.364zm12.615 14.556c1.577-.425 4.851-1.699 4.851-5.884 0-2.001-.787-3.394-1.758-4.245-1.577-1.394-4.003-1.517-7.219-1.517-1.334 0-3.152.061-4.73.123v12.129c4.61 0 6.854 0 8.855-.607" fill="#231f20"/><path d="M710.071 240.64c-2.124 0-2.609 0-4.428.061l-.425-.364c-.971-2.73-2.366-7.218-3.275-10.008l-4.003-12.311-1.637-4.912-1.577-4.791.244-.425c2.121-.121 2.364-.121 3.759-.241l.425.303c1.153 4.427 2.183 7.58 3.518 11.947l5.459 17.285 6.549-20.681c.971-3.093 1.153-3.639 2.547-8.49l.425-.304c1.516.06 1.88.06 3.335 0l.304.424c-.789 2.244-1.093 3.094-3.82 10.979l-3.7 11.038c-1.396 4.184-1.577 4.792-3.335 10.127l-.364.364" fill="#231f20"/><path d="M732.51 240.64c-1.516-.061-1.941-.061-3.518.061l-.365-.364c.061-2.912.061-5.459.061-7.521 0-1.272 0-16.254-.425-24.622l.425-.425c1.395.061 1.88.061 3.519-.06l.364.424v1.335c-.061 2.728-.061 5.397-.061 8.127 0 8.854.181 15.768.364 22.681l-.364.364" fill="#231f20"/><path d="M767.989 234.941c-.182 1.636-.182 1.94-.244 3.335l-.241.485c-1.88 1.396-4.549 2.547-9.098 2.547-2.669 0-7.096-.365-10.918-3.942-3.578-3.275-5.155-8.066-5.155-12.979 0-9.339 5.763-17.285 16.436-17.285 4.549 0 7.095 1.395 8.551 2.183l.304.425c-.244 1.091-.304 1.333-.485 2.789l-.486.304c-1.576-1.031-3.941-2.548-7.884-2.548-8.611 0-12.434 7.156-12.434 13.949 0 7.035 4.064 13.888 12.615 13.888 4.489 0 6.55-1.698 8.553-3.397l.485.244" fill="#231f20"/><path d="M796.128 240.64h-14.13c-1.576.061-2.426.122-4.124.183l-.364-.425v-1.274c.061-1.94.061-3.941.061-5.882 0-8.188-.122-16.982-.425-25.169l.425-.364c1.272.06 2.364.06 3.578.06h8.188c2.729 0 4.791-.06 6.671-.12l.425.364c-.122 1.211-.122 1.516-.182 2.667l-.425.364c-2.425-.12-3.396-.12-12.371-.181l-2.245-.061c0 3.578 0 7.703.061 11.22h4.124c1.516 0 3.092 0 4.609-.06 3.154 0 3.397 0 5.397-.061l.305.364c-.122 1.213-.122 1.333-.122 2.547l-.425.302c-2.183-.12-3.639-.12-9.885-.059h-3.942c0 2.183.121 11.584.182 12.494h3.639c4.305 0 4.974 0 11.22-.183l.304.425c-.122 1.153-.122 1.272-.122 2.548l-.425.302" fill="#231f20"/><path d="M804.497 234.758c1.699 2.607 5.155 3.578 7.641 3.578 4.367 0 7.641-2.486 7.641-6.247 0-2.608-1.575-4.002-3.82-5.155-.91-.485-5.397-2.486-6.367-3.031-2.547-1.214-6.247-3.216-6.247-8.067 0-4.428 3.397-8.673 10.675-8.673 2.971 0 5.883.789 8.49 2.305l.181.425c-.242 1.395-.242 1.515-.424 2.85l-.546.243c-1.394-1.212-3.639-2.79-7.399-2.79-6.793 0-7.157 4.549-7.157 5.58 0 2.667 2.245 4.003 5.155 5.336l3.397 1.517c3.154 1.333 7.945 3.458 7.945 9.28 0 5.155-4.185 9.4-11.22 9.4-4.609 0-7.277-1.637-8.794-2.547l-.182-.545c.06-.486.182-.971.304-1.457l.242-1.818.485-.183" fill="#231f20"/></g></svg>