<svg xmlns="http://www.w3.org/2000/svg" width="98.324" height="144.862"><g><path d="M81.016 125.769l-13.201.369-12.925-.405-12.809.591-12.976-1.535-12.323.585.466-20.809 1.228-19.018-.743-13.351.365-13.188-.862-15.079.866-14.195-.722-14.836-1.145-14.67 13.335.759 12.922-.102 12.816.217 12.974-1.101 12.976.154-1.296 15.336.034 15.037 1.523 15.061-1.257 15.012.952 14.891-.369 14.749-1.345 11.503 1.516 24.026" fill="#231f20"/><path d="M62.685 62.947c-9.785-3.813-20.272 1.112-30.093-1.046l.178 1.364c4.674-2.458 9.555-4.583 14.303-6.901 6.008-2.933 14.748 5.486 20.785 6.755 1.197.252 1.726-1.2.797-1.892-3.326-2.476-7.892-3.868-11.668-5.542-3.15-1.395-5.884-3.042-9.327-2.108-5.358 1.454-10.766 5.756-15.643 8.398-.549.297-.457 1.233.178 1.364 3.748.776 7.956.075 11.725-.245 6.321-.538 12.479.178 18.754-.064.05-.002.055-.066.011-.084" fill="#c8c7c7"/><path d="M66.723 65.13c-1.89-1.01-4.375-.776-6.461-.921-5.088-.355-10.069-.388-15.171-.261-4.165.103-8.478-.075-12.625.418-.478.057-.781.715-.268.988 2.465 1.311 6.754.315 9.344.231 5.257-.171 10.519-.429 15.775-.166 2.951.148 6.509 1.025 9.359.07.152-.051.205-.275.046-.359" fill="#c8c7c7"/><path d="M64.228 67.098c-.964 2.509-.587 5.234-.402 7.871.215 3.065.247 6.064-.022 9.127-.094 1.067 1.725 1.318 1.875.254.382-2.708.307-5.355.099-8.079-.23-3.004-.238-6.313-1.221-9.173-.058-.167-.27-.158-.33 0" fill="#c8c7c7"/><path d="M58.489 67.028c-1.251 1.896-.808 4.585-.684 6.75.205 3.539-.338 6.972-.41 10.494-.029 1.415 1.975 1.327 2.139 0 .691-5.622 1.243-11.714-.627-17.188-.065-.191-.305-.224-.417-.055" fill="#c8c7c7"/><path d="M52.39 66.848c-.973 2.071-.651 4.362-.581 6.617.107 3.522.096 7.048.084 10.572-.006 1.36 2.078 1.357 2.104 0 .065-3.083.129-6.165.081-9.249-.04-2.594.104-5.776-1.476-7.94-.049-.067-.168-.092-.212 0" fill="#c8c7c7"/><path d="M46.223 66.931c-1.068 2.267-.693 4.95-.727 7.411-.043 3.269-.563 6.642-.043 9.877.21 1.301 2.137.899 2.197-.298.159-3.188.287-6.388.182-9.579-.081-2.438.055-5.298-1.287-7.411-.069-.11-.26-.134-.323 0" fill="#c8c7c7"/><path d="M40.298 66.796c-.775 2.706-.545 5.738-.742 8.539-.207 2.954-.325 5.885.231 8.804.224 1.176 2.029.864 2.036-.276.021-3.254.181-6.493.264-9.745.064-2.518.054-5.243-1.415-7.371-.098-.142-.322-.13-.373.049" fill="#c8c7c7"/><path d="M34.331 66.588c-1.062 2.264-.874 5.017-1.021 7.481-.212 3.558-.056 6.865.661 10.36.255 1.243 1.908.792 2.036-.276.391-3.271-.055-6.766.022-10.084.057-2.479-.015-5.49-1.609-7.492l-.09.012" fill="#c8c7c7"/><path d="M69.887 85.536c-4.287-1.885-10.539-.634-15.164-.768-8.711-.254-17.624-.239-26.298.623-.87.086-1.215 1.451-.222 1.641 7.766 1.473 16.235-.078 24.136.06 4.913.087 13.244 1.853 17.548-.982.186-.124.245-.466 0-.574" fill="#c8c7c7"/><path d="M71.009 89.042c-5.173-2.234-12.886-1.398-18.438-1.401-8.335-.006-17.275.027-25.484 1.516-.958.173-.649 1.543.217 1.604 8.313.589 16.916-.833 25.267-.963 5.319-.083 13.715 2.442 18.438-.353.138-.081.168-.331 0-.403" fill="#c8c7c7"/><path d="M71.714 92.115c-7.119-1.585-15.111-1.219-22.377-1.196-7.624.025-15.617.143-23.132 1.485-.903.161-.653 1.537.21 1.552 7.612.134 15.294-.901 22.922-1.06 7.236-.15 15.296 1.605 22.377.12.449-.095.443-.802 0-.901" fill="#c8c7c7"/><path d="M47.473 83.526c-.193 0-.256-.044-.348-.171-1.395-1.885-.938-5.65-3.515-6.819-.444-.207-.698-.271-1.029-.477.443-1.121.743-2.816-.282-3.86-.522-.442-1.6-.205-2.168.064-.365.159-.459.221-.681.331-.078.13-.256.223-.256.445l.256 2.894c-1.091.158-2.168.49-2.959 1.376-1.25 1.617-2.344 3.702-2.847 5.679.155.174.266.35.266.538l-.586 1.079c0 .3-.126.598.1.869.186.126.567.142.881.095l.666-.964c.078-.113.332-.113.696-.113l1.44-1.282.552 2.264c.051.095.317.126.413.268-.427 2.942-.413 5.999.364 8.987 0 .346-.522.203-.664.663.41.601 1.55.364 2.358.316l.676-2.656c.27 0 0-.206.303 0l.366 2.199 2.436.095c.111 0 .111-.095.189-.252 0-.163-.078-.317-.189-.366l-.617-.223c.173-3.054 1.262-6.389.315-9.602.234-.666.127-1.296.491-1.804.73-.112 1.311.381 1.821.869.093.223.093.317.344.459.325.088.69.159 1.039.145" fill="#fff"/><path d="M47.473 83.526c-.193 0-.256-.044-.348-.171-1.395-1.885-.938-5.65-3.515-6.819-.444-.207-.698-.271-1.029-.477.443-1.121.743-2.816-.282-3.86-.522-.442-1.6-.205-2.168.064-.365.159-.459.221-.681.331-.078.13-.256.223-.256.445l.256 2.894c-1.091.158-2.168.49-2.959 1.376-1.25 1.617-2.344 3.702-2.847 5.679.155.174.266.35.266.538l-.586 1.079c0 .3-.126.598.1.869.186.126.567.142.881.095l.666-.964c.078-.113.332-.113.696-.113l1.44-1.282.552 2.264c.051.095.317.126.413.268-.427 2.942-.413 5.999.364 8.987 0 .346-.522.203-.664.663.41.601 1.55.364 2.358.316l.676-2.656c.27 0 0-.206.303 0l.366 2.199 2.436.095c.111 0 .111-.095.189-.252 0-.163-.078-.317-.189-.366l-.617-.223c.173-3.054 1.262-6.389.315-9.602.234-.666.127-1.296.491-1.804.73-.112 1.311.381 1.821.869.093.223.093.317.344.459.325.088.69.159 1.039.145" stroke="#fff" stroke-width="2.22075" stroke-linecap="round" stroke-linejoin="round" fill="none"/><path d="M47.19 84.428l.293 1.109c-.215 1.511 1.961 2.5 1.219 4.224.801 1.003-.861 2.39.124 3.161-.28.787-.198 1.851-1.048 2.283-.204-.017-.308.078-.417.23l.017.169c.401.278 1.047.278 1.587.188l.955-2.361c.215-.095.711-.354 1.05-.276l-.339 1.958c0 .093 0 .247.122.322l1.511.078c.217 0 .261-.23.2-.4-.064-.107-.29-.046-.508-.095-.522-.351.337-.999.122-1.587 0-.153.122-.169.342-.261 1.152-.957.169-2.468.459-3.669.076-1.248 1.419-2.217.862-3.469.806-.447.881-1.497 1.174-2.295l-.093-.307c-.061-.032-.139-.064-.244-.064-.093 0-.188.032-.234.121-.569.572-.569 1.667-1.465 2.051h-.586c.371-.847.188-1.802-.447-2.405-.293-.107-.491-.231-.737-.281-.728.113-1.328.281-1.633.884-.032.787.581 1.372.508 2.08l-.203.032-.955-.986-.374-.078-.742-1.353c-.124-.107-.371-.075-.585-.075l.065 1.074" fill="#fff"/><path d="M47.19 84.428l.293 1.109c-.215 1.511 1.961 2.5 1.219 4.224.801 1.003-.861 2.39.124 3.161-.28.787-.198 1.851-1.048 2.283-.204-.017-.308.078-.417.23l.017.169c.401.278 1.047.278 1.587.188l.955-2.361c.215-.095.711-.354 1.05-.276l-.339 1.958c0 .093 0 .247.122.322l1.511.078c.217 0 .261-.23.2-.4-.064-.107-.29-.046-.508-.095-.522-.351.337-.999.122-1.587 0-.153.122-.169.342-.261 1.152-.957.169-2.468.459-3.669.076-1.248 1.419-2.217.862-3.469.806-.447.881-1.497 1.174-2.295l-.093-.307c-.061-.032-.139-.064-.244-.064-.093 0-.188.032-.234.121-.569.572-.569 1.667-1.465 2.051h-.586c.371-.847.188-1.802-.447-2.405-.293-.107-.491-.231-.737-.281-.728.113-1.328.281-1.633.884-.032.787.581 1.372.508 2.08l-.203.032-.955-.986-.374-.078-.742-1.353c-.124-.107-.371-.075-.585-.075l.065 1.074z" stroke="#fff" stroke-width="2.22075" stroke-linecap="round" stroke-linejoin="round" fill="none"/><path d="M47.473 83.526c-.193 0-.256-.044-.348-.171-1.395-1.885-.938-5.65-3.515-6.819-.444-.207-.698-.271-1.029-.477.443-1.121.743-2.816-.282-3.86-.522-.442-1.6-.205-2.168.064-.365.159-.459.221-.681.331-.078.13-.256.223-.256.445l.256 2.894c-1.091.158-2.168.49-2.959 1.376-1.25 1.617-2.344 3.702-2.847 5.679.155.174.266.35.266.538l-.586 1.079c0 .3-.126.598.1.869.186.126.567.142.881.095l.666-.964c.078-.113.332-.113.696-.113l1.44-1.282.552 2.264c.051.095.317.126.413.268-.427 2.942-.413 5.999.364 8.987 0 .346-.522.203-.664.663.41.601 1.55.364 2.358.316l.676-2.656c.27 0 0-.206.303 0l.366 2.199 2.436.095c.111 0 .111-.095.189-.252 0-.163-.078-.317-.189-.366l-.617-.223c.173-3.054 1.262-6.389.315-9.602.234-.666.127-1.296.491-1.804.73-.112 1.311.381 1.821.869.093.223.093.317.344.459.325.088.69.159 1.039.145" fill="#231f20"/><path d="M34.878 82.705l.269.505 2.312-2.058c.11-.141.378-.141.647-.141l.649.432-.049 3.427 3.594-.156.803-4.348c0-.161.286-.461.508-.557l.651.254.74 1.772c-.17-1.345-.692-3.247-1.706-4.335-1.235-.743-2.722-.191-4.036-.489-2.845.996-3.337 3.416-4.475 5.615l.093.078" fill="#fff"/><path d="M38.975 87.8l.476 5.647 1.328-4.968c.112-.128.398-.128.698-.128.269.049.49.303.663.587l.176 2.402.266-5.346h-2.959l-.648 1.806" fill="#fff"/><path d="M40.447 73.433l.16 2.199c.062.252.284.095.504.161.666-.588.806-1.694.554-2.455-.093-.251-.159-.379-.254-.379l-.964.285v.19" fill="#fff"/><g><text transform="matrix(1.25 0 0 1.136 24.374 19.057)"><tspan x="0 7.1156468 14.440315 28.696547" y="0" style="-inkscape-font-specification:MIATRAJAN-Regular" font-size="13.079" fill="#fff" font-family="MIATRAJAN">FORD</tspan><tspan x="1.646117 9.9387197 21.317663 31.388792" y="15.832" style="-inkscape-font-specification:MIATRAJAN-Regular" font-size="13.079" fill="#fff" font-family="MIATRAJAN">FREE</tspan></text><text transform="matrix(1.25 0 0 1.25 23.773 50.388)"><tspan x="0 4.8784361 9.7568722 14.635308 25.352699 31.191759 36.070152" y="0" style="-inkscape-font-specification:MIATRAJAN-Regular" font-size="7.391" fill="#fff" font-family="MIATRAJAN">SUNDAYS</tspan></text></g><path d="M21.485 40.915c1.389.28 2.144.489 3.603.31.67-.083 8.538-.719 8.347-.446-.151.217.127.306.3.303 1.881-.036 12.607-2.754 13.124-.767.047.18.356.154.486.14 4.63-.52 8.922-1.763 13.088-.153 1.717.664 11.209-1.891 11.209.013 0 .18.395.149.485.14 1.438-.151 2.874-.305 4.312-.459.536-.057.96-.669.168-.585-1.282.317-2.558.314-3.827-.013 0-.093-.159-.124-.216-.14-1.579-.428-12.029.699-11.909-.552.018-.192-.19-.224-.341-.226-4.692-.056-9.26 1.506-13.724.564-1.432-.301-3.293.133-4.701.328-.645.089-6.915.712-6.864.638.157-.224-.133-.293-.3-.303-4.19-.221-8.357 1.467-12.535.623-.335-.067-1.34.458-.707.586" fill="#c8c7c7"/><path d="M21.37 23.529c1.743.352 11.714.49 12.031.037-.073.104.148.129.192.128 2.158-.041 12.73-2.755 13.267-.69.027.102.256.08.322.073 4.639-.525 8.807-1.098 13.24-.135 1.956.424 11.222-1.867 11.222.063 0 .101.278.078.321.073 1.437-.155 2.874-.31 4.311-.463.288-.03 1.243-.53.496-.45-1.342.341-2.671.315-3.99-.081l-.101-.066c-2.163-.585-12.202 1.158-12.024-.702.007-.068-.173-.076-.199-.077-4.621-.056-9.329 1.504-13.752.568-1.077-.228-2.46.015-3.509.16-.728.102-8.195.712-8.136.628.074-.105-.15-.125-.191-.128-4.104-.217-8.579 1.428-12.563.625-.264-.053-1.25.373-.936.437" fill="#c8c7c7"/><path d="M53.69 85.571c.351-.017.693-.122.967-.381.571-.459 2.505-2.211 3.015-2.068-.22 2.659-2.712 6.912-2 9.521.156.156.535.22.818.22.084-.064 1.206-.703 1.516-.505l.247 2.363c-.034.207-.593.816-.769 1.024-.064.126.034.292.391.178l1.062-.471c.139-.087.22-.403.09-.601-.274-1.155.061-2.041.151-3.002.164-.108.44-.103.977-.276l.298 2.998-.703.941c0 .015.191.175.33.271.21.124.557-.416.781-.542.378-.284.335-.289.356-.481l.059-3.542c.144-.188.884-.225 1.279-.332 0 0 .105-.252.12-.378-.666-1.77-1.638-4.144-.708-5.884.029 0-.003-1.306.173-1.243l.723 3.911c-.017-.027.171.638.237.694.281.23.532-.644.606-.965.669-2.632.701-6.279.354-6.677-.347-.398-1.66-.996-1.66-.996.984-1.152 2.051-3.503 1.062-4.495-.684-.695-2.053-.439-2.053-.439-1.462.833-1.524 3.005-1.331 4.521-.618 0-1.506-.117-1.904.232-.4.349-4.07 4.825-4.07 4.825l-.012.366c0 .044-.127.125-.239.172" fill="#fff"/><path d="M53.69 85.571c.351-.017.693-.122.967-.381.571-.459 2.505-2.211 3.015-2.068-.22 2.659-2.712 6.912-2 9.521.156.156.535.22.818.22.084-.064 1.206-.703 1.516-.505l.247 2.363c-.034.207-.593.816-.769 1.024-.064.126.034.292.391.178l1.062-.471c.139-.087.22-.403.09-.601-.274-1.155.061-2.041.151-3.002.164-.108.44-.103.977-.276l.298 2.998-.703.941c0 .015.191.175.33.271.21.124.557-.416.781-.542.378-.284.335-.289.356-.481l.059-3.542c.144-.188.884-.225 1.279-.332 0 0 .105-.252.12-.378-.666-1.77-1.638-4.144-.708-5.884.029 0-.003-1.306.173-1.243l.723 3.911c-.017-.027.171.638.237.694.281.23.532-.644.606-.965.669-2.632.701-6.279.354-6.677-.347-.398-1.66-.996-1.66-.996.984-1.152 2.051-3.503 1.062-4.495-.684-.695-2.053-.439-2.053-.439-1.462.833-1.524 3.005-1.331 4.521-.618 0-1.506-.117-1.904.232-.4.349-4.07 4.825-4.07 4.825l-.012.366c0 .044-.127.125-.239.172" stroke="#fff" stroke-width="2.221625" stroke-miterlimit="1" fill="none"/><path d="M53.69 85.571c.351-.017.693-.122.967-.381.571-.459 2.505-2.211 3.015-2.068-.22 2.659-2.712 6.912-2 9.521.156.156.535.22.818.22.084-.064 1.206-.703 1.47-.703l.193 2.409c.017.41-.64 1.116-.818 1.323-.061.124.017.464.373.349l1.228-.791c.139-.087.22-.403.09-.601-.274-1.155.061-2.041.151-3.002.164-.108.44-.103.977-.276l.298 2.998-.566.989c0 .022-.207.494.198.499.408.007 1.243-.833 1.189-1.14l.002-3.702c.144-.188.884-.225 1.279-.332 0 0 .105-.252.12-.378-.508-1.782-1.543-4.922-.657-7.104.029 0 .845 3.889.845 3.889-.017-.027.078.354.144.41.278.233.625-.361.698-.681.669-2.632.701-6.279.354-6.677-.347-.398-1.66-.996-1.66-.996.984-1.152 2.312-3.423 1.062-4.495-.684-.695-2.053-.439-2.053-.439-1.462.833-1.524 3.005-1.331 4.521-.618 0-1.506-.117-1.904.232-.4.349-4.07 4.825-4.07 4.825l-.012.366c0 .044-.127.125-.239.172" fill="#231f20"/><path d="M56.883 91.438l4.338-1.553-.93-4.021-1.758-.145c-.967.693-1.65 5.718-1.65 5.718" fill="#fff"/><path d="M56.194 82.717c.584-.283 1.902-1.248 2.561-1.098.474.566.071 3.293.071 3.293s1.707.5 1.785.151c-.01-1.262 1.66-3.867 1.877-3.301.32.833.733 4.177.818 3.65.84-5.21-1.365-5.356-1.365-5.356s-1.919-.501-2.6-.196c-.683.303-3.147 2.857-3.147 2.857" fill="#fff"/><path d="M62.727 77.266c.344-1.011.256-1.621-.288-1.805-.537-.183-1.069.249-1.414 1.26-.215.63-.176 1.052-.029 1.47.088.252.264.356.464.425.242.083 1.077-.783 1.267-1.35" fill="#fff"/><path d="M47.19 84.428l.293 1.109c-.215 1.511 1.961 2.5 1.219 4.224.801 1.003-.861 2.39.124 3.161-.28.787-.198 1.851-1.048 2.283-.204-.017-.308.078-.417.23l.017.169c.401.278 1.047.278 1.587.188l.955-2.361c.215-.095.711-.354 1.05-.276l-.339 1.958c0 .093 0 .247.122.322l1.511.078c.217 0 .261-.23.2-.4-.064-.107-.29-.046-.508-.095-.522-.351.337-.999.122-1.587 0-.153.122-.169.342-.261 1.152-.957.169-2.468.459-3.669.076-1.248 1.419-2.217.862-3.469.806-.447.881-1.497 1.174-2.295l-.093-.307c-.061-.032-.139-.064-.244-.064-.093 0-.188.032-.234.121-.569.572-.569 1.667-1.465 2.051h-.586c.371-.847.188-1.802-.447-2.405-.293-.107-.491-.231-.737-.281-.728.113-1.328.281-1.633.884-.032.787.581 1.372.508 2.08l-.203.032-.955-.986-.374-.078-.742-1.353c-.124-.107-.371-.075-.585-.075l.065 1.074" fill="#231f20"/><path d="M48.13 86.03c.528.986 1.853 2.006 1.438 3.361 0 .046.044.125.088.137l2.19.339 1.108-3.357-2.434.386c-.29-.017-.4-.31-.601-.402l-1.495-.941c-.264.03-.124.244-.325.416l.029.061" fill="#fff"/><path d="M49.368 92.058v.171l.767.276.618-1.138c.185-.171.615-.098.801.078l-.076.999c.076.061.2.11.369.11l.139-.11v-1.787l-2.19-.264-.427 1.665" fill="#fff"/><path d="M50.381 84.013l.649 2.051c.447-.371.632-1.282.447-1.792-.044-.259-.11-.412-.154-.537-.215-.203-.601 0-.803.09l-.139.142v.046" fill="#fff"/><path d="M63.45 87.934c-.2.33-.576.403-.718.317-.139-.083-.09-.42.107-.745.2-.327.471-.522.613-.437.139.083.193.537-.002.864" fill="#1a2c6b"/><path d="M30.493 98.772l-.032-.005-.051-.015-.076-.002-.056-.008-.038.01-.149.04-.051.024-.059.019-.042.03-.094.038-.104.083-.141.105-.058.081-.069.071-.063.088-.142.201-.072.121-.048.073-.042.103-.152.328c-.076.153-.163.38-.184.459l-.073.332-.022.085-.019.113-.03.137-.021.234-.017.156c-.008.117.022.339.049.412.027.067.054.081.197.122l.091.032.072-.03.04-.01.012-.005.027-.046.034-.015.039-.037.141-.132.017-.034.047-.054.046-.073.031-.053.074-.084.024-.051.044-.08.022-.005.059-.098.007-.017c.012-.025.043-.108.205-.386l.015-.061.059-.095.032-.061.054-.067.017-.042.01-.007.038.019.001.004-.022.45.024.249.016.12.022.024.028.035.006.031.054.039.085.034.053-.003.069-.003.017-.005.06-.029.052-.039c.127-.095.191-.181.261-.332l.164-.344.095-.173.042-.11.081-.161.029-.1.01-.008.038-.102.013-.12-.016-.004-.006-.019-.02.024-.044.107-.281.537c-.076.151-.21.369-.26.43l-.126.131-.074.071-.072-.02-.023-.136-.01-.105v-.18l-.006-.042.01-.071.002-.107.017-.156.039-.269.01-.131.023-.059.019-.107.016-.078.049-.24.046-.083.016-.102.052-.068.017-.095.046-.115.054-.112.042-.083.088-.137v-.105c-.029-.081-.077-.104-.249-.112l-.061.076-.095-.042zm-1.487 3.125l-.032-.026-.003-.008-.002-.087-.017-.083.005-.137v-.085l.017-.098.009-.139.055-.21.002-.068.007-.061.071-.258.032-.191.059-.088.024-.134.054-.11v-.042l.083-.151v-.024l.093-.169.053-.12.055-.085.102-.149.046-.073.09-.088.049-.056.046-.032.037-.039.112-.071.051-.032.012-.002.032-.01.086-.01h.083l.053.005.093.03.074.012-.027.054-.029.098-.035.064-.082.256-.05.129-.024.051-.017.076-.064.212-.111.29-.011.037-.027.044-.034.085-.027.057.011.002-.038.059-.115.246-.032.071-.034.073-.035.043-.031.068-.093.156-.178.252-.068.112-.045.042-.18.232-.107.091-.029-.017-.019.007" fill="#c8c7c7"/><path d="M31.668 99.658l.054-.286.154-.581.161-.489.003-.029-.057-.017-.058.03-.101.042-.204.112-.064.027-.026-.034-.013.007-.027-.034.054-.137v-.037l.602-.273.042-.064c.044-.159.274-.936.327-1.011l.134-.132.054.032.051.037.081.054-.022.06c-.023.059-.22.789-.215.806l.019.025.117-.012.129-.054.174-.056.132-.039c.098-.034.146-.025.22.049l.044.046-.084.003-.011.014-.193.019-.051.02-.112.057-.222.078-.1.051-.098.059c-.067.034-.13.088-.144.136l-.23.647-.052.217-.063.252-.032.088-.046.21-.038.184-.024.203-.038.097.007.073-.026.068-.01.193-.016.034.006.076-.022.281.012.073.017.202.003.005.071.056c.034-.012.105-.075.166-.158l.215-.313.066-.123.042-.059.211-.437.208-.469.273-.64.029-.081.034.052v.058l-.068.193-.071.203-.022.049-.024.071-.098.242-.056.166-.045.054-.018.091-.042.073-.037.103-.051.102-.042.083-.137.279c-.089.203-.32.512-.489.662l-.168.088-.237.022-.068-.062-.002-.095-.013-.228.025-.198-.005-.093.027-.143.014-.176.033-.276.081-.478" fill="#c8c7c7"/><path d="M10.598 138.372c-.608.811-1.201 1.578-2.212 2.124-.183.064-.41.15-.598.022-.251-.202-.034-.668.139-1.037l.341-.582c.411-.584 1.441-1.862 2.55-2.05.146 0 .266.058.327.18.085.535-.315.986-.547 1.343zm5.813-1.448c-.081-.185-.181-.261-.453-.31-.68-.037-1.025.705-1.476 1.121l-.042-.062c-.042-.291-.024-.54-.306-.796-.981-.653-1.73.701-2.531 1.155-.042.021-.103.064-.142.024.078-.329.161-.723.056-1.051-.085-.309-.352-.448-.706-.468-.735.05-1.013.208-1.709.57-.818.505-1.455 1.135-2.185 1.809-.801.805-1.558 1.573-2.356 2.356-.059.083-.1.165-.081.268.044.042.102.101.164.081.801-.62 1.372-1.426 2.136-2.044l.055.042c.067.264.067.558.233.76.227.369.515.582.967.53.663-.062 1.691-.83 2.41-1.49.82-.659 1.527-1.347 2.328-1.965.206-.167.387-.394.675-.394.127.059.127.184.102.287-.486 1.155-1.365 2.165-2.102 3.24-.017.059-.062.139-.017.205.305.061.637 0 .946.019.243-.19.455-.438.641-.688.828-.94 1.462-1.851 2.224-2.742.081-.144.264-.329.408-.413.136-.049.247-.061.33.022.059.066.127.218-.02.259-.27-.044-.425.026-.591.244-.034.062-.234.51-.015.681.046.054.2.225.527.151 0 0 .093 0 .181-.09.347-.13.618-.857.347-1.312" fill="#231f20"/><path d="M3.911 132.928c3.53-1.499 6.892.646 10.593.239 1.13-.11 2.134-.461 3.062-1.001.103.043 0 .084 0 .147-1.455 1.522-3.697 1.762-5.754 1.44-1.934-.42-3.806-1.216-5.972-.958-1.126.186-2.588.522-2.847 1.866-.042.285.105.529.332.671.723.207 1.396-.228 1.826-.83l.142-.04c.105.061.042.164.027.228-.515.781-1.262 1.276-2.217 1.36-.37.041-.599.075-1.008-.228-.227-.264-.354-.627-.252-.976.201-.986 1.248-1.548 2.069-1.919" fill="#231f20"/><path d="M8.944 135.533l-.165-.018c-.101-.144.024-.385.115-.527.106-.141.281-.249.374-.28.088-.028.237-.038.244.119.024.315-.452.686-.567.706zm.284.251c.352-.313.779-.681.615-1.174-.044-.125-.168-.189-.288-.23-.127-.022-.193-.046-.32-.01-.405.037-.713.494-.713.494-.396.79.137.744-.588.943-.146.022-.615.179-.472.005.262-.562.755-1.054 1.205-1.489.208-.23.556-.33.615-.618-.022-.086-.142-.084-.205-.064-.759.395-1.475 1.035-2.112 1.658-.381.379-.51.696-.881.967-.759.251-1.58.417-2.278.852-.422.215-.743.52-.743.52-.082.079-.165.154-.197.266.017.084.12.167.203.144.596-.392 1.169-.805 1.806-1.012.248-.064.497-.208.719-.149-.12.374-.427.681-.65 1.013-.824.972-1.801 2.185-3.202 1.949-.474-.127-.723-.618-.769-1.07-.083-.761.513-1.276 1.066-1.688.104-.064.204-.167.186-.291-.022-.041-.065-.06-.128-.06-.032-.025-.428.207-.635.331-.877.684-1.677 1.595-1.406 2.743.19.595.827 1.045 1.423 1.145 2.695.377 4.083-2.466 5.366-4.236.29-.518.888-.461 1.36-.625.351-.083.642.225 1.01.117.225-.063.515-.191.557-.415-.028-.217-.373.024-.541-.015" fill="#231f20"/><path d="M19.901 137.916c-.59 1.071-2.126 2.676-2.622 2.688-.139.017-.346.042-.431-.142-.124-.413.142-.742.308-1.074l.51-.745c.549-.74 1.182-1.647 2.104-1.88.127-.018.23 0 .335.086.308.366-.064.736-.204 1.066zm3.448-3.665c-.327.045-.808-.088-.93.156l-1.455 2.127c-.102.103-.183.329-.369.31-.161-.205-.371-.348-.64-.389-.963-.015-1.694.613-2.507 1.074-.278.164-.543.348-.828.543l-.925.64c-.631.415-1.275.769-1.892 1.184 0 0-.059.092-.023.132.038.049.079.072.167.051.779-.312 1.516-.886 2.275-1.224.043.188-.183.374-.2.556-.098.538.046 1.114.52 1.355.762.491 1.456-.19 2.073-.585l.132-.074c.164.222.221.551.571.688.476.221.74.119.986-.068.531-.288 1.583-1.597 2.317-2.454l.072-.154c.006-.112-.119-.134-.18-.112-.806.816-1.697 2.188-2.475 2.52-.138.044-.269.02-.352-.103-.086-.164-.015-.308.061-.515l3.104-4.6.635-.886.033-.115c0-.08-.11-.044-.171-.059" fill="#231f20"/><path d="M35.853 142.705c-.063.251-.08.32-.37.513-.4.215-1.787.215-2.529-.115-.598-.262-1.177-.839-1.406-1.472-.105-.25-.123-.286.185-.286 1.395-.087 3.027.036 3.911.823.124.147.227.337.209.537zm-.221-.945c-.747-.476-2.053-.849-3.223-.889-1.143-.075-1.013.151-1.045-.139-.076-.977.1-1.68.305-2.423.647-1.918 1.453-2.992 2.355-4.055.492-.671.961-1.094 1.639-1.689.083-.066.038-.191-.043-.248-.268-.079-.514.062-.739.185-2.253 1.494-4.058 3.765-5.613 5.952-.082.068-.1.142-.161.037l.283-1.089c.347-1.114.36-2.369.893-3.396.261-.515.652-.991.996-1.445.044-.083.066-.207-.04-.244-.085-.064-.181-.02-.265 0-.786.393-1.436 1.176-2.071 1.816-1.801 2.126-3.087 4.539-5.28 6.484-1.412 1.28-2.908 2.522-4.924 2.385-.101-.021-.185.018-.227.125.042.103.146.144.249.182 3.542.477 6.553-2.126 8.142-5.092.776-1.279 1.369-2.661 2.368-3.837l.044.041c-.332.658-.576 1.309-.836 2.073-.507 1.731-.292 3.796-2.163 4.623-.077.046-.259.072-.236.172.064.103.26.115.364.095 1.235-.231 2.156-1.428 2.93-2.398 1.311-1.771 2.58-3.735 4.342-5.119l.018.024c-.657.781-1.391 1.546-1.963 2.369-.859 1.243-1.711 2.365-1.704 4.131.037.551.124.551-.046.59-.72.164-1.438.276-2.075.645-.633.371-1.555 1.015-1.454 1.875.084.208.252.415.459.493.904.325 1.886.032 2.672-.339.142-.105.368-.146.388-.351 0-.062-.085-.103-.144-.084-.514.232-1.007.459-1.623.42-.247.002-.514-.166-.598-.41-.062-.228-.023-.471.122-.659.574-.662 1.382-.916 2.158-1.104.278-.035.349-.139.437.087.254.374.474.679.864 1.021 1.04.846 2.776 1.466 4.338.932.264-.105.542-.361.618-.781.024-.355-.084-.635-.513-.967" fill="#231f20"/><path d="M44.558 137.984c-.659 1.059-1.868 2.336-2.703 2.622-.117.074-.314.074-.435-.002-.088-.044-.142-.093-.151-.247-.059-.295.454-1.188.858-1.684.699-.768 1.51-1.877 2.459-1.808.288.035.274.24.275.243.077.246-.136.61-.304.876zm-7.637.374c-.613.886-1.47 1.857-2.498 2.233-.123.019-.288.042-.408-.042-.276-.27-.007-.733.154-1.097.354-.528.679-.935 1.111-1.431.542-.554 1.001-.933 1.594-1.145.204-.022.403-.083.557.164.078.538-.256.938-.51 1.319zm12.891-1.636c-.725-.21-1.128.617-1.58 1.071-.019.025-.083.125-.122.066.019-.33-.029-.627-.239-.854-.165-.212-.486-.313-.796-.212-.754.318-1.208.93-1.843 1.342-.044.021-.105.083-.144.021.1-.349.22-.844.034-1.21-.195-.335-.488-.369-.816-.369-1.011.173-1.873.71-2.657 1.348-1.032.842-1.593 2.024-2.702 2.666-.122.042-.266 0-.348-.1-.063-.167-.063-.271.016-.474.857-1.26 1.675-2.559 2.577-3.816l.157-.118c.574-.015 1.098.007 1.685-.015.065-.019.132-.083.132-.165.015-.088-.027-.14-.086-.161l-1.313-.02-.112-.039c-.071-.034.252-.554.415-.804.102-.183.269-.32.347-.546l-.061-.105c-.42-.007-.842-.087-.962.066l-.925 1.333c-.217.136-.856.085-1.262.071-.227.016-.425-.064-.652.06-.023.063-.09.232.039.264.107.046 1.458-.049 1.458.088 0 .057-.069.198-.115.239-.67.525-1.37 1.219-2.109 1.675l-.061-.064c.056-.305.139-.74-.023-1.025-.171-.289-.41-.4-.8-.379-1.329.113-2.1.896-3.157 1.78-.706.612-1.362 1.377-2.056 2.019-.025.062-.042.184.039.225.064.024.123.021.188-.005l.979-.984.124.015c.044.349.09.712.342.991.224.224.646.305 1.011.288.471-.054 1.14-.505 1.653-.92.903-.911 1.943-1.656 2.908-2.438.044-.026.105-.085.149-.026-.308.581-.676 1.117-1.047 1.675-.222.328-.408.74-.256 1.169.06.208.246.41.452.494.864.344 1.438-.52 1.97-.999.076-.063.144-.077.183-.017.064.471.417.986.91 1.085.478.095.848-.084 1.175-.271.923-.53 1.399-1.165 2.095-1.685.498-.356 1.426-1.208 2.207-1.768.166-.085.346-.258.481-.077.105.192-.045.364-.088.505-.574 1.03-1.328 2.021-2.066 2.993-.062.079-.283.228-.107.252.303.014.693-.005 1.01-.015.074.056.401-.451.585-.681.812-.93 1.487-1.731 2.181-2.593.205-.269.518-.681.82-.601.102.018.166.14.146.243-.081.21-.183.056-.449.111-.283.145-.405.414-.422.699.024.144.12.264.264.325.203.11.32.044.486-.015.388-.253.576-.648.554-1.122-.022-.203-.188-.43-.393-.486" fill="#231f20"/><path d="M60.086 134.662c-1.313 1.095-2.712 1.56-4.507 1.857l-.593.059c.095-.166.396-.522.537-.725 1.282-1.467 2.822-2.551 4.646-2.878 0 0 .308-.027.442-.01.195.057.386.093.437.349-.037.579-.571.975-.962 1.349zm1.25-1.678c-.601-.671-1.69-.279-2.412-.068-1.909.727-3.796 1.704-5.183 3.455-.061.103-.186.227-.31.227-.718.046-1.418-.054-1.897-.605-.305-.328-.288-.843-.164-1.233.503-1.28 1.797-2.356 3.132-2.605.269-.066.552-.043.779-.191.042-.044 0-.105-.037-.141-.947-.037-1.814.276-2.634.61-1.045.535-2.397 1.651-2.061 3.006.352 1.068 1.548 1.396 2.556 1.535.107-.005.183.022.122.142-.225.535-.427 1.05-.464 1.646-.019.905.498 1.729 1.304 2.092 1.462.615 2.818-.34 3.818-1.352.427-.577.94-1.175.774-1.954-.1-.395-.32-.592-.764-.697-.996-.21-1.931.893-2.441 1.737-.098.267-.349.535-.247.84.046.046.105.046.149 0 .364-.884 1.233-1.96 1.904-2.242.185-.056.471-.092.635.077.227.159.169.492.129.736-.342 1.255-1.531 2.602-2.869 2.75-.537.044-1.03-.12-1.343-.571-.371-.76-.086-1.665.3-2.33.205-.305.459-.769.666-.872l1.045-.126c1.326-.215 2.61-.514 4.077-1.431.535-.374 1.213-.807 1.499-1.424.142-.31.169-.71-.066-1.01" fill="#231f20"/><path d="M90.908 142.608c-.632.845-1.331 1.647-2.471 1.813-.273.002-.337-.018-.52-.177-.146-.125-.188-.328-.129-.514.164-.434.459-.728.942-1.01.23-.168 1.746-.833 2.668-1.147l.381-.141c-.207.364-.644.844-.872 1.176zm-11.195-2.021c-.122.042-.308.093-.493-.01-.083-.037-.127-.151-.144-.271-.049-.387.215-.808.547-1.34.696-.911 1.411-1.888 2.483-2.161.156-.019.281-.002.388.081.266.244.025.595-.056.848-.637 1.11-1.492 2.331-2.725 2.854zm-16.609-1.89c-.632.822-1.702 1.909-2.456 1.965-.181-.011-.247-.059-.308-.185-.149-.422.42-1.232.96-1.888l.967-1.027c.564-.494 1.035-.86 1.392-.699.12.044.149.1.203.266-.046.723-.42 1.079-.757 1.568zm34.77 1.639c-1.116-.673-2.551-.174-3.748.016-.2.02-.449.095-.703.144l.1-.211c.696-1.153 1.523-2.313 2.358-3.396l.085-.151c-.007-.063.046-.094-.434-.059-1.016-.015-.962-.039-1.025.115-.842 1.215-1.741 2.414-2.866 3.486-.166.124-.31.269-.535.249-.183-.066-.107-.164-.086-.244.635-.948 1.46-1.673 1.697-2.723.042-.289-.083-.579-.313-.737-.244-.188-.586-.236-.881 0-.867.764-1.804 1.982-2.683 2.954-.244.248-.469.599-.776.762-.083.044-.21.065-.269-.037-.081-.083-.024-.188 0-.27.122-.384 1.692-2.113 1.734-2.743.085-.356-.127-.535-.398-.656-.715-.264-1.279.308-1.794.743l-.173.128c-.08-.349.081-.693-.5-.92-.339-.091-.735.044-.918.21-.505.41-.869 1.005-1.345 1.511-.574.725-1.694 1.95-1.741 1.938-.215.147-.273.115-.417.018-.085-.141.019-.266.081-.41.715-.989 1.348-2.021 2.085-3.008.039-.066.19-.191.068-.251-.298.011-.637.011-.972.002-.183 0-.251.356-.432.375-.12-.165-.217-.4-.396-.515-.264-.205-.61-.159-.947-.078-1.263.434-2.852 1.423-3.44 3.057-.308.417-.862.871-1.211.999-.169.029-.286.018-.366-.123-.066-.08-.024-.205.018-.29.466-.701 1.025-1.404 1.37-2.164.139-.31.104-.747-.098-.991-.247-.267-.574-.38-.959-.28l-.701.271c-.025-.02-.098-.059.124-.335.342-.486.664-.804.974-1.324.127-.165-.056-.098-.2-.107-.911-.017-.892-.058-1.045.102-1.45 1.715-2.805 3.568-4.566 4.997-.166.103-.344.288-.576.208-.102-.051-.166-.145-.146-.267.012-.333.402-.711.646-1.042.396-.557.83-1.009.843-1.759-.037-.41-.181-.592-.516-.722-.503-.229-.898.027-1.272.335-.269.166-.576.512-.818.691.032-.46.122-.879-.596-1.075-.781-.221-1.301.479-1.875.874-.064.04-.122.04-.188-.023-.064-.267-.088-.481-.396-.72-.957-.601-1.702.485-2.42 1.018-.042.046-.083.027-.127-.019.04-.348.146-.789-.112-1.088-.185-.224-.347-.3-.793-.262-1.182.183-2.202.992-3.152 1.938-1.047 1.009-1.931 1.992-2.981 2.964-.017.061-.056.122-.017.204.022.065.081.063.142.063.759-.6 1.335-1.384 2.029-2.042.044-.042.185-.25.185-.042.046.447.161.909.559 1.147.33.248.908.223 1.238.018 1.621-.86 2.788-2.298 4.136-3.477.205-.166.539-.361.759-.21.086.065.102.205.059.308-.674 1.115-1.355 2.246-2.251 3.33l.005.066c.076.041.107.023.354.023.551-.002.798.046.927-.031.63-.911 1.267-1.949 2.065-2.776.43-.349 1.004-.94 1.379-1.006.144-.017.19 0 .286.112.056.079-.003.23-.044.294-.671 1.068-1.389 2.101-2.104 3.154l-.115.161c-.117.136.376.077.547.077.33.008.571.051.62-.046.742-.969 1.55-2.055 2.434-2.964.366-.349.881-.889 1.226-.789.171.054.188.145.188.25-.102.412-.427.741-.674 1.112-.4.564-1.045 1.053-.979 1.816.044.305.31.594.601.671.308.143.637-.001.884-.126.75-.54 1.462-1.184 2.09-1.797l.264-.213-.244.443-3.103 4.636-.083.161c.02.061.123.066.164.066.855-.018.93.031.986-.091l.92-1.399c1.169-1.816 2.432-3.669 4.05-5.2.166-.144.344-.29.559-.313.137-.02.242.042.303.144.124.174-.161.576-.347.804-.554.708-1.343 1.391-1.267 2.229.085.445.295.566.593.694.391.119.73-.022 1.016-.188.405-.236.588-.464.786-.662.166.308.356.707.757.823.515.159 1.006-.087 1.418-.359.352-.222.662-.492.965-.705-.013.167-.02.254.009.397.071.489.415.599.684.664.471.074.615-.067 1.06-.518.515-.417 2.148-2.629 2.676-3.09.105-.064.164-.205.327-.125.11.061.11.182.086.266-.632 1.114-1.387 2.239-2.183 3.281l-.064.11c.01.105.457.066.603.056.259-.01.576.026.627-.032.515-.93 1.27-1.853 2.026-2.7.434-.39 1.098-1.052 1.396-1.03.081.018.144.117.1.183-.405.474-.732.947-1.103 1.423-.372.538-.861 1.184-.639 1.86.149.237.2.306.634.378.53 0 .615-.141.837-.374 1.045-1.113 2.004-2.288 3.049-3.386.124-.083.205-.236.391-.167.061.063.105.124.085.21-.015.47-1.25 1.665-1.702 2.6-.098.329-.032.697.252.878.933.554 1.543-.601 2.219-1.119l.1-.08c-.161.413-.508.966-.813 1.404-.659.247-1.333.474-1.992.743-1.011.444-2.363.949-2.892 1.701-.288.288-.43.72-.283 1.091.33.433.888.469 1.4.402 2.053-.171 3.623-2.246 4.763-3.855l.093-.029c.781-.208 1.582-.376 2.402-.506.581-.063 1.257-.085 1.69.304.205.221.313.548.169.841-.471.724-1.333.809-2.092.975-.083.042-.183.144-.059.208.574.078 1.191-.046 1.685-.273.513-.274 1.252-.564 1.348-1.222.083-.392-.122-.72-.432-.943" fill="#231f20"/><path d="M37.717 100.693l-.029-.068c-.046 0-.217.056-.584.056h-2.188l-.454-.027-.273-.07-.054.109c-.015.047-.135.584-.135.647l.034.046.068-.053.101-.191c.095-.144.23-.178.59-.183l.836-.015v2.412c0 .55 0 .994-.024 1.238-.022.164-.056.291-.173.313l-.183.025-.046.042.095.053.605-.02c.035 0 .428.02.741.02l.095-.053-.046-.042-.259-.02c-.171-.026-.203-.149-.225-.317-.028-.244-.028-.688-.028-1.238v-2.412l.707.015c.549.005.673.127.701.31l.014.083.052.102.049-.075.015-.686" fill="#c8c7c7"/><path d="M43.24 104.983l-.04-.042-.265-.029c-.171-.02-.205-.149-.225-.313-.029-.244-.029-.686-.029-1.243v-1.013c0-.904 0-1.052.015-1.235.007-.203.056-.301.21-.325l.145-.022.047-.039-.09-.056-.61.019-.681-.019-.093.056.046.039.198.022c.191.04.237.128.252.325.007.183.007.308.007 1.208v.121l-.037.035h-2.444l-.034-.035v-.121c0-.901 0-1.025.005-1.208.015-.203.063-.301.22-.325l.142-.022.048-.039-.094-.056-.598.019-.686-.019-.095.056.046.039.197.022c.192.04.233.128.248.325.011.183.011.332.011 1.235v1.013c0 .557 0 .999-.026 1.243-.022.164-.056.293-.171.313l-.169.029-.048.042.088.051.606-.027c.033 0 .427.027.747.027l.088-.051-.046-.042-.259-.029c-.169-.02-.204-.149-.225-.313-.027-.244-.027-.686-.027-1.243v-.606l.034-.032h2.444l.037.032v.606c0 .557 0 .999-.027 1.243-.022.164-.054.293-.171.313l-.17.029-.048.042.095.051.591-.027c.034 0 .436.027.752.027l.09-.051" fill="#c8c7c7"/><path d="M46.936 104.302l-.049-.088-.054.088c-.042.239-.107.354-.256.414-.151.061-.422.061-.574.061-.564 0-.644-.078-.659-.471v-1.458l.043-.042c.094 0 .672.007.829.026.224.02.278.13.299.21l.027.196.04.056.049-.11.027-.405.046-.354-.04-.049-.087.088c-.056.056-.138.076-.273.083-.137.012-.85.012-.924.012l-.036-.054v-1.531l.036-.059c.06 0 .693.007.787.02.313.037.368.102.41.198l.032.222.055.076.047-.058.034-.437.046-.271-.027-.049-.088.027-.252.029c-.129.008-1.311.008-1.353.008-.027 0-.42-.022-.679-.022l-.095.056.048.04.196.019c.189.042.231.132.246.327.011.183.011.332.011 1.238v1.01c0 .557 0 1.001-.027 1.245-.021.168-.055.291-.17.317l-.171.02-.044.042.086.053.598-.02c.169 0 .598.037 1.475.037.225 0 .273-.017.313-.163.027-.123.076-.53.076-.579" fill="#c8c7c7"/><path d="M34.533 110.83l-.054-.032c-.068 0-.246 0-.443-.061-.29-.097-.339-.476-.366-.72l-.457-4.172c-.012-.127-.032-.183-.081-.183-.046 0-.073.046-.103.107l-1.996 4.268-2.079-4.273c-.034-.073-.061-.102-.103-.102-.041 0-.068.046-.072.121l-.491 4.429c-.028.261-.049.524-.274.566l-.203.019-.068.032c0 .049.049.064.116.064l.572-.019.63.019c.082 0 .123-.015.123-.064l-.055-.032-.257-.034c-.104-.019-.177-.107-.177-.21l.007-.346.271-3.155h.027c.076.186.835 1.817.898 1.938.032.067.618 1.243.793 1.575.129.247.164.313.21.313.061 0 .083-.06.227-.358l1.663-3.533h.019l.327 3.506c.012.123.006.239-.027.244l-.049.046c0 .035.034.056.19.071.252.019.985.038 1.135.038.083 0 .143-.019.143-.064" fill="#c8c7c7"/><path d="M36.743 110.84l-.046-.042-.259-.019c-.177-.029-.212-.148-.232-.314-.027-.242-.027-.693-.027-1.243v-1.018c0-.904 0-1.047.015-1.238.012-.195.055-.298.21-.327l.15-.017.04-.042-.089-.048-.605.022-.61-.022-.095.048.046.042.177.025c.129.029.184.124.196.319.015.191.015.335.015 1.238v1.018c0 .55 0 1.001-.034 1.243-.022.166-.047.286-.164.314l-.176.019-.042.042.088.054.598-.019c.034 0 .427.019.747.019l.095-.054" fill="#c8c7c7"/><path d="M42.473 106.579c0-.042-.042-.048-.11-.048l-.515.022-.625-.022c-.069 0-.115.007-.115.048l.045.042.294.032c.176.049.217.176.222.552l.056 2.813-1.331-1.454c-.893-.95-1.755-1.861-1.843-1.963-.095-.103-.156-.156-.203-.156-.042 0-.068.068-.068.29l-.007 3.288c0 .532-.028.693-.168.735l-.247.042-.046.042.094.054.577-.019c.049 0 .305.019.632.019l.102-.054-.042-.042c-.054 0-.19-.007-.299-.042-.155-.042-.209-.19-.224-.666l-.068-2.649c.183.212.789.892 1.462 1.609.61.659 1.438 1.489 1.499 1.55.315.301.368.339.43.339.046 0 .054-.034.054-.414l.015-3.369c0-.344.027-.472.217-.51l.142-.025.068-.042" fill="#c8c7c7"/><path d="M48.262 106.579l-.107-.048-.517.022-.626-.022c-.065 0-.114.007-.114.048l.049.042.291.032c.176.049.217.176.225.552l.056 2.813c-.186-.193-.763-.842-1.335-1.454-.889-.95-1.753-1.861-1.838-1.963-.096-.103-.159-.156-.205-.156-.042 0-.068.068-.068.29l-.006 3.288c0 .532-.026.693-.17.735l-.246.042-.046.042.095.054.579-.019c.046 0 .305.019.63.019l.104-.054-.041-.042c-.056 0-.193-.007-.3-.042-.156-.042-.21-.19-.225-.666l-.066-2.649c.181.212.788.892 1.458 1.609.613.659 1.443 1.489 1.504 1.55.311.301.366.339.427.339.049 0 .056-.034.056-.414l.012-3.369c0-.344.027-.472.216-.51l.143-.025.068-.042" fill="#c8c7c7"/><path d="M52.046 110.166l-.049-.088-.051.088c-.042.236-.11.354-.259.414-.149.059-.422.059-.574.059-.561 0-.644-.074-.657-.467v-1.459l.042-.042c.098 0 .674.005.828.026.225.02.278.13.3.21l.027.198.042.056.049-.112.025-.408.049-.351-.042-.046-.088.088c-.054.053-.137.073-.273.08-.134.015-.85.015-.923.015l-.034-.057v-1.526l.034-.066c.061 0 .693.01.788.022.313.034.366.102.408.2.034.067.034.183.034.223l.054.075.049-.06.032-.437.049-.271-.027-.046-.088.026-.251.027c-.132.007-1.311.007-1.353.007-.027 0-.42-.022-.679-.022l-.098.056.049.042.198.017c.188.042.232.132.244.327.015.183.015.335.015 1.238v1.013c0 .555 0 .997-.027 1.243-.022.171-.056.29-.171.319l-.171.019-.049.042.09.054.598-.019c.171 0 .596.032 1.475.032.222 0 .271-.013.313-.161.024-.123.073-.532.073-.579" fill="#c8c7c7"/><path d="M55.33 108.977l-.02.034h-1.05l-.01-.034.488-1.467c.027-.081.056-.081.081 0l.51 1.467zm1.841 1.863l-.059-.042-.239-.034c-.117-.039-.286-.117-.495-.632-.356-.876-1.287-3.247-1.367-3.472-.074-.175-.101-.217-.137-.217-.034 0-.066.048-.134.236l-1.338 3.562c-.109.293-.217.508-.483.542l-.171.015-.046.042c0 .035.032.054.11.054l.706-.019.461.019.083-.054-.056-.042-.061-.007c-.088-.008-.217-.046-.217-.161 0-.11.027-.239.083-.389l.327-.952.051-.049h1.208l.051.035.508 1.355c.034.085 0 .134-.049.153l-.032.046c0 .037.059.044.176.044.4.012.93.019 1.018.019l.102-.054" fill="#c8c7c7" fill-rule="evenodd"/><path d="M60.621 107.544c0-.305-.164-.564-.293-.689-.088-.08-.347-.324-1.072-.324l-.818.022-.696-.022-.086.053.049.049.198.013c.176.034.23.134.244.334.012.183.012.325.012 1.224v1.018c0 .56 0 .979-.032 1.223-.019.172-.056.301-.178.32l-.183.027-.049.048.076.054.64-.019c.027 0 .442.019.752.019l.09-.054-.049-.048-.256-.019c-.176-.027-.212-.149-.227-.32-.024-.244-.032-.671-.032-1.23v-2.344l.046-.107.251-.037c.129 0 .469-.019.774.293.305.313.327.666.327.856 0 .53-.432.93-.991.93-.122 0-.149.015-.149.061l.061.048.142.007c.815 0 1.448-.566 1.448-1.387" fill="#c8c7c7"/><path d="M65.44 108.779c0 1.665-1.03 1.966-1.536 1.966-.991 0-1.765-.855-1.765-2.188 0-1.253.686-1.883 1.616-1.883.872 0 1.685.74 1.685 2.104zm.62-.169c0-1.345-.972-2.161-2.268-2.161-1.597 0-2.278 1.318-2.278 2.253 0 1.04.659 2.271 2.241 2.271 1.394 0 2.305-1.067 2.305-2.364" fill="#c8c7c7" fill-rule="evenodd"/><path d="M69.82 110.158l-.039-.085-.054.07c-.022.117-.078.266-.159.362-.134.166-.386.168-.693.168-.455 0-.604-.038-.694-.126-.107-.108-.127-.469-.127-1.318v-1.025c0-.904 0-1.047.012-1.238.007-.195.056-.298.225-.327l.192-.017.044-.042-.095-.048-.659.022c-.024 0-.412-.022-.671-.022l-.095.048.049.042.195.017c.193.042.232.132.246.327.013.191.013.335.013 1.238v1.018c0 .55 0 .992-.027 1.238-.019.163-.054.29-.17.313l-.184.026-.039.042.088.054.596-.019c.342 0 .769.042 1.599.042.305 0 .327-.03.367-.159.046-.168.08-.527.08-.598" fill="#c8c7c7"/><path d="M72.198 110.84l-.049-.042-.259-.019c-.176-.029-.21-.148-.23-.314-.027-.242-.027-.693-.027-1.243v-1.018c0-.904 0-1.047.012-1.238.015-.195.054-.298.212-.327l.149-.017.039-.042-.088-.048-.603.022-.613-.022-.093.048.046.042.176.025c.127.029.183.124.198.319.015.191.015.335.015 1.238v1.018c0 .55 0 1.001-.037 1.243-.019.166-.049.286-.161.314l-.178.019-.039.042.086.054.6-.019c.034 0 .427.019.747.019l.096-.054" fill="#c8c7c7"/><path d="M75.638 109.771c0-.459-.149-.848-.83-1.385l-.164-.122c-.515-.408-.693-.659-.693-.945 0-.4.305-.652.674-.652.53 0 .662.21.706.286.056.088.076.217.083.292l.054.073c.027 0 .046-.038.046-.134 0-.396.029-.585.029-.612l-.054-.042-.202-.027c-.147-.034-.33-.06-.555-.06-.735 0-1.208.422-1.208 1.037 0 .396.122.789.732 1.292l.259.213c.496.405.679.646.679 1.006 0 .373-.297.747-.808.747-.389 0-.76-.164-.843-.564l-.019-.217-.046-.06-.056.087c-.007.096-.034.325-.034.611 0 .156.01.185.09.225.237.117.508.156.779.156.315 0 .635-.059.876-.237.4-.286.505-.727.505-.966" fill="#c8c7c7"/><path d="M24.316 116.716l-.054-.042-.308-.027c-.203-.027-.244-.178-.266-.373-.032-.285-.032-.823-.032-1.477v-1.193c0-1.06 0-1.25.011-1.465.016-.239.071-.356.255-.391l.168-.019.054-.042c0-.04-.033-.054-.11-.054l-.664.019-.686-.019c-.074 0-.11.015-.11.054l.056.042.21.027c.149.034.217.151.232.383.012.215.012.405.012 1.465v1.193c0 .654 0 1.192-.034 1.477-.027.195-.061.347-.195.373l-.205.027-.054.042c0 .042.034.054.107.054l.666-.019c.034 0 .463.019.836.019.074 0 .108-.019.108-.054" fill="#c8c7c7"/><path d="M30.022 112.456c0-.044-.042-.049-.11-.049l-.515.022-.627-.022c-.066 0-.115.005-.115.049l.049.04.293.034c.176.049.215.179.224.549l.055 2.815c-.183-.19-.762-.845-1.333-1.453l-1.841-1.967c-.095-.101-.156-.151-.203-.151-.042 0-.068.065-.068.288l-.007 3.292c0 .529-.027.693-.171.732l-.244.042-.047.042.096.054.576-.019c.048 0 .308.019.632.019l.103-.054-.042-.042c-.054 0-.191-.007-.299-.042-.158-.038-.209-.19-.224-.663l-.068-2.651c.183.209.786.888 1.46 1.611.613.66 1.44 1.487 1.501 1.551.313.297.369.336.43.336.048 0 .054-.034.054-.414l.012-3.37c0-.344.028-.469.219-.51l.143-.026.068-.04" fill="#c8c7c7"/><path d="M33.42 115.649c0-.464-.151-.852-.83-1.387l-.164-.124c-.515-.405-.692-.657-.692-.939 0-.406.305-.655.672-.655.53 0 .657.21.707.286.055.088.074.218.079.291l.056.078c.028 0 .049-.042.049-.14 0-.393.027-.585.027-.61l-.056-.042-.205-.026c-.142-.035-.325-.059-.547-.059-.735 0-1.211.417-1.211 1.035 0 .396.122.789.734 1.292l.257.21c.496.41.681.647.681 1.008 0 .374-.3.748-.808.748-.388 0-.762-.164-.842-.565l-.022-.217-.046-.061-.056.088c-.006.095-.034.324-.034.61 0 .156.007.183.09.225.237.118.509.156.78.156.314 0 .631-.061.875-.236.403-.289.505-.731.505-.965" fill="#c8c7c7"/><path d="M38.052 112.434l-.028-.068c-.048 0-.217.057-.585.057h-2.185l-.457-.027-.274-.069-.054.107c-.012.049-.137.587-.137.645l.036.049.067-.054.103-.191c.095-.143.232-.175.591-.183l.837-.012v2.412c0 .549 0 .991-.027 1.235-.021.161-.055.291-.17.313l-.185.027-.046.042.095.054.605-.019c.035 0 .428.019.741.019l.095-.054-.049-.042-.257-.022c-.17-.027-.202-.149-.222-.317-.028-.244-.028-.686-.028-1.235v-2.412l.706.012c.552.008.673.129.701.313l.012.081.058.105.045-.078.015-.687" fill="#c8c7c7"/><path d="M40.618 116.716l-.046-.042-.257-.022c-.177-.027-.211-.149-.233-.309-.025-.247-.025-.694-.025-1.243v-1.021c0-.903 0-1.047.012-1.238.012-.195.054-.298.21-.325l.149-.021.044-.04-.09-.049-.606.022-.61-.022-.095.049.046.04.178.026c.13.027.183.125.197.32.013.191.013.335.013 1.238v1.021c0 .549 0 .996-.032 1.243-.022.161-.049.283-.165.309l-.177.022-.042.042.088.054.598-.019c.036 0 .427.019.747.019l.095-.054" fill="#c8c7c7"/><path d="M45.154 112.434l-.029-.068c-.046 0-.217.057-.584.057h-2.188l-.454-.027-.273-.069-.054.107c-.015.049-.135.587-.135.645l.033.049.068-.054.1-.191c.097-.143.232-.175.591-.183l.837-.012v2.412c0 .549 0 .991-.027 1.235-.022.161-.054.291-.171.313l-.182.027-.048.042.093.054.608-.019c.032 0 .427.019.737.019l.098-.054-.049-.042-.256-.022c-.171-.027-.206-.149-.225-.317-.029-.244-.029-.686-.029-1.235v-2.412l.708.012c.551.008.674.129.698.313l.015.081.056.105.046-.078.015-.687" fill="#c8c7c7"/><path d="M50.262 112.461l-.083-.06-.542.029c-.034 0-.403-.029-.659-.029l-.088.06.046.044.21.017c.193.042.252.137.266.334.007.183.007.32.007 1.223v.706c0 .591-.063 1.075-.332 1.399-.205.252-.54.416-.894.416-.33 0-.567-.054-.855-.317-.25-.24-.413-.579-.413-1.414v-.789c0-.903 0-1.04.012-1.223.007-.204.056-.313.21-.334l.156-.017.049-.044-.081-.06-.635.029c-.051 0-.469-.029-.726-.029l-.082.06.049.044.21.017c.193.042.237.137.246.334.013.183.013.32.013 1.223v.843c0 .842.217 1.25.503 1.521.408.388 1.033.407 1.23.407.339 0 .787-.061 1.202-.427.464-.407.544-1.101.544-1.726v-.618c0-.903 0-1.04.005-1.223.015-.204.068-.3.225-.334l.156-.017.049-.044" fill="#c8c7c7"/><path d="M54.561 112.434l-.027-.068c-.046 0-.217.057-.584.057h-2.188l-.457-.027-.271-.069-.054.107c-.015.049-.137.587-.137.645l.034.049.066-.054.102-.191c.095-.143.232-.175.593-.183l.835-.012v2.412c0 .549 0 .991-.027 1.235-.022.161-.056.291-.169.313l-.185.027-.049.042.095.054.606-.019c.037 0 .427.019.74.019l.095-.054-.046-.042-.259-.022c-.169-.027-.203-.149-.222-.317-.029-.244-.029-.686-.029-1.235v-2.412l.708.012c.549.008.671.129.698.313l.015.081.054.105.046-.078.015-.687" fill="#c8c7c7"/><path d="M58.094 116.042l-.046-.088-.054.088c-.042.24-.11.354-.261.415-.146.06-.417.06-.569.06-.564 0-.645-.075-.659-.469v-1.46l.039-.042c.095 0 .676.007.83.027.225.022.278.129.298.21l.029.198.042.054.046-.108.029-.407.044-.354-.039-.048-.091.087c-.051.056-.134.076-.271.086-.134.012-.85.012-.923.012l-.034-.053v-1.531l.034-.061c.061 0 .693.008.788.02.313.035.366.105.405.198.034.068.034.183.034.225l.057.076.048-.064.032-.434.049-.271-.029-.048-.086.029-.251.025c-.13.01-1.311.01-1.353.01-.027 0-.422-.022-.681-.022l-.095.056.049.04.198.021c.188.04.23.13.245.325.012.184.012.335.012 1.238v1.014c0 .556 0 .998-.027 1.242-.019.169-.054.291-.169.317l-.171.022-.046.042.088.054.598-.019c.169 0 .598.031 1.472.031.225 0 .274-.012.313-.161.029-.124.076-.53.076-.579" fill="#c8c7c7"/><path d="M42.961 120.527c0 1.666-1.03 1.965-1.534 1.965-.993 0-1.767-.856-1.767-2.189 0-1.25.685-1.883 1.618-1.883.87 0 1.683.742 1.683 2.107zm.62-.171c0-1.345-.972-2.161-2.268-2.161-1.598 0-2.279 1.318-2.279 2.258 0 1.038.66 2.268 2.244 2.268 1.393 0 2.303-1.066 2.303-2.366" fill="#c8c7c7" fill-rule="evenodd"/><path d="M47.097 118.286l-.042-.049-.088.035-.259.021c-.128.005-1.338.005-1.453.005l-.666-.019-.095.056.048.035.198.027c.191.038.231.126.243.322.015.185.015.335.015 1.237v1.014c0 .557 0 .999-.027 1.242-.02.171-.055.293-.17.32l-.17.021-.047.04.089.054.576-.025c.027 0 .427.025.747.025l.088-.054-.039-.04-.266-.029c-.168-.027-.203-.148-.225-.32-.027-.244-.027-.678-.027-1.235v-.489l.043-.048c.094 0 .733-.008.875.015.183.019.272.129.299.207l.04.22.041.048.047-.109.027-.422.049-.344-.042-.051-.068.063c-.054.071-.129.103-.264.115l-.26.007-.745.008-.043-.054v-1.529l.054-.061.891.013c.232.005.347.11.388.178.046.085.061.173.061.223l.046.073.054-.073.027-.389.049-.283" fill="#c8c7c7"/><path d="M52.664 120.344l-.027.046h-1.299l-.022-.046.598-1.833c.037-.103.068-.103.103 0l.647 1.833zm2.073 2.244l-.071-.042c-.066 0-.169-.008-.271-.042-.142-.042-.339-.149-.584-.754-.415-1.033-1.482-3.838-1.582-4.097-.083-.212-.11-.244-.151-.244-.039 0-.066.042-.149.264l-1.543 4.221c-.122.34-.256.598-.569.638l-.198.015-.061.042c0 .038.039.051.129.051l.767-.017.53.017.102-.051-.068-.042h-.068c-.115 0-.259-.061-.259-.198 0-.123.037-.286.098-.455l.405-1.204.068-.056h1.462l.059.042.635 1.672c.039.107 0 .168-.044.183l-.044.046c0 .043.073.043.203.048.469.012.964.012 1.067.012.076 0 .137-.012.137-.051" fill="#c8c7c7" fill-rule="evenodd"/><path d="M57.559 119.616c0 .43-.156.728-.354.864-.13.088-.286.108-.422.108-.244 0-.513-.042-.596-.088l-.042-.068v-1.833l.046-.068c.056-.015.225-.035.396-.035.598 0 .972.422.972 1.121zm1.983 2.972l-.054-.049-.217-.015c-.149-.027-.408-.122-.706-.461-.33-.366-.674-.831-1.143-1.441.518-.475.666-.861.666-1.292 0-.4-.225-.685-.373-.786-.305-.22-.659-.266-1.028-.266l-.786.019-.708-.019-.081.061.049.039.195.022c.164.027.232.136.244.327.012.19.012.325.012 1.228v1.014c0 .557 0 .986-.024 1.228-.019.163-.056.288-.171.314l-.191.035-.042.042.076.059.613-.025c.032 0 .435.025.752.025l.076-.059-.042-.042-.264-.035c-.171-.027-.205-.151-.225-.314-.027-.242-.027-.671-.027-1.228v-.135l.042-.048.706.014.076.034c.115.149.386.535.63.848.332.437.532.72.784.85.149.08.29.115.615.115h.43c.102 0 .115-.025.115-.059" fill="#c8c7c7" fill-rule="evenodd"/><path d="M62.801 118.305l-.024-.068c-.051 0-.22.056-.584.056h-2.19l-.457-.029-.271-.068-.056.11c-.012.046-.132.584-.132.647l.032.046.066-.054.105-.193c.096-.142.23-.173.591-.183l.833-.012v2.412c0 .549 0 .991-.024 1.235-.022.166-.056.293-.171.313l-.181.03-.051.042.098.051.603-.017.74.017.095-.051-.046-.042-.259-.022c-.169-.027-.203-.148-.225-.32-.024-.244-.024-.686-.024-1.235v-2.412l.706.012c.552.01.671.13.698.313l.015.081.054.105.049-.076.012-.686" fill="#c8c7c7"/><path d="M65.884 121.518c0-.461-.146-.847-.828-1.384l-.164-.124c-.515-.405-.693-.66-.693-.942 0-.4.308-.655.674-.655.53 0 .659.213.706.286.054.09.076.22.083.293l.054.076c.027 0 .046-.042.046-.137 0-.393.027-.586.027-.612l-.051-.04-.205-.027c-.142-.034-.324-.063-.552-.063-.733 0-1.208.422-1.208 1.04 0 .396.122.79.735 1.293l.256.208c.496.408.681.647.681 1.006 0 .376-.298.75-.811.75-.386 0-.762-.166-.842-.564l-.019-.218-.046-.063-.056.088c-.007.097-.032.327-.032.612 0 .156.005.183.088.225.237.117.508.156.781.156.31 0 .63-.06.874-.237.403-.288.503-.728.503-.967" fill="#c8c7c7"/></g></svg>