<svg xmlns="http://www.w3.org/2000/svg" width="577.773" height="148.476"><g><path d="M569.971 135.895v-4.311h-5.173v4.311h5.173zm-24.858 0l1.351-4.053h8.421l1.381 4.053h6.495l-8.191-20.752h-7.014l-8.193 20.752h5.749zm-7.781 0v-4.311h-5.174v4.311h5.174zm-15.629 0v-7.416h3.794c5.088 0 8.421-1.638 8.421-6.668 0-5.029-3.334-6.668-8.421-6.668h-9.544v20.752h5.75zm-23.959 3.364h3.91l3.393-7.676h-5.405l-1.897 7.676zm-22.069-3.364h5.175v-15.895l7.099 15.895h7.963v-20.752h-5.174v15.405l-7.014-15.405h-8.049v20.752zm-13.246.432c6.87 0 10.751-3.967 10.751-10.808 0-6.841-3.881-10.808-10.751-10.808-6.869 0-10.749 3.967-10.749 10.808 0 6.841 3.88 10.808 10.749 10.808zm-24.826-8.364h2.155c2.931 0 3.046 1.034 3.277 3.535.144 1.465.315 2.96.632 4.397h6.237c-.49-1.667-.806-3.306-.95-5.029-.374-3.22-1.064-5.088-4.742-5.175 2.904-.46 5.289-2.098 5.289-5.203 0-4.398-4.541-5.345-8.049-5.345h-9.599v20.752h5.749v-7.932zm-21.466 7.932h5.749v-7.588l8.135-13.164h-5.921l-4.685 8.709-4.543-8.709h-6.668l7.933 13.164v7.588zm-16.09 0c.2 0 7.904.403 7.904-5.634 0-2.96-2.241-4.713-5.001-5.086 2.329-.49 4.485-2.041 4.485-4.6 0-3.65-3.277-5.404-7.188-5.432h-9.944v20.752h9.744zm-26.863 0h6.985l-4.225-4.455c1.754-1.265 2.933-4.944 3.134-6.985h-4.974c0 1.409-.748 2.645-1.494 3.767l-2.961-2.932c1.841-1.265 4.282-3.047 4.282-5.491 0-4.11-4.397-5.088-8.047-5.088-3.076 0-7.675 1.064-7.675 4.888 0 2.012 1.38 3.822 2.875 5.029-2.501.948-4.859 2.615-4.859 5.576 0 4.6 4.571 6.123 8.451 6.123 2.501 0 5.146-.432 7.301-1.782l1.206 1.35zm-105.121-30.134h-1.579c-.711 0-1.288.576-1.288 1.288v2.011c0 .711.576 1.287 1.288 1.287h1.579c.948 0 1.72-.768 1.72-1.716v-1.152c0-.947-.772-1.716-1.72-1.716zm0 8.984h-1.579c-.711 0-1.288.576-1.288 1.287v2.01c0 .712.576 1.288 1.288 1.288h1.579c.948 0 1.72-.769 1.72-1.716v-1.152c0-.949-.772-1.716-1.72-1.716zm0 8.982h-1.579c-.711 0-1.288.577-1.288 1.288v2.011c0 .711.576 1.288 1.288 1.288h1.579c.948 0 1.72-.767 1.72-1.717v-1.151c0-.948-.772-1.717-1.72-1.717zm0 8.984h-1.579c-.711 0-1.288.576-1.288 1.287v2.012c0 .71.576 1.287 1.288 1.287h1.579c.948 0 1.72-.769 1.72-1.716v-1.152c0-.947-.772-1.716-1.72-1.716zm0 8.983h-1.579c-.711 0-1.288.576-1.288 1.288v2.009c0 .711.576 1.289 1.288 1.289h1.579c.948 0 1.72-.769 1.72-1.718v-1.152c0-.948-.772-1.716-1.72-1.716zm4.394-31.417s-1.001-.012-1.035 0c-.939-.017-1.699.762-1.699 1.699v1.143c0 .938.76 1.699 1.699 1.699h1.035c.998 0 1.806-.808 1.806-1.807v-.928c0-.999-.809-1.807-1.806-1.807zm0 8.982s-1.001-.012-1.035 0c-.939-.02-1.699.759-1.699 1.699v1.14c0 .94.76 1.7 1.699 1.7h1.035c.998 0 1.806-.809 1.806-1.805v-.929c0-.997-.809-1.805-1.806-1.805zm0 8.988s-1.001-.012-1.035 0c-.939-.018-1.699.761-1.699 1.699v1.141c0 .939.76 1.699 1.699 1.699h1.035c.998 0 1.806-.808 1.806-1.806v-.929c0-.998-.809-1.806-1.806-1.806zm0 8.981s-1.001-.012-1.035 0c-.939-.019-1.699.76-1.699 1.699v1.141c0 .939.76 1.701 1.699 1.701h1.035c.998 0 1.806-.81 1.806-1.807v-.928c0-.999-.809-1.807-1.806-1.807zm3.739 4.534c-1.064 0-1.926.862-1.926 1.926v.598c0 1.064.863 1.926 1.926 1.926h.599c1.064 0 1.926-.862 1.926-1.926v-.598c0-1.064-.863-1.926-1.926-1.926h-.599zm0-8.984c-1.064 0-1.926.863-1.926 1.927v.598c0 1.063.863 1.928 1.926 1.928h.599c1.064 0 1.926-.864 1.926-1.928v-.598c0-1.065-.863-1.927-1.926-1.927h-.599zm0-8.982c-1.064 0-1.926.862-1.926 1.926v.598c0 1.065.863 1.926 1.926 1.926h.599c1.064 0 1.926-.862 1.926-1.926v-.598c0-1.065-.863-1.926-1.926-1.926h-.599zm0-8.984c-1.064 0-1.926.863-1.926 1.926v.598c0 1.065.863 1.927 1.926 1.927h.599c1.064 0 1.926-.863 1.926-1.927v-.598c0-1.063-.863-1.926-1.926-1.926h-.599zm0-8.983c-1.064 0-1.926.863-1.926 1.928v.597c0 1.064.863 1.928 1.926 1.928h.599c1.064 0 1.926-.863 1.926-1.928v-.597c0-1.064-.863-1.928-1.926-1.928h-.599zm4.599 31.486c-1.094 0-1.979.886-1.979 1.979v.407c0 1.094.885 1.979 1.979 1.979h.406c1.094 0 1.979-.885 1.979-1.979v-.407c0-1.092-.885-1.979-1.979-1.979h-.406zm0-8.981c-1.094 0-1.979.885-1.979 1.979v.406c0 1.093.885 1.979 1.979 1.979h.406c1.094 0 1.979-.886 1.979-1.979v-.406c0-1.094-.885-1.979-1.979-1.979h-.406zm0-8.988c-1.094 0-1.979.885-1.979 1.978v.408c0 1.092.885 1.978 1.979 1.978h.406c1.094 0 1.979-.885 1.979-1.978v-.408c0-1.093-.885-1.978-1.979-1.978h-.406zm0-8.982c-1.094 0-1.979.886-1.979 1.98v.405c0 1.094.885 1.98 1.979 1.98h.406c1.094 0 1.979-.886 1.979-1.98v-.405c0-1.094-.885-1.98-1.979-1.98h-.406zm4.545-4.448c-1.093 0-1.979.886-1.979 1.978v.321c0 1.092.886 1.978 1.979 1.978h.321c1.093 0 1.979-.886 1.979-1.978v-.321c0-1.092-.886-1.978-1.979-1.978h-.321zm0 8.983c-1.093 0-1.979.886-1.979 1.979v.321c0 1.093.886 1.979 1.979 1.979h.321c1.093 0 1.979-.886 1.979-1.979v-.321c0-1.093-.886-1.979-1.979-1.979h-.321zm0 8.983c-1.093 0-1.979.886-1.979 1.98v.32c0 1.094.886 1.98 1.979 1.98h.321c1.093 0 1.979-.886 1.979-1.98v-.32c0-1.094-.886-1.98-1.979-1.98h-.321zm0 8.984c-1.093 0-1.979.885-1.979 1.978v.322c0 1.092.886 1.977 1.979 1.977h.321c1.093 0 1.979-.885 1.979-1.977v-.322c0-1.093-.886-1.978-1.979-1.978h-.321zm0 8.982c-1.093 0-1.979.886-1.979 1.98v.32c0 1.094.886 1.98 1.979 1.98h.321c1.093 0 1.979-.886 1.979-1.98v-.32c0-1.094-.886-1.98-1.979-1.98h-.321zm4.565-31.379c-1.094 0-1.979.886-1.979 1.98 0 1.289.885 2.175 1.979 2.175 1.289 0 2.175-.886 2.175-1.98 0-1.289-.886-2.175-1.98-2.175h-.195zm0 8.982c-1.094 0-1.979.886-1.979 1.978 0 1.289.885 2.175 1.979 2.175 1.289 0 2.175-.886 2.175-1.978 0-1.289-.886-2.175-1.98-2.175h-.195zm0 8.988c-1.094 0-1.979.886-1.979 1.979 0 1.289.885 2.175 1.979 2.175 1.289 0 2.175-.886 2.175-1.979 0-1.289-.886-2.175-1.98-2.175h-.195zm0 8.981c-1.094 0-1.979.886-1.979 1.979 0 1.289.885 2.175 1.979 2.175 1.289 0 2.175-.886 2.175-1.979 0-1.289-.886-2.175-1.98-2.175h-.195zm4.563 4.552c-1.093 0-1.979.886-1.979 1.979 0 1.169.886 2.054 1.979 2.054 1.169 0 2.055-.885 2.055-1.979 0-1.168-.886-2.055-1.98-2.055h-.075zm0-8.983c-1.093 0-1.979.886-1.979 1.978 0 1.168.886 2.055 1.979 2.055 1.169 0 2.055-.886 2.055-1.979 0-1.168-.886-2.054-1.98-2.054h-.075zm0-8.984c-1.093 0-1.979.886-1.979 1.98 0 1.168.886 2.054 1.979 2.054 1.169 0 2.055-.886 2.055-1.978 0-1.169-.886-2.056-1.98-2.056h-.075zm0-8.982c-1.093 0-1.979.886-1.979 1.978 0 1.169.886 2.056 1.979 2.056 1.169 0 2.055-.886 2.055-1.98 0-1.167-.886-2.053-1.98-2.053h-.075zm0-8.984c-1.093 0-1.979.886-1.979 1.98 0 1.167.886 2.053 1.979 2.053 1.169 0 2.055-.886 2.055-1.979 0-1.168-.886-2.054-1.98-2.054h-.075zm4.54 31.502c-1.081 0-1.959.876-1.959 1.958 0 1.082.877 1.958 1.959 1.958 1.081 0 1.959-.876 1.959-1.958 0-1.082-.877-1.958-1.959-1.958zm0-8.982c-1.081 0-1.959.876-1.959 1.958 0 1.081.877 1.958 1.959 1.958 1.081 0 1.959-.876 1.959-1.958 0-1.082-.877-1.958-1.959-1.958zm0-8.988c-1.081 0-1.959.876-1.959 1.958 0 1.082.877 1.958 1.959 1.958 1.081 0 1.959-.876 1.959-1.958 0-1.081-.877-1.958-1.959-1.958zm0-8.98c-1.081 0-1.959.876-1.959 1.958 0 1.081.877 1.958 1.959 1.958 1.081 0 1.959-.876 1.959-1.958 0-1.082-.877-1.958-1.959-1.958zm4.503 31.499c-1.05 0-1.9.851-1.9 1.9 0 1.05.85 1.901 1.9 1.901 1.05 0 1.901-.851 1.901-1.901s-.851-1.9-1.901-1.9zm0-8.983c-1.05 0-1.9.851-1.9 1.901s.85 1.9 1.9 1.9c1.05 0 1.901-.851 1.901-1.9 0-1.05-.851-1.901-1.901-1.901zm0-8.983c-1.05 0-1.9.851-1.9 1.899 0 1.051.85 1.902 1.9 1.902 1.05 0 1.901-.851 1.901-1.902 0-1.049-.851-1.899-1.901-1.899zm0-8.984c-1.05 0-1.9.852-1.9 1.902 0 1.05.85 1.9 1.9 1.9 1.05 0 1.901-.851 1.901-1.9 0-1.05-.851-1.902-1.901-1.902zm0-8.983c-1.05 0-1.9.851-1.9 1.901s.85 1.902 1.9 1.902c1.05 0 1.901-.852 1.901-1.902 0-1.05-.851-1.901-1.901-1.901zm2.669 33.344c0 1.013.821 1.833 1.834 1.833 1.014 0 1.835-.82 1.835-1.833s-.821-1.836-1.835-1.836c-1.012 0-1.834.823-1.834 1.836zm0-8.982c0 1.013.821 1.836 1.834 1.836 1.014 0 1.835-.823 1.835-1.836 0-1.013-.821-1.833-1.835-1.833-1.012 0-1.834.82-1.834 1.833zm0-8.988c0 1.013.821 1.835 1.834 1.835 1.014 0 1.835-.822 1.835-1.835s-.821-1.834-1.835-1.834c-1.012 0-1.834.821-1.834 1.834zm0-8.98c0 1.013.821 1.834 1.834 1.834 1.014 0 1.835-.821 1.835-1.834 0-1.013-.821-1.835-1.835-1.835-1.012 0-1.834.822-1.834 1.835zm4.589-4.492c0 .965.781 1.748 1.749 1.748.964 0 1.746-.783 1.746-1.748 0-.964-.782-1.748-1.746-1.748-.968 0-1.749.784-1.749 1.748zm0 8.984c0 .964.781 1.747 1.749 1.747.964 0 1.746-.782 1.746-1.747 0-.966-.782-1.748-1.746-1.748-.968 0-1.749.782-1.749 1.748zm0 8.982c0 .967.781 1.748 1.749 1.748.964 0 1.746-.781 1.746-1.748 0-.964-.782-1.747-1.746-1.747-.968 0-1.749.783-1.749 1.747zm0 8.984c0 .964.781 1.748 1.749 1.748.964 0 1.746-.784 1.746-1.748s-.782-1.748-1.746-1.748c-.968 0-1.749.784-1.749 1.748zm0 8.983c0 .966.781 1.748 1.749 1.748.964 0 1.746-.782 1.746-1.748 0-.965-.782-1.747-1.746-1.747-.968 0-1.749.781-1.749 1.747zm4.668-31.441c0 .874.709 1.581 1.583 1.581s1.581-.707 1.581-1.581-.708-1.581-1.581-1.581c-.874 0-1.583.707-1.583 1.581zm0 8.98c0 .873.709 1.581 1.583 1.581s1.581-.708 1.581-1.581-.708-1.581-1.581-1.581c-.874 0-1.583.708-1.583 1.581zm0 8.988c0 .874.709 1.582 1.583 1.582s1.581-.708 1.581-1.582c0-.873-.708-1.58-1.581-1.58-.874 0-1.583.707-1.583 1.58zm0 8.982c0 .873.709 1.58 1.583 1.58s1.581-.707 1.581-1.58c0-.874-.708-1.582-1.581-1.582-.874 0-1.583.708-1.583 1.582zm4.579-31.443c0 .833.675 1.506 1.506 1.506.833 0 1.506-.674 1.506-1.506s-.674-1.505-1.506-1.505c-.831 0-1.506.674-1.506 1.505zm0 8.984c0 .831.675 1.505 1.506 1.505.833 0 1.506-.674 1.506-1.505 0-.833-.674-1.506-1.506-1.506-.831 0-1.506.674-1.506 1.506zm0 8.982c0 .833.675 1.506 1.506 1.506.833 0 1.506-.674 1.506-1.506 0-.83-.674-1.505-1.506-1.505-.831 0-1.506.675-1.506 1.505zm0 8.984c0 .831.675 1.506 1.506 1.506.833 0 1.506-.675 1.506-1.506 0-.833-.674-1.506-1.506-1.506-.831 0-1.506.674-1.506 1.506zm0 8.983c0 .832.675 1.505 1.506 1.505.833 0 1.506-.674 1.506-1.505 0-.831-.674-1.505-1.506-1.505-.831 0-1.506.674-1.506 1.505zm4.619-4.491c0 .767.623 1.39 1.39 1.39.769 0 1.391-.624 1.391-1.39 0-.769-.623-1.392-1.391-1.392-.767 0-1.39.623-1.39 1.392zm0-8.982c0 .769.623 1.391 1.39 1.391.769 0 1.391-.623 1.391-1.391 0-.767-.623-1.389-1.391-1.389-.767 0-1.39.623-1.39 1.389zm0-8.988c0 .768.623 1.391 1.39 1.391.769 0 1.391-.623 1.391-1.391 0-.767-.623-1.39-1.391-1.39-.767 0-1.39.623-1.39 1.39zm0-8.98c0 .767.623 1.39 1.39 1.39.769 0 1.391-.623 1.391-1.39 0-.768-.623-1.391-1.391-1.391-.767 0-1.39.623-1.39 1.391zm4.612-4.492c0 .708.574 1.28 1.28 1.28.706 0 1.28-.572 1.28-1.28 0-.707-.574-1.279-1.28-1.279-.706 0-1.28.572-1.28 1.279zm0 8.984c0 .706.574 1.279 1.28 1.279.706 0 1.28-.574 1.28-1.279 0-.708-.574-1.281-1.28-1.281-.706 0-1.28.573-1.28 1.281zm0 8.982c0 .708.574 1.28 1.28 1.28.706 0 1.28-.572 1.28-1.28 0-.706-.574-1.279-1.28-1.279-.706 0-1.28.574-1.28 1.279zm0 8.984c0 .707.574 1.279 1.28 1.279.706 0 1.28-.573 1.28-1.279 0-.707-.574-1.279-1.28-1.279-.706 0-1.28.572-1.28 1.279zm0 8.983c0 .707.574 1.281 1.28 1.281.706 0 1.28-.574 1.28-1.281s-.574-1.28-1.28-1.28c-.706 0-1.28.574-1.28 1.28zm4.684-13.473c0 .608.491 1.099 1.1 1.099.605 0 1.099-.492 1.099-1.099s-.494-1.099-1.099-1.099c-.609 0-1.1.492-1.1 1.099zm0-8.988c0 .607.491 1.1 1.1 1.1.605 0 1.099-.493 1.099-1.1 0-.606-.494-1.1-1.099-1.1-.609 0-1.1.493-1.1 1.1zm0-8.98c0 .608.491 1.099 1.1 1.099.605 0 1.099-.491 1.099-1.099s-.494-1.099-1.099-1.099c-.609 0-1.1.491-1.1 1.099zm0 26.951c0 .606.491 1.099 1.1 1.099.605 0 1.099-.492 1.099-1.099 0-.608-.494-1.1-1.099-1.1-.609 0-1.1.492-1.1 1.1zm4.659-31.443c0 .52.422.942.943.942.52 0 .943-.422.943-.942s-.422-.942-.943-.942c-.52 0-.943.422-.943.942zm0 8.984c0 .52.422.941.943.941.52 0 .943-.421.943-.941s-.422-.942-.943-.942c-.52 0-.943.422-.943.942zm0 17.966c0 .52.422.942.943.942.52 0 .943-.422.943-.942s-.422-.943-.943-.943c-.52 0-.943.422-.943.943zm0-8.984c0 .521.422.942.943.942.52 0 .943-.421.943-.942 0-.52-.422-.942-.943-.942-.52 0-.943.421-.943.942zm0 17.967c0 .521.422.942.943.942.52 0 .943-.421.943-.942 0-.52-.422-.941-.943-.941-.52 0-.943.421-.943.941zm4.675-13.473c0 .425.345.77.77.77.424 0 .769-.345.769-.77 0-.425-.345-.769-.769-.769-.425 0-.77.344-.77.769zm0-8.988c0 .425.345.77.77.77.424 0 .769-.346.769-.77 0-.425-.345-.77-.769-.77-.425 0-.77.345-.77.77zm0-8.98c0 .425.345.769.77.769.424 0 .769-.344.769-.769 0-.425-.345-.769-.769-.769-.425 0-.77.344-.77.769zm0 26.951c0 .425.345.769.77.769.424 0 .769-.344.769-.769 0-.425-.345-.771-.769-.771-.425 0-.77.346-.77.771zm4.809-4.492c0 .256.207.464.463.464s.464-.207.464-.464c0-.256-.207-.464-.464-.464-.255 0-.463.207-.463.464zm0-8.984c0 .256.207.464.463.464s.464-.207.464-.464c0-.255-.207-.462-.464-.462-.255 0-.463.206-.463.462zm0-8.982c0 .255.207.462.463.462s.464-.207.464-.462c0-.256-.207-.464-.464-.464-.255 0-.463.207-.463.464zm0-8.984c0 .256.207.464.463.464s.464-.207.464-.464c0-.255-.207-.462-.464-.462-.255 0-.463.207-.463.462zm0 35.934c0 .255.207.463.463.463s.464-.208.464-.463-.207-.462-.464-.462c-.255 0-.463.208-.463.462zm-87.311-6.41v3.86l.307.308h3.116c.575 0 1.041-.466 1.041-1.042v-2.369c0-.574-.466-1.04-1.041-1.04h-3.139l-.285.283zm0-9.011v3.86l.32.32h3.104c.575 0 1.041-.466 1.041-1.042v-2.369c0-.574-.466-1.04-1.041-1.04h-3.151l-.273.271zm0-9.011v3.86l.333.332h3.091c.575 0 1.041-.466 1.041-1.042v-2.369c0-.574-.466-1.04-1.041-1.04h-3.164l-.26.259zm0-9.011v3.86l.345.344h3.079c.575 0 1.041-.466 1.041-1.042v-2.369c0-.574-.466-1.04-1.041-1.04h-3.176l-.247.247zm0-7.067v1.914l.356.358h3.067c.575 0 1.041-.466 1.041-1.042v-1.23h4.499v.674c0 .939.76 1.701 1.699 1.701h1.035c.998 0 1.806-.81 1.806-1.807v-.568h4.553v.304c0 1.092.885 1.979 1.979 1.979h.406c1.094 0 1.979-.886 1.979-1.979v-.304l4.746.002c0 1.289.885 2.175 1.979 2.175 1.289 0 2.175-.886 2.175-1.978l4.973-.197c-.004 1.179.874 2.057 1.955 2.057s1.959-.878 1.959-1.958l5.214-.1c-.001 1.113.82 1.933 1.833 1.933 1.014 0 1.835-.82 1.835-1.833l5.593-.1c-.005.973.704 1.68 1.577 1.68.874 0 1.581-.707 1.581-1.58l6.036-.1c-.003.867.62 1.489 1.387 1.489.769 0 1.391-.623 1.391-1.389l6.519-.1c-.004.707.487 1.199 1.096 1.199.605 0 1.099-.492 1.099-1.099l7.141-.1c-.006.525.339.869.764.869.424 0 .769-.344.769-.769l232.944-.102v44.998h-232.944c0-.436-.345-.78-.769-.78-.425 0-.77.344-.77.769l-7.135.011c0-.619-.494-1.109-1.099-1.109-.609 0-1.1.491-1.1 1.099l-6.515.011c0-.779-.623-1.401-1.391-1.401-.767 0-1.39.623-1.39 1.391l-6.034.011c0-.883-.708-1.592-1.581-1.592-.874 0-1.583.708-1.583 1.581l-5.588.011c0-1.024-.821-1.846-1.835-1.846-1.012 0-1.834.822-1.834 1.835l-5.213.011c0-1.092-.877-1.969-1.959-1.969-1.081 0-1.959.876-1.959 1.958l-4.969.011c0-1.202-.886-2.088-1.98-2.088-1.289 0-2.174.886-2.174 1.98l-4.746.108v-.213c0-1.094-.885-1.98-1.979-1.98h-.406c-1.094 0-1.979.886-1.979 1.98v.213h-4.553v-.472c0-.999-.809-1.807-1.806-1.807 0 0-1.001-.012-1.035 0-.939-.017-1.699.762-1.699 1.7v.579h-4.499v-1.141c0-.574-.466-1.04-1.041-1.04h-3.127l-.296.296v1.885h-4.452v-1.183c0-.576.468-1.042 1.042-1.042h3.246l.177-4.294-.226-.227h-3.197c-.575 0-1.042-.466-1.042-1.042v-2.369c0-.574.468-1.04 1.042-1.04h3.208l.216-.216v-4.117l-3.424-.202c-.575 0-1.042-.466-1.042-1.041v-2.368c0-.576.468-1.042 1.042-1.042h3.183l.241-.242v-4.118l-3.424-.179c-.575 0-1.042-.466-1.042-1.042v-2.368c0-.576.468-1.042 1.042-1.042h3.163l.261-.261v-4.118l-3.424-.155c-.575 0-1.042-.466-1.042-1.042v-2.369c0-.575.468-1.042 1.042-1.042h3.136l.287-.287v-4.118l-3.424-.117c-.575 0-1.042-.466-1.042-1.041v-1.273h4.452zm287.171 24.342l2.817-8.623 2.729 8.623h-5.546zm-26.227-3.364v-5.288h2.959c2.271.086 3.22 1.121 3.22 2.644 0 1.523-.949 2.558-3.22 2.644h-2.959zm-54.559 1.15c0 3.076-.805 6.698-4.715 6.698-3.908 0-4.713-3.622-4.713-6.698 0-3.247.805-6.869 4.713-6.869 3.91 0 4.715 3.622 4.715 6.869zm-29.541-1.667v-4.771h2.241c1.84 0 3.621.259 3.621 2.385 0 2.127-1.781 2.386-3.621 2.386h-2.241zm-41.551-4.771h3.132c1.351 0 2.357.834 2.357 2.012 0 1.582-1.006 2.185-2.56 2.185l-2.93.029v-4.226zm0 12.705v-4.485h3.766c1.292.086 2.096 1.179 2.096 2.329 0 1.294-1.063 2.156-2.5 2.156h-3.362zm-27.379-.373c-.748.747-2.186 1.091-3.22 1.091-1.236 0-3.19-.718-3.19-2.012 0-1.724 1.177-2.156 2.556-2.873l3.854 3.794zm-2.789-9.255c-.487-.518-1.926-1.782-1.926-2.588 0-1.35 1.093-1.782 1.926-1.782 1.208 0 2.3.432 2.3 1.782 0 .978-1.468 2.07-2.3 2.588zm-211.195 21.744c0-.187.151-.338.339-.338.186 0 .338.151.338.338 0 .187-.151.338-.338.338-.188 0-.339-.151-.339-.338zm0-8.983c0-.187.151-.339.339-.339.186 0 .338.152.338.339 0 .186-.151.338-.338.338-.188 0-.339-.151-.339-.338zm0-8.984c0-.186.151-.337.339-.337.186 0 .338.151.338.337 0 .188-.151.339-.338.339-.188 0-.339-.151-.339-.339zm0-8.982c0-.188.151-.339.339-.339.186 0 .338.151.338.339 0 .185-.151.338-.338.338-.188 0-.339-.152-.339-.338zm0-8.984c0-.187.151-.338.339-.338.186 0 .338.151.338.338 0 .188-.151.339-.338.339-.188 0-.339-.151-.339-.339zm4.296-4.487l1.076-.089c.007.388-.234.631-.534.631-.3 0-.542-.243-.542-.542zm0 8.972c0-.298.242-.541.542-.541.3 0 .541.243.541.541 0 .3-.241.542-.541.542-.3 0-.542-.242-.542-.542zm0 8.987c0-.299.242-.542.542-.542.3 0 .541.243.541.542 0 .299-.241.542-.541.542-.3 0-.542-.243-.542-.542zm0 8.992c0-.3.242-.542.542-.542.3 0 .541.242.541.542 0 .298-.241.54-.541.54-.3 0-.542-.243-.542-.54zm0 8.985c0-.299.242-.542.542-.542.3 0 .541.243.541.542 0 .299-.241.541-.541.541-.3 0-.542-.242-.542-.541zm0 8.974c0-.3.242-.542.542-.542.3 0 .541.242.541.542h-1.084zm4.284-4.489c0-.418.34-.758.759-.758s.759.339.759.758-.34.758-.759.758-.759-.339-.759-.758zm0-8.983c0-.419.34-.758.759-.758s.759.339.759.758c0 .418-.34.758-.759.758s-.759-.339-.759-.758zm0-8.984c0-.417.34-.757.759-.757s.759.339.759.757c0 .42-.34.759-.759.759s-.759-.339-.759-.759zm0-8.982c0-.42.34-.759.759-.759s.759.339.759.759c0 .417-.34.757-.759.757s-.759-.339-.759-.757zm0-8.984c0-.419.34-.758.759-.758s.759.339.759.758c0 .42-.34.759-.759.759s-.759-.339-.759-.759zm4.349-4.487l1.815-.089c.005.592-.403.999-.905.999s-.91-.406-.91-.909zm0 8.972c0-.502.407-.91.91-.91.502 0 .91.408.91.91 0 .503-.407.911-.91.911-.502 0-.91-.408-.91-.911zm0 8.987c0-.503.407-.911.91-.911.502 0 .91.408.91.911 0 .503-.407.911-.91.911-.502 0-.91-.408-.91-.911zm0 8.992c0-.503.407-.911.91-.911.502 0 .91.408.91.911 0 .501-.407.909-.91.909-.502 0-.91-.408-.91-.909zm0 8.985c0-.503.407-.909.91-.909.502 0 .91.406.91.909 0 .502-.407.91-.91.91-.502 0-.91-.408-.91-.91zm0 8.974c0-.503.407-.911.91-.911.502 0 .91.408.91.911h-1.82zm4.391-40.422c0-.561.456-1.018 1.019-1.018s1.02.457 1.02 1.018c0 .564-.458 1.019-1.02 1.019-.563 0-1.019-.455-1.019-1.019zm0 8.984c0-.564.456-1.02 1.019-1.02s1.02.457 1.02 1.02c0 .561-.458 1.018-1.02 1.018-.563 0-1.019-.457-1.019-1.018zm0 8.982c0-.562.456-1.018 1.019-1.018s1.02.457 1.02 1.018c0 .564-.458 1.02-1.02 1.02-.563 0-1.019-.457-1.019-1.02zm0 8.984c0-.563.456-1.02 1.019-1.02s1.02.457 1.02 1.02-.458 1.019-1.02 1.019c-.563 0-1.019-.456-1.019-1.019zm0 8.983c0-.563.456-1.019 1.019-1.019s1.02.457 1.02 1.019c0 .563-.458 1.02-1.02 1.02-.563 0-1.019-.457-1.019-1.02zm4.377 4.489c0-.63.512-1.143 1.141-1.143.631 0 1.141.513 1.141 1.143h-2.283zm0-8.974c0-.631.512-1.141 1.141-1.141.631 0 1.141.51 1.141 1.141s-.51 1.142-1.141 1.142c-.629 0-1.141-.51-1.141-1.142zm0-8.985c0-.631.512-1.143 1.141-1.143.631 0 1.141.511 1.141 1.143 0 .63-.51 1.14-1.141 1.14-.629 0-1.141-.51-1.141-1.14zm0-8.992c0-.63.512-1.142 1.141-1.142.631 0 1.141.512 1.141 1.142 0 .63-.51 1.141-1.141 1.141-.629 0-1.141-.511-1.141-1.141zm0-8.987c0-.63.512-1.14 1.141-1.14.631 0 1.141.51 1.141 1.14 0 .631-.51 1.143-1.141 1.143-.629 0-1.141-.512-1.141-1.143zm0-8.972l2.28-.089c.003.719-.507 1.23-1.139 1.23-.629 0-1.141-.511-1.141-1.141zm4.388 40.421c0-.693.561-1.256 1.255-1.256.694 0 1.256.563 1.256 1.256 0 .693-.563 1.256-1.256 1.256-.694 0-1.255-.563-1.255-1.256zm0-8.983c0-.693.561-1.255 1.255-1.255.694 0 1.256.562 1.256 1.255 0 .693-.563 1.255-1.256 1.255-.694 0-1.255-.562-1.255-1.255zm0-8.984c0-.693.561-1.255 1.255-1.255.694 0 1.256.562 1.256 1.255 0 .694-.563 1.256-1.256 1.256-.694 0-1.255-.561-1.255-1.256zm0-8.982c0-.693.561-1.256 1.255-1.256.694 0 1.256.563 1.256 1.256 0 .693-.563 1.255-1.256 1.255-.694 0-1.255-.561-1.255-1.255zm0-8.984c0-.693.561-1.255 1.255-1.255.694 0 1.256.561 1.256 1.255 0 .693-.563 1.256-1.256 1.256-.694 0-1.255-.563-1.255-1.256zm4.424-4.487l2.659-.089c.004.824-.593 1.42-1.327 1.42-.735 0-1.331-.596-1.331-1.331zm0 8.972c0-.735.596-1.331 1.331-1.331s1.331.596 1.331 1.331-.596 1.331-1.331 1.331-1.331-.597-1.331-1.331zm0 8.987c0-.735.596-1.331 1.331-1.331s1.331.596 1.331 1.331-.596 1.331-1.331 1.331-1.331-.596-1.331-1.331zm0 8.992c0-.735.596-1.331 1.331-1.331s1.331.596 1.331 1.331-.596 1.331-1.331 1.331-1.331-.596-1.331-1.331zm0 8.985c0-.735.596-1.332 1.331-1.332s1.331.597 1.331 1.332c0 .735-.596 1.331-1.331 1.331s-1.331-.596-1.331-1.331zm0 8.974c0-.735.596-1.331 1.331-1.331s1.331.596 1.331 1.331h-2.663zm4.421-40.422c0-.779.631-1.411 1.41-1.411.779 0 1.411.632 1.411 1.411s-.632 1.411-1.411 1.411-1.41-.632-1.41-1.411zm0 8.984c0-.779.631-1.411 1.41-1.411.779 0 1.411.632 1.411 1.411s-.632 1.41-1.411 1.41-1.41-.631-1.41-1.41zm0 8.982c0-.779.631-1.41 1.41-1.41.779 0 1.411.631 1.411 1.41 0 .78-.632 1.411-1.411 1.411s-1.41-.631-1.41-1.411zm0 8.984c0-.779.631-1.411 1.41-1.411.779 0 1.411.632 1.411 1.411s-.632 1.411-1.411 1.411-1.41-.632-1.41-1.411zm0 8.983c0-.779.631-1.41 1.41-1.41.779 0 1.411.631 1.411 1.41 0 .78-.632 1.411-1.411 1.411s-1.41-.631-1.41-1.411zm4.415-40.421l2.989-.089c.003.914-.667 1.585-1.494 1.585-.825 0-1.495-.67-1.495-1.495zm0 8.972c0-.825.67-1.494 1.495-1.494.826 0 1.496.669 1.496 1.494 0 .826-.67 1.497-1.496 1.497-.825 0-1.495-.67-1.495-1.497zm0 8.987c0-.825.67-1.496 1.495-1.496.826 0 1.496.67 1.496 1.496 0 .825-.67 1.495-1.496 1.495-.825 0-1.495-.67-1.495-1.495zm0 8.992c0-.827.67-1.497 1.495-1.497.826 0 1.496.67 1.496 1.497 0 .825-.67 1.494-1.496 1.494-.825 0-1.495-.669-1.495-1.494zm0 8.985c0-.826.67-1.495 1.495-1.495.826 0 1.496.669 1.496 1.495 0 .827-.67 1.496-1.496 1.496-.825 0-1.495-.669-1.495-1.496zm0 8.974c0-.827.67-1.497 1.495-1.497.826 0 1.496.67 1.496 1.497h-2.991zm4.41-4.489c0-.875.71-1.584 1.586-1.584.875 0 1.585.709 1.585 1.584 0 .875-.71 1.586-1.585 1.586-.876 0-1.586-.71-1.586-1.586zm0-8.983c0-.875.71-1.585 1.586-1.585.875 0 1.585.709 1.585 1.585 0 .875-.71 1.584-1.585 1.584-.876 0-1.586-.709-1.586-1.584zm0-8.984c0-.874.71-1.585 1.586-1.585.875 0 1.585.71 1.585 1.585 0 .876-.71 1.585-1.585 1.585-.876 0-1.586-.709-1.586-1.585zm0-8.982c0-.876.71-1.586 1.586-1.586.875 0 1.585.709 1.585 1.586 0 .874-.71 1.585-1.585 1.585-.876 0-1.586-.711-1.586-1.585zm0-8.984c0-.875.71-1.585 1.586-1.585.875 0 1.585.709 1.585 1.585s-.71 1.585-1.585 1.585c-.876 0-1.586-.709-1.586-1.585zm4.421 40.422c0-.92.745-1.665 1.665-1.665.919 0 1.664.745 1.664 1.665h-3.329zm0-8.974c0-.919.745-1.664 1.665-1.664.919 0 1.664.745 1.664 1.664 0 .919-.745 1.664-1.664 1.664-.92 0-1.665-.745-1.665-1.664zm0-8.985c0-.92.745-1.665 1.665-1.665.919 0 1.664.745 1.664 1.665 0 .918-.745 1.664-1.664 1.664-.92 0-1.665-.746-1.665-1.664zm0-8.992c0-.919.745-1.665 1.665-1.665.919 0 1.664.746 1.664 1.665s-.745 1.665-1.664 1.665c-.92 0-1.665-.746-1.665-1.665zm0-8.987c0-.918.745-1.664 1.665-1.664.919 0 1.664.746 1.664 1.664 0 .92-.745 1.665-1.664 1.665-.92 0-1.665-.745-1.665-1.665zm0-8.972l3.326-.089c.003 1.008-.743 1.753-1.661 1.753-.92 0-1.665-.745-1.665-1.663zm4.418 40.421c0-.965.782-1.747 1.748-1.747.965 0 1.748.781 1.748 1.747 0 .966-.782 1.748-1.748 1.748-.965 0-1.748-.782-1.748-1.748zm0-8.983c0-.964.782-1.748 1.748-1.748.965 0 1.748.784 1.748 1.748s-.782 1.748-1.748 1.748c-.965 0-1.748-.784-1.748-1.748zm0-8.984c0-.964.782-1.747 1.748-1.747.965 0 1.748.783 1.748 1.747 0 .967-.782 1.748-1.748 1.748-.965 0-1.748-.781-1.748-1.748zm0-8.982c0-.966.782-1.748 1.748-1.748.965 0 1.748.782 1.748 1.748 0 .964-.782 1.747-1.748 1.747-.965 0-1.748-.782-1.748-1.747zm0-8.984c0-.964.782-1.748 1.748-1.748.965 0 1.748.784 1.748 1.748 0 .965-.782 1.748-1.748 1.748-.965 0-1.748-.783-1.748-1.748zm4.412-4.487l3.667-.089c.003 1.103-.819 1.924-1.833 1.924s-1.835-.821-1.835-1.834zm0 8.972c0-1.013.821-1.833 1.835-1.833s1.835.82 1.835 1.833c0 1.014-.821 1.836-1.835 1.836s-1.835-.822-1.835-1.836zm0 8.987c0-1.013.821-1.835 1.835-1.835s1.835.822 1.835 1.835-.821 1.834-1.835 1.834-1.835-.821-1.835-1.834zm0 8.992c0-1.013.821-1.836 1.835-1.836s1.835.823 1.835 1.836c0 1.013-.821 1.833-1.835 1.833s-1.835-.82-1.835-1.833zm0 8.985c0-1.014.821-1.834 1.835-1.834s1.835.82 1.835 1.834c0 1.013-.821 1.835-1.835 1.835s-1.835-.822-1.835-1.835zm0 8.974c0-1.013.821-1.836 1.835-1.836s1.835.823 1.835 1.836h-3.67zm6.335-42.323c1.05 0 1.901.851 1.901 1.901s-.851 1.902-1.901 1.902c-1.049 0-1.9-.852-1.9-1.902 0-1.05.851-1.901 1.9-1.901zm0 8.983c1.05 0 1.901.852 1.901 1.902 0 1.05-.851 1.9-1.901 1.9-1.049 0-1.9-.851-1.9-1.9 0-1.05.851-1.902 1.9-1.902zm0 8.984c1.05 0 1.901.851 1.901 1.899 0 1.051-.851 1.902-1.901 1.902-1.049 0-1.9-.851-1.9-1.902 0-1.049.851-1.899 1.9-1.899zm0 8.983c1.05 0 1.901.851 1.901 1.901s-.851 1.9-1.901 1.9c-1.049 0-1.9-.851-1.9-1.9 0-1.05.851-1.901 1.9-1.901zm0 8.983c1.05 0 1.901.851 1.901 1.9 0 1.05-.851 1.901-1.901 1.901-1.049 0-1.9-.851-1.9-1.901s.851-1.9 1.9-1.9zm6.456-38.61c.003 1.171-.874 2.047-1.956 2.047-1.08 0-1.958-.876-1.958-1.958l3.914-.089zm-1.956 7.104c1.083 0 1.959.876 1.959 1.957s-.876 1.958-1.959 1.958c-1.08 0-1.958-.876-1.958-1.958 0-1.081.877-1.957 1.958-1.957zm0 8.986c1.083 0 1.959.876 1.959 1.958 0 1.081-.876 1.958-1.959 1.958-1.08 0-1.958-.876-1.958-1.958 0-1.082.877-1.958 1.958-1.958zm0 8.992c1.083 0 1.959.876 1.959 1.958 0 1.081-.876 1.958-1.959 1.958-1.08 0-1.958-.876-1.958-1.958 0-1.081.877-1.958 1.958-1.958zm0 8.985c1.083 0 1.959.876 1.959 1.958 0 1.081-.876 1.958-1.959 1.958-1.08 0-1.958-.877-1.958-1.958 0-1.082.877-1.958 1.958-1.958zm0 8.974c1.083 0 1.959.876 1.959 1.958h-3.916c0-1.082.877-1.958 1.958-1.958zm4.464-40.481c1.167 0 2.054.886 2.054 1.98 0 1.167-.886 2.053-1.979 2.053-1.169 0-2.054-.886-2.054-1.979 0-1.168.885-2.054 1.979-2.054zm0 8.984c1.167 0 2.054.886 2.054 1.978 0 1.169-.886 2.056-1.979 2.056-1.169 0-2.054-.886-2.054-1.98 0-1.167.885-2.053 1.979-2.053zm0 8.982c1.167 0 2.054.886 2.054 1.98 0 1.168-.886 2.054-1.979 2.054-1.169 0-2.054-.886-2.054-1.978 0-1.169.885-2.056 1.979-2.056zm0 8.984c1.167 0 2.054.886 2.054 1.978 0 1.168-.886 2.055-1.979 2.055-1.169 0-2.054-.886-2.054-1.979 0-1.168.885-2.054 1.979-2.054zm0 8.983c1.167 0 2.054.886 2.054 1.979 0 1.169-.886 2.054-1.979 2.054-1.169 0-2.054-.885-2.054-1.979 0-1.168.885-2.055 1.979-2.055zm4.44 4.428c1.289 0 2.175.886 2.175 1.98l-4.155.096c0-1.19.886-2.076 1.98-2.076zm0-8.972c1.289 0 2.175.885 2.175 1.978 0 1.289-.886 2.175-1.98 2.175-1.289 0-2.175-.886-2.175-1.978 0-1.291.886-2.175 1.98-2.175zm0-8.987c1.289 0 2.175.886 2.175 1.978 0 1.29-.886 2.175-1.98 2.175-1.289 0-2.175-.885-2.175-1.978 0-1.289.886-2.175 1.98-2.175zm0-8.992c1.289 0 2.175.886 2.175 1.98 0 1.289-.886 2.175-1.98 2.175-1.289 0-2.175-.886-2.175-1.98 0-1.289.886-2.175 1.98-2.175zm0-8.986c1.289 0 2.175.886 2.175 1.979 0 1.289-.886 2.175-1.98 2.175-1.289 0-2.175-.886-2.175-1.979 0-1.289.886-2.175 1.98-2.175zm-1.98-6.798l4.155-.187c0 1.281-.886 2.167-1.98 2.167-1.289 0-2.175-.886-2.175-1.98zm6.418 38.184h.321c1.093 0 1.979.886 1.979 1.98v.32c0 1.094-.886 1.98-1.979 1.98h-.321c-1.094 0-1.979-.886-1.979-1.98v-.32c0-1.094.885-1.98 1.979-1.98zm0-8.982h.321c1.093 0 1.979.885 1.979 1.978v.322c0 1.092-.886 1.977-1.979 1.977h-.321c-1.094 0-1.979-.885-1.979-1.977v-.322c0-1.093.885-1.978 1.979-1.978zm0-8.984h.321c1.093 0 1.979.886 1.979 1.98v.32c0 1.094-.886 1.98-1.979 1.98h-.321c-1.094 0-1.979-.886-1.979-1.98v-.32c0-1.094.885-1.98 1.979-1.98zm0-8.983h.321c1.093 0 1.979.886 1.979 1.979v.321c0 1.093-.886 1.979-1.979 1.979h-.321c-1.094 0-1.979-.886-1.979-1.979v-.321c0-1.093.885-1.979 1.979-1.979zm0-8.983h.321c1.093 0 1.979.886 1.979 1.978v.321c0 1.092-.886 1.978-1.979 1.978h-.321c-1.094 0-1.979-.886-1.979-1.978v-.321c0-1.092.885-1.978 1.979-1.978zm6.843-2.438v.292c0 1.094-.886 1.98-1.979 1.98h-.406c-1.094 0-1.979-.886-1.979-1.98v-.292h4.364zm-2.385 6.88h.406c1.093 0 1.979.886 1.979 1.979v.406c0 1.093-.886 1.979-1.979 1.979h-.406c-1.094 0-1.979-.886-1.979-1.979v-.406c0-1.093.885-1.979 1.979-1.979zm0 8.986h.406c1.093 0 1.979.886 1.979 1.98v.405c0 1.094-.886 1.98-1.979 1.98h-.406c-1.094 0-1.979-.886-1.979-1.98v-.405c0-1.094.885-1.98 1.979-1.98zm0 8.992h.406c1.093 0 1.979.886 1.979 1.978v.407c0 1.094-.886 1.978-1.979 1.978h-.406c-1.094 0-1.979-.885-1.979-1.978v-.407c0-1.092.885-1.978 1.979-1.978zm0 8.985h.406c1.093 0 1.979.886 1.979 1.979v.408c0 1.091-.886 1.978-1.979 1.978h-.406c-1.094 0-1.979-.886-1.979-1.978v-.408c0-1.093.885-1.979 1.979-1.979zm0 8.974h.406c1.093 0 1.979.886 1.979 1.979l-4.364.203c0-1.295.885-2.181 1.979-2.181zm4.404-40.465h.599c1.064 0 1.926.863 1.926 1.928v.597c0 1.064-.863 1.928-1.926 1.928h-.599c-1.064 0-1.926-.863-1.926-1.928v-.597c0-1.064.863-1.928 1.926-1.928zm0 8.983h.599c1.064 0 1.926.863 1.926 1.926v.598c0 1.065-.863 1.927-1.926 1.927h-.599c-1.064 0-1.926-.863-1.926-1.927v-.598c0-1.063.863-1.926 1.926-1.926zm0 8.984h.599c1.064 0 1.926.862 1.926 1.926v.598c0 1.065-.863 1.926-1.926 1.926h-.599c-1.064 0-1.926-.862-1.926-1.926v-.598c0-1.065.863-1.926 1.926-1.926zm0 8.982h.599c1.064 0 1.926.863 1.926 1.927v.598c0 1.063-.863 1.928-1.926 1.928h-.599c-1.064 0-1.926-.864-1.926-1.928v-.598c0-1.065.863-1.927 1.926-1.927zm0 8.984h.599c1.064 0 1.926.862 1.926 1.926v.598c0 1.064-.863 1.926-1.926 1.926h-.599c-1.064 0-1.926-.862-1.926-1.926v-.598c0-1.064.863-1.926 1.926-1.926zm4.345 4.49s.98-.011 1.014 0c.921-.017 1.666.747 1.666 1.667v.555h-4.451v-.452c0-.978.792-1.771 1.771-1.771zm0-8.972s.98-.012 1.014 0c.921-.019 1.666.745 1.666 1.666v1.118c0 .92-.745 1.667-1.666 1.667h-1.014c-.979 0-1.771-.792-1.771-1.77v-.911c0-.978.792-1.77 1.771-1.77zm0-8.987s.98-.011 1.014 0c.921-.017 1.666.747 1.666 1.667v1.118c0 .92-.745 1.666-1.666 1.666h-1.014c-.979 0-1.771-.792-1.771-1.771v-.91c0-.978.792-1.771 1.771-1.771zm0-8.992s.98-.011 1.014 0c.921-.017 1.666.747 1.666 1.667v1.118c0 .92-.745 1.667-1.666 1.667h-1.014c-.979 0-1.771-.793-1.771-1.772v-.911c0-.978.792-1.771 1.771-1.771zm0-8.984s.98-.012 1.014 0c.921-.019 1.666.745 1.666 1.665v1.119c0 .92-.745 1.667-1.666 1.667h-1.014c-.979 0-1.771-.792-1.771-1.77v-.911c0-.979.792-1.77 1.771-1.77zm2.68-6.84v.651c0 .92-.745 1.667-1.666 1.667h-1.014c-.979 0-1.771-.793-1.771-1.772v-.547h4.451zm1.708 38.241h1.563c.704 0 1.275.57 1.275 1.274v1.99c0 .706-.571 1.275-1.275 1.275h-1.563c-.939 0-1.702-.76-1.702-1.7v-1.14c0-.94.764-1.699 1.702-1.699zm0-8.984h1.563c.704 0 1.275.571 1.275 1.274v1.992c0 .703-.571 1.274-1.275 1.274h-1.563c-.939 0-1.702-.762-1.702-1.699v-1.143c0-.938.764-1.699 1.702-1.699zm0-8.983h1.563c.704 0 1.275.57 1.275 1.274v1.991c0 .704-.571 1.274-1.275 1.274h-1.563c-.939 0-1.702-.761-1.702-1.699v-1.14c0-.94.764-1.701 1.702-1.701zm0-8.983h1.563c.704 0 1.275.57 1.275 1.274v1.991c0 .705-.571 1.276-1.275 1.276h-1.563c-.939 0-1.702-.762-1.702-1.701v-1.141c0-.939.764-1.699 1.702-1.699zm0-8.984h1.563c.704 0 1.275.571 1.275 1.275v1.991c0 .703-.571 1.274-1.275 1.274h-1.563c-.939 0-1.702-.761-1.702-1.699v-1.141c0-.939.764-1.7 1.702-1.7" fill="#826d58"/><path d="M345.791 12.702c.94-3.914.468-5.11-2.024-5.335l-6.893-.84 1.065-3.442 24.705-3.085.596.595-20.556 87.398h-14.464l17.57-75.29zm43.816 59.511c-4.156 10.565-10.219 17.334-18.76 17.334-6.304 0-9.74-3.917-12.707-10.93-2.853-6.885-5.356-14.966-7.015-21.265 3.094-4.271 6.772-8.18 10.455-11.866 7.719-7.965 16.742-16.987 24.462-16.987 4.753 0 7.011 3.088 7.011 6.531 0 4.285-2.739 8.315-6.775 8.315-1.776 0-3.324-.832-4.631-1.787-2.605-1.772-3.906-2.372-5.464-2.372-3.199 0-9.256 6.171-12.943 10.457 2.138 8.071 5.463 17.811 8.556 24.7 2.015 4.748 3.678 6.647 5.582 6.647 2.498 0 5.345-4.155 8.899-10.566l3.329 1.79" fill="#e22526"/><path d="M0 84.161c9.142-.482 9.854-.828 9.854-7.132v-59.611c0-6.303-.712-6.66-9.854-7.126v-4.157h62.11v20.9h-4.158c-2.971-11.761-5.345-15.918-18.055-15.918h-9.382c-3.447 0-4.272.719-4.272 4.279v29.214h14.723c8.434 0 9.619-2.374 11.16-10.568h4.16v26.72h-4.16c-1.541-8.315-2.726-10.572-11.16-10.572h-14.723v26.728c0 6.418.825 6.764 11.877 7.246v4.154h-38.121v-4.154" fill="#826d58"/><path d="M64.124 84.161c7.247-.36 8.076-.828 8.076-6.183v-35.866c0-4.506-.829-5.46-3.205-5.696l-4.274-.595v-3.807l21.377-3.322 1.418 10.102c7.246-7.125 11.043-10.102 15.681-10.102 4.985 0 7.363 3.209 7.363 7.246 0 2.137-.473 4.39-1.667 6.053-1.305 1.546-3.082 2.615-5.1 2.615-1.663 0-3.09-.712-4.397-1.426-2.85-1.663-4.752-2.611-6.647-2.611-2.853 0-4.996 2.853-4.996 10.091v27.317c0 5.355.956 5.701 10.573 6.183v4.154h-34.203v-4.154" fill="#826d58"/><path d="M166.626 72.636c-3.814 10.088-11.172 17.105-24.95 17.105-20.785.116-28.618-13.184-28.618-30.412 0-8.307 2.137-16.024 6.883-21.615 4.753-5.579 11.877-9.021 21.614-9.021 24.235 0 25.899 17.701 25.899 24.346 0 3.919-2.146 4.869-5.822 4.869h-31.95c0 12.468 3.565 23.874 16.508 23.874 8.078 0 12.944-4.521 16.39-11.406l4.048 2.261zm-19.486-19.954c2.967 0 3.803-.832 3.803-3.917 0-5.226-1.192-15.079-9.739-15.079-9.385 0-11.402 11.753-11.402 18.996h17.339" fill="#826d58"/><path d="M216.261 82.136c-6.42 5.113-12.59 7.605-17.695 7.605-15.324 0-24.238-11.991-24.238-29.459 0-10.689 3.331-18.407 8.796-23.749 5.105-4.984 12.821-7.84 22.564-7.84 4.04 0 7.715.597 10.572 1.67v-16.749c0-4.633-.833-5.468-3.21-5.827l-4.271-.708v-3.8l22.21-3.086.825.708v77.078c0 5.355.833 5.823 8.195 6.183v4.154h-23.4l-.349-.595v-5.585zm0-35.861c0-2.736 0-4.993-.955-6.894-1.669-3.204-4.75-5.694-9.617-5.694-8.547 0-14.725 7.96-14.725 24.582 0 14.725 5.22 23.274 14.13 23.274 5.582 0 9.031-2.492 10.454-6.655.584-1.772.714-3.556.714-5.332v-23.281" fill="#826d58"/><path d="M239.771 84.161c7.251-.36 8.078-.828 8.078-6.183v-35.866c0-4.506-.826-5.46-3.209-5.696l-4.274-.595v-3.807l21.38-3.322 1.421 10.102c7.239-7.125 11.044-10.102 15.676-10.102 4.987 0 7.366 3.209 7.366 7.246 0 2.137-.479 4.39-1.664 6.053-1.308 1.546-3.091 2.615-5.109 2.615-1.655 0-3.089-.712-4.395-1.426-2.845-1.663-4.745-2.611-6.65-2.611-2.848 0-4.985 2.853-4.985 10.091v27.317c0 5.355.954 5.701 10.568 6.183v4.154h-34.204v-4.154" fill="#826d58"/><path d="M315.063 77.978c0 5.355.84 5.823 8.195 6.183v4.154h-31.946v-4.154c7.364-.36 8.2-.828 8.2-6.183v-35.866c0-4.506-.836-5.342-3.091-5.696l-4.279-.595v-3.807l22.089-3.322.833.714v48.571zm-17.69-65.678c0-5.105 3.683-9.261 9.504-9.261 5.933 0 9.615 4.156 9.615 9.261-.124 5.117-3.915 9.264-9.615 9.264-5.821 0-9.504-4.146-9.504-9.264" fill="#826d58"/><path d="M430.736 47.94c-1.778-8.431-6.765-14.254-13.297-14.254-5.343 0-8.672 3.321-8.796 7.832 0 5.587 6.063 8.194 12.235 10.332 11.399 4.04 17.817 8.908 17.817 19.243 0 11.521-9.026 18.648-23.512 18.648-6.774 0-15.321-1.663-19.595-5.58l-1.306-17.101h4.037c2.846 9.968 8.793 17.688 17.337 17.688 5.582 0 9.143-3.078 9.143-8.191 0-6.415-6.291-9.741-11.755-11.641-10.095-3.443-18.043-8.552-18.043-17.927 0-11.765 8.896-18.296 22.796-18.296 5.933 0 12.471 1.185 16.979 4.038v15.21h-4.04" fill="#826d58"/><path d="M444.517 59.208c0-19.107 9.139-30.516 29.808-30.516 20.793 0 29.927 11.408 29.927 30.516 0 19.136-9.135 30.532-29.927 30.532-20.669 0-29.808-11.396-29.808-30.532zm43.114 0c0-16.027-4.044-25.522-13.306-25.522-9.148 0-13.184 9.495-13.184 25.522 0 16.035 4.036 25.54 13.184 25.54 9.262 0 13.306-9.504 13.306-25.54" fill="#826d58"/><path d="M507.456 84.161c7.367-.36 8.082-.828 8.082-6.183v-35.866c0-4.506-.835-5.342-3.094-5.696l-4.388-.595v-3.807l21.37-3.322 1.665 8.552c7.6-4.753 13.184-8.552 20.657-8.552 11.881 0 17.824 7.01 17.824 18.529v30.756c0 5.355.828 5.823 8.199 6.183v4.154h-31.004v-4.154l3.091-.24c3.203-.242 4.152-1.069 4.152-5.469v-29.341c0-8.3-3.792-12.228-10.453-12.228-5.455 0-9.381 3.097-11.279 6.772-.943 1.784-1.189 4.04-1.189 6.894v27.903c0 4.399.95 5.227 4.277 5.469l2.964.24v4.154h-30.878v-4.154" fill="#826d58"/></g></svg>