<svg xmlns="http://www.w3.org/2000/svg" width="145.039" height="46.602"><g fill="#fff"><path d="M51.401 39.578c.053 1.431 1.294 1.882 2.614 1.882.996 0 2.351-.224 2.351-1.445 0-1.243-1.58-1.452-3.184-1.811-1.578-.357-3.18-.884-3.18-2.747 0-1.959 1.939-2.769 3.637-2.769 2.141 0 3.857.678 3.989 3.048h-1.601c-.113-1.243-1.205-1.637-2.26-1.637-.96 0-2.07.265-2.07 1.243 0 1.15 1.696 1.337 3.184 1.694 1.601.358 3.181.885 3.181 2.768 0 2.315-2.162 3.07-4.141 3.07-2.188 0-4.032-.885-4.123-3.297h1.602"/><path d="M65.909 36.849c-.07-1.522-1.22-2.748-2.8-2.748-1.676 0-2.674 1.261-2.787 2.748h5.587zm1.547 2.71c-.43 2.149-1.977 3.316-4.159 3.316-3.102 0-4.576-2.148-4.671-5.121 0-2.919 1.922-5.065 4.578-5.065 3.444 0 4.5 3.218 4.403 5.573h-7.285c-.058 1.695.906 3.198 3.032 3.198 1.318 0 2.238-.64 2.522-1.902h1.579"/><path d="M69.21 32.915h1.503v2.052h.039c.772-1.561 1.844-2.334 3.577-2.278v1.694c-2.58 0-3.521 1.469-3.521 3.932v4.332h-1.598v-9.732"/><path d="M79.923 42.648h-1.717l-3.617-9.732h1.791l2.729 8.114h.035l2.658-8.114h1.672l-3.552 9.732"/><path d="M85.038 32.915h1.604v9.732h-1.604v-9.732zm1.604-1.75h-1.604v-1.956h1.604v1.956"/><path d="M89.127 32.915h1.5v1.544h.036c.681-1.204 1.773-1.77 3.167-1.77 2.561 0 3.352 1.469 3.352 3.557v6.401h-1.6v-6.588c0-1.186-.752-1.96-1.978-1.96-1.938 0-2.883 1.3-2.883 3.049v5.498h-1.593v-9.732"/><path d="M105.728 37.587c0-1.714-.755-3.486-2.768-3.486-2.051 0-2.88 1.676-2.88 3.54 0 1.753.641 3.708 2.748 3.708 2.109 0 2.9-1.941 2.9-3.762zm1.58 4.232c0 3.165-1.451 4.783-4.52 4.783-1.823 0-3.931-.736-4.028-2.861h1.6c.077 1.167 1.471 1.581 2.524 1.581 2.087 0 2.919-1.507 2.919-3.688v-.641h-.037c-.526 1.187-1.806 1.769-3.032 1.769-2.9 0-4.347-2.278-4.347-4.933 0-2.297 1.129-5.139 4.497-5.139 1.225 0 2.317.547 2.897 1.619h.022v-1.393h1.504v8.904"/><path d="M118.096 43.947c-.734 1.902-1.393 2.598-2.822 2.598-.376 0-.755-.038-1.109-.169v-1.467c.3.091.623.226.941.226.656 0 1.017-.32 1.318-.886l.656-1.655-3.858-9.676h1.806l2.843 7.964h.039l2.731-7.964h1.693l-4.237 11.031"/><path d="M127.207 41.46c1.675 0 3.034-1.315 3.034-3.671 0-2.371-1.359-3.689-3.034-3.689-1.673 0-3.027 1.318-3.027 3.689 0 2.356 1.354 3.671 3.027 3.671zm0-8.771c3.09 0 4.728 2.24 4.728 5.1 0 2.843-1.637 5.085-4.728 5.085-3.084 0-4.721-2.242-4.721-5.085 0-2.86 1.637-5.1 4.721-5.1"/><path d="M141.196 42.648h-1.5v-1.545h-.044c-.672 1.208-1.766 1.772-3.16 1.772-2.56 0-3.35-1.472-3.35-3.56v-6.4h1.6v6.59c0 1.186.752 1.955 1.976 1.955 1.938 0 2.876-1.295 2.876-3.048v-5.497h1.601v9.732"/><path d="M35.251 27.77c-4.658 0-9.772-1.871-9.885-6.986h7.215c.037.689.344 1.26.916 1.758.382.342 1.106.572 2.022.572.992 0 2.562-.382 2.562-1.528 0-1.145-.652-1.487-4.162-2.098-5.766-.991-8.098-2.826-8.098-6.223 0-5.002 5.389-6.299 9.356-6.299 4.28 0 9.428 1.182 9.621 6.259h-6.872c-.037-.649-.379-1.144-.881-1.488-.453-.382-1.067-.573-1.678-.573-1.068 0-2.292.231-2.292 1.528 0 .573.46.839.88 1.031 1.259.535 4.125.686 6.646 1.527 2.516.802 4.728 2.29 4.728 5.535 0 5.499-5.265 6.986-10.079 6.986zm-11.415-.496h-7.293v-2.519h-.079c-1.409 1.986-3.43 3.015-6.45 3.015-3.549 0-6.792-2.175-6.792-6.719v-13.589h7.555v10.384c0 2.29.269 3.895 2.485 3.895 1.297 0 3.014-.65 3.014-3.819v-10.46h7.561v19.813zm-23.836-27.274l.02 28.159 23.854 8.114 23.849-8.114v-28.159h-47.723"/><path d="M61.028 12.462c-2.711 0-3.325 2.558-3.325 4.885 0 2.37.615 4.926 3.325 4.926 2.709 0 3.318-2.556 3.318-4.926 0-2.328-.609-4.885-3.318-4.885zm-10.617-12.448h7.557v9.621h.079c1.148-1.679 3.17-2.67 5.42-2.67 6.642 0 8.438 5.65 8.438 10.306 0 4.963-2.713 10.498-8.326 10.498-3.7 0-4.843-1.414-5.799-2.672h-.077v2.177h-7.292v-27.26"/><path d="M85.728 18.38c-.917.457-1.947.726-2.975.953-1.687.385-2.561.802-2.561 2.14 0 .915.993 1.83 2.363 1.83 1.723 0 3.056-1.029 3.173-3.089v-1.833zm7.253 4.468c0 1.489.076 3.167.913 4.427h-7.711c-.186-.533-.3-1.335-.265-1.871h-.078c-1.602 1.832-3.933 2.367-6.375 2.367-3.814 0-6.988-1.831-6.988-5.994 0-6.258 7.335-6.031 11.189-6.756 1.028-.191 2.062-.495 2.062-1.755 0-1.338-1.26-1.833-2.484-1.833-2.328 0-2.783 1.184-2.822 2.023h-7.027c.229-5.574 5.501-6.489 10.196-6.489 9.466 0 9.391 3.93 9.391 7.75v8.132"/><path d="M95.687 7.461h7.292v2.519h.078c1.416-1.984 3.435-3.015 6.451-3.015 3.549 0 6.801 2.175 6.801 6.719v13.589h-7.564v-10.383c0-2.291-.27-3.894-2.479-3.894-1.303 0-3.023.649-3.023 3.818v10.46h-7.556v-19.813"/><path d="M118.977.015h7.561v13.173l4.809-5.726h8.557l-7.07 7.483 8.172 12.33h-9.086l-4.044-7.176-1.339 1.448v5.728h-7.561v-27.26"/><path d="M142.63 26.556h.331v-.744h.263c.176 0 .295.019.369.061.121.07.179.213.179.432v.15l.005.06.001.023.007.019h.307l-.005-.022-.021-.1-.005-.141v-.139c0-.094-.031-.19-.096-.29-.072-.098-.184-.16-.326-.182.114-.019.207-.05.269-.094.122-.078.181-.202.181-.367 0-.237-.087-.397-.289-.477-.113-.044-.281-.066-.509-.066h-.661v1.879zm.948-1.014c-.071.025-.171.041-.319.041h-.297v-.68h.287c.179 0 .315.022.398.071.077.045.125.137.125.273 0 .144-.068.241-.194.295zm.956-1.13c-.333-.332-.738-.499-1.214-.499-.47 0-.866.168-1.204.499-.333.334-.501.735-.501 1.208 0 .475.169.88.497 1.212.338.338.738.505 1.208.505.476 0 .881-.167 1.214-.505.334-.336.505-.74.505-1.212 0-.473-.171-.876-.505-1.208zm-.169.165c.285.289.427.634.427 1.044 0 .408-.142.761-.427 1.049-.289.288-.634.432-1.045.432-.405 0-.752-.144-1.039-.432-.282-.288-.43-.641-.43-1.049 0-.409.147-.754.434-1.044.287-.289.635-.434 1.035-.434.411 0 .756.145 1.045.434"/></g></svg>