<svg xmlns="http://www.w3.org/2000/svg" width="675.703" height="473.75"><defs><clipPath id="a"><path d="M0 3h5406v3790h-5406v-3790z"/></clipPath></defs><g clip-path="url(#a)"><path d="M580.375 54.007c-.074-3.31-2.491-6.428-5.844-7.621-4.716-1.597-10.845-1.474-14.791 1.821-4.576 3.781-5.376 9.209-5.308 14.894l-.059 39.894-19.775.1.015-74.407 20.325-.028.033 8.321c6.674-8.364 16.476-10.789 27.184-8.691 4.715 1.846 9.931 3.455 13.34 8.026 1.575 2.408 4.025 4.959 3.335 7.945-9.047 14.441-8.014 37.093 2.331 50.684l.089 8.034-21.026.135.151-49.106" fill="#231f20"/><path d="M506.395 95.541c-5.763 6.509-14.246 11.161-23.11 10.479-9.494-.32-19.385-5.65-22.444-15.091-4.29-19.294-1.489-62.273-1.489-62.273l20.126.063-.004 48.089c.904 4.646 3.087 9.569 8.061 11.045 4.236.714 8.989.563 12.415-1.867 6.73-5.112 5.781-13.635 6.445-21.497l-.005-35.844 20.004.09-.072 74.29-19.863-.031-.065-7.451" fill="#231f20"/><path d="M242.838 44.681c-8.114-.669-15.755 1.802-19.782 9.221-4.786 12.107-1.505 23.358-2.601 48.881l-20.656-.045.019-73.946 20.566.046-.001 9.131c4.043-8.044 13.018-12.861 22.345-10.418l.111 17.129" fill="#231f20"/><path d="M669.056 46.207c4.207 8.213 6.388 17.634 6.316 27.135l-53.816.058c-.318 2.61.307 4.641.911 6.98 2.016 5.293 7.42 10.029 12.905 10.766 6.615.637 13.637-.469 17.269-6.77.472-1.491.316-1.335.472-2.272h21.25c-.541 7.865-7.499 15.818-13.956 19.811-10.769 6.905-28.291 7.795-39.666 1.56-13.73-7.16-19.939-21.415-19.884-36.167.291-14.248 5.688-27.265 18.35-35.005 10.75-6.03 26.995-5.695 37.491.772 5.18 3.357 9.463 7.946 12.357 13.133zm-15.502 12.057c-.077-2.251-1.04-4.147-2.001-6.041-3.842-7.706-14.293-10.299-21.501-6.195-4.556 2.656-7.779 7.341-7.755 12.219l31.258.018" fill="#231f20"/><path d="M172.075 94.863c-7.094 10.605-20.724 10.7-32.045 7.966-6.973-1.394-14.22-7.669-16.452-14.717-1.615-6.534-.704-14.391 3.652-19.429 11.13-12.273 28.578-9.537 42.693-15 1.911-1.709 2.59-4.321 1.891-6.836-2.769-5.183-8.369-6.425-13.999-6.289-5.131.269-10.919 2.025-12.656 7.491-.328 1.086-.328 1.867-.328 2.649l-17.475.004c.651-7.365 3.285-14.079 9.386-18.956 13.779-7.341 34.907-7.281 47.709 2.484l4.389 5.468c3.179 8.189 2.397 27.72 2.578 63.066l-19.466-.034.124-7.866zm-27.48-19.446c-1.544 2.095-2.478 4.951-1.659 7.719.445 2.635 3.281 4.569 5.513 5.49 7.08 2.271 14.861.805 20.214-4.085 3.857-5.174 4.509-12.535 3.393-19.06-8.838 4.194-19.457 3.851-27.46 9.936" fill="#231f20"/><path d="M329.574 24.159l-.015-18.218-83.639.046.026 18.125 30.448-.044.071 78.945 21.736-.014.092-78.804 31.28-.037" fill="#231f20"/><path d="M306.311 103.002l20.031-.018c1.224-17.619-2.916-35.764 4.389-50.491 4.503-6.159 11.309-8.894 19.044-7.984l.104-17.129-6.612-.761c-6.634.364-12.982 5.11-15.856 11.053l.009-9.229-21.19.066.083 74.493" fill="#231f20"/><path d="M357.339 28.574l-.001 74.509 20.151-.04v-74.465l-20.15-.004" fill="#231f20"/><path d="M357.339 24.064h20.15v-18.054h-20.15v18.054z" fill="#231f20"/><path d="M54.987 24.135l23.149.029c-.18-2.998-.805-5.185-1.971-7.543-3.016-5.313-8.415-10.3-13.87-12.537-16.98-7.226-40.378-6.334-53.923 7.89-5.651 7.261-7.861 17.469-5.305 26.897 5.048 15.983 22.138 17.834 35.568 21.363 7.085 2.021 14.951 2.558 20.591 7.925 2.204 2.296 3.018 5.189 2.45 8.551-.072 3.499-3.126 6.063-5.796 8.259-8.577 3.699-20.488 5.327-28.881.03-4.569-2.72-6.47-8.081-7.502-12.605l-19.495.046c-.562 2.99.639 5.39.961 8.022 4.221 13.589 18.282 22.88 32.016 23.788 17.481 1.11 36.257-.885 46.21-16.684l-.006-29.125c-3.724-7.327-11.17-10.107-17.742-12.741-11.907-4.622-26.563-3.299-37.02-11.515-1.082-2.147-2.667-4.056-1.859-6.915.32-3.37 2.751-6.07 5.542-8.014 7.451-3.595 18.918-4.184 25.5.276 1.074 1.634 1.386 4.603 1.386 4.603" fill="#231f20"/><path d="M121.013 42.171l.068-13.349h-13.594l-.029-23.563-19.431-.021-.071 23.584-9.907-.052.085 13.268 9.854.076-.036 19.758c.272 11.009-1.245 23.983 2.244 32.43 6.03 10.751 19.596 7.655 30.338 8.126l-.022-3.249c-3.057-3.314-5.635-7.371-6.543-11.89-2.623-.054-6.481-1.748-6.437-4.004l-.067-41.121 13.549.007" fill="#231f20"/><path d="M406.395 103.041l-20.569.009-.104-97.04 20.715.068.005 30.845c3.716-4.424 9.426-8.556 15.449-9.557 11.411-1.641 21.471 1.691 28.921 10.223.615 18.641-1.916 38.469 1.851 55.8-7.071 9.48-17.93 14.634-30.008 12.26-5.981-.999-11.856-4.265-16.261-8.856v6.25zm21.781-59.044c-5.715-1.742-11.498-.236-15.701 3.553-8.161 7.707-6.935 20.986-4.26 30.795 2.505 5.803 7.779 10.786 14.536 10.55 4.622.22 8.414-1.826 11.727-4.885 6.675-8.489 6.839-22.488 2.535-32.08-1.804-3.411-5.364-6.61-8.838-7.933" fill="#231f20"/><path d="M70.019 155.642l5.25-18.875 8.438 2.313-10.437 27.375h-7.438l-4.188-14.5-4.188 14.5h-7.437l-10.438-27.375 8.438-2.313 5.25 18.875 4.375-17.313h8.001l4.375 17.313" fill="#231f20"/><path d="M116.894 155.642l5.25-18.875 8.438 2.313-10.437 27.375h-7.438l-4.188-14.5-4.188 14.5h-7.437l-10.438-27.375 8.438-2.313 5.25 18.875 4.375-17.313h8.001l4.375 17.313" fill="#231f20"/><path d="M163.77 155.642l5.249-18.875 8.438 2.313-10.436 27.375h-7.438l-4.189-14.5-4.188 14.5h-7.436l-10.438-27.375 8.438-2.313 5.249 18.875 4.375-17.313h8.001l4.375 17.313" fill="#231f20"/><path d="M183.77 167.642c-3.064 0-5.564-2.5-5.564-5.563 0-3.063 2.5-5.563 5.564-5.563 3.061 0 5.561 2.5 5.561 5.563 0 3.063-2.5 5.563-5.561 5.563" fill="#231f20"/><path d="M208.456 143.955c-2.313 0-3.75.75-3.75 2 0 1.125 1.563 1.625 2.813 2.063l2.5.938c3.625 1.375 8.125 2.813 8.125 9.063 0 5.625-5.563 9.688-11.25 9.688-4.688 0-7.813-1.313-9.875-3.063v-8.188h7.188v3.375c.688.25 1.375.375 2.063.375 2.188 0 3.75-.938 3.75-2.375 0-1.375-1.563-1.813-2.813-2.313l-2.5-.938c-2.813-1.063-8.125-2.813-8.125-9.063 0-5.313 5.625-9.063 11.25-9.063 4.688 0 7.5 1.563 10.125 4.063v6.625h-7.188v-2.75c-.813-.313-1.625-.438-2.313-.438" fill="#231f20"/><path d="M240.706 163.955l-7.625 3.875c-4.125-3.813-5.875-7.688-5.875-13.375v-8.625h-5.625v-8.125h5.625v-8.75h8.75v8.75h5.938v8.125h-5.938v8.625c0 4.125 1.5 7 4.75 9.5" fill="#231f20"/><path d="M259.394 153.83c0 1.313.188 3.188.5 4.938 0 0-1.688 1.688-4.063 1.688-1.313 0-3.188-1-3.25-2.75-.063-1.938.813-3.875 4.313-3.875h2.5zm8.75.25v-6.063c0-6.625-4.688-11.563-12.5-11.563-5 0-8.438 3-8.438 3l4.563 5.938s1.438-1.063 3.875-1.063c2.5 0 3.75 1.688 3.75 3.688h-2.5c-8.125 0-13.188 3.5-13.188 9.688 0 5.688 5.5 10 11.313 10 4.875 0 7.563-3.188 7.563-3.188.5.75 2.688 2.938 2.688 2.938l7.625-3.875c-3.25-2.5-4.75-5.375-4.75-9.5" fill="#231f20"/><path d="M292.769 158.955v7.5h-16.25v-7.5h3.75v-8.875c0-4.125-1.5-7-4.75-9.5l7.625-3.875c1.438 1.125 3.186 3.688 3.186 3.688s4.814-3.938 8.939-3.938l2.188 8.438c-4.063 0-8.438 4.875-8.438 4.875v9.188h3.75" fill="#231f20"/><path d="M319.955 163.955l-7.625 3.875c-4.125-3.813-5.874-7.688-5.874-13.375v-8.625h-5.625v-8.125h5.625v-8.75h8.75v8.75h5.938v8.125h-5.938v8.625c0 4.125 1.499 7 4.749 9.5" fill="#231f20"/><path d="M340.642 158.955v7.5h-16.25v-7.5h3.75v-8.875c0-4.125-1.5-7-4.75-9.5l7.625-3.875c1.438 1.125 3.188 3.688 3.188 3.688s4.813-3.938 8.938-3.938l2.188 8.438c-4.063 0-8.438 4.875-8.438 4.875v9.188h3.75" fill="#231f20"/><path d="M357.517 133.642c-2.813 0-5.125-2.313-5.125-5.125 0-2.813 2.313-5.125 5.125-5.125 2.813 0 5.125 2.313 5.125 5.125 0 2.813-2.313 5.125-5.125 5.125zm-8.188 11.563v-7.5h12.625v21.25h3.75v7.5h-16.375v-7.5h3.75v-13.75h-3.75" fill="#231f20"/><path d="M381.829 152.08c0-3.688 1.939-7.5 5.625-7.5 3.626 0 5.564 3.875 5.564 7.5s-1.938 7.5-5.564 7.5c-3.686 0-5.625-3.813-5.625-7.5zm0-13.188v-15.563h-12.5v7.5h3.75v23.25c0 4.125-1.499 7-4.749 9.5l7.625 3.875c.938-.688 2.749-3.063 2.749-3.063s3.251 3.313 8.75 3.313c8.314 0 14.439-7.563 14.439-15.625 0-8.063-5.064-15.625-14.439-15.625-3.499 0-5.625 2.438-5.625 2.438" fill="#231f20"/><path d="M419.329 159.33c3.5 0 5.125-4.938 5.125-4.938v-9.188h-3.75v-7.5h12.5v16.375c0 4.125 1.5 7 4.75 9.5l-7.625 3.875c-1.313-.938-3.188-3.688-3.188-3.688s-4.124 4.063-8.811 4.063c-5.251 0-10.126-3.625-10.126-8.938v-13.688h-3.75v-7.5h12.5v16.813c0 3.313.688 4.813 2.375 4.813" fill="#231f20"/><path d="M444.891 150.08c0-4.125-1.501-7-4.75-9.5l7.624-3.875c1.126.813 3.188 3.688 3.188 3.688s4.438-4.063 9.125-4.063c5.313 0 10.439 3.625 10.439 8.938v13.688h3.75v7.5h-12.5v-16.813c0-4.25-.814-4.813-2.689-4.813-3.5 0-5.436 4.938-5.436 4.938v9.188h3.75v7.5h-16.25v-7.5h3.75v-8.875" fill="#231f20"/><path d="M486.141 148.955c0-.75 1.124-4.5 4.561-4.5 2.875 0 3.5 3.25 3.5 4.5h-8.061zm4.561 10.75c-3.5 0-4.813-4.063-4.813-5.188h17.188c1.189-3.5-.125-18.063-12.375-18.063-8.125 0-13.813 7.688-13.813 15.625 0 8.813 5.875 15.625 13.813 15.625 7.688 0 12.063-5.625 12.063-5.625l-5.563-5.25s-1.686 2.875-6.5 2.875" fill="#231f20"/><path d="M513.577 167.642c-3.063 0-5.563-2.5-5.563-5.563 0-3.063 2.5-5.563 5.563-5.563 3.063 0 5.563 2.5 5.563 5.563 0 3.063-2.5 5.563-5.563 5.563" fill="#231f20"/><path d="M548.327 149.642h-7.5v-4.063c-.564-.438-2.376-1.125-3.939-1-3.874.313-5.249 3.938-5.249 7.5 0 3.563 1.688 7.5 5.249 7.5 3.251 0 5.439-1.063 6.563-2.938l5.501 5.438c-3.125 4.063-6.875 5.688-12.064 5.625-8.188-.125-14.125-7.625-14.125-15.625s5.625-15.375 14.125-15.625c5.563-.188 9 2.125 11.439 4.813v8.375" fill="#231f20"/><path d="M560.764 152.08c0-3.625 1.938-7.5 5.563-7.5s5.563 3.875 5.563 7.5-1.938 7.5-5.563 7.5-5.563-3.875-5.563-7.5zm5.563-15.625c-8.313 0-14.438 7.563-14.438 15.625 0 8.063 6.125 15.625 14.438 15.625s14.438-7.563 14.438-15.625c0-8.063-6.125-15.625-14.438-15.625" fill="#231f20"/><path d="M601.014 144.83c-3.063 0-4.814 4.125-4.814 4.125v10h3.75v7.5h-16.25v-7.5h3.75v-8.875c0-4.125-1.5-7-4.749-9.5l7.624-3.875c1.188.875 3.189 3.688 3.189 3.688s4.125-4.063 8.125-4.063c4.936 0 7.625 2.938 8.125 3.5 0 0 3.813-3.5 7.5-3.5 5.25 0 10.186 3.625 10.186 8.938v13.688h3.75v7.5h-12.5v-16.813c0-4.438-.625-4.813-2.061-4.813-3.063 0-4.814 4.125-4.814 4.125v10h3.75v7.5h-12.5v-16.813c0-4.438-.625-4.813-2.061-4.813" fill="#231f20"/><path d="M580.704 360.302c-.075-3.311-2.491-6.429-5.845-7.622-4.715-1.597-10.845-1.474-14.79 1.821-4.576 3.782-5.378 9.209-5.308 14.892l-.06 39.897-19.774.098.015-74.405 20.324-.029.034 8.322c6.674-8.365 16.475-10.79 27.184-8.693 4.714 1.846 9.931 3.455 13.34 8.026 1.574 2.406 4.024 4.957 3.335 7.946-9.049 14.441-8.014 37.093 2.331 50.683l.087 8.035-21.025.133.151-49.105" fill="#00a650"/><path d="M506.723 401.835c-5.761 6.509-14.245 11.161-23.109 10.477-9.495-.32-19.386-5.649-22.444-15.09-4.291-19.294-1.489-62.273-1.489-62.273l20.125.063-.004 48.09c.905 4.646 3.089 9.566 8.063 11.043 4.235.713 8.989.561 12.415-1.867 6.73-5.111 5.781-13.634 6.444-21.497l-.004-35.844 20.003.091-.071 74.289-19.864-.032-.065-7.45" fill="#00a650"/><path d="M243.165 350.976c-8.113-.668-15.755 1.801-19.781 9.221-4.787 12.107-1.506 23.357-2.601 48.88l-20.656-.046.018-73.944 20.566.046-.001 9.131c4.043-8.045 13.018-12.863 22.345-10.419l.111 17.13" fill="#00a650"/><path d="M669.384 352.502c4.209 8.212 6.389 17.634 6.317 27.134l-53.818.059c-.318 2.609.307 4.64.912 6.98 2.016 5.292 7.419 10.028 12.905 10.765 6.615.638 13.637-.469 17.269-6.769.471-1.493.315-1.336.471-2.274h21.25c-.54 7.865-7.499 15.817-13.956 19.811-10.768 6.905-28.29 7.795-39.665 1.56-13.73-7.16-19.939-21.415-19.884-36.167.291-14.246 5.688-27.264 18.349-35.005 10.751-6.03 26.996-5.694 37.492.772 5.18 3.357 9.463 7.945 12.356 13.134zm-15.501 12.057c-.079-2.254-1.04-4.147-2.002-6.042-3.842-7.705-14.291-10.298-21.501-6.194-4.555 2.656-7.777 7.341-7.754 12.217l31.258.019" fill="#00a650"/><path d="M172.403 401.156c-7.093 10.605-20.724 10.7-32.044 7.966-6.973-1.395-14.22-7.669-16.453-14.718-1.615-6.534-.704-14.391 3.651-19.427 11.131-12.272 28.579-9.539 42.694-15 1.911-1.709 2.589-4.321 1.89-6.839-2.768-5.18-8.367-6.422-13.998-6.286-5.131.269-10.92 2.024-12.656 7.49-.329 1.087-.329 1.868-.329 2.649l-17.475.002c.651-7.362 3.285-14.076 9.386-18.954 13.779-7.343 34.909-7.281 47.709 2.482l4.389 5.469c3.179 8.188 2.397 27.719 2.578 63.065l-19.466-.034.124-7.866zm-27.48-19.445c-1.542 2.095-2.476 4.951-1.659 7.717.445 2.635 3.281 4.569 5.514 5.489 7.08 2.274 14.861.806 20.212-4.082 3.857-5.174 4.509-12.538 3.393-19.06-8.838 4.194-19.458 3.85-27.46 9.936" fill="#00a650"/><path d="M329.901 330.454l-.014-18.219-83.639.046.026 18.125 30.446-.044.072 78.945 21.735-.013.092-78.805 31.28-.036" fill="#00a650"/><path d="M306.64 409.295l20.03-.016c1.225-17.619-2.916-35.764 4.389-50.49 4.503-6.16 11.31-8.894 19.045-7.986l.104-17.126-6.612-.762c-6.635.364-12.982 5.11-15.856 11.054l.007-9.23-21.189.066.083 74.491" fill="#00a650"/><path d="M357.666 334.868l-.001 74.508 20.151-.04v-74.464l-20.15-.005" fill="#00a650"/><path d="M357.666 330.357h20.15v-18.054h-20.15v18.054z" fill="#00a650"/><path d="M55.315 330.429l23.149.029c-.18-2.998-.805-5.185-1.97-7.543-3.017-5.313-8.415-10.3-13.87-12.537-16.98-7.226-40.378-6.332-53.923 7.89-5.651 7.261-7.861 17.469-5.305 26.899 5.047 15.981 22.137 17.834 35.567 21.361 7.085 2.022 14.951 2.556 20.591 7.925 2.204 2.297 3.018 5.189 2.45 8.552-.073 3.499-3.126 6.063-5.796 8.258-8.578 3.699-20.488 5.327-28.881.031-4.57-2.72-6.47-8.082-7.502-12.605l-19.495.046c-.563 2.989.639 5.389.96 8.023 4.221 13.587 18.283 22.88 32.016 23.788 17.481 1.109 36.257-.886 46.209-16.684l-.006-29.125c-3.725-7.329-11.17-10.107-17.742-12.743-11.907-4.621-26.563-3.297-37.02-11.515-1.082-2.147-2.667-4.056-1.858-6.915.32-3.369 2.751-6.07 5.542-8.012 7.451-3.596 18.917-4.185 25.5.275 1.074 1.634 1.386 4.603 1.386 4.603" fill="#00a650"/><path d="M121.341 348.466l.068-13.35h-13.594l-.028-23.563-19.432-.021-.071 23.584-9.907-.052.085 13.269 9.854.075-.036 19.759c.273 11.009-1.245 23.981 2.244 32.428 6.03 10.752 19.596 7.656 30.339 8.127l-.022-3.249c-3.057-3.314-5.635-7.372-6.543-11.89-2.624-.054-6.481-1.748-6.438-4.002l-.066-41.124 13.548.01" fill="#00a650"/><path d="M406.723 409.335l-20.569.009-.104-97.04 20.716.069.004 30.845c3.717-4.425 9.428-8.557 15.45-9.559 11.411-1.641 21.471 1.691 28.921 10.223.615 18.64-1.917 38.47 1.851 55.8-7.071 9.48-17.931 14.634-30.009 12.26-5.98-.998-11.855-4.265-16.261-8.856v6.25zm21.781-59.042c-5.714-1.742-11.496-.236-15.7 3.553-8.162 7.707-6.935 20.986-4.261 30.793 2.505 5.803 7.78 10.788 14.536 10.55 4.624.22 8.415-1.826 11.727-4.883 6.676-8.489 6.84-22.488 2.536-32.08-1.805-3.414-5.364-6.611-8.839-7.933" fill="#00a650"/><path d="M70.347 461.938l5.25-18.877 8.438 2.314-10.437 27.374h-7.438l-4.188-14.501-4.188 14.501h-7.438l-10.438-27.374 8.438-2.314 5.25 18.877 4.375-17.314h8.001l4.375 17.314" fill="#231f20"/><path d="M117.222 461.938l5.25-18.877 8.438 2.314-10.437 27.374h-7.438l-4.188-14.501-4.188 14.501h-7.438l-10.438-27.374 8.438-2.314 5.25 18.877 4.375-17.314h8.001l4.375 17.314" fill="#231f20"/><path d="M164.097 461.938l5.25-18.877 8.438 2.314-10.438 27.374h-7.438l-4.188-14.501-4.188 14.501h-7.438l-10.438-27.374 8.438-2.314 5.25 18.877 4.375-17.314h8l4.375 17.314" fill="#231f20"/><path d="M184.097 473.936c-3.063 0-5.563-2.5-5.563-5.562 0-3.063 2.5-5.563 5.563-5.563 3.063 0 5.563 2.5 5.563 5.563 0 3.063-2.5 5.562-5.563 5.562" fill="#231f20"/><path d="M208.785 450.248c-2.313 0-3.75.751-3.75 2.002 0 1.123 1.563 1.623 2.813 2.061l2.5.938c3.625 1.377 8.125 2.813 8.125 9.063 0 5.625-5.563 9.687-11.25 9.687-4.688 0-7.813-1.312-9.876-3.062v-8.188h7.189v3.375c.688.249 1.375.375 2.063.375 2.188 0 3.75-.938 3.75-2.374 0-1.376-1.563-1.815-2.813-2.314l-2.5-.938c-2.813-1.063-8.125-2.813-8.125-9.063 0-5.313 5.625-9.063 11.25-9.063 4.688 0 7.5 1.563 10.125 4.063v6.625h-7.188v-2.748c-.813-.313-1.625-.439-2.313-.439" fill="#231f20"/><path d="M241.035 470.249l-7.625 3.876c-4.125-3.814-5.875-7.689-5.875-13.377v-8.624h-5.625v-8.125h5.625v-8.75h8.75v8.75h5.938v8.125h-5.938v8.624c0 4.126 1.5 7.001 4.75 9.501" fill="#231f20"/><path d="M259.721 460.123c0 1.313.188 3.189.5 4.94 0 0-1.686 1.686-4.063 1.686-1.313 0-3.188-1.001-3.249-2.75-.064-1.938.813-3.876 4.311-3.876h2.5zm8.75.253v-6.064c0-6.625-4.688-11.563-12.5-11.563-5 0-8.438 2.999-8.438 2.999l4.563 5.938s1.439-1.062 3.875-1.062c2.5 0 3.75 1.687 3.75 3.688h-2.5c-8.125 0-13.186 3.5-13.186 9.688 0 5.688 5.499 10 11.311 10 4.875 0 7.564-3.187 7.564-3.187.5.75 2.688 2.937 2.688 2.937l7.625-3.875c-3.25-2.5-4.751-5.376-4.751-9.499" fill="#231f20"/><path d="M293.098 465.249v7.5h-16.25v-7.5h3.75v-8.876c0-4.122-1.501-6.999-4.751-9.499l7.625-3.875c1.438 1.127 3.188 3.687 3.188 3.687s4.813-3.937 8.939-3.937l2.188 8.438c-4.063 0-8.438 4.874-8.438 4.874v9.189h3.75" fill="#231f20"/><path d="M320.284 470.249l-7.625 3.876c-4.125-3.814-5.875-7.689-5.875-13.377v-8.624h-5.625v-8.125h5.625v-8.75h8.75v8.75h5.938v8.125h-5.938v8.624c0 4.126 1.5 7.001 4.75 9.501" fill="#231f20"/><path d="M340.971 465.249v7.5h-16.25v-7.5h3.75v-8.876c0-4.122-1.5-6.999-4.75-9.499l7.625-3.875c1.438 1.127 3.186 3.687 3.186 3.687s4.814-3.937 8.939-3.937l2.188 8.438c-4.063 0-8.438 4.874-8.438 4.874v9.189h3.75" fill="#231f20"/><path d="M357.846 439.936c-2.813 0-5.126-2.313-5.126-5.126s2.314-5.124 5.126-5.124c2.813 0 5.124 2.312 5.124 5.124 0 2.813-2.311 5.126-5.124 5.126zm-8.188 11.563v-7.5h12.625v21.25h3.75v7.5h-16.375v-7.5h3.75v-13.75h-3.75" fill="#231f20"/><path d="M382.158 458.373c0-3.688 1.939-7.5 5.625-7.5 3.625 0 5.563 3.877 5.563 7.5 0 3.624-1.938 7.5-5.563 7.5-3.686 0-5.625-3.813-5.625-7.5zm0-13.188v-15.563h-12.5v7.5h3.75v23.252c0 4.123-1.499 6.999-4.75 9.499l7.626 3.875c.938-.688 2.749-3.061 2.749-3.061s3.251 3.311 8.75 3.311c8.313 0 14.439-7.562 14.439-15.625 0-8.063-5.064-15.625-14.439-15.625-3.5 0-5.625 2.438-5.625 2.438" fill="#231f20"/><path d="M419.658 465.624c3.5 0 5.125-4.936 5.125-4.936v-9.189h-3.75v-7.5h12.5v16.377c0 4.123 1.5 6.999 4.75 9.499l-7.625 3.875c-1.313-.937-3.188-3.686-3.188-3.686s-4.125 4.063-8.813 4.063c-5.25 0-10.125-3.626-10.125-8.939v-13.688h-3.75v-7.5h12.5v16.813c0 3.314.688 4.813 2.375 4.813" fill="#231f20"/><path d="M445.219 456.373c0-4.122-1.5-6.999-4.749-9.499l7.624-3.875c1.126.814 3.188 3.687 3.188 3.687s4.438-4.063 9.125-4.063c5.313 0 10.438 3.626 10.438 8.938v13.688h3.75v7.5h-12.5v-16.813c0-4.251-.813-4.813-2.688-4.813-3.5 0-5.438 4.936-5.438 4.936v9.189h3.75v7.5h-16.25v-7.5h3.75v-8.876" fill="#231f20"/><path d="M486.469 455.248c0-.751 1.125-4.501 4.563-4.501 2.875 0 3.5 3.251 3.5 4.501h-8.063zm4.563 10.752c-3.5 0-4.813-4.063-4.813-5.189h17.188c1.188-3.501-.125-18.063-12.375-18.063-8.125 0-13.813 7.686-13.813 15.625 0 8.813 5.875 15.625 13.813 15.625 7.688 0 12.063-5.625 12.063-5.625l-5.563-5.25s-1.688 2.876-6.5 2.876" fill="#231f20"/><path d="M513.906 473.936c-3.064 0-5.564-2.5-5.564-5.562 0-3.063 2.5-5.563 5.564-5.563 3.063 0 5.563 2.5 5.563 5.563 0 3.063-2.5 5.562-5.563 5.562" fill="#231f20"/><path d="M548.655 455.936h-7.5v-4.063c-.563-.438-2.375-1.126-3.938-1-3.875.313-5.249 3.937-5.249 7.5 0 3.564 1.686 7.5 5.249 7.5 3.251 0 5.439-1.063 6.563-2.938l5.5 5.438c-3.125 4.063-6.875 5.687-12.063 5.625-8.188-.126-14.125-7.626-14.125-15.625 0-7.998 5.625-15.375 14.125-15.625 5.563-.186 9 2.125 11.438 4.814v8.373" fill="#231f20"/><path d="M561.092 458.373c0-3.623 1.936-7.5 5.563-7.5 3.625 0 5.563 3.877 5.563 7.5 0 3.624-1.938 7.5-5.563 7.5-3.626 0-5.563-3.876-5.563-7.5zm5.563-15.625c-8.314 0-14.438 7.563-14.438 15.625 0 8.063 6.124 15.625 14.438 15.625 8.313 0 14.438-7.562 14.438-15.625 0-8.063-6.125-15.625-14.438-15.625" fill="#231f20"/><path d="M601.342 451.123c-3.063 0-4.814 4.125-4.814 4.125v10h3.75v7.5h-16.25v-7.5h3.75v-8.876c0-4.122-1.5-6.999-4.75-9.499l7.625-3.875c1.188.874 3.189 3.687 3.189 3.687s4.125-4.063 8.125-4.063c4.936 0 7.624 2.938 8.125 3.501 0 0 3.813-3.501 7.5-3.501 5.25 0 10.186 3.626 10.186 8.938v13.688h3.75v7.5h-12.5v-16.813c0-4.438-.625-4.813-2.061-4.813-3.063 0-4.814 4.125-4.814 4.125v10h3.75v7.5h-12.5v-16.813c0-4.438-.625-4.813-2.061-4.813" fill="#231f20"/></g></svg>