<svg xmlns="http://www.w3.org/2000/svg" width="337.5" height="83.75"><defs><clipPath id="a"><path d="M0 1h2700v670h-2700v-670z"/></clipPath></defs><g clip-path="url(#a)" fill="#231f20"><path d="M290.188 26.964c-.036-1.655-1.245-3.214-2.921-3.811-2.359-.798-5.423-.737-7.396.911-2.288 1.891-2.688 4.604-2.654 7.447l-.029 19.947-9.887.049.007-37.203 10.162-.014.015 4.161c3.337-4.182 8.239-5.394 13.592-4.346 2.357.923 4.966 1.728 6.67 4.013.787 1.204 2.014 2.479 1.667 3.973-4.524 7.221-4.008 18.546 1.166 25.342l.044 4.017-10.512.067.075-24.553"/><path d="M253.199 47.73c-2.881 3.254-7.125 5.581-11.556 5.239-4.746-.16-9.691-2.825-11.221-7.545-2.145-9.647-.745-31.137-.745-31.137l10.063.031-.001 24.045c.453 2.323 1.544 4.784 4.031 5.522 2.118.356 4.494.281 6.206-.934 3.366-2.556 2.891-6.817 3.224-10.748l-.003-17.922 10.002.045-.037 37.145-9.931-.016-.031-3.725"/><path d="M121.418 22.301c-4.057-.335-7.878.901-9.891 4.611-2.394 6.053-.753 11.678-1.301 24.44l-10.329-.023.01-36.973 10.283.023-.001 4.565c2.021-4.022 6.509-6.431 11.173-5.209l.055 8.564"/><path d="M334.529 23.064c2.104 4.106 3.194 8.817 3.158 13.567l-26.907.029c-.159 1.305.154 2.32.455 3.49 1.009 2.647 3.71 5.015 6.452 5.383 3.308.319 6.819-.234 8.635-3.385.236-.746.159-.668.236-1.137h10.625c-.271 3.933-3.75 7.909-6.979 9.906-5.385 3.452-14.145 3.897-19.832.78-6.865-3.58-9.97-10.708-9.941-18.084.145-7.123 2.842-13.632 9.175-17.502 5.374-3.015 13.496-2.847 18.745.386 2.59 1.679 4.731 3.973 6.179 6.566zm-7.751 6.029c-.039-1.126-.52-2.074-1.001-3.021-1.921-3.853-7.146-5.149-10.75-3.097-2.279 1.328-3.89 3.671-3.877 6.109l15.629.009"/><path d="M86.037 47.391c-3.547 5.303-10.362 5.351-16.023 3.983-3.486-.697-7.11-3.834-8.226-7.358-.808-3.267-.352-7.196 1.826-9.714 5.565-6.137 14.289-4.769 21.346-7.5.955-.855 1.294-2.161.946-3.418-1.385-2.591-4.185-3.212-7-3.144-2.565.134-5.458 1.012-6.328 3.745-.164.543-.164.934-.164 1.324l-8.738.002c.326-3.682 1.643-7.039 4.694-9.477 6.889-3.671 17.454-3.641 23.854 1.242l2.195 2.733c1.589 4.094 1.199 13.86 1.289 31.533l-9.734-.017.063-3.933zm-13.74-9.723c-.771 1.047-1.238 2.475-.829 3.859.222 1.317 1.641 2.284 2.756 2.745 3.54 1.136 7.431.403 10.107-2.042 1.929-2.587 2.254-6.268 1.697-9.53-4.419 2.097-9.729 1.926-13.73 4.968"/><path d="M164.787 12.04l-.007-9.109-41.821.024.014 9.063 15.224-.022.035 39.473 10.867-.007.046-39.402 15.641-.019"/><path d="M153.155 51.461l10.016-.008c.611-8.809-1.458-17.882 2.195-25.246 2.251-3.079 5.654-4.447 9.521-3.992l.051-8.564-3.305-.381c-3.317.182-6.492 2.555-7.929 5.526l.005-4.614-10.595.033.04 37.246"/><path d="M178.67 14.247v37.255l10.075-.02v-37.233l-10.075-.002"/><path d="M178.67 11.992h10.075v-9.027h-10.075v9.027z"/><path d="M27.493 12.027l11.575.015c-.09-1.499-.403-2.593-.985-3.772-1.509-2.656-4.208-5.15-6.935-6.269-8.49-3.613-20.189-3.166-26.961 3.945-2.826 3.63-3.931 8.734-2.653 13.448 2.524 7.992 11.069 8.918 17.784 10.681 3.542 1.011 7.476 1.279 10.295 3.962 1.103 1.149 1.51 2.595 1.226 4.276-.037 1.749-1.563 3.031-2.898 4.129-4.289 1.85-10.244 2.664-14.441.015-2.285-1.36-3.235-4.04-3.751-6.302l-9.748.023c-.281 1.495.319 2.695.48 4.011 2.11 6.794 9.141 11.44 16.008 11.894 8.74.555 18.128-.443 23.104-8.342l-.002-14.563c-1.863-3.663-5.585-5.054-8.871-6.371-5.954-2.311-13.281-1.649-18.51-5.757-.541-1.074-1.333-2.028-.929-3.458.16-1.685 1.375-3.035 2.77-4.006 3.726-1.798 9.459-2.092 12.749.138.537.817.693 2.301.693 2.301"/><path d="M60.506 21.046l.034-6.675h-6.797l-.015-11.781-9.715-.011-.036 11.792-4.954-.026.043 6.634 4.927.038-.018 9.879c.136 5.504-.623 11.991 1.122 16.214 3.015 5.376 9.798 3.828 15.169 4.064l-.011-1.625c-1.529-1.657-2.817-3.685-3.271-5.945-1.313-.027-3.241-.874-3.219-2.002l-.033-20.561 6.774.004"/><path d="M203.199 51.48l-10.286.004-.051-48.52 10.357.034.003 15.422c1.859-2.212 4.714-4.278 7.725-4.779 5.705-.82 10.736.846 14.46 5.111.307 9.321-.958 19.235.926 27.9-3.536 4.74-8.965 7.317-15.004 6.13-2.991-.499-5.929-2.132-8.13-4.428v3.125zm10.89-29.521c-2.859-.872-5.749-.118-7.851 1.776-4.08 3.853-3.466 10.493-2.13 15.397 1.252 2.901 3.89 5.393 7.269 5.275 2.31.11 4.207-.913 5.862-2.442 3.339-4.245 3.42-11.244 1.269-16.04-.902-1.706-2.683-3.305-4.419-3.966"/><path d="M35.009 77.781l2.625-9.438 4.219 1.157-5.218 13.687h-3.719l-2.093-7.25-2.094 7.25h-3.719l-5.219-13.687 4.219-1.157 2.624 9.438 2.188-8.657h4l2.188 8.657"/><path d="M58.447 77.781l2.625-9.438 4.219 1.157-5.218 13.687h-3.719l-2.093-7.25-2.094 7.25h-3.719l-5.219-13.687 4.219-1.157 2.624 9.438 2.188-8.657h4l2.188 8.657"/><path d="M81.884 77.781l2.625-9.438 4.219 1.157-5.218 13.687h-3.719l-2.093-7.25-2.094 7.25h-3.719l-5.219-13.687 4.219-1.157 2.624 9.438 2.188-8.657h4l2.188 8.657"/><path d="M91.884 83.782c-1.531 0-2.781-1.25-2.781-2.782 0-1.531 1.25-2.781 2.781-2.781 1.531 0 2.781 1.25 2.781 2.781 0 1.532-1.25 2.782-2.781 2.782"/><path d="M104.228 71.937c-1.156 0-1.875.375-1.875 1 0 .562.781.813 1.406 1.031l1.25.469c1.813.688 4.063 1.406 4.063 4.531 0 2.813-2.781 4.844-5.625 4.844-2.344 0-3.906-.655-4.938-1.531v-4.094h3.594v1.688c.344.125.688.187 1.032.187 1.094 0 1.875-.469 1.875-1.187 0-.688-.781-.906-1.406-1.157l-1.25-.469c-1.406-.531-4.063-1.406-4.063-4.531 0-2.656 2.813-4.531 5.625-4.531 2.344 0 3.75.781 5.062 2.031v3.313h-3.594v-1.375c-.406-.156-.812-.219-1.156-.219"/><path d="M120.353 81.937l-3.813 1.938c-2.062-1.906-2.937-3.843-2.937-6.688v-4.313h-2.813v-4.063h2.813v-4.375h4.375v4.375h2.969v4.063h-2.969v4.313c0 2.063.75 3.5 2.375 4.75"/><path d="M129.697 76.875c0 .656.094 1.594.25 2.469 0 0-.844.844-2.031.844-.656 0-1.594-.5-1.625-1.376-.031-.968.405-1.937 2.156-1.937h1.25zm4.375.125v-3.032c0-3.313-2.344-5.781-6.25-5.781-2.5 0-4.22 1.5-4.22 1.5l2.282 2.969s.719-.531 1.938-.531c1.25 0 1.875.844 1.875 1.843h-1.25c-4.063 0-6.595 1.75-6.595 4.844 0 2.844 2.75 5 5.657 5 2.438 0 3.781-1.593 3.781-1.593.249.375 1.343 1.468 1.343 1.468l3.814-1.937c-1.626-1.25-2.375-2.688-2.375-4.75"/><path d="M146.384 79.437v3.75h-8.125v-3.75h1.875v-4.437c0-2.063-.749-3.5-2.374-4.75l3.813-1.938c.719.563 1.593 1.844 1.593 1.844s2.408-1.969 4.469-1.969l1.094 4.219c-2.031 0-4.219 2.438-4.219 2.438v4.593h1.875"/><path d="M159.977 81.937l-3.811 1.938c-2.064-1.906-2.938-3.843-2.938-6.688v-4.313h-2.813v-4.063h2.813v-4.375h4.375v4.375h2.969v4.063h-2.969v4.313c0 2.063.75 3.5 2.374 4.75"/><path d="M170.321 79.437v3.75h-8.125v-3.75h1.875v-4.437c0-2.063-.75-3.5-2.375-4.75l3.813-1.938c.719.563 1.595 1.844 1.595 1.844s2.405-1.969 4.469-1.969l1.094 4.219c-2.033 0-4.22 2.438-4.22 2.438v4.593h1.875"/><path d="M178.76 66.781c-1.406 0-2.564-1.156-2.564-2.562s1.157-2.563 2.564-2.563c1.406 0 2.561 1.156 2.561 2.563 0 1.406-1.155 2.562-2.561 2.562zm-4.095 5.781v-3.75h6.313v10.625h1.875v3.75h-8.188v-3.75h1.875v-6.875h-1.875"/><path d="M190.915 76c0-1.843.97-3.75 2.813-3.75 1.813 0 2.781 1.938 2.781 3.75 0 1.813-.969 3.75-2.781 3.75-1.843 0-2.813-1.905-2.813-3.75zm0-6.594v-7.781h-6.25v3.75h1.875v11.626c0 2.063-.749 3.5-2.375 4.75l3.814 1.937c.469-.344 1.374-1.531 1.374-1.531s1.625 1.656 4.375 1.656c4.156 0 7.22-3.78 7.22-7.812 0-4.031-2.533-7.813-7.22-7.813-1.75 0-2.813 1.219-2.813 1.219"/><path d="M209.665 79.625c1.75 0 2.561-2.469 2.561-2.469v-4.594h-1.875v-3.75h6.25v8.188c0 2.063.751 3.5 2.376 4.75l-3.813 1.937c-.656-.469-1.594-1.844-1.594-1.844s-2.063 2.031-4.406 2.031c-2.625 0-5.064-1.812-5.064-4.468v-6.845h-1.875v-3.75h6.25v8.406c0 1.657.345 2.407 1.189 2.407"/><path d="M222.446 75c0-2.063-.751-3.5-2.375-4.75l3.811-1.938c.564.407 1.594 1.844 1.594 1.844s2.219-2.031 4.563-2.031c2.656 0 5.22 1.813 5.22 4.469v6.843h1.875v3.75h-6.25v-8.406c0-2.125-.407-2.407-1.345-2.407-1.75 0-2.717 2.469-2.717 2.469v4.593h1.875v3.75h-8.125v-3.75h1.875v-4.437"/><path d="M243.071 74.437c0-.375.561-2.25 2.28-2.25 1.439 0 1.751 1.625 1.751 2.25h-4.031zm2.28 5.375c-1.75 0-2.406-2.031-2.406-2.594h8.594c.595-1.75-.061-9.031-6.188-9.031-4.063 0-6.906 3.844-6.906 7.813 0 4.407 2.938 7.812 6.906 7.812 3.844 0 6.031-2.812 6.031-2.812l-2.781-2.625s-.843 1.438-3.25 1.438"/><path d="M256.79 83.782c-1.532 0-2.783-1.25-2.783-2.782 0-1.531 1.25-2.781 2.783-2.781 1.53 0 2.78 1.25 2.78 2.781 0 1.532-1.25 2.782-2.78 2.782"/><path d="M274.164 74.781h-3.75v-2.031c-.282-.219-1.188-.563-1.969-.5-1.938.156-2.625 1.969-2.625 3.75 0 1.782.844 3.75 2.625 3.75 1.626 0 2.72-.531 3.281-1.468l2.75 2.718c-1.563 2.031-3.438 2.844-6.031 2.812-4.095-.062-7.064-3.812-7.064-7.812s2.813-7.688 7.064-7.813c2.78-.093 4.499 1.063 5.719 2.407v4.188"/><path d="M280.382 76c0-1.812.968-3.75 2.781-3.75 1.811 0 2.781 1.938 2.781 3.75 0 1.813-.97 3.75-2.781 3.75-1.814 0-2.781-1.937-2.781-3.75zm2.781-7.813c-4.157 0-7.219 3.782-7.219 7.813 0 4.032 3.061 7.812 7.219 7.812 4.155 0 7.219-3.78 7.219-7.812 0-4.031-3.064-7.813-7.219-7.813"/><path d="M300.507 72.375c-1.531 0-2.408 2.063-2.408 2.063v5h1.875v3.75h-8.125v-3.75h1.875v-4.437c0-2.063-.749-3.5-2.375-4.75l3.814-1.938c.593.438 1.594 1.844 1.594 1.844s2.063-2.031 4.063-2.031c2.469 0 3.811 1.468 4.063 1.75 0 0 1.906-1.75 3.75-1.75 2.625 0 5.093 1.813 5.093 4.469v6.843h1.875v3.75h-6.25v-8.406c0-2.219-.313-2.407-1.03-2.407-1.531 0-2.408 2.063-2.408 2.063v5h1.875v3.75h-6.25v-8.406c0-2.219-.313-2.407-1.03-2.407"/></g></svg>