<svg xmlns="http://www.w3.org/2000/svg" width="432.609" height="63.315"><path d="M0 47.05l11.945-4.595c2.483 5.973 6.433 9.553 14.797 9.553 6.062 0 9.924-2.476 9.924-6.526 0-5.601-6.707-6.887-14.154-8.728-9.463-2.293-20.305-5.511-20.305-19.019 0-10.386 8.913-17.736 23.706-17.736 12.956 0 20.493 5.699 23.983 15.072l-12.771 3.858c-1.748-5.056-5.793-7.351-11.394-7.351-5.057 0-8.457 2.114-8.457 5.696 0 5.42 5.975 6.432 14.429 8.457 10.198 2.387 19.754 6.153 19.754 18.93 0 10.84-7.995 18.652-24.442 18.652-16.263 0-23.434-6.982-27.017-16.265zm57.431 1.472v-22.059h-5.328v-9.646h5.422l.918-13.968h12.867v13.968h9.371v9.646h-9.371v19.759c0 3.585 1.47 5.607 4.869 6.066 1.746.184 3.491.184 5.422 0v10.199c-2.206.277-5.422.55-8.269.55-10.386 0-15.901-4.874-15.901-14.515zm26.334 1.926c0-10.106 9.101-15.162 24.996-16.724 1.745-.185 3.584-.369 5.515-.46 0-.459-.094-1.837-.094-2.204-.275-3.585-2.387-5.79-7.354-5.79-5.326 0-7.9 1.837-8.817 5.699l-13.05-1.193c2.204-9.101 9.829-13.787 23.247-13.787 15.345 0 19.76 6.619 19.76 16.451v21.043c0 2.661.182 7.165 1.012 8.911h-13.601c-.556-.917-.737-3.309-.737-5.88-3.953 4.042-8.732 6.431-16.819 6.431-8.451 0-14.058-4.78-14.058-12.495zm30.511-2.021v-7.997c-1.748.093-3.403.28-4.874.554-6.982 1.194-10.934 3.857-10.934 8.176 0 3.398 2.204 4.961 5.787 4.961 4.691 0 8.09-2.755 10.021-5.695zm18.713-31.611h13.6v9.557c2.116-5.425 7.534-10.386 14.241-10.386 1.38 0 2.574.096 3.311.281v11.484c-.922-.184-2.941-.277-4.136-.277-5.423 0-10.018 2.756-12.59 7.628v27.29h-14.426v-45.576zm35.806-4.137h-15.896v-11.577h46.131v11.577h-15.719v49.713h-14.516v-49.713zm20.602 4.137h13.599v9.557c2.116-5.425 7.536-10.386 14.244-10.386 1.379 0 2.575.096 3.31.281v11.484c-.922-.184-2.942-.277-4.136-.277-5.423 0-10.018 2.756-12.588 7.628v27.29h-14.429v-45.576zm35.981-15.714h14.52v12.036h-14.52v-12.036zm.09 15.714h14.336v45.576h-14.336v-45.576zm30.291 38.867l-2.021 6.709h-8.635v-61.29h14.057v22.695c2.571-3.949 6.8-7.811 13.875-7.811 10.476 0 16.176 7.998 16.176 23.528 0 15.616-7.541 23.522-18.379 23.522-7.445 0-11.58-2.755-15.074-7.354zm18.744-15.711c0-9.648-2.018-14.24-7.531-14.24-4.136 0-6.711 2.387-7.719 6.798v11.949c0 6.613 2.848 10.841 7.629 10.841 5.604 0 7.621-5.058 7.621-15.348zm18.901 8.639v-31.794h14.334v31.061c0 4.318 1.839 5.972 5.609 5.972 3.396 0 5.881-2.3 7.349-5.327v-31.705h14.339v45.576h-13.786l.094-6.522c-3.121 4.872-8.09 7.258-14.616 7.258-7.806 0-13.321-4.409-13.321-14.518zm47.16-31.794h13.694v7.536c2.666-3.77 6.979-8.365 14.7-8.365 9.375 0 13.139 5.607 13.139 14.337v32.068h-14.245v-31.61c0-2.847-1.465-4.963-4.954-4.963-3.768 0-6.254 2.576-8.094 5.335v31.239h-14.24v-45.576zm45.551 23.43c0-14.7 10.842-24.259 23.519-24.259 14.244 0 22.604 9.376 22.975 23.528 0 1.008 0 1.743-.095 2.756h-31.521c.182 8.176 4.418 11.758 10.015 11.758 4.599 0 7.541-2.295 9.203-6.797l11.842 1.563c-3.034 8.634-10.565 14.333-22.329 14.333-13.69 0-23.609-9.006-23.609-22.882zm32.154-5.421c-.459-6.155-3.123-9.923-8.453-9.923-4.59 0-8.266 3.676-8.641 9.923h17.094" fill="#231f20"/></svg>