<svg xmlns="http://www.w3.org/2000/svg" width="337.5" height="83.75"><defs><clipPath id="a"><path d="M0 1h2700v670h-2700v-670z"/></clipPath></defs><g clip-path="url(#a)" fill="#231f20"><path d="M290.186 26.963c-.036-1.655-1.245-3.214-2.921-3.811-2.356-.798-5.423-.737-7.395.911-2.289 1.891-2.689 4.604-2.655 7.447l-.029 19.948-9.887.049.007-37.203 10.164-.014.016 4.161c3.335-4.182 8.238-5.395 13.591-4.346 2.356.923 4.966 1.728 6.67 4.013.786 1.204 2.013 2.479 1.667 3.973-4.524 7.221-4.006 18.546 1.165 25.342l.044 4.017-10.512.068.075-24.553"/><path d="M253.197 47.73c-2.881 3.254-7.122 5.581-11.556 5.239-4.745-.16-9.691-2.825-11.22-7.545-2.146-9.648-.745-31.137-.745-31.137l10.064.031-.003 24.044c.451 2.323 1.542 4.784 4.031 5.523 2.116.356 4.494.28 6.207-.934 3.365-2.556 2.891-6.818 3.221-10.749l-.003-17.922 10.002.045-.037 37.145-9.931-.016-.031-3.726"/><path d="M121.418 22.3c-4.057-.334-7.878.901-9.891 4.61-2.394 6.054-.753 11.679-1.301 24.441l-10.329-.022.01-36.973 10.283.023-.001 4.566c2.021-4.022 6.509-6.431 11.173-5.209l.055 8.564"/><path d="M334.527 23.063c2.105 4.106 3.194 8.817 3.159 13.567l-26.909.029c-.159 1.305.154 2.32.456 3.49 1.009 2.647 3.709 5.015 6.452 5.383 3.309.319 6.819-.234 8.634-3.385.236-.746.159-.668.236-1.137h10.625c-.271 3.933-3.75 7.909-6.978 9.906-5.384 3.452-14.145 3.897-19.834.78-6.865-3.58-9.969-10.708-9.941-18.084.146-7.123 2.844-13.632 9.175-17.502 5.375-3.015 13.498-2.847 18.745.386 2.59 1.679 4.731 3.973 6.179 6.566zm-7.751 6.029c-.039-1.126-.52-2.074-1.001-3.021-1.921-3.853-7.146-5.149-10.749-3.097-2.279 1.328-3.89 3.67-3.877 6.109l15.627.009"/><path d="M86.037 47.391c-3.547 5.303-10.362 5.351-16.023 3.983-3.486-.697-7.11-3.834-8.226-7.358-.808-3.267-.352-7.196 1.826-9.714 5.565-6.136 14.289-4.769 21.346-7.5.955-.855 1.294-2.161.946-3.418-1.385-2.591-4.185-3.212-7-3.144-2.565.135-5.458 1.012-6.328 3.745-.164.543-.164.934-.164 1.325l-8.738.002c.326-3.682 1.643-7.04 4.694-9.477 6.889-3.671 17.454-3.641 23.854 1.241l2.195 2.734c1.589 4.094 1.199 13.86 1.289 31.533l-9.734-.017.063-3.933zm-13.74-9.723c-.771 1.047-1.238 2.475-.829 3.859.222 1.318 1.641 2.285 2.756 2.745 3.54 1.136 7.431.403 10.107-2.042 1.929-2.586 2.254-6.268 1.697-9.53-4.419 2.097-9.729 1.925-13.73 4.968"/><path d="M164.786 12.039l-.007-9.109-41.819.023.014 9.063 15.224-.022.035 39.473 10.867-.007.046-39.403 15.64-.018"/><path d="M153.155 51.461l10.016-.009c.611-8.809-1.458-17.882 2.195-25.245 2.251-3.079 5.654-4.447 9.521-3.992l.052-8.564-3.306-.381c-3.317.182-6.492 2.555-7.929 5.526l.005-4.614-10.595.033.04 37.246"/><path d="M178.67 14.246l-.001 37.255 10.075-.021v-37.232l-10.074-.002"/><path d="M178.67 11.991h10.074v-9.027h-10.074v9.027z"/><path d="M27.493 12.027l11.575.015c-.09-1.499-.403-2.593-.985-3.772-1.509-2.656-4.208-5.15-6.935-6.269-8.49-3.613-20.189-3.166-26.961 3.945-2.826 3.63-3.931 8.734-2.653 13.449 2.524 7.991 11.069 8.917 17.784 10.681 3.542 1.011 7.476 1.279 10.295 3.962 1.103 1.148 1.51 2.595 1.226 4.276-.037 1.749-1.563 3.031-2.898 4.129-4.289 1.849-10.244 2.664-14.441.015-2.285-1.36-3.235-4.04-3.751-6.302l-9.748.023c-.281 1.495.319 2.695.48 4.011 2.11 6.794 9.141 11.44 16.008 11.894 8.74.555 18.128-.443 23.104-8.342l-.002-14.563c-1.863-3.664-5.585-5.054-8.871-6.37-5.954-2.311-13.281-1.649-18.51-5.758-.541-1.074-1.333-2.028-.929-3.458.16-1.685 1.375-3.035 2.77-4.006 3.726-1.798 9.459-2.092 12.749.138.537.817.693 2.301.693 2.301"/><path d="M60.506 21.045l.034-6.675h-6.797l-.015-11.781-9.715-.011-.036 11.792-4.954-.026.043 6.634 4.927.038-.018 9.879c.136 5.504-.623 11.991 1.122 16.215 3.015 5.376 9.798 3.828 15.169 4.063l-.011-1.624c-1.529-1.657-2.817-3.686-3.271-5.945-1.313-.027-3.241-.874-3.219-2.002l-.033-20.561 6.774.004"/><path d="M203.197 51.48l-10.284.004-.054-48.52 10.359.034.003 15.422c1.857-2.212 4.713-4.278 7.725-4.779 5.705-.821 10.735.846 14.46 5.111.307 9.321-.959 19.235.925 27.901-3.535 4.74-8.964 7.317-15.004 6.13-2.989-.499-5.929-2.133-8.13-4.428v3.125zm10.891-29.521c-2.857-.872-5.75-.118-7.853 1.776-4.079 3.854-3.466 10.494-2.129 15.398 1.252 2.901 3.889 5.393 7.269 5.275 2.311.11 4.206-.913 5.864-2.442 3.337-4.245 3.417-11.244 1.268-16.04-.904-1.706-2.684-3.305-4.419-3.966"/><path d="M35.009 77.781l2.625-9.438 4.219 1.157-5.218 13.687h-3.719l-2.093-7.25-2.094 7.25h-3.719l-5.219-13.687 4.219-1.157 2.624 9.438 2.188-8.657h4l2.188 8.657"/><path d="M58.447 77.781l2.625-9.438 4.219 1.157-5.218 13.687h-3.719l-2.093-7.25-2.094 7.25h-3.719l-5.219-13.687 4.219-1.157 2.624 9.438 2.188-8.657h4l2.188 8.657"/><path d="M81.884 77.781l2.625-9.438 4.219 1.157-5.218 13.687h-3.719l-2.093-7.25-2.094 7.25h-3.719l-5.219-13.687 4.219-1.157 2.624 9.438 2.188-8.657h4l2.188 8.657"/><path d="M91.884 83.781c-1.531 0-2.781-1.25-2.781-2.782 0-1.531 1.25-2.781 2.781-2.781 1.531 0 2.781 1.25 2.781 2.781 0 1.532-1.25 2.782-2.781 2.782"/><path d="M104.228 71.937c-1.156 0-1.875.376-1.875 1.001 0 .562.781.812 1.406 1.03l1.25.469c1.813.688 4.063 1.406 4.063 4.531 0 2.813-2.781 4.844-5.625 4.844-2.344 0-3.906-.656-4.938-1.531v-4.094h3.594v1.688c.344.125.688.187 1.032.187 1.094 0 1.875-.469 1.875-1.187 0-.688-.781-.907-1.406-1.157l-1.25-.469c-1.406-.531-4.063-1.406-4.063-4.531 0-2.656 2.813-4.531 5.625-4.531 2.344 0 3.75.781 5.062 2.031v3.313h-3.594v-1.375c-.406-.156-.812-.22-1.156-.22"/><path d="M120.353 81.937l-3.813 1.938c-2.062-1.907-2.937-3.844-2.937-6.688v-4.313h-2.813v-4.063h2.813v-4.375h4.375v4.375h2.969v4.063h-2.969v4.313c0 2.063.75 3.5 2.375 4.75"/><path d="M129.697 76.874c0 .656.094 1.594.25 2.47 0 0-.844.843-2.031.843-.656 0-1.594-.5-1.625-1.375-.031-.968.405-1.938 2.156-1.938h1.25zm4.375.126v-3.032c0-3.313-2.344-5.781-6.25-5.781-2.5 0-4.22 1.5-4.22 1.5l2.282 2.969s.719-.531 1.938-.531c1.25 0 1.875.843 1.875 1.843h-1.25c-4.063 0-6.595 1.75-6.595 4.844 0 2.844 2.75 5 5.657 5 2.438 0 3.781-1.593 3.781-1.593.249.375 1.343 1.469 1.343 1.469l3.814-1.937c-1.626-1.25-2.375-2.688-2.375-4.75"/><path d="M146.384 79.437v3.75h-8.125v-3.75h1.875v-4.438c0-2.062-.749-3.5-2.374-4.75l3.813-1.938c.719.564 1.593 1.844 1.593 1.844s2.408-1.969 4.469-1.969l1.094 4.219c-2.031 0-4.219 2.438-4.219 2.438v4.594h1.875"/><path d="M159.977 81.937l-3.811 1.938c-2.064-1.907-2.938-3.844-2.938-6.688v-4.313h-2.813v-4.063h2.813v-4.375h4.375v4.375h2.969v4.063h-2.969v4.313c0 2.063.75 3.5 2.374 4.75"/><path d="M170.321 79.437v3.75h-8.125v-3.75h1.875v-4.438c0-2.062-.75-3.5-2.375-4.75l3.813-1.938c.719.564 1.595 1.844 1.595 1.844s2.405-1.969 4.468-1.969l1.094 4.219c-2.031 0-4.219 2.438-4.219 2.438v4.594h1.875"/><path d="M178.759 66.78c-1.406 0-2.563-1.156-2.563-2.563 0-1.406 1.156-2.562 2.563-2.562 1.406 0 2.564 1.156 2.564 2.562s-1.157 2.563-2.564 2.563zm-4.094 5.781v-3.75h6.313v10.625h1.875v3.75h-8.188v-3.75h1.875v-6.875h-1.875"/><path d="M190.914 75.999c0-1.843.97-3.75 2.813-3.75 1.815 0 2.781 1.938 2.781 3.75 0 1.813-.966 3.75-2.781 3.75-1.843 0-2.813-1.906-2.813-3.75zm0-6.594v-7.781h-6.25v3.75h1.875v11.626c0 2.062-.749 3.5-2.374 4.75l3.813 1.937c.469-.344 1.374-1.531 1.374-1.531s1.626 1.655 4.375 1.655c4.159 0 7.22-3.781 7.22-7.812 0-4.031-2.533-7.813-7.22-7.813-1.75 0-2.813 1.218-2.813 1.218"/><path d="M209.664 79.625c1.751 0 2.564-2.468 2.564-2.468v-4.595h-1.875v-3.75h6.25v8.188c0 2.062.75 3.5 2.374 4.75l-3.811 1.937c-.657-.469-1.595-1.843-1.595-1.843s-2.063 2.031-4.406 2.031c-2.625 0-5.061-1.813-5.061-4.469v-6.844h-1.875v-3.75h6.25v8.406c0 1.658.343 2.407 1.186 2.407"/><path d="M222.445 74.999c0-2.062-.75-3.5-2.375-4.75l3.813-1.938c.563.408 1.595 1.844 1.595 1.844s2.216-2.031 4.56-2.031c2.656 0 5.22 1.813 5.22 4.469v6.843h1.875v3.75h-6.25v-8.406c0-2.125-.405-2.407-1.343-2.407-1.751 0-2.72 2.469-2.72 2.469v4.594h1.875v3.75h-8.125v-3.75h1.875v-4.438"/><path d="M243.07 74.437c0-.375.561-2.25 2.28-2.25 1.439 0 1.751 1.625 1.751 2.25h-4.031zm2.28 5.376c-1.748 0-2.405-2.031-2.405-2.595h8.594c.594-1.75-.063-9.031-6.189-9.031-4.063 0-6.904 3.844-6.904 7.813 0 4.407 2.936 7.812 6.904 7.812 3.845 0 6.032-2.812 6.032-2.812l-2.78-2.625s-.845 1.438-3.252 1.438"/><path d="M256.789 83.781c-1.531 0-2.781-1.25-2.781-2.782 0-1.531 1.25-2.781 2.781-2.781 1.53 0 2.78 1.25 2.78 2.781 0 1.532-1.25 2.782-2.78 2.782"/><path d="M274.164 74.781h-3.75v-2.031c-.281-.22-1.189-.563-1.97-.5-1.936.156-2.625 1.969-2.625 3.75 0 1.782.845 3.75 2.625 3.75 1.626 0 2.72-.531 3.281-1.469l2.751 2.719c-1.563 2.031-3.438 2.844-6.032 2.812-4.093-.062-7.061-3.812-7.061-7.812 0-3.999 2.813-7.688 7.061-7.813 2.783-.093 4.501 1.062 5.72 2.407v4.187"/><path d="M280.382 75.999c0-1.812.969-3.75 2.78-3.75 1.814 0 2.781 1.938 2.781 3.75 0 1.813-.968 3.75-2.781 3.75-1.811 0-2.78-1.938-2.78-3.75zm2.78-7.813c-4.155 0-7.219 3.782-7.219 7.813 0 4.032 3.064 7.812 7.219 7.812 4.157 0 7.22-3.781 7.22-7.812 0-4.031-3.063-7.813-7.22-7.813"/><path d="M300.506 72.374c-1.53 0-2.406 2.063-2.406 2.063v5h1.875v3.75h-8.125v-3.75h1.875v-4.438c0-2.062-.75-3.5-2.374-4.75l3.811-1.938c.593.438 1.594 1.844 1.594 1.844s2.064-2.031 4.063-2.031c2.469 0 3.814 1.469 4.063 1.75 0 0 1.907-1.75 3.75-1.75 2.625 0 5.094 1.813 5.094 4.469v6.843h1.875v3.75h-6.25v-8.406c0-2.219-.313-2.407-1.031-2.407-1.53 0-2.406 2.063-2.406 2.063v5h1.875v3.75h-6.25v-8.406c0-2.219-.313-2.407-1.031-2.407"/></g></svg>