<svg xmlns="http://www.w3.org/2000/svg" width="435.884" height="105.631"><g fill="#231f20"><path d="M421.436 35.091c-.464-6.204-3.149-9.999-8.516-9.999-4.626 0-8.329 3.703-8.707 9.999h17.224zm-32.4 5.463c0-14.815 10.926-24.444 23.699-24.444 14.351 0 22.774 9.446 23.149 23.705 0 1.019 0 1.757-.095 2.779h-31.759c.182 8.236 4.449 11.847 10.091 11.847 4.63 0 7.595-2.312 9.269-6.848l11.934 1.57c-3.057 8.702-10.646 14.448-22.499 14.448-13.794 0-23.789-9.076-23.789-23.057zm-45.895-23.61h13.796v7.594c2.686-3.8 7.032-8.429 14.814-8.429 9.446 0 13.238 5.651 13.238 14.445v32.311h-14.355v-31.85c0-2.869-1.475-5.002-4.99-5.002-3.795 0-6.298 2.597-8.155 5.375v31.476h-14.348v-45.922zm-47.516 32.035v-32.035h14.444v31.295c0 4.353 1.853 6.019 5.647 6.019 3.425 0 5.926-2.318 7.406-5.372v-31.942h14.447v45.922h-13.891l.094-6.571c-3.145 4.908-8.151 7.316-14.725 7.316-7.867 0-13.422-4.447-13.422-14.632zm-19.043-8.701c0-9.723-2.036-14.352-7.593-14.352-4.165 0-6.759 2.407-7.774 6.85v12.039c0 6.663 2.869 10.923 7.684 10.923 5.646 0 7.683-5.094 7.683-15.46zm-18.886 15.831l-2.039 6.757h-8.7v-61.754h14.162v22.868c2.594-3.979 6.853-7.87 13.982-7.87 10.554 0 16.295 8.057 16.295 23.705 0 15.737-7.593 23.701-18.516 23.701-7.5 0-11.665-2.777-15.185-7.406zm-30.524-39.165h14.446v45.922h-14.446v-45.922zm-.09-15.832h14.629v12.124h-14.629v-12.124zm-36.254 15.832h13.704v9.629c2.131-5.464 7.591-10.464 14.349-10.464 1.391 0 2.596.095 3.335.283v11.57c-.927-.185-2.964-.28-4.166-.28-5.463 0-10.092 2.777-12.684 7.686v27.498h-14.537v-45.922zm-20.758-4.169h-16.017v-11.663h46.48v11.663h-15.836v50.091h-14.626v-50.091zm-36.078 4.169h13.701v9.629c2.131-5.464 7.591-10.464 14.351-10.464 1.389 0 2.592.095 3.334.283v11.57c-.926-.185-2.962-.28-4.166-.28-5.46 0-10.094 2.777-12.684 7.686v27.498h-14.536v-45.922zm-18.855 31.851v-8.057c-1.76.094-3.427.28-4.909.556-7.035 1.204-11.016 3.887-11.016 8.239 0 3.427 2.222 5.001 5.83 5.001 4.725 0 8.152-2.777 10.095-5.739zm-30.741 2.034c0-10.182 9.171-15.276 25.186-16.85 1.758-.186 3.613-.371 5.556-.462 0-.464-.095-1.853-.095-2.222-.276-3.615-2.402-5.836-7.41-5.836-5.366 0-7.958 1.851-8.881 5.741l-13.151-1.204c2.221-9.167 9.908-13.889 23.425-13.889 15.461 0 19.909 6.668 19.909 16.577v21.201c0 2.683.182 7.22 1.02 8.979h-13.704c-.559-.923-.742-3.332-.742-5.924-3.983 4.072-8.797 6.478-16.947 6.478-8.514 0-14.165-4.813-14.165-12.59zm-26.531-1.943v-22.222h-5.369v-9.72h5.462l.925-14.072h12.966v14.072h9.442v9.72h-9.442v19.906c0 3.612 1.48 5.65 4.907 6.114 1.757.183 3.517.183 5.462 0v10.276c-2.221.278-5.462.554-8.333.554-10.464 0-16.02-4.908-16.02-14.628zm-57.866-1.479l12.035-4.633c2.503 6.021 6.482 9.63 14.909 9.63 6.109 0 9.999-2.497 9.999-6.576 0-5.644-6.758-6.94-14.26-8.795-9.534-2.313-20.459-5.556-20.459-19.164 0-10.464 8.981-17.87 23.886-17.87 13.054 0 20.648 5.741 24.165 15.188l-12.869 3.886c-1.759-5.094-5.835-7.406-11.479-7.406-5.094 0-8.52 2.131-8.52 5.741 0 5.461 6.018 6.479 14.537 8.518 10.276 2.407 19.906 6.201 19.906 19.074 0 10.923-8.056 18.793-24.628 18.793-16.387 0-23.613-7.035-27.222-16.387"/><path d="M322.608 89.196c0-8.979 6.054-16.303 15.605-16.303 7.644 0 12.738 4.076 14.014 11.848l-8.787.826c-.453-3.629-1.789-6.115-4.907-6.115-3.567 0-5.41 3.374-5.41 9.809 0 7.009 2.099 10.063 5.539 10.063 3.12 0 4.522-2.101 5.096-5.67l8.533.766c-.955 7.2-5.986 11.211-14.2 11.211-9.113 0-15.481-6.051-15.481-16.435"/><path d="M375.409 89.196c0-6.62-1.781-9.744-5.668-9.744-3.757 0-5.798 3.057-5.798 9.744 0 6.88 1.914 9.999 5.862 9.999 3.629 0 5.603-3.054 5.603-9.999zm-21.974.324c0-9.812 6.878-16.627 16.241-16.627 9.809 0 16.304 6.625 16.304 16.433 0 9.236-6.62 16.245-16.495 16.245-9.422 0-16.05-6.817-16.05-16.051"/><path d="M389.55 73.464h9.491v5.29c1.779-2.677 4.718-5.861 9.744-5.861 4.266 0 7.13 1.91 8.215 6.051 1.911-2.738 4.779-6.051 9.939-6.051 4.263 0 6.813 1.656 7.957 4.774.576 1.405.77 3.188.77 5.099v22.292h-9.875v-20.829c0-2.989-.826-4.455-3.121-4.455-2.485 0-4.079 2.036-5.094 3.758v21.526h-9.936v-20.829c0-2.928-.83-4.455-3.058-4.455-2.422 0-3.822 1.591-5.161 3.758v21.526h-9.871v-31.593"/><path d="M317.178 89.362c0 8.716-7.065 15.781-15.781 15.781-8.715 0-15.781-7.065-15.781-15.781 0-8.715 7.066-15.781 15.781-15.781 8.716 0 15.781 7.066 15.781 15.781"/></g></svg>