<svg xmlns="http://www.w3.org/2000/svg" width="337.761" height="84.095"><g><path d="M290.26 27.183c-.036-1.655-1.245-3.214-2.922-3.811-2.356-.798-5.423-.737-7.395.911-2.288 1.891-2.688 4.604-2.654 7.447l-.03 19.948-9.887.049.007-37.204 10.164-.014.018 4.161c3.335-4.182 8.238-5.395 13.591-4.346 2.355.923 4.965 1.727 6.67 4.013.786 1.204 2.011 2.479 1.667 3.973-4.524 7.22-4.006 18.546 1.164 25.342l.044 4.017-10.512.068.076-24.553"/><path d="M253.27 47.95c-2.881 3.254-7.121 5.581-11.555 5.239-4.746-.16-9.693-2.825-11.221-7.545-2.145-9.647-.744-31.136-.744-31.136l10.063.031-.003 24.044c.453 2.323 1.544 4.784 4.031 5.522 2.116.356 4.495.281 6.209-.934 3.364-2.556 2.89-6.818 3.22-10.749l-.003-17.922 10.002.045-.036 37.145-9.932-.016-.031-3.726"/><path d="M121.492 22.52c-4.057-.334-7.878.901-9.891 4.61-2.393 6.054-.752 11.679-1.3 24.441l-10.329-.022.01-36.973 10.283.023-.001 4.566c2.021-4.022 6.509-6.431 11.173-5.208l.055 8.564"/><path d="M334.6 23.283c2.105 4.106 3.194 8.817 3.16 13.568l-26.91.028c-.158 1.305.155 2.321.458 3.49 1.008 2.647 3.709 5.015 6.452 5.383 3.308.318 6.819-.234 8.633-3.385.237-.746.159-.667.237-1.136h10.625c-.271 3.933-3.75 7.909-6.978 9.906-5.384 3.452-14.146 3.898-19.835.78-6.865-3.58-9.967-10.708-9.941-18.084.146-7.123 2.845-13.632 9.175-17.502 5.376-3.016 13.499-2.848 18.745.386 2.59 1.678 4.731 3.973 6.179 6.566zm-7.751 6.029c-.039-1.126-.52-2.074-1-3.022-1.923-3.853-7.146-5.149-10.75-3.097-2.277 1.328-3.889 3.67-3.877 6.109l15.627.009"/><path d="M86.111 47.611c-3.547 5.303-10.362 5.35-16.023 3.983-3.486-.697-7.11-3.834-8.226-7.358-.808-3.267-.352-7.196 1.826-9.714 5.565-6.136 14.289-4.769 21.346-7.5.955-.855 1.294-2.161.945-3.418-1.384-2.591-4.185-3.212-7-3.144-2.566.134-5.459 1.012-6.328 3.745-.164.543-.164.934-.164 1.325l-8.738.002c.326-3.683 1.643-7.04 4.694-9.477 6.889-3.671 17.454-3.641 23.854 1.241l2.195 2.734c1.589 4.094 1.199 13.86 1.289 31.533l-9.734-.017.063-3.933zm-13.74-9.723c-.771 1.047-1.239 2.476-.829 3.859.222 1.318 1.641 2.285 2.756 2.745 3.54 1.136 7.431.403 10.107-2.042 1.929-2.587 2.254-6.268 1.697-9.53-4.419 2.097-9.729 1.926-13.73 4.968"/><path d="M164.86 12.259l-.007-9.109-41.819.023.014 9.063 15.223-.022.036 39.473 10.867-.006.046-39.403 15.64-.018"/><path d="M153.229 51.681l10.016-.009c.611-8.809-1.459-17.882 2.195-25.245 2.25-3.08 5.654-4.447 9.521-3.992l.052-8.564-3.308-.381c-3.316.182-6.491 2.555-7.929 5.526l.005-4.614-10.595.033.041 37.246"/><path d="M178.743 14.466l-.001 37.254 10.076-.02v-37.232l-10.075-.002"/><path d="M178.743 12.211h10.074v-9.027h-10.074v9.027z"/><path d="M27.567 12.247l11.575.015c-.09-1.499-.403-2.593-.985-3.772-1.509-2.656-4.208-5.15-6.935-6.269-8.49-3.613-20.189-3.166-26.962 3.945-2.825 3.63-3.93 8.734-2.652 13.449 2.524 7.991 11.069 8.917 17.784 10.681 3.542 1.011 7.476 1.279 10.295 3.962 1.103 1.148 1.509 2.595 1.226 4.276-.037 1.75-1.563 3.031-2.898 4.129-4.289 1.849-10.244 2.664-14.441.015-2.285-1.36-3.235-4.04-3.751-6.303l-9.748.023c-.281 1.495.319 2.695.48 4.011 2.11 6.794 9.141 11.44 16.008 11.894 8.74.555 18.128-.443 23.104-8.342l-.002-14.563c-1.863-3.664-5.585-5.054-8.871-6.371-5.954-2.311-13.281-1.649-18.51-5.757-.541-1.074-1.333-2.028-.929-3.458.16-1.685 1.375-3.035 2.77-4.006 3.726-1.798 9.459-2.092 12.749.138.537.817.693 2.301.693 2.301"/><path d="M60.58 21.265l.034-6.675h-6.797l-.015-11.781-9.715-.011-.036 11.792-4.954-.026.043 6.634 4.927.038-.018 9.879c.136 5.504-.623 11.991 1.122 16.215 3.015 5.376 9.798 3.828 15.169 4.063l-.011-1.624c-1.529-1.657-2.817-3.686-3.271-5.945-1.313-.027-3.241-.874-3.219-2.002l-.033-20.561 6.774.004"/><path d="M203.27 51.7l-10.284.004-.052-48.52 10.359.034.003 15.422c1.857-2.212 4.711-4.279 7.724-4.779 5.706-.82 10.735.846 14.461 5.111.307 9.321-.96 19.234.925 27.901-3.535 4.74-8.965 7.317-15.005 6.129-2.989-.499-5.928-2.132-8.13-4.428v3.125zm10.891-29.521c-2.856-.872-5.75-.119-7.851 1.776-4.08 3.854-3.467 10.493-2.129 15.398 1.252 2.901 3.889 5.393 7.268 5.275 2.313.11 4.206-.913 5.864-2.443 3.337-4.244 3.419-11.244 1.268-16.04-.904-1.706-2.683-3.305-4.419-3.966"/><path d="M35.083 78.001l2.625-9.438 4.219 1.157-5.219 13.687h-3.719l-2.093-7.25-2.094 7.25h-3.719l-5.219-13.687 4.219-1.157 2.624 9.438 2.188-8.657h4l2.188 8.657"/><path d="M58.521 78.001l2.625-9.438 4.219 1.157-5.219 13.687h-3.719l-2.093-7.25-2.094 7.25h-3.719l-5.219-13.687 4.219-1.157 2.624 9.438 2.188-8.657h4l2.188 8.657"/><path d="M81.958 78.001l2.625-9.438 4.219 1.157-5.219 13.687h-3.719l-2.093-7.25-2.094 7.25h-3.719l-5.219-13.687 4.219-1.157 2.624 9.438 2.188-8.657h4l2.188 8.657"/><path d="M91.958 84.001c-1.531 0-2.781-1.25-2.781-2.782 0-1.531 1.25-2.781 2.781-2.781 1.531 0 2.781 1.25 2.781 2.781 0 1.532-1.25 2.782-2.781 2.782"/><path d="M104.302 72.157c-1.156 0-1.875.376-1.875 1.001 0 .562.781.812 1.406 1.03l1.25.469c1.813.688 4.063 1.406 4.063 4.531 0 2.813-2.782 4.844-5.625 4.844-2.344 0-3.906-.656-4.938-1.531v-4.094h3.594v1.688c.344.125.688.187 1.032.187 1.094 0 1.875-.469 1.875-1.187 0-.688-.781-.907-1.406-1.157l-1.25-.469c-1.406-.531-4.063-1.406-4.063-4.531 0-2.656 2.813-4.531 5.625-4.531 2.344 0 3.75.781 5.062 2.031v3.313h-3.594v-1.375c-.406-.156-.813-.22-1.156-.22"/><path d="M120.427 82.157l-3.813 1.938c-2.062-1.907-2.937-3.844-2.937-6.688v-4.313h-2.813v-4.063h2.813v-4.375h4.375v4.375h2.969v4.063h-2.969v4.313c0 2.063.75 3.5 2.374 4.75"/><path d="M129.77 77.094c0 .656.094 1.594.25 2.47 0 0-.844.843-2.031.843-.656 0-1.594-.5-1.625-1.375-.031-.968.406-1.938 2.156-1.938h1.25zm4.375.126v-3.032c0-3.313-2.344-5.781-6.25-5.781-2.5 0-4.218 1.5-4.218 1.5l2.281 2.969s.719-.531 1.938-.531c1.25 0 1.875.843 1.875 1.843h-1.25c-4.062 0-6.594 1.75-6.594 4.844 0 2.844 2.75 5 5.656 5 2.438 0 3.781-1.593 3.781-1.593.25.375 1.344 1.469 1.344 1.469l3.813-1.937c-1.625-1.25-2.375-2.688-2.375-4.75"/><path d="M146.458 79.657v3.75h-8.125v-3.75h1.875v-4.438c0-2.062-.75-3.5-2.375-4.75l3.813-1.938c.719.564 1.594 1.844 1.594 1.844s2.406-1.969 4.469-1.969l1.094 4.219c-2.031 0-4.219 2.438-4.219 2.438v4.594h1.875"/><path d="M160.052 82.157l-3.813 1.938c-2.063-1.907-2.938-3.844-2.938-6.688v-4.313h-2.813v-4.063h2.813v-4.375h4.375v4.375h2.969v4.063h-2.969v4.313c0 2.063.75 3.5 2.375 4.75"/><path d="M170.394 79.657v3.75h-8.124v-3.75h1.874v-4.438c0-2.062-.749-3.5-2.374-4.75l3.813-1.938c.719.564 1.594 1.844 1.594 1.844s2.406-1.969 4.468-1.969l1.094 4.219c-2.031 0-4.219 2.438-4.219 2.438v4.594h1.875"/><path d="M178.832 67c-1.406 0-2.561-1.156-2.561-2.563 0-1.406 1.155-2.562 2.561-2.562s2.564 1.156 2.564 2.562-1.157 2.563-2.564 2.563zm-4.093 5.781v-3.75h6.313v10.625h1.875v3.75h-8.188v-3.75h1.875v-6.875h-1.875"/><path d="M190.988 76.219c0-1.843.969-3.75 2.813-3.75 1.814 0 2.78 1.938 2.78 3.75 0 1.813-.966 3.75-2.78 3.75-1.844 0-2.813-1.906-2.813-3.75zm0-6.594v-7.781h-6.25v3.75h1.875v11.626c0 2.062-.75 3.5-2.374 4.75l3.811 1.937c.469-.344 1.375-1.531 1.375-1.531s1.626 1.655 4.375 1.655c4.157 0 7.219-3.781 7.219-7.812 0-4.031-2.531-7.813-7.219-7.813-1.751 0-2.813 1.218-2.813 1.218"/><path d="M209.738 79.845c1.75 0 2.564-2.468 2.564-2.468v-4.595h-1.875v-3.75h6.25v8.188c0 2.062.749 3.5 2.373 4.75l-3.811 1.937c-.656-.469-1.594-1.843-1.594-1.843s-2.064 2.031-4.407 2.031c-2.624 0-5.06-1.813-5.06-4.469v-6.844h-1.875v-3.75h6.25v8.406c0 1.658.341 2.407 1.186 2.407"/><path d="M222.518 75.219c0-2.062-.749-3.5-2.375-4.75l3.814-1.938c.561.408 1.594 1.844 1.594 1.844s2.217-2.031 4.561-2.031c2.656 0 5.219 1.813 5.219 4.469v6.843h1.875v3.75h-6.25v-8.406c0-2.125-.405-2.407-1.343-2.407-1.75 0-2.72 2.469-2.72 2.469v4.594h1.875v3.75h-8.125v-3.75h1.875v-4.438"/><path d="M243.143 74.657c0-.375.563-2.25 2.281-2.25 1.438 0 1.75 1.625 1.75 2.25h-4.031zm2.281 5.376c-1.749 0-2.405-2.031-2.405-2.595h8.594c.593-1.75-.064-9.031-6.189-9.031-4.063 0-6.905 3.844-6.905 7.813 0 4.407 2.938 7.812 6.905 7.812 3.845 0 6.032-2.812 6.032-2.812l-2.781-2.625s-.845 1.438-3.251 1.438"/><path d="M256.862 84.001c-1.531 0-2.781-1.25-2.781-2.782 0-1.531 1.25-2.781 2.781-2.781 1.531 0 2.781 1.25 2.781 2.781 0 1.532-1.25 2.782-2.781 2.782"/><path d="M274.237 75.001h-3.75v-2.031c-.28-.22-1.189-.563-1.97-.5-1.936.156-2.624 1.969-2.624 3.75 0 1.782.844 3.75 2.624 3.75 1.626 0 2.72-.531 3.281-1.469l2.751 2.719c-1.563 2.031-3.438 2.844-6.033 2.812-4.091-.062-7.06-3.812-7.06-7.812 0-3.999 2.813-7.688 7.06-7.813 2.784-.093 4.503 1.062 5.72 2.407v4.187"/><path d="M280.455 76.219c0-1.812.969-3.75 2.781-3.75 1.814 0 2.78 1.938 2.78 3.75 0 1.813-.966 3.75-2.78 3.75-1.813 0-2.781-1.938-2.781-3.75zm2.781-7.813c-4.156 0-7.22 3.782-7.22 7.813 0 4.032 3.064 7.812 7.22 7.812 4.157 0 7.219-3.781 7.219-7.812 0-4.031-3.061-7.813-7.219-7.813"/><path d="M300.58 72.594c-1.531 0-2.408 2.063-2.408 2.063v5h1.875v3.75h-8.125v-3.75h1.875v-4.438c0-2.062-.75-3.5-2.374-4.75l3.811-1.938c.594.438 1.595 1.844 1.595 1.844s2.063-2.031 4.063-2.031c2.467 0 3.813 1.469 4.063 1.75 0 0 1.906-1.75 3.75-1.75 2.624 0 5.093 1.813 5.093 4.469v6.843h1.875v3.75h-6.25v-8.406c0-2.219-.313-2.407-1.03-2.407-1.531 0-2.408 2.063-2.408 2.063v5h1.875v3.75h-6.25v-8.406c0-2.219-.313-2.407-1.03-2.407"/></g></svg>