<svg xmlns="http://www.w3.org/2000/svg" width="540.732" height="104.849"><g><path d="M304.931 28.899c0-1.359-.154-2.433-.176-3.091-.021-.658-.374-2.148-1.885-2.148-1.512 0-1.796 1.447-1.95 2.083-.154.635-.133.723-.656 1.512l-.502.773c-1.155-13.302-11.636-23.935-24.869-25.325-.051-.16-.094-.315-.107-.444-.044-.38-.603-2.259-3.666-2.259-2.24 0-3.351 1.111-3.55 2.89-4.388.69-8.436 2.403-11.895 4.885l-.06-.027c-.46-.307-1.644-1.118-3.047-1.118-1.403 0-2.763.811-3.791 1.863-1.522 1.554-2.57 4.173-.17 6.64-2.086 3.165-3.546 6.78-4.201 10.668-3.478.373-4.39 3.174-4.39 5.16 0 3.304 1.836 4.755 4.545 5.029 2.346 11.717 12.026 20.785 24.049 22.215l.019.337c0 1.287-.44 2.039-.44 2.7 0 .314.116.857.975.857.657 0 .83-.158 1.36-.158.911 0 1.485.314 2.735.314.489 0 2.649-.155 3.521-.207.37-.022.495-.581.119-.745-.159-.071-1.154-.244-1.615-.408-.458-.16-1.479-.906-2.098-1.226-.53-.271-1.134-.571-1.51-1.269l.268.002c5.082 0 9.848-1.357 13.953-3.731.188.876.046 1.065.341 1.89.484 1.362 1.575 1.694 2.828 1.25.681-.243 1.232-.642 1.667-.796.432-.154 1.171-.11 2.453-.564 1.281-.454 2.353-.973 2.947-1.255.537-.254 1.899-1.006 1.393-2.432-.54-1.526-1.805-1.272-2.542-1.201-1.315.127-.874.132-3.069-.242-.32-.054-.626-.187-.915-.432 4.36-4.072 7.415-9.523 8.469-15.659.216-.026.39-.041.512-.041 1.119 0 1.775.46 2.542.46 1.446 0 2.257-1.213 2.257-2.543 0-.723-.175-1.161-.175-1.621 0-.46.329-1.228.329-2.587zm-37.164-24.306c.362.857 1.016 1.572 1.016 2.965 0 1.834-2.265 3.589-2.265 6.619 0 1.226.109 2.319.276 3.294-2.52-1.841-2.354-2.497-7.751-3.181l-.263-.471s.536-.438.536-1.425c0-.85-.877-1.896-.877-1.896 0-.245.086-.912-1.107-1.789 3.079-2.07 6.619-3.504 10.435-4.116zm-17.729 5.082c1.889-2.035 3.606-1.346 5.085.027.714.662 1.156.396 1.484.7.223.207-.246.394.229.891.346.359 1.084.906.613 1.414-.41.441-2.083 1.129-2.342 1.235-.294.121-.434.455-.314.748.121.293.449.417.749.313 1.265-.44 1.409-.607 1.409-.607.626.777.484 1.378 1.695 1.636 2.454.523 4.005.065 6.107 2.133.708.695 1.676 1.285 2.605 1.69.566 1.893 1.21 3.189 1.21 4.141 0 .328-.011.623-.03.891-.626-.445-.978-.804-1.37-1.209-.176-.181-.359-.368-.571-.568-.231-.218-.586-.437-1.147-.775-.426-.258-1.011-.61-1.216-.815-.165-.166-.371-.398-.608-.666-1.042-1.176-2.467-2.787-4.031-2.787-1.083 0-1.715.347-1.817.402-.416.223-.573.741-.35 1.157.224.416.741.573 1.156.351.028-.015.367-.201 1.011-.201.794 0 2.018 1.384 2.75 2.211.256.29.477.539.681.742.35.351.956.717 1.541 1.069.315.192.748.452.858.556.186.174.347.34.519.516.502.517 1.021 1.051 2.096 1.744l.125.065c-.436 1.096-1.079 1.414-1.143 2.979l-.004-.023c-1.549-1.172-1.554-1.749-2.779-2.634-.605-.441-1.173-.5-2.74-1.337l-2.476-1.556c-5.612-4.124-3.229-5.333-5.415-8.066-1.063-1.329-2.004-.674-3.569-1.925-1.519-1.215-1.346-2.992 0-4.443zm-.079 6.516c.864.41 1.901.455 2.409 1.091 1.274 1.591-.044 4.055 5.415 8.066-2.269 0-3.409.869-6.313 2.805l-.487-.126c-.241-1.761-1.209-1.919-2.509-2.19-.263-.264-.657-.614-1.417-.614-.424 0-.484.086-.845.214.654-3.355 1.946-6.481 3.748-9.246zm-8.134 14.768c0-2.776 1.591-3.427 3.609-3.427.974 0 1.117-.498 1.564-.498.305 0 .086.457.775.498.497.029 1.41-.073 1.41.621 0 .602-.255.857-.255 1.11 0 .505.693.578 1.279.578 1.079 0 .586.175 1.205.175 1.801 0 2.672-2.659 6.569-2.937.568-.041 2.28-.176 2.28-.176 1.565.836 2.134.896 2.739 1.337 1.492 1.078 1.279 1.83 4.205 3.546.364 1.482 1.153 1.746 1.516 2.352-1.924-.006-3.205-.411-3.88-.411-1.49 0-4.662 1.768-9.381 1.768-4.111 0-4.554-2.382-6.795-2.382-2.118 0-1.744 1.067-4.063 1.067-1.77 0-2.776-1.113-2.776-3.222zm25.551 19.205c0 1.267.599 4.18.968 6.279-11.031-1.514-19.874-9.89-22.084-20.684.855-.32 1.526-.833 2.404-.833 1.306 0 2.884 2.382 6.795 2.382 4.719 0 7.891-1.769 9.381-1.769.681 0 1.981.413 3.935.412-.079.724-.158 1.654-.158 2.512 0 2.308.336 2.959.336 3.574 0 4.402-1.577 5.232-1.577 8.126zm3.776-42.958c.165-.216.406-.187.629-.015.263.206 1.626.975 2.458.975.792 0 .635-.533.694-.844.03-.157.158-.404.214-.771.02-.136-.06-.43.028-.542.154-.198.507-.038.475-.393-.028-.287-.331-.72-.504-1.159 12.605 1.537 22.448 12.021 22.984 24.908l-.212-.023c-1.141 0-1.324-.051-4.026-.445-4.036-.589-2.002.223-5.246-.686-1.563-.439-1.519-.561-2.236-.854-.716-.292-1.271-.131-1.621-.263-3.971-1.489-4.678-1.717-8.582-2.005.043-.705.068-1.544.068-2.597 0-1.585-.27-2.979-.412-4.127-.144-1.147-.159-2.047-.394-2.841-1.051-3.561-2.836-3.969-2.836-5.245 0-.559.177.142.351-1.625-.497-.19-1.316-.599-1.637-.848-.216-.168-.34-.402-.19-.6zm-1.101 28.771c-.291-.849-.172-2.011-.168-2.061.025-.241.241-.415.481-.39.241.025.416.242.39.482 0 .012-.102 1.02.125 1.684.34.99.796 1.916 1.063 2.154.268.24.779.371 1.089.378.034-.374-.263-1.395-.427-1.965-.343-1.173-.499-1.709-.114-1.996.084-.064.304-.184.614-.021-.271-.478-.616-.953-1.301-1.662-.34-.351-.451-.984-.409-2.334.024-.758.07-1.499.111-2.153.046-.758.087-1.413.087-1.943 0-1.246-.075-1.615-.152-2.006-.091-.455-.185-.925-.185-2.525 0-1.464-.084-2.13-.14-2.571-.028-.218-.05-.39-.05-.573 0-.68.069-1.172.135-1.647.066-.465.129-.905.129-1.524 0-1.478-.253-1.651-1.313-2.378l-.033-.022c-.199-.137-.25-.41-.113-.609.135-.2.41-.251.609-.114l.033.022c1.202.826 1.691 1.235 1.691 3.101 0 .681-.068 1.172-.135 1.647-.065.465-.126.905-.126 1.524 0 .128.016.268.041.462.059.463.147 1.162.147 2.682 0 1.514.086 1.941.168 2.354.084.415.17.845.17 2.178 0 .557-.041 1.225-.09 1.998-.039.648-.085 1.382-.107 2.126-.043 1.338.098 1.633.161 1.698 1.123 1.161 1.424 1.778 1.841 2.634l.294.592c.089.172.052.383-.086.518-.142.134-.355.159-.522.062l-.698-.41.182.648c.407 1.397.63 2.28.306 2.769-.115.173-.292.283-.5.307-.439.052-1.345-.1-1.894-.591-.605-.542-1.194-2.197-1.305-2.522zm1.889 20.711l-.649-.007c.065-2.789.644-4.741.644-6.611 0-3.014 1.6-5.469 1.6-6.024 0-1.18 1.097-3.773 1.73-6.06 1.315.993 2.446 1.542 4.144 2.262 1.725.731.146 1.373 1.93 6.195.905 2.452 3.214 4.243 4.048 6.541-3.933 2.353-8.531 3.706-13.446 3.706zm19.816-3.7c2.146.374 1.782.436 3.804.231.461-.048.464.193.141.339-5.112 2.341-4.135 1.462-5.61 1.907-.984.295-1.353.81-1.984.81-.779 0-.117-1.125-1.129-3.901-.843-2.307-3.151-4.11-4.063-6.575-1.558-4.216-.03-5.845-2.661-7.015-1.683-.749-3.276-1.58-4.609-2.582.034-.254.05-.496.05-.721 0-1.87-.175-5.114-.175-6.167l.004-.122c6.715 3.876 4.774 3.227 8.165 6.807.339.358 2.339 1.514 2.339 4.517 0 1.264 0 1.818.642 3.865.642 2.046 1.404 4.909 1.959 5.961.554 1.052 1.256 2.318 3.126 2.644zm-1.71-3.558c-.524-1.292-1.167-3.673-1.722-5.443-.645-2.046-.645-2.601-.645-3.865 0-2.433-1.665-4.318-2.542-5.151 1.857 0 3.501 1.469 6.247 1.469 1.201 0 4.138-.558 6.285-.928-1.054 5.423-3.783 10.249-7.622 13.918zm12.975-15.752c-.25.67-1.545-.175-3.045-.175-1.117 0-6.795 1.25-8.592 1.25-2.834 0-3.696-1.601-7.781-1.601-3.31-3.616-5.115-4.118-7.671-5.662l.116-.708c3.621.251 4.325.46 8.301 1.95.349.131.906-.029 1.621.262.715.292.671.454 2.235.892 3.244.909 1.211.098 5.246.686 2.704.395 2.888.446 4.026.446 1.756 0 2.686-.115 3.731-1.906 1.097-1.881 1.031-1.52 1.541-3.485.117-.45.343-.367.369-.015.412 5.608-.071 4.386-.168 5.924-.065 1.024.289 1.55.07 2.142"/><path d="M258.584 19.978l-.001.001-.003.002.004-.002"/><path d="M16.591 104.483h-11.793v-1.538h3.553v-20.474h-6.337v3.039h-2.014v-6.227h2.014v1.026h17.362v-1.026h2.015v6.227h-2.015v-3.039h-6.3v20.474h3.516v1.538"/><path d="M49.065 103.018h-8.203v-1.23h2.197v-7.704h-9.521v7.704h2.198v1.23h-8.203v-1.23h2.227v-16.874h-2.227v-1.23h8.203v1.23h-2.198v7.442h9.521v-7.442h-2.197v-1.23h8.203v1.23h-2.226v16.874h2.226v1.23"/><path d="M69.455 103.018h-13.944v-1.23h2.226v-16.874h-2.226v-1.23h12.069v-.821h1.583v4.659h-1.553v-2.109h-6.094v6.913h4.688v-1.992l1.582-.03v5.77l-1.582.029v-2.051h-4.688v7.236h6.357v-2.168h1.582v3.896"/><path d="M116.879 104.483h-10.878v-1.538h3.076v-15.823l-8.058 17.727-8.827-17.398v15.493h3.076v1.538h-8.46v-1.538h3.077v-21.096h-3.077v-1.539h6.483l8.681 17.032 7.655-17.032h7.252v1.539h-3.076v21.096h3.076v1.538"/><path d="M138.213 103.018h-13.945v-1.23h2.227v-16.874h-2.227v-1.23h12.07v-.821h1.581v4.659h-1.552v-2.109h-6.094v6.913h4.688v-1.992l1.583-.03v5.77l-1.583.029v-2.051h-4.688v7.236h6.357v-2.168h1.583v3.896"/><path d="M144.799 103.018v-1.23h2.226v-16.874h-2.226v-1.23h9.14c5.536 0 9.844 4.219 9.844 9.637 0 2.695-1.084 5.215-3.078 7.148-1.845 1.758-3.925 2.549-6.796 2.549h-9.11zm6.005-1.611h2.374c3.691 0 6.474-3.486 6.474-8.086 0-4.306-2.93-7.997-6.357-7.997h-2.49v16.082"/><path d="M182.034 103.018h-9.434v-1.23h2.842v-16.375h-5.069v2.431h-1.611v-4.981h1.611v.821h13.886v-.821h1.611v4.981h-1.611v-2.431h-5.039v16.375h2.813v1.23"/><path d="M209.011 103.018h-3.72c-1.729 0-2.021-.176-3.019-1.729l-4.393-6.885h-.791v7.383h2.197v1.23h-8.204v-1.23h2.228v-16.874h-2.228v-1.23h8.643c2.519 0 3.925.381 4.98 1.435.968.967 1.436 2.227 1.436 3.779 0 2.637-1.349 4.336-4.103 5.186l4.16 6.385c.674 1.025 1.026 1.289 1.611 1.289h1.201v1.26zm-11.922-10.078h1.729c2.02 0 3.397-1.61 3.397-3.925 0-2.344-1.201-3.691-3.28-3.691h-1.846v7.616"/><path d="M223.185 103.399c-5.39 0-9.668-4.453-9.668-10.049 0-5.594 4.277-10.019 9.668-10.019 5.391 0 9.697 4.424 9.697 10.019 0 5.596-4.306 10.049-9.697 10.049zm0-1.67c2.96 0 5.567-3.926 5.567-8.379 0-4.422-2.607-8.348-5.567-8.348-2.929 0-5.536 3.926-5.536 8.348 0 4.453 2.607 8.379 5.536 8.379"/><path d="M255.704 103.34h-2.051l-10.196-14.354v12.801h2.315v1.23h-6.62v-1.23h2.43v-15.379l-.936-1.495h-2.109v-1.23h5.829l9.492 13.504v-12.274h-2.315v-1.23h6.621v1.23h-2.46v18.427"/><path d="M272.221 103.018h-8.204v-1.23h2.228v-16.874h-2.228v-1.23h8.204v1.23h-2.197v16.874h2.197v1.23"/><path d="M295.154 102.168c-2.49.908-4.043 1.23-6.268 1.23-6.181 0-10.576-4.16-10.576-9.99 0-5.771 4.395-10.077 10.281-10.077 1.906 0 3.224.264 4.923.996v-1.23h1.613v5.244h-1.613v-1.875c-1.669-1.172-2.606-1.494-4.159-1.494-4.072 0-6.914 3.399-6.914 8.262 0 4.745 3.135 8.437 7.176 8.437 1.465 0 2.521-.322 3.896-1.172v-2.227h1.64v3.896"/><path d="M322.769 104.483h-9.961v-1.538h2.783v-21.096h-2.783v-1.539h15.09v-1.026h1.978v5.824h-1.941v-2.637h-7.619v8.643h5.86v-2.49l1.979-.037v7.217l-1.979.037v-2.565h-5.86v9.669h2.454v1.538"/><path d="M347.171 103.399c-5.39 0-9.669-4.453-9.669-10.049 0-5.594 4.279-10.019 9.669-10.019 5.39 0 9.697 4.424 9.697 10.019 0 5.596-4.308 10.049-9.697 10.049zm0-1.67c2.959 0 5.565-3.926 5.565-8.379 0-4.422-2.606-8.348-5.565-8.348-2.93 0-5.537 3.926-5.537 8.348 0 4.453 2.607 8.379 5.537 8.379"/><path d="M383.408 84.913h-2.46v11.015c0 3.311-1.143 5.391-3.634 6.563-1.288.586-2.724.908-4.246.908-4.746 0-7.821-2.607-7.821-6.65v-11.835h-2.229v-1.23h8.203v1.23h-2.196v10.927c0 2.959.527 4.307 2.021 5.098.704.352 1.554.557 2.433.557 3.515 0 5.566-2.08 5.566-5.654v-10.897h-2.433v-1.26h6.796v1.23"/><path d="M406.049 103.34h-2.051l-10.194-14.354v12.801h2.314v1.23h-6.621v-1.23h2.433v-15.379l-.938-1.495h-2.11v-1.23h5.83l9.492 13.504v-12.274h-2.315v-1.23h6.62v1.23h-2.46v18.427"/><path d="M414.483 103.018v-1.23h2.225v-16.874h-2.225v-1.23h9.14c5.536 0 9.842 4.219 9.842 9.637 0 2.695-1.084 5.215-3.076 7.148-1.846 1.758-3.926 2.549-6.798 2.549h-9.109zm6.004-1.611h2.375c3.69 0 6.473-3.486 6.473-8.086 0-4.306-2.93-7.997-6.357-7.997h-2.49v16.082"/><path d="M457.869 103.018h-7.147v-1.23h2.05l-1.816-4.746h-7.12l-1.904 4.746h2.344v1.23h-6.064v-1.23h1.817l7.556-18.719h1.788l7.265 18.719h1.231v1.23zm-7.588-7.764l-2.784-7.323-2.96 7.323h5.744"/><path d="M472.864 103.018h-9.434v-1.23h2.841v-16.375h-5.067v2.431h-1.613v-4.981h1.613v.821h13.886v-.821h1.611v4.981h-1.611v-2.431h-5.039v16.375h2.813v1.23"/><path d="M489.998 103.018h-8.203v-1.23h2.226v-16.874h-2.226v-1.23h8.203v1.23h-2.197v16.874h2.197v1.23"/><path d="M505.754 103.399c-5.39 0-9.668-4.453-9.668-10.049 0-5.594 4.277-10.019 9.668-10.019 5.391 0 9.697 4.424 9.697 10.019 0 5.596-4.306 10.049-9.697 10.049zm0-1.67c2.959 0 5.566-3.926 5.566-8.379 0-4.422-2.607-8.348-5.566-8.348-2.93 0-5.537 3.926-5.537 8.348 0 4.453 2.607 8.379 5.537 8.379"/><path d="M538.271 103.34h-2.051l-10.195-14.354v12.801h2.314v1.23h-6.62v-1.23h2.431v-15.379l-.938-1.495h-2.11v-1.23h5.83l9.492 13.504v-12.274h-2.314v-1.23h6.621v1.23h-2.461v18.427"/></g></svg>