<svg xmlns="http://www.w3.org/2000/svg" width="1013.652" height="210.944"><g><path d="M213.497 114.115c-.848 2.272-5.235-.602-10.321-.602-3.786 0-23.023 4.239-29.11 4.239-9.604 0-12.526-5.426-26.371-5.426-11.211-12.258-17.334-13.951-25.992-19.189l.396-2.388c12.27.842 14.651 1.551 28.125 6.607 1.186.446 3.067-.1 5.494.891 2.43.986 2.28 1.526 7.577 3.016 10.991 3.085 4.098.33 17.774 2.329 9.159 1.337 9.783 1.512 13.64 1.512 5.959 0 9.109-.39 12.645-6.464 3.723-6.372 3.495-5.146 5.225-11.813.395-1.524 1.159-1.241 1.245-.039 1.406 18.992-.236 14.848-.563 20.064-.223 3.462.974 5.251.236 7.263zm-43.968 53.37c-1.775-4.38-3.955-12.451-5.84-18.444-2.183-6.931-2.183-8.81-2.183-13.099 0-8.241-5.64-14.619-8.607-17.448 6.289 0 11.861 4.974 21.166 4.974 4.065 0 14.014-1.897 21.291-3.144-3.572 18.375-12.816 34.73-25.828 47.161zm5.799 12.056c7.264 1.263 6.037 1.485 12.884.782 1.567-.163 1.571.648.481 1.147-17.321 7.931-14.012 4.968-19.015 6.466-3.33 1.007-4.576 2.747-6.723 2.747-2.638 0-.391-3.815-3.819-13.222-2.853-7.814-10.678-13.916-13.768-22.279-5.277-14.28-.098-19.801-9.009-23.762-5.709-2.539-11.114-5.359-15.626-8.74.114-.878.177-1.695.177-2.451 0-6.335-.595-17.332-.595-20.888l.008-.417c22.756 13.126 16.178 10.933 27.669 23.06 1.145 1.214 7.92 5.123 7.92 15.308 0 4.28 0 6.156 2.181 13.095 2.176 6.922 4.756 16.637 6.633 20.198 1.881 3.562 4.258 7.862 10.6 8.957zm-67.146 12.54c-.74 0-1.469 0-2.205-.028.229-9.449 2.188-16.062 2.188-22.399 0-10.211 5.419-18.525 5.419-20.41 0-3.994 3.719-12.787 5.856-20.529 4.465 3.354 8.296 5.217 14.046 7.654 5.845 2.484.495 4.656 6.534 20.995 3.072 8.309 10.898 14.369 13.72 22.151-13.319 7.977-28.906 12.566-45.559 12.566zm-6.403-70.177c-.986-2.869-.583-6.822-.566-6.985.087-.817.815-1.404 1.634-1.316.813.08 1.404.815 1.32 1.628-.004.032-.348 3.46.422 5.708 1.149 3.354 2.696 6.493 3.597 7.303.913.81 2.645 1.262 3.688 1.276.123-1.268-.888-4.726-1.444-6.662-1.159-3.967-1.685-5.792-.387-6.757.283-.224 1.033-.619 2.079-.071-.919-1.62-2.083-3.234-4.408-5.637-1.149-1.182-1.524-3.336-1.382-7.911.078-2.565.237-5.076.371-7.295.159-2.565.297-4.793.297-6.582 0-4.217-.248-5.48-.513-6.8-.308-1.54-.626-3.134-.626-8.555 0-4.957-.287-7.214-.477-8.705-.094-.748-.168-1.326-.168-1.944 0-2.314.237-3.975.461-5.589.222-1.573.428-3.064.428-5.155 0-5.009-.854-5.601-4.445-8.066l-.107-.072c-.676-.459-.848-1.386-.385-2.066.467-.669 1.392-.85 2.06-.385l.114.081c4.08 2.794 5.732 4.178 5.732 10.509 0 2.292-.234 3.97-.459 5.57-.222 1.583-.43 3.074-.43 5.174 0 .425.061.906.139 1.566.205 1.565.505 3.935.505 9.082 0 5.124.289 6.569.566 7.979.285 1.406.575 2.856.575 7.376 0 1.892-.143 4.153-.304 6.778-.136 2.187-.289 4.671-.371 7.188-.138 4.544.337 5.535.553 5.763 3.804 3.928 4.827 6.019 6.237 8.929.308.622.624 1.278.997 1.998.304.583.184 1.31-.293 1.749-.479.46-1.2.546-1.768.21-.069-.026-1.16-.662-2.364-1.384.194.721.424 1.52.62 2.201 1.382 4.724 2.134 7.721 1.04 9.372-.391.603-.99.968-1.697 1.056-1.488.167-4.555-.347-6.413-2.005-2.048-1.844-4.049-7.444-4.426-8.551zm3.731-97.493c.559-.726 1.376-.626 2.13-.037.89.689 5.514 3.305 8.322 3.305 2.689 0 2.158-1.814 2.36-2.875.102-.52.532-1.361.719-2.603.071-.463-.202-1.459.1-1.833.518-.674 1.72-.134 1.604-1.336-.09-.976-1.121-2.44-1.704-3.934 42.706 5.211 76.057 40.73 77.876 84.404-.234.043-.474-.082-.725-.082-3.86 0-4.475-.167-13.636-1.504-13.674-1.991-6.786.756-17.774-2.329-5.3-1.492-5.152-1.901-7.577-2.887-2.426-.999-4.305-.451-5.495-.891-13.46-5.05-15.85-5.827-29.08-6.79.141-2.394.226-5.239.226-8.807 0-5.371-.919-10.098-1.4-13.991-.485-3.886-.538-6.939-1.335-9.631-3.558-12.061-9.61-13.443-9.61-17.762 0-1.889.603.485 1.188-5.5-1.679-.644-4.453-2.039-5.545-2.877-.734-.565-1.152-1.361-.644-2.039zm-12.795 145.567c0 4.293 2.03 14.165 3.275 21.274-37.373-5.131-67.337-33.511-74.822-70.084 2.893-1.08 5.17-2.822 8.147-2.822 4.42 0 9.771 8.071 23.023 8.071 15.987 0 26.738-5.985 31.783-5.985 2.307 0 6.712 1.396 13.332 1.396-.269 2.449-.532 5.602-.532 8.51 0 7.825 1.137 10.018 1.137 12.108 0 14.916-5.343 17.731-5.343 27.531zm-86.574-65.075c0-9.41 5.384-11.603 12.229-11.603 3.295 0 3.784-1.693 5.296-1.693 1.033 0 .295 1.547 2.624 1.693 1.683.088 4.778-.248 4.778 2.101 0 2.038-.87 2.902-.87 3.758 0 1.708 2.358 1.958 4.336 1.958 3.658 0 1.987.587 4.082.587 6.105 0 9.056-9.002 22.259-9.936 1.926-.147 7.723-.605 7.723-.605 5.311 2.835 7.238 3.038 9.284 4.53 5.06 3.649 4.334 6.201 14.248 12.023 1.231 5.023 3.906 5.917 5.133 7.966-6.513-.026-10.859-1.395-13.144-1.395-5.045 0-15.796 5.985-31.783 5.985-13.934 0-15.434-8.063-23.023-8.063-7.181 0-5.916 3.609-13.767 3.609-6.003 0-9.408-3.766-9.408-10.913zm27.556-50.038c2.93 1.39 6.445 1.54 8.168 3.692 4.312 5.397-.147 13.735 18.346 27.33-7.691 0-11.55 2.948-21.389 9.513l-1.659-.426c-.811-5.973-4.092-6.507-8.498-7.424-.889-.892-2.228-2.081-4.801-2.081-1.437 0-1.638.3-2.863.73 2.211-11.379 6.596-21.965 12.695-31.335zm.271-22.078c6.396-6.89 12.214-4.561 17.228.087 2.417 2.248 3.918 1.345 5.031 2.373.754.7-.838 1.333.772 3.014 1.172 1.229 3.676 3.07 2.073 4.801-1.384 1.482-7.057 3.825-7.937 4.178-.991.409-1.465 1.55-1.06 2.542.41.986 1.526 1.413 2.535 1.054 4.286-1.491 4.774-2.059 4.774-2.059 2.13 2.638 1.641 4.678 5.745 5.554 8.308 1.762 13.566.217 20.696 7.228 2.397 2.35 5.678 4.349 8.826 5.725 1.92 6.419 4.096 10.804 4.096 14.026 0 1.116-.032 2.112-.102 3.03-2.123-1.512-3.305-2.735-4.644-4.107-.597-.613-1.212-1.24-1.93-1.921-.782-.744-1.988-1.474-3.888-2.624-1.449-.879-3.43-2.066-4.121-2.761-.562-.569-1.257-1.35-2.063-2.249-3.529-3.987-8.365-9.449-13.661-9.449-3.668 0-5.804 1.167-6.154 1.357-1.412.762-1.944 2.502-1.186 3.92.754 1.416 2.508 1.945 3.918 1.195.088-.061 1.239-.681 3.421-.681 2.69 0 6.845 4.685 9.325 7.487.868.975 1.612 1.825 2.296 2.514 1.194 1.196 3.246 2.431 5.229 3.631 1.07.636 2.537 1.528 2.908 1.877.632.593 1.176 1.147 1.755 1.746 1.704 1.749 3.464 3.56 7.108 5.899.136.096.275.163.417.231-1.471 3.713-3.65 4.793-3.872 10.089l-.006-.067c-5.249-3.984-5.266-5.926-9.418-8.93-2.048-1.497-3.972-1.701-9.287-4.534l-8.387-5.269c-19.018-13.98-10.941-18.07-18.346-27.328-3.603-4.51-6.794-2.296-12.092-6.527-5.144-4.117-4.566-10.131 0-15.053zm60.072-17.215c1.227 2.901 3.442 5.317 3.442 10.034 0 6.224-7.675 12.17-7.675 22.427 0 4.16.371 7.857.932 11.166-8.539-6.239-7.972-8.465-26.261-10.781l-.889-1.597s1.819-1.481 1.819-4.813c0-2.89-2.969-6.44-2.969-6.44 0-.823.283-3.085-3.76-6.063 10.43-7.011 22.428-11.869 35.36-13.934zm125.921 82.353c0-4.606-.519-8.249-.593-10.476-.074-2.228-1.264-7.267-6.383-7.267-5.128 0-6.095 4.891-6.612 7.053-.522 2.143-.45 2.441-2.23 5.113-.517.77-1.074 1.702-1.698 2.627-3.909-45.079-39.422-81.11-84.27-85.814-.171-.542-.313-1.067-.361-1.506-.146-1.29-2.042-7.654-12.424-7.654-7.585 0-11.351 3.768-12.029 9.794-14.866 2.335-28.584 8.148-40.306 16.549l-.2-.087c-1.559-1.048-5.573-3.794-10.321-3.794-4.758 0-9.362 2.746-12.851 6.316-5.158 5.266-8.703 14.135-.577 22.495-7.069 10.725-12.012 22.981-14.234 36.14-11.783 1.272-14.873 10.76-14.873 17.488 0 11.196 6.223 16.111 15.394 17.043 7.956 39.704 40.749 70.432 81.49 75.278.041.446.061.817.061 1.135 0 4.361-1.486 6.912-1.486 9.147 0 1.072.387 2.906 3.301 2.906 2.229 0 2.813-.53 4.606-.53 3.087 0 5.037 1.064 9.272 1.064 1.651 0 8.972-.534 11.93-.703 1.255-.082 1.675-1.975.401-2.523-.532-.245-3.906-.832-5.472-1.384-1.55-.546-5.008-3.07-7.107-4.153-1.792-.915-3.841-1.942-5.117-4.298h.909c17.221 0 33.366-4.595 47.277-12.64.631 2.975.156 3.603 1.153 6.405 1.639 4.623 5.329 5.736 9.58 4.239 2.306-.824 4.178-2.174 5.647-2.7 1.472-.52 3.973-.365 8.314-1.91 4.34-1.532 7.971-3.301 9.985-4.253 1.824-.864 6.438-3.407 4.723-8.241-1.839-5.176-6.116-4.312-8.617-4.069-4.452.432-2.956.452-10.398-.811-1.083-.193-2.123-.64-3.094-1.463 14.774-13.808 25.12-32.281 28.685-53.068.736-.088 1.331-.127 1.739-.127 3.79 0 6.016 1.549 8.621 1.549 4.895 0 7.645-4.108 7.645-8.618 0-2.443-.591-3.935-.591-5.492 0-1.56 1.11-4.157 1.11-8.76" fill="#a09d9e"/><path d="M249.746 142.341l-1.174 7.596h35.526l1.074-7.596-35.426-.001zm55.484 0l2.005 7.596h27.954l2.005-7.596-31.964-.001zm52.014 0l1.073 7.596h35.526l-1.171-7.596h-35.428zm44.194 0c7.396 6.107 18.024 9.712 32.416 9.712 25.631 0 36.752-7.502 36.752-7.502v-2.21h-69.169zm82.299 0c6.192 6.686 14.355 9.652 22.093 9.652 10.051 0 16.323-4.724 20.131-9.649l-42.224-.003zm53.4 0c5.025 5.268 13.14 10 23.672 10 19.712 0 33.634-8.597 33.634-8.597s5.614 8.058 21.346 8.058c12.06 0 22.965-3.943 22.965-3.943v-5.518h-101.618zm108.647 0v7.857h32.441v-7.857h-32.441zm71.46 0c8.675 6.688 20.571 9.786 33.074 9.786 12.5 0 24.391-3.097 33.064-9.784l-66.138-.002zm85.543 0v7.857h32.455v-7.858l-32.455.001zm54.295 0c4.633 4.662 11.216 7.857 18.654 7.857h56.299v-7.857h-74.953zm94.479 0c7.633 5.632 19.044 9.461 35.951 9.461 18.444 0 26.141-3.89 26.141-3.89v-5.571h-62.093" fill="#1162a5" fill-rule="evenodd"/><path d="M251.292 132.341l-1.546 9.999 35.426.001 1.413-10h-35.292zm51.299 0l2.639 10.001 31.964-.001 2.639-10h-37.241zm53.241 0l1.411 10.001 35.428-.001-1.542-10h-35.296zm37.349 0c2.092 3.8 4.827 7.169 8.256 10.002l69.169-.002v-10h-24.124c-1.313.067-2.675.106-4.091.106-1.306 0-2.535-.033-3.691-.098l-45.519-.008zm84.166 0c1.701 3.979 3.884 7.293 6.389 9.998l42.224.002c3.11-4.021 4.576-8.18 5.115-10.009l-53.727.009zm54.059 0c.399 2.744 2.375 6.493 5.73 10.005l101.618-.005v-10h-107.347zm114.377 0v9.999l32.441.001v-10h-32.441zm62.633 0c2.29 3.953 5.291 7.275 8.828 10h66.138c3.536-2.724 6.537-6.046 8.828-9.999l-83.793-.001zm94.37 0v9.999l32.455.001v-9.999l-32.455-.001zm48.164 0c1.104 3.62 3.236 7.098 6.131 10.006l74.953-.006v-10.001l-81.084.001zm91.505 0c2.167 3.638 5.121 7.066 9.105 10.003l62.093-.003v-10h-71.198" fill="#1162a5" fill-rule="evenodd"/><path d="M286.585 132.341l5.581-39.498 10.425 39.498h37.241l10.422-39.498 5.577 39.498h35.296l-1.214-7.861c.831 2.78 1.915 5.411 3.266 7.864l45.519-.003c-15.283-.841-17.794-7.114-17.794-13.744h52.96c.59 5.258 1.801 9.825 3.481 13.749l53.727-.005c.18-.618.256-.969.256-.969 0 .308.025.635.075.977l107.347-.008v-4.189s-3.135.539-6.049.539c-5.516 0-11.261-2.622-11.261-10.68v-24.916h17.31v-20.794h-17.18v-30.203h-34.811v30.108h-13.471v20.889h13.471v26.064c0 4.45-3.164 10.913-11.236 10.913-5.946 0-10.56-4.436-10.56-10.913v-76.935h-34.399v40.566s-7.643-12.911-24.554-12.911c-6.188 0-28.777 3.81-32.135 33.495.044.216.06.42.069.607-.069-.237-.092-.438-.069-.607-4.053-21.07-17.41-33.32-41.521-33.32-30.789 0-44.609 21.475-44.609 38.06 0 .901.02 1.805.052 2.698l-9.459-61.352h-44.259l-12.88 49.066-12.918-49.066h-44.185l-12.809 82.88h35.292zm184.021 0v-6.612s-8.216 5.733-24.124 6.607l24.124.005zm207.619 0v-13.075c0-3.094 7.022-19.087 22.758-19.087.869 0 2.089.204 3.311.453-.539 2.663-.828 5.487-.828 8.509v3.255c0 7.896 1.804 14.516 4.95 19.947l83.793-.002c3.146-5.43 4.947-12.049 4.947-19.945v-3.255c0-26.712-22.24-39.086-46.839-39.086-16.995 0-32.865 5.911-41.059 18.374v-15.681s-1.696-.541-5.555-.541c-12.78 0-21.409 11.524-25.479 19.908v-19.813h-32.441v60.039l32.441.001zm157.016 0v-26.252c0-5.393 1.009-11.289 7.152-11.289 6.154 0 7.706 5.917 7.706 11.289v20.714c0 1.845.295 3.708.85 5.533l81.084.005v-59.999h-34.042v55.136h-8.408c-2.311 0-5.226-1.881-5.226-5.656v-26.894c0-15.317-13.499-24.657-25.198-24.657-9.575 0-17.867 5.07-23.919 17.577v-15.547h-32.455v60.039l32.455.001zm178.411 0v-7.824s-6.609 4.256-16.241 4.256c-9.634 0-19.672-4.118-19.672-18.379 0-14.253 11.797-18.21 18.72-18.21 6.919 0 17.194 3.892 17.194 3.892v-22.115s-8.506-3.689-26.689-3.689c-43.157 0-50.05 23.988-50.05 40.122 0 6.579 1.19 14.674 5.541 21.956l71.198-.009zm-115.661-68.131v-22.055h34.042v22.055h-34.042zm-381.975 64.015c-4.921 0-11.193-1.922-11.193-18.061 0-16.125 6.271-18.05 11.193-18.05 4.906 0 11.186 1.925 11.186 18.05 0 16.138-6.28 18.061-11.186 18.061zm-95.11-22.675c1.22-11.9 7.237-15.2 12.11-15.2 4.87 0 10.887 3.299 12.107 15.2h-24.218zm328.865 22.675c-4.912 0-11.184-1.922-11.184-18.061 0-16.125 6.271-18.05 11.184-18.05 4.914 0 11.186 1.925 11.186 18.05 0 16.138-6.272 18.061-11.186 18.061" fill="#1162a5" fill-rule="evenodd"/></g></svg>