<svg xmlns="http://www.w3.org/2000/svg" width="89.959" height="89.959"><g><path d="M0 89.959h89.959v-89.959h-89.959v89.959z" fill="#231f20"/><path d="M27.424 30.343c-1.063 0-1.416.408-1.852 1.578l-3.674 9.825h-2.313l-2.939-7.13-2.803 7.13h-2.395l-3.837-9.662c-.435-1.116-1.089-1.742-2.041-1.742h-.3v-1.442h6.532v1.442h-.626c-.735 0-1.061.191-1.034.599 0 .082-.027.218.054.408 0 0 1.492 3.524 2.677 7.002l.181.019 2.558-6.422c-.108-1.062-.463-1.606-1.578-1.606h-.871v-1.442h6.886v1.442h-1.089c-.653 0-.899.136-.899.517 0 .164.028.354.109.544 0 0 1.547 3.733 2.676 6.986l.155.009 2.477-6.505c.164-.435.164-.762.164-.979 0-.408-.354-.572-1.089-.572h-.898v-1.442h6.26v1.442h-.489zm-.554 11.403v-1.442l.762-.028c1.115 0 1.742-.108 1.742-1.17v-7.593c0-1.062-.626-1.17-1.742-1.17h-.762v-1.442h13.88v4.981h-1.47c-.082-2.994-.789-3.457-3.402-3.457h-3.592v3.81h.925c1.633 0 1.851-.544 1.986-2.476h1.47v6.505h-1.497c-.109-2.205-.326-2.505-1.932-2.505h-.953v4.463h4.137c2.341 0 2.904-1.098 3.103-3.65h1.47v5.174h-14.124zm15.257 0v-1.442h.735c1.116 0 1.606-.109 1.606-1.198l-.028-7.566c0-1.089-.653-1.197-1.742-1.197h-.681v-1.442h7.757v1.442l-.926.027c-1.252 0-1.469.108-1.469 1.17v8.682h3.129c1.524 0 2.422-.19 2.831-.953.381-.68.544-1.451.544-2.703h1.497v5.18h-13.254zm14.384 0v-1.442h.195c1.117 0 1.605-.109 1.605-1.198l-.027-7.566c0-1.089-.516-1.197-1.605-1.197h-.817v-1.442h7.756v1.442l-.925.027c-1.252 0-1.47.108-1.47 1.17v8.682h3.13c1.524 0 2.422-.19 2.831-.953.381-.68.545-1.451.545-2.703h1.497v5.18h-12.715" fill="#fff"/><path d="M82.385 37.991c0 2.939-2.314 4-5.742 4-2.069 0-4.057-1.17-4.491-1.579l-.436 1.344h-1.306v-5.175h1.497c.409 2.471 2.06 3.537 4.425 3.643 2.024.09 3.469-.449 3.629-1.853.186-1.623-1.604-1.524-3.1-1.795l-2.205-.409c-3.293-.571-4.356-1.524-4.436-3.674-.082-2.34 2.041-3.865 4.898-3.892 1.388 0 3.184.218 4.572 1.334l.653-1.062h1.144v4.486h-1.443c-.317-2.491-2.776-3.251-4.872-3.196-1.524.055-2.53.925-2.53 1.96 0 .965.955 1.091 2.167 1.304l2.694.462c2.749.463 4.882 1.025 4.882 4.074v.027" fill="#fff"/><path d="M20.752 53.128c0-.989-.163-1.86-.517-2.567-.435-.762-1.333-.871-2.858-.871h-3.212v3.837h1.007c1.633 0 1.878-.299 1.878-2.286h1.194v6.423l-1.222-.028c-.026-2.148-.245-2.586-1.85-2.586h-1.007v3.349c0 1.062.164 1.171 1.279 1.171h1.497v1.442h-7.92v-1.442l.735-.027c1.116 0 1.497-.11 1.497-1.17v-7.594c0-1.062-.381-1.171-1.497-1.171h-.735v-1.442h13.2v4.962h-1.47" fill="#fff"/><path d="M27.653 50.481l-1.932 4.927h3.892l-1.96-4.927zm.709 10.532v-1.442h1.388c.734 0 1.088-.084 1.088-.517 0-.164-.082-.381-.19-.626l-.544-1.497h-5.008l-.653 1.607c-.108.244-.163.435-.163.598 0 .409.354.436 1.034.436h1.333v1.442h-6.695v-1.442h.586c1.007 0 1.306-.354 1.687-1.253l4.3-10.151h3.15l4.109 10.151c.381.981.797 1.253 1.524 1.253h.62v1.442h-7.566" fill="#fff"/><path d="M45.904 51.568c0-1.497-.871-1.932-2.695-1.932h-2.749v3.892l2.803-.027c1.796 0 2.641-.572 2.641-1.905v-.027zm4.545 6.451c0 2.34-1.089 3.265-2.64 3.265-1.769 0-2.912-.489-2.994-2.259l-.054-1.496c-.082-2.151-.763-2.586-2.994-2.586h-1.307v3.457c0 1.062.163 1.171 1.279 1.171h1.171v1.442h-7.838v-1.442l1.139-.003c.734.005 1.337-.261 1.337-1.195v-7.594c0-1.062-.163-1.171-1.279-1.171h-1.062v-1.442h8.845c3.293 0 4.817.98 4.817 3.048 0 1.851-1.442 2.994-3.892 3.321 2.286.544 2.586 1.361 2.722 3.102.027.164 0 .518 0 .789.055.763.354 1.117.734 1.089.789-.053.844-.626.789-2.149h1.225c.027.217.027.435.027.653h-.027" fill="#fff"/><path d="M61.895 52.282c-.618-1.928-1.909-2.824-4.031-2.824-2.096 0-3.755 1.715-3.728 4.981 0 3.32 1.333 5.116 3.728 5.143 1.742 0 3.293-.87 3.293-2.34v-.707c0-.872-.218-.872-1.443-.872h-.642v-1.47h5.969v1.47h-.491c-.925 0-1.06-.082-1.06 1.007v4.301h-1.054l-.68-1.062c-1.172.925-2.859 1.361-4.355 1.361-1.769 0-3.266-.626-4.463-1.824-1.253-1.278-1.986-2.994-1.96-5.007 0-1.987.653-3.566 1.931-4.845 1.117-1.089 2.804-1.714 4.546-1.688 1.441 0 3.129.381 4.082 1.388l.653-1.333h1.027v4.309l-1.323.012" fill="#fff"/><path d="M77.967 54.588c0-3.37-1.848-5.136-4.375-5.136-2.501 0-4.402 1.766-4.402 5.136 0 3.369 1.901 5.164 4.402 5.164 2.5 0 4.348-1.795 4.348-5.164h.027zm-4.32 6.659c-4.268 0-7.583-2.665-7.583-6.713 0-4.022 3.315-6.658 7.555-6.658 4.268 0 7.5 2.636 7.5 6.686 0 4.021-3.232 6.686-7.472 6.686" fill="#fff"/></g></svg>